<?xml version="1.0" standalone="no"?>
<!DOCTYPE svg PUBLIC "-//W3C//DTD SVG 20010904//EN"
 "http://www.w3.org/TR/2001/REC-SVG-20010904/DTD/svg10.dtd">
<svg version="1.0" xmlns="http://www.w3.org/2000/svg"
 width="225.000000pt" height="225.000000pt" viewBox="0 0 225.000000 225.000000"
 preserveAspectRatio="xMidYMid meet">

<g transform="translate(0.000000,225.000000) scale(0.100000,-0.100000)"
fill="#000000" stroke="none">
<path d="M690 1457 c-35 -16 -75 -22 -185 -28 -77 -3 -148 -10 -157 -14 -36
-15 -19 -33 38 -40 44 -5 54 -10 50 -22 -3 -8 -6 -19 -6 -25 0 -6 -24 -9 -64
-6 -59 4 -63 3 -58 -17 6 -28 31 -45 64 -45 34 0 35 -7 4 -96 -30 -89 -68
-164 -96 -189 -33 -30 -106 -28 -132 5 -11 14 -18 34 -15 47 2 12 0 20 -4 17
-12 -7 -11 -51 1 -75 17 -30 68 -52 110 -46 80 10 125 65 194 233 l44 109 61
3 c85 4 82 19 -6 37 -28 6 -31 9 -23 24 5 10 6 21 3 25 -3 3 25 6 64 6 92 0
171 23 183 54 10 28 2 66 -14 65 -6 0 -31 -10 -56 -22z"/>
<path d="M783 1297 c-28 -72 -54 -146 -57 -163 -9 -40 -57 -97 -100 -118 -72
-34 -136 -9 -136 54 0 29 2 31 33 25 39 -8 113 19 127 46 6 10 10 33 10 52 0
90 -118 91 -179 2 -58 -85 -42 -200 32 -224 19 -7 40 -10 48 -7 8 2 26 7 42
10 15 4 45 23 67 42 l40 36 0 -25 c0 -52 60 -75 109 -41 13 9 32 35 42 58 l19
41 0 -35 c0 -97 95 -108 149 -18 l18 29 13 -31 c15 -36 56 -60 102 -60 38 0
101 39 119 72 12 22 13 21 26 -17 15 -44 27 -55 63 -55 35 0 66 24 90 68 l19
37 1 -33 c0 -53 16 -72 57 -72 28 0 43 7 67 33 l30 33 16 -30 c17 -35 60 -47
87 -24 14 11 15 11 11 -2 -3 -10 -23 -17 -57 -20 -40 -4 -58 -12 -72 -29 -23
-28 -24 -40 -3 -69 25 -37 117 -21 142 24 8 14 16 15 64 4 84 -19 137 4 138
61 0 4 -16 3 -34 -1 -49 -11 -126 -1 -126 16 0 10 11 12 45 7 39 -5 49 -2 70
17 l25 23 26 -24 c51 -47 148 -24 182 44 10 21 10 39 -3 99 -8 40 -15 85 -15
99 0 25 -27 59 -46 59 -5 0 -29 -38 -53 -85 -44 -87 -60 -111 -118 -172 -33
-35 -57 -42 -66 -19 -8 20 4 59 44 139 l33 67 -26 27 -27 27 -29 -65 c-16 -35
-37 -85 -46 -111 -24 -64 -52 -98 -83 -98 -24 0 -25 2 -20 42 3 23 22 74 41
112 20 39 36 78 36 87 0 15 -29 49 -42 49 -7 0 -78 -156 -78 -172 -1 -22 -54
-92 -83 -108 -42 -24 -53 -4 -33 64 21 71 83 208 99 218 7 4 64 8 127 8 106 0
149 -5 208 -24 18 -6 22 -4 22 16 0 41 -26 66 -77 73 -47 6 -214 -8 -248 -22
-14 -5 -16 -2 -10 16 7 23 -6 45 -36 61 -15 8 -20 2 -34 -41 l-17 -51 -42 6
-41 6 23 -19 c12 -11 26 -21 31 -23 11 -4 -50 -188 -70 -213 -75 -94 -116
-109 -112 -43 1 21 16 64 33 97 36 72 37 85 8 105 -27 19 -28 18 -65 -79 -29
-76 -68 -126 -119 -150 -48 -22 -79 -19 -103 11 -27 34 -26 59 2 109 44 77
115 88 84 12 -18 -41 -14 -47 25 -47 40 0 62 50 47 104 -29 106 -176 52 -214
-79 -18 -62 -70 -125 -104 -125 -32 0 -27 52 14 138 35 75 36 95 4 113 -17 9
-23 4 -44 -45 -13 -30 -28 -68 -31 -83 -8 -32 -94 -123 -117 -123 -8 0 -17 6
-20 13 -9 24 24 123 80 240 60 124 61 134 17 164 -19 12 -23 7 -71 -120z
m-188 -117 c10 -16 -42 -60 -70 -60 -28 0 -27 8 8 48 21 23 51 29 62 12z
m1488 -43 c23 -73 21 -92 -9 -116 -34 -27 -57 -26 -90 2 -31 27 -27 41 19 61
28 13 29 14 9 15 -23 1 -23 1 8 46 17 25 34 45 39 45 4 0 15 -24 24 -53z
m-380 -216 c17 -6 17 -8 -3 -34 -23 -29 -51 -35 -68 -14 -12 14 3 40 28 50 19
7 21 7 43 -2z"/>
</g>
</svg>
