<svg width="81" height="28" viewBox="0 0 81 28" fill="none" xmlns="http://www.w3.org/2000/svg">
<path d="M38.1798 21.1759H40.7569V9.92051H38.1798V21.1759ZM47.607 14.524C46.2854 14.1055 45.074 13.7531 45.074 12.9381V12.8941C45.074 12.2333 45.6467 11.7707 46.6599 11.7707C47.1445 11.7707 47.6951 11.8808 48.2678 12.0791C48.2678 12.0791 48.2678 12.0791 48.2898 12.0791C48.3339 12.1011 48.3779 12.1231 48.444 12.1452C48.8625 12.2773 49.9418 12.4535 50.8889 10.9998C49.6995 10.2069 48.1577 9.72227 46.748 9.72227C44.5013 9.72227 42.7392 11.0218 42.7392 13.1584V13.2024C42.7392 15.361 44.5894 16.0438 46.2634 16.5064C47.585 16.9028 48.7744 17.2112 48.7744 18.0922V18.1363C48.7744 18.8852 48.1356 19.3477 47.0343 19.3477C46.3075 19.3477 45.4925 19.1495 44.6775 18.7751C44.4352 18.687 43.2458 18.2685 42.2106 19.7222C43.6203 20.8235 45.3603 21.3962 46.9683 21.3962C49.303 21.3962 51.1532 20.2288 51.1532 17.85V17.8059C51.1092 15.7795 49.259 15.0306 47.607 14.524ZM31.1534 18.2024L28.1358 9.92051H25.3605L29.986 21.264H32.2988L36.9023 9.92051H34.193L31.1534 18.2024ZM63.0915 9.67822C59.6333 9.67822 57.0783 12.3434 57.0783 15.5813C57.0783 18.7971 59.6113 21.4182 63.0474 21.4182C66.5276 21.4182 69.0826 18.753 69.0826 15.5372C69.0826 12.2993 66.5276 9.67822 63.0915 9.67822ZM63.0915 19.1936C61.0871 19.1936 59.6554 17.5416 59.6554 15.5372C59.6554 13.5548 60.977 11.9249 63.0474 11.9249C65.0738 11.9249 66.5055 13.5769 66.5055 15.5813C66.4835 17.5856 65.1619 19.1936 63.0915 19.1936ZM76.7257 9.67822C74.9856 9.67822 73.9284 10.6033 73.2015 11.6606V9.92051L70.6244 9.92051V21.1759H73.2015V14.8324C73.2015 13.0923 74.2367 12.035 75.7345 12.035C77.2764 12.035 78.1354 13.0262 78.1354 14.7883V21.1759H80.7125V14.0174C80.7345 11.3963 79.2587 9.67822 76.7257 9.67822ZM52.8052 21.1759H55.3823V9.92051H52.8052V21.1759Z" fill="black"/>
<path fill-rule="evenodd" clip-rule="evenodd" d="M2.78337 0.250977L24.8537 0.250977C26.1973 0.250977 27.2986 1.35229 27.2986 2.69589V24.7662C27.2986 26.1098 26.1973 27.2111 24.8537 27.2111H2.78337C1.43977 27.2111 0.338455 26.1098 0.338455 24.7662L0.338455 2.69589C0.338455 1.35229 1.43977 0.250977 2.78337 0.250977ZM9.34785 8.73132C10.2509 8.73132 10.9998 8.02648 10.9998 7.10138C10.9998 6.17627 10.2509 5.47144 9.34785 5.47144C8.44477 5.47144 7.69588 6.17627 7.69588 7.10138C7.69588 8.02648 8.44477 8.73132 9.34785 8.73132ZM5.93284 17.4315C5.84473 17.85 5.77865 18.2905 5.77865 18.643C5.77865 20.0747 6.54957 21.0218 8.20154 21.0218C9.56717 21.0218 10.6685 20.2068 11.4614 18.9073L10.9768 20.8676H13.6861L15.2279 14.6562C15.6244 13.0924 16.3733 12.2554 17.4966 12.2554C18.3997 12.2554 18.9503 12.806 18.9503 13.7311C18.9503 13.9954 18.9283 14.2818 18.8402 14.6122L18.0473 17.4756C17.9371 17.8941 17.8711 18.2906 17.8711 18.687C17.8711 20.0527 18.664 21.0438 20.338 21.0438C21.7697 21.0438 22.9151 20.1187 23.5318 17.9161L22.4745 17.4976C21.9459 18.9734 21.4834 19.2377 21.1089 19.2377C20.7565 19.2377 20.5583 18.9954 20.5583 18.5108C20.5583 18.2906 20.6023 18.0483 20.6684 17.7619L21.4393 14.9866C21.6375 14.3258 21.7036 13.7531 21.7036 13.2245C21.7036 11.132 20.4481 10.0527 18.9283 10.0527C17.4966 10.0527 16.0429 11.3303 15.316 12.6959L15.8446 10.251H11.7037L11.131 12.3875H13.0693L11.8799 17.1672C10.9328 19.2597 9.21475 19.2817 9.01651 19.2377C8.66409 19.1496 8.44383 19.0174 8.44383 18.5549C8.44383 18.2905 8.48788 17.9161 8.62004 17.4536L10.4262 10.251H5.84473L5.27205 12.3875H7.18833L5.93284 17.4315Z" fill="black"/>
</svg>
