<svg xmlns="http://www.w3.org/2000/svg" height="800" width="1200" viewBox="-74.16075 -31.55475 642.7265 189.3285"><path d="M47.505 97.919c9.8 3.4 18.3 1.2 22.2.7-2.3 3.4-18.9 7.7-28.7 5.5-12.4-2.7-19.5-.2-23.8 1.2.9-1.6 14.8-12.8 30.3-7.4zm4.1-41.7c-20 37.8-35 40.6-43.9 42.8 9.7 1.8 33.4.6 55.3-43 15-29.9 27.4-39.4 39.3-41.7-4.3-.9-26-4.9-50.7 41.9zm42.8 38.6c-13.8 14.3-30.1 24.6-45.8 29-16.4 4.6-30.3 2.3-39.2-6.4-8.9-8.7-11.6-22.7-7.6-39.2 3.9-16 13.7-32.6 27.5-46.9 13.8-14.3 30.1-24.6 45.8-29 16.4-4.6 30.3-2.3 39.2 6.4 8.9 8.7 11.6 22.6 7.6 39.2-3.9 15.9-13.7 32.6-27.5 46.9zm-2.9-2.8c13.3-13.8 22.7-29.8 26.4-45.1 3.7-15.1 1.4-27.7-6.5-35.3-7.9-7.7-20.4-9.6-35.3-5.4-15.1 4.2-30.7 14.1-44 27.9-13.3 13.8-22.7 29.8-26.4 45.1-3.7 15.1-1.4 27.7 6.5 35.3 7.9 7.7 20.4 9.6 35.3 5.4 15.1-4.2 30.7-14.1 44-27.9zm365.8 17.1c-1.1 1.8-10.7 17-20.6 17-3.2 0-6.1-2.1-7.9-5.6-.8.5-6.1 5.6-14.5 5.6-8.1 0-12.7-7.8-10.6-17.5-2.6 2.7-18.5 17.4-30.9 17.4-5.7 0-10.3-3.4-12-10.4-5.1 4.5-11.9 11.5-20.9 10.4-4-.5-8.1-4.3-8.6-10.4-2.1 2.7-11 10.4-20 10.4-10.4 0-12-10.3-6.3-19.6 0 0 13.1-21.5 16.8-27.7 1-1.7 2.9-6.4-2.6-6.4-8.4 0-14.7 8.5-18.2 14.2l-22.9 39.6h-11.1l26.3-44.9c.1-.1 4.8-8.5-2.8-8.4-6.7 0-13 7.2-20.9 11-1.3 4.8-3.8 9.6-6.5 14.6-2.3 4.1-17.3 27.7-32.2 27.7-8.2 0-9.8-10.7-9-17.3-3.8 4-19.2 17.2-28.1 17.3-4.6 0-9.1-.8-11.5-6.7-7.8 3.7-15.2 6.8-24.6 6.8-7.7 0-16.1-2.2-29.6-7.3-.6.4-13.2 7.3-26 7.3-8.2 0-14.9-3.4-14.9-9.1 0-5.7 6.2-8.5 12.4-8.5 9.7 0 17.4 2.7 24.4 5.1 22.3-19.7 33.1-41 42.4-57.2 10.2-17.6 27.1-56.5 55.1-56.5 5.6 0 11.1 1.3 16.1 4.7 2.1 1.4 4.1 3.6 5.1 5.3 1 1.8-1.1 3.9-3 1.9-5.4-6.2-11.1-8.9-16.7-8.9-22.3 0-35.2 36.9-45.2 55.4-19 35-27.9 44.9-45.6 58.3 5.7 2 15.7 5.9 25.8 5.9 9.5 0 20.9-5.6 23.2-6.7-2.3-27.9 30.2-57.2 39.8-43.4 4.5 6.5-7.7 29.2-33.1 44 0 .1 1.2 6.1 6.4 6.1 9 0 23.2-15.3 28.6-22.3 5.8-7.5 10.4-15.6 13.6-19.5.9-1.2 3.7-4.6 4.8-5.7 9.5-9.9 17.7-6.2 20-4.1 4.7-1.3 9.6 1.9 8.9 8.9 5.9-2.8 13.9-11.3 21.5-11.3 5.3 0 8.7 2.9 11.1 7.8 17-14.4 27.2-5.6 28 2.1.3 2.5-1.5 6-2.6 8.1 0 0-13.3 22.3-15 25-1.7 2.7-7.1 11.2-1.5 11.2 7.9 0 17.1-11.7 18.3-13.4 2.8-3.5 25.4-40.8 25.4-40.8h9.9l-24.5 42.6c-1.6 2.8-2.4 5.5-2.6 6.4-.5 2.6.7 4.3 2.8 4.9 11.3 3.2 27.2-23.2 29.1-26.4 5-8.6 15.9-27.2 25.2-29.7l-.9 8.4c-6.9-1.4-7.7 1.7-4 22.3 1 5.9.8 13.1-1.3 18.2 10.3-5.4 19.2-19.2 19.4-19.4 6.5-8.6 10.6-13.5 15.6-18.7 4.7-4.9 10.7-8.5 15.6-8.5 8.2 0 10.6 7.8 10.6 7.8l5-7.8h9.8s-27.5 47.3-28.3 48.8c-.3.6-2.3 5.2 1.2 5.2 7.3 0 15.1-14.2 15.5-14.9.6-.4 4.4 0 3.8 1.3zm-269.2 3.6c20.6-15.4 34-34.7 27.9-38-6.2-3.5-27.8 22.6-27.9 38zm-67.6 3.5c-4.4-1.4-11.9-3.7-18.4-3.7-4.9 0-10.4 1-10.4 4.7s6.3 5.3 11.2 5.3c8.4-.1 17.4-6.1 17.6-6.3zm144.4-31.2s-1.4-.1-2.2-.3c-2.6-.7-6.3-2.6-6.3-7.2 0-3.3 2.4-5.3 2.4-5.3s-2.4-1.9-9.8 5.6c-5.7 5.8-19.2 28-20.2 36.9-.6 5 1.4 7.1 3.2 7.5 9.2 1.9 24.1-18.5 28-26.2 4.4-8.8 4.9-11 4.9-11zm1.8-7.1c0-1.5-.3-3.3-2.4-3.3-1 0-2.6.9-2.6 3.3.1 2.9 3.1 3.3 4.6 3 0 0 .4-1.5.4-3zm115.5 7.1c-2.9 3.6-11.1 17.4-12.7 19.8-.1.1-.1.2-.1.2 3.4 4.3 1.8 9.8-4.7 10.7.1.3.7 6.8 5.5 6.7 7.4 0 13-9.8 13.8-18.9.6-6.8-.2-14.9-1.8-18.5zm54.9 12.2c4-6.8 7.6-12.3 8.5-16.3.9-4.3-1.2-6.5-3.7-6.7-4.2-.3-11 3.8-22.4 20.7-10.4 15.5-12.8 27.5-6.6 27.5 9.4 0 20.4-18.8 24.2-25.2zm-74.8-48.8c-3.1 3.8-3.6 8.5-1.1 10.6 2.5 2.1 7.1.8 10.2-3 3.1-3.8 3.6-8.5 1.1-10.6-2.5-2.1-7.1-.7-10.2 3zm115.4 7.3c-1.7 1.7-2.6 3.9-2.6 6.4 0 2.5.9 4.6 2.6 6.4 1.7 1.8 3.8 2.6 6.3 2.6s4.6-.9 6.3-2.6c1.7-1.8 2.6-3.9 2.6-6.4 0-2.5-.9-4.6-2.6-6.4-1.8-1.8-3.9-2.7-6.3-2.7s-4.5.9-6.3 2.7zm13.7 13.7c-2 2.1-4.5 3.1-7.3 3.1-2.9 0-5.3-1-7.4-3.1-2-2-3-4.5-3-7.4 0-2.9 1-5.3 3.1-7.4 2-2 4.5-3 7.3-3 2.9 0 5.3 1 7.3 3s3 4.5 3 7.4c0 2.9-1 5.4-3 7.4zm-5.4-11.3c-.5-.3-1.3-.4-2.4-.4h-1.7v4.2h1.8c.8 0 1.5-.1 1.9-.2.8-.3 1.2-.9 1.2-1.8-.1-1-.3-1.5-.8-1.8zm-2.2-1.8c1.4 0 2.5.1 3.1.4 1.2.5 1.8 1.5 1.8 2.9 0 1-.4 1.8-1.1 2.3-.4.3-.9.4-1.7.6.9.1 1.5.5 2 1.1.4.6.6 1.2.6 1.8v1.6c0 .3 0 .5.1.6l.1.1h-1.9v-.2l-.1-.4v-.9c0-1.3-.4-2.2-1.1-2.6-.4-.3-1.2-.4-2.2-.4h-1.6v4.5h-2v-11.5z"/></svg>