<?xml version="1.0" standalone="no"?>
<!DOCTYPE svg PUBLIC "-//W3C//DTD SVG 20010904//EN"
 "http://www.w3.org/TR/2001/REC-SVG-20010904/DTD/svg10.dtd">
<svg version="1.0" xmlns="http://www.w3.org/2000/svg"
 width="362.000000pt" height="90.000000pt" viewBox="0 0 362.000000 90.000000"
 preserveAspectRatio="xMidYMid meet">

<g transform="translate(0.000000,90.000000) scale(0.100000,-0.100000)"
fill="#000000" stroke="none">
<path d="M2564 798 c-50 -51 -128 -137 -173 -190 -46 -54 -88 -98 -94 -98 -19
0 -76 -44 -86 -68 -17 -37 -13 -35 29 9 22 23 42 40 45 37 3 -3 -31 -56 -75
-118 -90 -126 -226 -348 -218 -356 3 -3 41 53 83 123 97 159 233 351 262 370
20 13 225 84 230 80 1 -1 -21 -80 -48 -176 -27 -96 -47 -177 -44 -179 8 -8 8
-6 60 178 27 96 53 178 59 182 6 4 30 10 54 14 23 3 45 11 49 17 6 10 -16 8
-81 -9 -20 -5 -25 -3 -22 7 3 8 19 66 37 129 17 63 34 121 36 128 12 30 -20 5
-103 -80z m43 -77 l-32 -114 -105 -33 c-57 -18 -106 -32 -107 -30 -5 5 131
162 206 239 36 37 67 64 68 60 1 -5 -12 -59 -30 -122z"/>
<path d="M530 705 c0 -23 -4 -25 -45 -25 l-45 0 0 -45 c0 -38 -3 -45 -20 -45
-17 0 -20 -7 -20 -45 0 -38 3 -45 20 -45 17 0 20 -7 20 -45 l0 -45 45 0 c38 0
45 -3 45 -20 0 -17 7 -20 45 -20 38 0 45 3 45 20 0 17 7 20 45 20 l45 0 0 45
c0 38 3 45 20 45 17 0 20 7 20 45 0 38 -3 45 -20 45 -17 0 -20 7 -20 45 l0 45
-45 0 c-41 0 -45 2 -45 25 0 23 -4 25 -45 25 -41 0 -45 -2 -45 -25z m90 -90
c0 -20 5 -25 26 -25 23 0 25 -3 22 -42 -2 -36 -7 -44 -25 -46 -15 -2 -23 -10
-23 -23 0 -16 -7 -19 -45 -19 -38 0 -45 3 -45 19 0 13 -8 21 -22 23 -19 2 -24
10 -26 46 -3 39 -1 42 22 42 21 0 26 5 26 25 0 23 4 25 45 25 41 0 45 -2 45
-25z"/>
<path d="M1940 705 c0 -23 -4 -25 -45 -25 l-45 0 0 -45 c0 -38 -3 -45 -20 -45
-17 0 -20 -7 -20 -45 0 -38 3 -45 20 -45 17 0 20 -7 20 -45 l0 -45 45 0 c38 0
45 -3 45 -20 0 -17 7 -20 45 -20 38 0 45 3 45 20 0 17 7 20 45 20 l45 0 0 45
c0 38 3 45 20 45 17 0 20 7 20 45 0 38 -3 45 -20 45 -17 0 -20 7 -20 45 l0 45
-45 0 c-41 0 -45 2 -45 25 0 23 -4 25 -45 25 -41 0 -45 -2 -45 -25z m90 -90
c0 -20 5 -25 26 -25 23 0 25 -3 22 -42 -2 -36 -7 -44 -25 -46 -15 -2 -23 -10
-23 -23 0 -16 -7 -19 -45 -19 -38 0 -45 3 -45 19 0 13 -8 21 -22 23 -19 2 -24
10 -26 46 -3 39 -1 42 22 42 21 0 26 5 26 25 0 23 4 25 45 25 41 0 45 -2 45
-25z"/>
<path d="M905 706 c-116 -52 -142 -208 -47 -288 118 -99 285 -24 285 128 0
123 -128 209 -238 160z m110 -82 c19 -8 45 -55 45 -84 0 -33 -53 -80 -90 -80
-73 0 -109 92 -57 148 20 22 66 29 102 16z"/>
<path d="M90 688 c-25 -13 -55 -38 -67 -57 -20 -30 -23 -47 -23 -142 l0 -109
40 0 40 0 0 91 c0 87 1 92 29 120 20 20 39 29 61 29 22 0 41 -9 61 -29 28 -28
29 -33 29 -120 l0 -91 45 0 45 0 0 93 c-1 132 -28 186 -113 222 -51 21 -95 19
-147 -7z"/>
<path d="M1269 687 c-55 -37 -69 -76 -69 -199 l0 -108 45 0 45 0 0 91 c0 120
15 149 77 149 51 0 63 -27 63 -142 l0 -98 44 0 44 0 4 99 c4 114 18 141 73
141 55 0 69 -27 73 -141 l4 -99 45 0 45 0 -3 113 c-4 95 -8 118 -27 148 -51
83 -180 94 -239 21 -12 -14 -15 -13 -34 7 -44 47 -134 56 -190 18z"/>
<path d="M3351 647 c-11 -18 -30 -42 -42 -53 l-21 -19 7 44 c9 55 1 50 -55
-33 -43 -63 -80 -86 -80 -51 0 23 28 86 48 109 14 15 14 18 2 14 -22 -7 -60
-79 -60 -115 0 -64 44 -54 92 20 32 50 33 51 36 24 4 -36 14 -34 52 10 l32 36
-7 -99 -7 -99 -68 -70 c-77 -80 -88 -100 -60 -115 26 -14 83 -12 104 3 15 11
28 71 36 168 0 3 59 56 130 118 72 63 128 116 126 119 -3 2 -44 -29 -91 -69
-48 -41 -105 -90 -127 -109 l-41 -34 6 44 c12 85 20 190 14 190 -3 0 -15 -15
-26 -33z m-16 -312 c-7 -57 -24 -85 -53 -85 -31 0 -62 12 -62 23 0 13 112 129
118 122 2 -2 1 -29 -3 -60z"/>
<path d="M2858 653 c-20 -22 -38 -67 -38 -96 -1 -12 -24 -47 -52 -77 -28 -30
-49 -48 -46 -40 22 62 33 182 13 128 -4 -9 -16 -13 -33 -11 -37 6 -61 -15 -71
-59 -7 -28 -5 -40 5 -49 10 -9 20 -4 45 20 17 18 33 30 36 28 2 -3 -1 -25 -7
-49 -8 -30 -29 -64 -66 -105 -69 -78 -72 -125 -8 -109 27 7 57 61 69 126 4 23
26 56 62 95 30 33 52 52 49 42 -5 -14 -1 -16 22 -11 39 10 74 29 96 53 28 31
37 25 20 -14 -17 -42 -5 -47 18 -7 9 15 28 38 42 51 l26 24 0 -41 c0 -34 4
-42 18 -42 19 0 79 56 70 65 -2 3 -15 -6 -28 -20 -36 -38 -54 -33 -47 14 7 52
-1 57 -35 24 -29 -28 -35 -25 -17 9 21 40 -1 30 -47 -21 -26 -29 -60 -59 -77
-68 l-31 -16 19 29 c39 60 58 107 48 123 -15 23 -37 24 -55 4z m42 -18 c0 -21
-35 -88 -54 -104 -14 -12 -16 -11 -16 6 0 24 19 83 33 101 13 17 37 15 37 -3z
m-190 -97 c0 -16 -49 -78 -62 -78 -16 0 -1 63 19 78 21 15 43 16 43 0z m-29
-215 c-12 -43 -46 -86 -64 -80 -21 7 -10 36 29 80 22 24 40 42 42 41 2 -1 -1
-20 -7 -41z"/>
</g>
</svg>
