<svg xmlns="http://www.w3.org/2000/svg" viewBox="0 0 147 147"><path d="M73.5 147A73.5 73.5 0 1 0 73.5.01a73.5 73.5 0 0 0 0 146.99Z" fill="#fff"/><path d="m68.31 124.68-1.12-.2-3.2 6.3-.79-7.02-1.13-.2-3.98 7.82 1.1.2 3.23-6.68.73 7.39 1.12.2 3.26-6.67.71 7.38 1.11.2-1.04-8.72ZM51.3 119.9l-4.69-2.74-.5.86 3.75 2.18-1.5 2.58-2.94-1.71-.5.85 2.95 1.71-1.24 2.14-3.63-2.11-.49.84 4.58 2.66 4.2-7.27ZM37.99 110.67l-2.14-2.4c-1.15-1.3-2.53-1.44-3.66-.44-.88.79-.96 1.7-.62 2.54a1.83 1.83 0 0 0-1.96.27c-1.02.91-.96 2.18.1 3.36l2.02 2.27 6.26-5.6Zm-4.4 2.49-1.88 1.68-1.27-1.43c-.66-.74-.71-1.43-.09-1.99.63-.56 1.3-.43 1.97.31l1.26 1.43Zm2.94-2.64-2.23 2-1.3-1.46c-.82-.92-.84-1.74-.1-2.4.72-.64 1.52-.52 2.33.4l1.3 1.45ZM27.29 98.4l1.11-.56-.53-1.05-1.11.57.53 1.05ZM22.03 77.71l.04-1.07-6.34-.24 6.43-2.38.04-.91-6.23-2.86 6.33.24.04-1.08-8.4-.32-.05 1.32 6.7 3.1-6.9 2.56-.06 1.32 8.4.32ZM26.2 53.72c.92-2.2-.07-4.5-2.36-5.47-2.3-.97-4.64-.07-5.56 2.13-.93 2.22.05 4.52 2.35 5.49 2.3.97 4.64.07 5.56-2.15Zm-.92-.37c-.67 1.6-2.45 2.24-4.21 1.5-1.77-.76-2.57-2.47-1.9-4.08.68-1.62 2.46-2.24 4.23-1.5 1.77.75 2.57 2.46 1.88 4.08ZM32.07 42.72l2.1-2.43c1.13-1.3 1.1-2.7-.04-3.7-.89-.76-1.8-.73-2.59-.28.19-.59.07-1.4-.52-1.92-1.03-.9-2.27-.67-3.3.53l-2 2.3 6.35 5.5Zm-3.03-4.06-1.9-1.65 1.25-1.44c.65-.76 1.32-.89 1.95-.34.64.55.6 1.24-.05 2l-1.25 1.43Zm2.99 2.6-2.26-1.97 1.28-1.48c.8-.92 1.6-1.05 2.35-.4.73.64.71 1.45-.09 2.37l-1.28 1.48ZM43.56 31.52l.9-.62-4.71-6.95-.9.62 4.71 6.95ZM52.58 26.31l4.85-2.02-.38-.91-3.84 1.6-2.85-6.85-1 .42 3.22 7.76ZM62.55 22.86l5.38-.73-.13-.97-4.3.58-.4-2.96 3.38-.46-.13-.98-3.38.46-.33-2.44 4.16-.57-.13-.97-5.25.72 1.13 8.32ZM78.68 20.82l-.16 1.24 1.17.15.15-1.24-1.16-.15ZM98.52 28.16l2.68 1.78c1.44.96 2.81.75 3.65-.51.65-.98.5-1.89-.04-2.61.6.11 1.4-.1 1.82-.76.76-1.14.38-2.35-.94-3.22l-2.53-1.69-4.64 7Zm3.63-3.53 1.4-2.1 1.58 1.06c.83.55 1.05 1.2.58 1.9-.46.7-1.14.75-1.97.2l-1.59-1.06Zm-2.18 3.3 1.65-2.5 1.63 1.09c1.02.68 1.25 1.46.7 2.28-.53.81-1.34.9-2.36.22l-1.62-1.08ZM115.34 43.16l1.42-4.38a2.2 2.2 0 0 0 2.66-.2c1.07-.91 1.1-2.31.07-3.53l-1.96-2.3-6.4 5.43.7.83 2.86-2.42 1.2 1.42-1.35 4.2.8.95Zm2.16-8.96 1.17 1.39c.66.79.67 1.58.02 2.13-.64.55-1.41.4-2.08-.38l-1.17-1.39 2.06-1.75ZM121.06 53.74l.48 1.04 6.23-6.56-.42-.9-9.01.5.47 1.03 2.29-.15 1.56 3.4-1.6 1.64Zm1.08-5.1 4.12-.26-2.88 2.97-1.24-2.72ZM123.92 62.66l.14 1.06 6.6-.85-6.06 5.05.16 1.2 8.33-1.07-.14-1.06-6.63.86 6.1-5.06-.16-1.2-8.33 1.07ZM124.74 78.87l-.47 2.45c-.44 2.31.7 4.42 3.34 4.92 2.66.5 4.48-1.04 4.92-3.35l.46-2.45-8.25-1.57Zm.76 1.24 6.33 1.2-.25 1.36c-.3 1.6-1.5 2.9-3.76 2.47-2.25-.43-2.88-2.08-2.57-3.67l.25-1.36ZM120.42 94.34l-.48.99 7.58 3.64.47-.99-7.57-3.64ZM115.28 103.58l-.7.81 5.07 4.33-7.81-1.1-.79.92 6.39 5.46.69-.81-5.08-4.34 7.83 1.11.78-.92-6.38-5.46ZM100.68 116.91c-1.01.62-1.65 1.65-1.53 2.58l-.68-1.11-.85.52 2.26 3.7 3.37-2.07-.49-.81-2.5 1.53c-.73-1.28-.42-2.67.92-3.5 1.45-.88 3.11-.52 4.22 1.3 1.12 1.83.68 3.49-.77 4.38-1.13.7-2.3.57-3.13-.32l-.8.76c1.13 1.2 2.84 1.37 4.44.39 1.79-1.1 2.72-3.35 1.23-5.8-1.5-2.44-3.9-2.64-5.69-1.55ZM89.91 123.45l-.36-1.2-1.12.34.35 1.2 1.13-.34Z"/></svg>
