<svg fill="none" height="666" viewBox="0 0 1012 666" width="1012" xmlns="http://www.w3.org/2000/svg"><path d="m1004.91 166.68c-33.43-129.0801-190.76-197.6201-351.4-153.0901l-1.74.48c-95.574 27.02-196.766 27.02-292.34 0l-1.74-.48c-160.64-44.53-317.9999 24-351.39993 153.0901-14.53 56.09-3.27 114.38 27.29003 166-30.56003 51.64-41.82003 109.92-27.29003 166 33.43003 129.08 190.75993 197.63 351.39993 153.1l1.74-.49c95.575-27.01 196.765-27.01 292.34 0l1.74.49c160.64 44.53 318-24 351.4-153.1 14.53-56.09 3.26-114.37-27.29-166 30.55-51.62 41.82-109.91 27.29-166z" fill="#717171"/></svg>