<?xml version="1.0" encoding="UTF-8" standalone="no"?><svg xmlns="http://www.w3.org/2000/svg" xmlns:xlink="http://www.w3.org/1999/xlink" fill="#ef601e" height="382.6" preserveAspectRatio="xMidYMid meet" version="1" viewBox="3.0 58.9 491.3 382.6" width="491.3" zoomAndPan="magnify"><g id="change1_1"><path d="M 161.875 401.453125 C 168.164062 396.371094 172.1875 388.59375 172.1875 379.886719 C 172.1875 364.578125 159.761719 352.152344 144.453125 352.152344 C 138.816406 352.152344 131.863281 353.789062 125.316406 359.199219 C 121.65625 362.222656 114.636719 372.378906 114.636719 372.378906 C 114.636719 372.378906 114.9375 371.9375 115.058594 371.769531 C 110.671875 377.804688 105.847656 385.074219 100.359375 390 C 88.972656 400.226562 88.027344 417.777344 98.253906 429.164062 C 108.480469 440.554688 126.027344 441.496094 137.417969 431.269531 C 145.632812 423.894531 153.347656 413.425781 159.917969 404.390625 C 160.246094 403.9375 161.117188 402.617188 161.875 401.453125 Z M 254.605469 363.28125 C 247.765625 369.128906 243.898438 378.183594 245.082031 387.773438 C 246.902344 402.488281 255.566406 409.289062 267.242188 411.601562 C 270.753906 412.296875 279.449219 413.867188 289.257812 406.632812 C 290.597656 405.644531 297.363281 398.4375 299.160156 396.738281 C 305.675781 390.566406 311.5 384.121094 317.28125 377.261719 C 317.480469 377.023438 319.355469 375.132812 320.589844 373.898438 C 327.734375 368.886719 332.402344 360.585938 332.402344 351.199219 C 332.402344 337.484375 325.167969 330.40625 317.097656 326.347656 C 312.332031 323.949219 303.6875 320.78125 292.488281 326.136719 C 289.917969 327.363281 276.066406 340.089844 274.851562 341.53125 C 270.429688 346.785156 266 351.746094 261.011719 356.472656 C 260.046875 357.386719 256.148438 361.605469 254.605469 363.28125 Z M 440.742188 311.910156 C 437.425781 314.855469 427.902344 323.371094 425.78125 325.742188 L 417.769531 335.496094 C 416.71875 336.753906 415.441406 338.554688 414.523438 339.902344 C 408.527344 346.996094 406.226562 356.941406 409.3125 366.414062 C 412.167969 375.171875 417.644531 379.699219 422.8125 382.417969 C 429.179688 385.761719 436.921875 387.269531 446.050781 383.621094 C 448.59375 382.605469 452.445312 380.730469 456.3125 376.527344 C 456.902344 375.882812 458.496094 373.261719 460.378906 371.003906 L 466.972656 362.949219 C 469.355469 360.882812 483.386719 348.585938 487.824219 341.976562 C 492.5625 334.925781 494.261719 327.882812 494.261719 322.109375 C 494.261719 306.800781 481.832031 294.375 466.527344 294.375 C 454.820312 294.375 444.800781 301.640625 440.742188 311.910156 Z M 76.625 258.515625 C 84.996094 253.746094 90.644531 244.738281 90.644531 234.417969 C 90.644531 219.113281 78.21875 206.6875 62.910156 206.6875 C 58.097656 206.6875 48.441406 208.523438 39.117188 217.414062 C 31.035156 225.121094 17.136719 244.671875 13.910156 247.882812 C 3.058594 258.675781 3.011719 276.25 13.804688 287.101562 C 24.597656 297.953125 42.171875 298 53.023438 287.207031 C 55.800781 284.445312 72.785156 263.304688 76.625 258.515625 Z M 181.925781 231.683594 C 175.5625 238.828125 173.074219 249.082031 176.285156 258.816406 C 181.078125 273.355469 196.769531 281.261719 211.308594 276.46875 C 214.121094 275.539062 217.601562 273.925781 221.121094 270.871094 C 222.863281 269.359375 227.863281 262.1875 229.929688 259.175781 C 236.160156 251.800781 242.113281 243.59375 248.886719 236.820312 C 259.707031 225.996094 259.710938 208.421875 248.886719 197.601562 C 238.0625 186.777344 220.488281 186.777344 209.664062 197.597656 C 201.578125 205.683594 194.378906 215.445312 186.910156 224.15625 C 186.164062 225.027344 183.34375 229.433594 181.925781 231.683594 Z M 401.378906 263.125 C 412.019531 250.96875 423.132812 239.179688 434.507812 227.804688 C 445.328125 216.980469 445.328125 199.40625 434.507812 188.585938 C 423.683594 177.761719 406.109375 177.761719 395.285156 188.585938 C 383.050781 200.820312 371.097656 213.507812 359.648438 226.585938 C 349.566406 238.101562 350.726562 255.636719 362.242188 265.71875 C 373.757812 275.804688 391.296875 274.640625 401.378906 263.125 Z M 141.769531 95.152344 C 136.90625 99.421875 133.515625 105.402344 132.601562 112.3125 C 130.589844 127.484375 141.277344 141.4375 156.453125 143.445312 C 161.222656 144.078125 167.886719 143.855469 175.070312 139.410156 C 178.164062 137.496094 187.777344 126.164062 187.777344 126.164062 C 187.777344 126.164062 186.824219 127.40625 186.65625 127.605469 C 192.195312 120.960938 198.960938 115.054688 205.039062 108.972656 C 215.863281 98.152344 215.863281 80.578125 205.039062 69.753906 C 194.21875 58.929688 176.644531 58.929688 165.820312 69.753906 C 158.574219 77 150.648438 84.175781 144.046875 92.097656 L 141.769531 95.152344" fill="inherit" fill-rule="evenodd"/></g></svg>