<svg width="191" height="208" viewBox="0 0 191 208" fill="none" xmlns="http://www.w3.org/2000/svg">
<g clip-path="url(#clip0_356_1044)">
<path d="M166.952 102.947C174.543 73.2564 159.928 41.9216 132.203 28.444C124.369 24.6354 115.963 22.461 107.221 21.9869C76.1962 20.3031 48.2386 40.8998 40.749 70.9525C38.1905 81.2107 38.2081 91.8769 40.8043 102.65C41.1879 104.249 41.1158 105.175 40.9938 105.875C40.9798 105.958 40.9638 106.046 40.9498 106.129C40.7965 106.543 40.6517 106.962 40.5113 107.382C40.2573 107.959 40.0183 108.55 39.7987 109.144C39.2599 110.066 38.7642 111.02 38.3094 111.988C37.9632 112.733 37.5998 113.47 37.2407 114.209L37.155 114.385C36.5955 115.536 35.9585 116.835 35.3037 118.248C31.4001 126.706 30.9298 136.173 33.8952 144.763C35.044 152.893 38.3748 160.545 43.6311 167.062C47.8396 172.283 53.0194 176.405 59.015 179.319C72.5093 185.879 88.4814 185.195 101.471 177.676C110.155 174.676 117.413 168.257 121.74 159.618C122.206 158.693 122.655 157.759 123.108 156.805C123.53 155.937 123.922 155.109 124.229 154.52C124.823 153.386 125.353 152.209 125.822 151.014C126.158 150.466 126.476 149.909 126.778 149.344C127.013 148.991 127.24 148.634 127.462 148.275C127.564 148.165 127.661 148.053 127.758 147.941C128.493 147.108 129.937 146.175 132.061 145.168C149.745 136.777 162.133 121.776 166.948 102.945L166.952 102.947Z" fill="#bed2f5"/>
<path d="M61.2116 174.811C55.8879 172.223 51.2896 168.56 47.5485 163.921C42.8966 158.155 39.8966 151.291 38.8789 144.073L38.8131 143.595L38.6555 143.142C36.0896 135.713 36.5234 127.624 39.8765 120.365C40.5105 118.995 41.1515 117.676 41.6736 116.613L41.8553 116.24C42.1977 115.535 42.5401 114.831 42.8739 114.122C43.2619 113.291 43.6928 112.47 44.1498 111.684L44.3637 111.32L44.513 110.926C44.7057 110.409 44.9136 109.904 45.128 109.409L45.2981 108.96C45.4135 108.602 45.5376 108.248 45.6724 107.894L45.8382 107.444L45.9497 106.765C46.2417 105.091 46.157 103.425 45.6967 101.502C43.2964 91.5201 43.2716 81.6575 45.6322 72.1899C52.5379 44.4448 78.3293 25.4449 106.957 26.999C115.024 27.4372 122.783 29.4406 130.011 32.954C155.595 45.391 169.082 74.303 162.08 101.699C157.641 119.067 146.21 132.898 129.897 140.638C127.081 141.972 125.202 143.241 123.986 144.625C123.901 144.722 123.821 144.811 123.739 144.904L123.426 145.251L123.185 145.649C122.992 145.958 122.801 146.264 122.601 146.565L122.354 146.976C122.1 147.453 121.824 147.934 121.536 148.405L121.305 148.781L121.143 149.191C120.747 150.214 120.286 151.228 119.776 152.201C119.425 152.88 118.999 153.756 118.592 154.604C118.133 155.56 117.694 156.473 117.245 157.375C113.519 164.82 107.328 170.349 99.8222 172.94L99.3661 173.1L98.9495 173.344C87.2947 180.088 73.1877 180.638 61.2117 174.822L61.2116 174.811ZM128.132 36.8197C121.425 33.5597 114.225 31.7002 106.734 31.2926C80.1602 29.8503 56.2208 47.483 49.8064 73.2207C47.6152 82.0113 47.638 91.1879 49.878 100.492C50.4826 103.005 50.5848 105.227 50.1907 107.483L50.0133 108.549L49.7025 109.386C49.5927 109.688 49.483 109.991 49.3839 110.293L49.2019 110.81L49.0666 111.121C48.8834 111.542 48.7068 111.982 48.5389 112.426L48.261 113.162L47.8669 113.841C47.4749 114.516 47.1067 115.219 46.7708 115.932C46.4309 116.664 46.0759 117.394 45.7231 118.12L45.5414 118.494C45.009 119.589 44.3992 120.832 43.7861 122.159C40.9022 128.409 40.5252 135.363 42.7249 141.737L43.0201 142.587L43.1466 143.477C44.0585 149.926 46.7434 156.058 50.9062 161.22C54.2452 165.36 58.3485 168.63 63.0949 170.937C73.7767 176.129 86.373 175.631 96.7843 169.604L97.5622 169.154L98.4128 168.861C104.853 166.634 110.174 161.866 113.398 155.43C113.837 154.55 114.269 153.661 114.713 152.724C115.141 151.844 115.573 150.933 115.958 150.196C116.393 149.356 116.787 148.491 117.129 147.612L117.426 146.848L117.852 146.147C118.095 145.745 118.332 145.334 118.554 144.922L118.816 144.449L119.001 144.167C119.175 143.907 119.339 143.646 119.505 143.382L119.958 142.646L120.744 141.775C122.361 139.938 124.681 138.342 128.04 136.746C143.185 129.558 153.789 116.727 157.905 100.614C164.402 75.1878 151.881 48.3541 128.132 36.809L128.132 36.8197Z" fill="#10100F"/>
<path d="M140.04 51.2108L141.547 52.8091L132.72 61.1194L131.211 59.5254L140.038 51.2151L140.04 51.2108Z" fill="#10100F"/>
<path d="M144.287 55.7608L145.558 57.7697L141.096 66.4443L141.113 66.474L148.232 61.985L149.38 63.7964L139.122 70.2639L137.865 68.2826L142.383 59.5349L142.366 59.5051L135.177 64.0397L134.029 62.2283L144.287 55.7608Z" fill="#10100F"/>
<path d="M143.218 69.9876L143.909 72.1926C142.617 72.8232 142.097 73.8607 142.527 75.2327C142.89 76.3809 143.62 76.9271 144.562 76.6312C145.396 76.3728 145.73 75.6535 145.68 73.6537C145.602 70.9446 146.53 69.4842 148.287 68.9365C150.332 68.3004 152.024 69.3883 152.744 71.687C153.51 74.1305 152.564 76.0335 150.03 77.0164L149.375 74.9244C150.77 74.3333 151.236 73.5401 150.879 72.3896C150.556 71.367 149.846 70.8891 148.982 71.1542C148.118 71.4194 147.756 72.2201 147.838 74.209C147.948 76.907 147.032 78.299 145.277 78.8424C143.119 79.5138 141.388 78.3536 140.588 75.8142C139.743 73.115 140.713 71.0109 143.214 69.9855L143.218 69.9876Z" fill="#10100F"/>
<path d="M154.447 80.1776L154.702 84.4172C154.864 87.0869 153.244 88.5885 151.002 88.7201C148.844 88.8444 146.96 87.6473 146.783 84.6935L146.67 82.8225L142.456 83.0679L142.326 80.8808L154.447 80.1776ZM148.843 84.6065C148.924 85.9093 149.583 86.5908 150.789 86.5189C152.126 86.4413 152.664 85.5875 152.591 84.3893L152.478 82.4862L148.73 82.7035L148.843 84.6065Z" fill="#10100F"/>
<path d="M154.587 91.4346L154.348 93.6125L142.275 92.2573L142.514 90.0793L154.587 91.4346Z" fill="#10100F"/>
<path d="M153.842 97.4815L152.445 102.139C151.748 104.461 150.125 105.313 148.039 104.686C145.744 103.996 145.405 102.217 145.338 100.92L139.714 102.456L139.667 102.443L140.405 99.9932L145.689 98.6534L146.061 97.4059L141.584 96.0576L142.207 93.9761L153.837 97.4794L153.842 97.4815ZM147.522 99.7142C147.174 100.868 147.154 102.047 148.502 102.453C149.608 102.784 150.23 102.172 150.522 101.21L151.199 98.9528L148.036 97.9994L147.522 99.7142Z" fill="#10100F"/>
<path d="M149.801 108.926L148.813 110.883L137.961 105.405L138.949 103.449L149.801 108.926Z" fill="#10100F"/>
<path d="M146.914 114.548L145.436 116.405L135.754 115.038L135.739 115.068L142.337 120.304L141.007 121.978L131.488 114.425L132.943 112.594L142.713 113.987L142.728 113.957L136.065 108.669L137.395 106.995L146.914 114.548Z" fill="#10100F"/>
<path d="M134.252 120.144C136.636 123.586 136.028 126.71 133.483 128.463C131.336 129.942 128.923 129.693 126.857 127.414L128.729 126.126C129.756 127.289 131.11 127.538 132.309 126.714C133.823 125.671 133.955 123.712 132.39 121.453C130.743 119.07 128.796 118.639 127.17 119.76C125.722 120.755 125.527 122.296 126.46 123.642L129.38 121.631L130.466 123.2L125.753 126.442L124.814 125.056C122.89 122.188 124.005 119.39 126.126 117.93C128.385 116.373 131.667 116.413 134.25 120.148L134.252 120.144Z" fill="#10100F"/>
<path d="M59.6967 161.967L58.2423 160.326L67.3404 152.312L68.7928 153.958L59.6946 161.972L59.6967 161.967Z" fill="#10100F"/>
<path d="M54.4221 157.471L53.3982 155.327L58.8648 147.247L58.8516 147.219L51.2514 150.826L50.3265 148.895L61.2831 143.696L62.2938 145.812L56.768 153.959L56.7812 153.987L64.458 150.343L65.383 152.274L54.4264 157.473L54.4221 157.471Z" fill="#10100F"/>
<path d="M56.6183 143.664L56.2628 141.383C57.6383 140.952 58.301 140.005 58.0823 138.582C57.8986 137.394 57.2548 136.746 56.2762 136.897C55.413 137.03 54.9758 137.688 54.724 139.674C54.3953 142.366 53.2596 143.672 51.4413 143.951C49.3238 144.276 47.8112 142.951 47.4416 140.568C47.0466 138.039 48.2668 136.296 50.9204 135.701L51.2574 137.867C49.7914 138.243 49.2093 138.958 49.3909 140.151C49.558 141.209 50.186 141.79 51.0834 141.653C51.9765 141.514 52.4556 140.78 52.6711 138.803C52.9656 136.116 54.0765 134.883 55.9012 134.601C58.1384 134.26 59.6755 135.666 60.0867 138.293C60.5235 141.086 59.2457 143.024 56.6183 143.664Z" fill="#10100F"/>
<path d="M47.3217 131.318L48.144 127.15C48.664 124.525 50.6099 123.48 52.8139 123.919C54.9362 124.34 56.4547 125.97 55.8846 128.874L55.5239 130.711L59.6656 131.535L59.2446 133.683L47.3281 131.315L47.3217 131.318ZM53.8691 128.441C54.1231 127.163 53.6527 126.334 52.4681 126.098C51.1527 125.836 50.4183 126.525 50.1845 127.707L49.8135 129.576L53.4939 130.309L53.8648 128.439L53.8691 128.441Z" fill="#10100F"/>
<path d="M50.0718 120.621L50.8537 118.575L62.2078 122.91L61.4259 124.957L50.0718 120.621Z" fill="#10100F"/>
<path d="M52.022 116.795L53.558 112.179C54.324 109.88 55.9688 109.071 58.0345 109.762C60.3066 110.521 60.594 112.307 60.6228 113.606L66.2896 112.234L66.3326 112.255L65.5296 114.674L60.2094 115.858L59.7987 117.098L64.2332 118.579L63.5456 120.64L52.0177 116.793L52.022 116.795ZM58.4105 114.75C58.7903 113.607 58.8465 112.429 57.5138 111.983C56.4196 111.616 55.7783 112.212 55.4582 113.166L54.7129 115.401L57.8469 116.446L58.4105 114.75Z" fill="#10100F"/>
<path d="M54.6215 107.779L54.8152 105.595L66.9109 106.695L66.7172 108.879L54.6215 107.779Z" fill="#10100F"/>
<path d="M55.5108 104.558L55.116 102.215L62.6022 95.9505L62.5975 95.9164L54.2893 97.2993L53.9315 95.1872L65.9101 93.1988L66.3003 95.5072L58.7375 101.819L58.7422 101.854L67.136 100.459L67.4937 102.571L55.5151 104.56L55.5108 104.558Z" fill="#10100F"/>
<path d="M59.1065 91.9358C54.917 91.9331 52.6885 89.6602 52.6804 86.5658C52.6762 83.9564 54.2464 82.1176 57.2941 81.7194L57.2964 83.9933C55.753 84.1776 54.7866 85.1469 54.7874 86.6023C54.7928 88.4423 56.3342 89.6642 59.0807 89.6664C61.9772 89.6672 63.4334 88.3147 63.4284 86.3422C63.424 84.5877 62.2681 83.5479 60.6283 83.5473L60.6354 87.0927L58.7238 87.0927L58.7135 81.3739L60.3877 81.3912C63.8392 81.4441 65.5163 83.9533 65.5222 86.5263C65.5259 89.2682 63.6385 91.9458 59.098 91.9423L59.1065 91.9358Z" fill="#10100F"/>
<path d="M73.7576 114.957C72.2415 114.22 71.5945 112.955 71.8823 111.289C72.778 106.128 72.5796 100.785 71.2869 95.4036C69.8613 89.4853 69.8279 83.9783 71.1723 78.5728C75.0466 63.0227 89.5176 52.3689 105.586 53.2394C115.723 53.7914 125.002 58.8121 131.041 67.0155C137.041 75.1681 139.06 85.4209 136.574 95.1463C134.024 105.112 127.964 112.43 118.555 116.9C112.5 119.771 107.808 123.156 104.208 127.242C103.184 128.407 101.888 128.621 100.354 127.875L100.346 127.871C96.9149 126.198 93.4821 124.529 90.0493 122.86L87.0213 121.389L83.7737 119.81C80.5003 118.219 77.1213 116.571 73.7857 114.976L73.7599 114.963L73.7576 114.957ZM116.663 60.4561C113.174 58.7601 109.345 57.7536 105.36 57.5373C91.3528 56.7764 78.7318 66.0673 75.3532 79.6228C74.176 84.3449 74.2161 89.1807 75.4748 94.4126C76.851 100.137 77.1073 105.843 76.2355 111.382C79.3881 112.893 82.569 114.445 85.6529 115.944L88.8962 117.521L91.9241 118.993C95.1459 120.559 98.372 122.127 101.598 123.695C105.496 119.478 110.445 115.979 116.696 113.012C124.898 109.119 130.185 102.746 132.399 94.0727C134.564 85.5986 132.804 76.6661 127.575 69.5573C124.675 65.62 120.925 62.5225 116.665 60.4518L116.663 60.4561Z" fill="#F9F5EA"/>
<path d="M72.704 151.181C70.9208 150.314 69.3234 149.054 68.0365 147.462C65.4453 144.248 64.3982 140.564 64.9243 136.513C63.2927 135.258 62.8694 133.39 63.789 131.4C64.2958 130.303 64.8282 129.207 65.3461 128.153C65.818 127.182 66.2899 126.211 66.7489 125.234C67.1973 124.268 67.873 123.864 68.3655 123.694C69.4228 123.327 70.3145 123.771 70.685 123.962L70.7668 124.001C74.0791 125.611 77.3913 127.222 80.6992 128.83L82.9087 129.904L85.9668 131.39C88.9086 132.82 91.956 134.307 94.9556 135.739C95.3367 135.919 96.3467 136.404 96.7311 137.552C97.1155 138.7 96.6011 139.693 96.4338 140.015C95.8858 141.066 95.3577 142.163 94.8463 143.226C94.4663 144.008 94.0906 144.792 93.7042 145.576C92.6114 147.758 90.9905 148.605 88.8759 148.114C86.0731 151.031 82.246 152.639 78.2865 152.535C76.3314 152.482 74.4396 152.014 72.7168 151.176L72.704 151.181ZM67.6987 133.205C68.9797 133.965 69.5035 135.133 69.2526 136.668C68.7592 139.721 69.4575 142.37 71.3922 144.766C73.1399 146.932 75.619 148.164 78.375 148.234C81.2402 148.31 84.023 147.077 86.0101 144.852L86.0818 144.77C87.2805 143.366 88.6113 143.477 89.5189 143.822C89.5899 143.852 89.6544 143.872 89.7103 143.889C89.7459 143.827 89.792 143.743 89.84 143.644C90.2182 142.888 90.5855 142.121 90.9508 141.359C91.3078 140.624 91.6667 139.864 92.0428 139.112C89.3683 137.834 86.6827 136.523 84.0747 135.25L81.0209 133.765L78.8157 132.693C75.8782 131.265 72.945 129.839 70.0075 128.411C69.7444 128.953 69.4814 129.494 69.2183 130.035C68.713 131.074 68.191 132.148 67.7008 133.2L67.6987 133.205Z" fill="#10100F"/>
<path d="M85.9792 123.532C90.1443 125.557 94.3052 127.601 98.4869 129.591C99.1868 129.926 99.2927 130.179 98.8445 130.816C98.2512 131.664 97.7185 132.563 97.2503 133.482C96.9304 134.107 96.6186 134.168 96.0048 133.864C91.3334 131.567 86.6516 129.302 81.9697 127.026C78.5585 125.368 75.1556 123.692 71.7233 122.066C71.0386 121.744 70.9405 121.431 71.2471 120.767C71.6829 119.827 72.0499 118.853 72.3546 117.865C72.5749 117.149 72.8572 117.126 73.4839 117.436C77.6364 119.487 81.812 121.501 85.977 123.525L85.9792 123.532Z" fill="#10100F"/>
</g>
<defs>
<clipPath id="clip0_356_1044">
<rect width="130.244" height="167.69" fill="white" transform="translate(73.6904) rotate(25.9251)"/>
</clipPath>
</defs>
</svg>
