<?xml version="1.0" encoding="UTF-8" standalone="no"?><svg xmlns="http://www.w3.org/2000/svg" xmlns:xlink="http://www.w3.org/1999/xlink" fill="#000000" height="457.9" preserveAspectRatio="xMidYMid meet" version="1" viewBox="-9.0 -2.1 311.7 457.9" width="311.7" zoomAndPan="magnify"><g id="change1_1"><path d="M287.5,218l-117.1-15.4l0,0l9.5-27.9c0,0,51.4-3.3,79.7-16.7s43.1-32,37.8-42.4s-88,44.5-96.3,44.5 s-16.4,0.6-16.4,0.6l3.5-10.2c0.4-1-0.2-2.1-1.2-2.4c-0.9-0.3-1.8,0-2.3,0.8c0,0-20.3-146.8-37.9-148.9s-10.3,30,0,89.2 s28.1,75.7,28.1,75.7c-0.6,1.8-5.4,15.8-13.1,36.3c0,0-35.1-56.7-51.2-73.2S71.8,87.8,65.6,90.9s-8.3-3.1,4.1,23.5 c11.2,24,75.6,84.6,88.4,96.4c-4.8,12.5-10.4,26.8-16.6,41.7l0,0c0,0-24.2-20-35.6-39.7s-45.4-89.9-69.3-92s48.3,105.4,65,123 c9.5,10.1,20.9,18.2,33.5,23.8c-5.8,13.5-12,27.3-18.4,40.7c-4-4.1-33.4-35.1-49.8-62.4c-17.6-29.3-36-75.6-52.8-64.7 s56.7,99,68.7,110.3c10.1,9.5,22.7,26.5,26.5,31.7c-0.3,0.5-0.5,1-0.8,1.6c-4.4,8.5-8.8,16.8-13.2,24.7l-38.2-37.4 c-10.4-12.4-43.3-86.9-54.7-73.4s18.6,40.3,29.4,62.4c10.2,21.1,53.9,55,58,58.2c-29.5,51.4-56.3,86.8-50,91.2 c7.6,5.3,16.9-7.7,17.8-9.5v-0.1l24.5-43.4l23.2-40.3c22,9.1,133.8,54.5,142.1,38.7c9.3-17.6-36.2-22.8-67.7-25.9 s-70.7-19.4-70.7-19.4l20.5-35.7l35.2,19.5c0,0,97.8,17.4,104.2-4.7s-50.5-13.3-73.4-10.9c-17.7,1.8-47.2-9.7-59.7-15l10.7-31.5 c16,5.5,32.4,9.5,49.1,12c39.3,6.2,82.7,7.2,84.8-8.3s-61-7.2-81.7-7.9s-48.9-5.7-48.9-5.7l0,0l16-47.1 c17.8,7.3,72.6,28.4,94.9,22.4C287.9,230.4,294.3,224.2,287.5,218z" fill="#d6e8f7"/></g></svg>