<svg fill="none" height="649" viewBox="0 0 1012 649" width="1012" xmlns="http://www.w3.org/2000/svg" xmlns:xlink="http://www.w3.org/1999/xlink"><clipPath id="a"><path d="m0 0h1011.21v648.67h-1011.21z"/></clipPath><g clip-path="url(#a)"><path d="m1011.21 324.34c0-179.13-225.88-324.34-504.5-324.34s-504.50009 145.21-504.50009 324.34c0 41.06 11.86999 80.34 33.52999 116.49-23.6269 51.487-35.8198946 107.481-35.73999816 164.13-.0000003 11.594 4.60482816 22.713 12.80179816 30.911 8.1969 8.199 19.3147 12.807 30.9082 12.809h923.7801c11.593-.002 22.711-4.61 30.908-12.809 8.202-8.198 12.802-19.317 12.802-30.911.07-55.86-11.788-111.091-34.78-162 22.45-36.77 34.79-76.77 34.79-118.62z" fill="#717171"/></g></svg>