<svg width="82" height="82" viewBox="0 0 82 82" fill="none" xmlns="http://www.w3.org/2000/svg">
<path d="M40.9468 81.1677C43.4644 79.3981 43.6063 75.6764 41.231 73.7151L10.1383 48.0405C7.70667 46.0326 9.07604 42.0574 12.2125 42.0444C20.7849 42.0084 32.3452 42.0757 41.1557 42.5558C52.749 43.1877 68.9778 45.0466 77.0435 46.0235C79.6777 46.3426 81.9999 44.2599 82 41.5712C82.0001 38.9316 79.7617 36.8651 77.1686 37.1091C69.1429 37.8649 52.796 39.3153 41.1557 39.7581C32.3352 40.0934 20.7694 40.0577 12.1977 39.9589C9.07082 39.9227 7.71928 35.957 10.1437 33.9551L41.231 8.28509C43.6063 6.32354 43.4644 2.60187 40.9468 0.83226C38.903 -0.604202 36.1033 -0.136269 34.6232 1.88926L21.848 19.3689C18.232 24.3166 13.9817 28.7535 9.20903 32.563L0.829079 39.2599C-0.275604 40.1426 -0.276482 41.8394 0.827118 42.7235L9.20903 49.437C13.9817 53.2465 18.232 57.6836 21.848 62.6311L34.6232 80.1108C36.1033 82.1362 38.903 82.6042 40.9468 81.1677Z" fill="#000"/>
</svg>
