<svg width="67" height="62" fill="none" xmlns="http://www.w3.org/2000/svg" class="css-5hz1ob"><path d="M66.403 24.186c0-20.779-38.249-35.895-59.524-10.58-11.62 13.823-7.328 46.1 16.739 48.106 23.669 1.976 23.056-13.03 29.621-25.958 2.856-5.642 13.164-2.256 13.164-11.567z" fill="#F06D41"></path><path d="M31.422 24.338c-2.41.04-4.755-.793-6.611-2.347a.46.46 0 01.3-.779.45.45 0 01.32.11 9.304 9.304 0 005.99 2.1c2.2.016 4.34-.724 6.069-2.1a.45.45 0 01.633.039.46.46 0 01-.024.64 10.366 10.366 0 01-6.677 2.337zM27.289 18.081a3.65 3.65 0 110-7.3 3.65 3.65 0 010 7.3zm0-6.461a2.797 2.797 0 10-.001 5.593 2.797 2.797 0 000-5.593zM36.676 18.081a3.65 3.65 0 110-7.3 3.65 3.65 0 010 7.3zm0-6.461a2.797 2.797 0 100 5.594 2.797 2.797 0 000-5.594z" fill="#000"></path></svg>