<svg width="18" height="18" viewBox="0 0 18 18" fill="none" xmlns="http://www.w3.org/2000/svg">
<path d="M17.9977 8.99897V12.6239C17.9459 13.3889 17.8013 14.1447 17.567 14.8748C17.3548 15.4635 17.0133 15.9971 16.5676 16.4363C16.1041 16.897 15.5515 17.2583 14.9435 17.4982C14.2409 17.766 13.5043 17.9349 12.7552 18.0001H5.38028C4.61517 17.9494 3.85922 17.8047 3.12948 17.5693C2.54078 17.3571 2.00717 17.0156 1.56791 16.5699C1.10654 16.1069 0.745143 15.5541 0.506063 14.9458C0.237501 14.2435 0.0692646 13.5068 0.00634766 12.7575V5.25768C0.0635564 4.53496 0.208205 3.82184 0.437124 3.13395C0.648167 2.54406 0.989843 2.0095 1.43656 1.57023C1.89971 1.1091 2.45237 0.747708 3.06054 0.508356C3.76326 0.241044 4.49981 0.0728742 5.24892 0.00866699H12.7487C13.4978 0.0731228 14.2343 0.241285 14.9371 0.508356C15.52 0.732126 16.0513 1.07216 16.4986 1.50776C16.9347 1.95555 17.2748 2.48766 17.498 3.07148C17.7654 3.77346 17.9336 4.50927 17.9977 5.25768V8.99897ZM16.3737 9.06144C16.3737 7.27157 16.3522 6.06107 16.3112 5.43644C16.2825 4.88329 16.1774 4.33676 15.9989 3.81241C15.8538 3.39175 15.6195 3.00746 15.3119 2.68593C14.9907 2.37783 14.6063 2.14338 14.1854 1.99885C13.6815 1.82426 13.1561 1.71918 12.6238 1.68652C12.0394 1.64632 10.8519 1.62552 9.06128 1.62408C7.27069 1.62264 6.06234 1.64345 5.43628 1.68652C4.8831 1.71504 4.33654 1.82016 3.81224 1.99885C3.39084 2.14236 3.00624 2.37694 2.68577 2.68593C2.37667 3.00631 2.14207 3.39094 1.99869 3.81241C1.82204 4.31575 1.71692 4.8414 1.68639 5.37397C1.64331 5.95767 1.62392 7.16817 1.62392 8.99897C1.62392 10.8298 1.64331 12.0424 1.68639 12.6239C1.7165 13.1566 1.82163 13.6823 1.99869 14.1855C2.14056 14.6077 2.37535 14.9926 2.68577 15.312C3.00513 15.6224 3.39008 15.8572 3.81224 15.9991C4.31604 16.1741 4.84146 16.2792 5.37381 16.3114C5.95536 16.353 7.14287 16.3739 8.93634 16.3739C10.7298 16.3739 11.9382 16.353 12.5613 16.3114C13.1145 16.2827 13.661 16.1776 14.1854 15.9991C14.607 15.856 14.9917 15.6214 15.3119 15.312C15.6208 14.9915 15.8554 14.6069 15.9989 14.1855C16.1768 13.6791 16.3023 13.1559 16.3737 12.6239V9.06144ZM11.3207 4.9992C12.0185 5.40798 12.5993 5.98954 13.0072 6.68786C13.4207 7.38752 13.6366 8.18627 13.6318 8.99897C13.6372 9.81243 13.4213 10.612 13.0072 11.3122C12.5998 12.0104 12.0188 12.5913 11.3207 12.9987C10.6206 13.413 9.82092 13.6289 9.00743 13.6234C8.19388 13.6295 7.39407 13.4135 6.69417 12.9987C5.99507 12.5926 5.41381 12.0113 5.00766 11.3122C4.59257 10.6125 4.37661 9.81257 4.38305 8.99897C4.37722 8.18613 4.59315 7.3871 5.00766 6.68786C5.41438 5.98864 5.99547 5.40681 6.69417 4.9992C7.3945 4.58542 8.19402 4.36956 9.00743 4.37459C9.82078 4.3701 10.6202 4.58593 11.3207 4.9992ZM11.1312 11.1249C11.4148 10.8492 11.6388 10.5183 11.7896 10.1527C11.9404 9.78706 12.0146 9.39441 12.0078 8.99897C12.0143 8.60389 11.9399 8.21165 11.7892 7.84641C11.6384 7.48117 11.4145 7.15067 11.1312 6.87525C10.8558 6.59192 10.5252 6.36796 10.16 6.2172C9.79475 6.06643 9.40251 5.99204 9.00743 5.9986C8.61199 5.99175 8.21935 6.066 7.85372 6.21678C7.48809 6.36755 7.1572 6.59166 6.88153 6.87525C6.59849 7.15078 6.37493 7.48135 6.22453 7.8466C6.07413 8.21185 6.00013 8.60403 6.00709 8.99897C5.99983 9.39427 6.07365 9.78686 6.22406 10.1525C6.37446 10.5181 6.59822 10.8491 6.88153 11.1249C7.1573 11.4082 7.48823 11.6319 7.85388 11.7823C8.21952 11.9327 8.61213 12.0066 9.00743 11.9993C9.40093 12.0051 9.79147 11.9305 10.1552 11.7802C10.5188 11.6298 10.848 11.4068 11.1226 11.1249H11.1312ZM13.0697 3.43763C13.1664 3.33676 13.2828 3.25695 13.4118 3.20321C13.5408 3.14947 13.6795 3.12296 13.8192 3.12533C13.9589 3.12335 14.0975 3.15004 14.2264 3.20376C14.3553 3.25748 14.4718 3.33707 14.5688 3.43763C14.6696 3.53446 14.7495 3.65094 14.8036 3.77986C14.8577 3.90877 14.8848 4.04741 14.8832 4.18721C14.8852 4.32705 14.8583 4.46579 14.8041 4.59477C14.75 4.72374 14.6699 4.84017 14.5688 4.93675C14.4718 5.03731 14.3553 5.1169 14.2264 5.17062C14.0975 5.22434 13.9589 5.25104 13.8192 5.24905C13.6795 5.25142 13.5408 5.22492 13.4118 5.17118C13.2828 5.11743 13.1664 5.03762 13.0697 4.93675C12.9734 4.84964 12.896 4.74373 12.8423 4.62555C12.7886 4.50738 12.7597 4.37944 12.7573 4.24965C12.7502 4.10078 12.7735 3.95203 12.8257 3.81243C12.8779 3.67283 12.958 3.5453 13.0611 3.43763H13.0697Z" fill="black"/>
</svg>
