<svg xmlns="http://www.w3.org/2000/svg" width="50" height="50" fill="none"><path fill="#000" d="M7.74 36.752c-.552-.712-1.128-1.62-1.728-2.724-.6-1.096-1.108-2.408-1.524-3.936-.408-1.536-.612-3.312-.612-5.328 0-1.368.128-2.692.384-3.972a23.62 23.62 0 0 1 1.02-3.588c.424-1.112.88-2.088 1.368-2.928.488-.848.964-1.512 1.428-1.992l.24.276c-.24.456-.508 1.108-.804 1.956-.296.848-.58 1.828-.852 2.94a37.595 37.595 0 0 0-.684 3.54 27.292 27.292 0 0 0-.264 3.792c0 2.008.136 3.772.408 5.292.28 1.52.604 2.8.972 3.84.376 1.048.708 1.876.996 2.484l-.348.348zm35.34 0-.336-.348c.288-.608.616-1.436.984-2.484.376-1.04.7-2.32.972-3.84s.408-3.284.408-5.292c0-1.272-.088-2.536-.264-3.792a33.091 33.091 0 0 0-.684-3.54 32.253 32.253 0 0 0-.852-2.94c-.296-.848-.564-1.5-.804-1.956l.24-.276c.464.48.94 1.144 1.428 1.992.496.84.952 1.816 1.368 2.928.424 1.104.764 2.3 1.02 3.588.264 1.28.396 2.604.396 3.972 0 2.016-.208 3.792-.624 5.328-.408 1.528-.912 2.84-1.512 3.936-.6 1.104-1.18 2.012-1.74 2.724zM33.001 24.408l-4.032 3.376V25.08H17.833v-1.328h11.136v-2.736l4.032 3.392z"/></svg>