<svg width="122" height="39" fill="none" xmlns="http://www.w3.org/2000/svg"><path d="M66.42 11.89c0 .96-.79 1.82-1.82 1.82-.79 0-1.47.2-2.05.65-.66.4-1.17 1-1.58 1.64-.82 1.1-1.24 2.4-1.4 2.88v6.52c0 1-.86 1.82-1.9 1.82-.99 0-1.81-.83-1.81-1.82V11.89c0-1 .82-1.79 1.82-1.79 1.03 0 1.88.8 1.88 1.79v.24c.2-.24.48-.52.72-.69a7.52 7.52 0 0 1 4.32-1.34c1.03 0 1.82.8 1.82 1.79ZM65.41 18.64c.04-4.66 3.67-8.57 8.37-8.57a8.2 8.2 0 0 1 8.26 7.95v.18c0 .07 0 .24-.03.3-.1.83-.82 1.38-1.78 1.38h-10.9a4.5 4.5 0 0 0 1.16 2.26 5.3 5.3 0 0 0 3.29 1.54c1.23.1 2.7-.2 3.57-.85.72-.76 2.12-.66 2.57-.1.44.47.79 1.5 0 2.22a8.67 8.67 0 0 1-6.14 2.26 8.51 8.51 0 0 1-8.37-8.57Zm3.74-1.68h9.7c-.34-1.37-2.09-3.4-5.07-3.63a4.8 4.8 0 0 0-4.63 3.63ZM99.5 25.37a1.85 1.85 0 0 1-3.67.38 8.37 8.37 0 0 1-4.65 1.47 8.47 8.47 0 0 1-8.34-8.54c0-4.7 3.7-8.6 8.34-8.6 1.68 0 3.32.54 4.59 1.43V5.07a1.87 1.87 0 0 1 3.74 0v20.3ZM91.19 13.8c-1.24 0-2.37.51-3.23 1.4a4.87 4.87 0 0 0-1.37 3.47c0 1.3.52 2.54 1.37 3.4a4.38 4.38 0 0 0 6.45 0 4.82 4.82 0 0 0 1.37-3.4c0-1.37-.51-2.6-1.37-3.46a4.38 4.38 0 0 0-3.22-1.41ZM106.04 5.78a1.85 1.85 0 1 1-3.7 0v-.72c0-1.02.82-1.85 1.85-1.85 1.06 0 1.85.83 1.85 1.85v.72Zm0 6.21v13.37c0 1.03-.79 1.86-1.85 1.86a1.84 1.84 0 0 1-1.85-1.86V12c0-1.1.82-1.88 1.85-1.88 1.06 0 1.85.78 1.85 1.88ZM108.39 22.31a1.78 1.78 0 0 1 2.57-.27 6.3 6.3 0 0 0 3.77 1.5c.93 0 1.78-.3 2.33-.65.48-.4.62-.75.62-1.02a.52.52 0 0 0-.1-.35c-.04-.1-.18-.24-.45-.4a7.94 7.94 0 0 0-2.74-.97h-.04c-1.06-.2-2.09-.48-2.98-.9a5.74 5.74 0 0 1-2.37-1.98 4.16 4.16 0 0 1-.58-2.16c0-1.58.9-2.91 2.02-3.77a7.38 7.38 0 0 1 4.22-1.27c2.37 0 4.05 1.13 5.15 1.89a1.9 1.9 0 0 1 .54 2.53 1.81 1.81 0 0 1-2.53.48c-1.1-.72-2.06-1.27-3.16-1.27a3.5 3.5 0 0 0-2.06.62c-.44.31-.54.62-.54.8 0 .13 0 .16.06.26.04.07.14.21.38.35a7 7 0 0 0 2.5.82l.04.04h.03c1.14.2 2.2.5 3.2.99a5.33 5.33 0 0 1 2.43 2.02c.4.69.65 1.48.65 2.27 0 1.68-.93 3.08-2.16 3.97a7.8 7.8 0 0 1-4.46 1.37 9.96 9.96 0 0 1-6.1-2.36 1.83 1.83 0 0 1-.24-2.54ZM45 23.67v4.49c0 .45-.54.94-1.76 1.58-2.4 1.25-14.85 6.37-17.5 7.75-2.64 1.38-4.11 1.36-6.2.36-2.1-1-15.34-6.34-17.72-7.48C.62 29.8 0 29.32 0 28.87V24.3c.02.46.63.94 1.82 1.5 2.38 1.15 15.62 6.5 17.71 7.5 2.1 1 3.57 1 6.22-.37 2.64-1.38 15.09-6.5 17.49-7.75 1.16-.6 1.74-1.09 1.75-1.52Zm-1.76-5.9c-2.4 1.25-14.85 6.37-17.5 7.75-2.64 1.38-4.11 1.37-6.2.37-2.1-1-15.34-6.35-17.72-7.5-1.2-.56-1.8-1.04-1.82-1.5v4.56c0 .45.63.93 1.82 1.5 2.38 1.14 15.62 6.49 17.71 7.49 2.1 1 3.57 1.01 6.22-.37 2.64-1.38 15.09-6.5 17.49-7.75C44.46 21.7 45 21.2 45 20.74v-4.48c-.02.43-.6.9-1.76 1.51ZM45 8.57v4.48c0 .45-.54.94-1.76 1.58-2.4 1.25-14.85 6.37-17.5 7.75-2.64 1.38-4.11 1.37-6.2.37-2.1-1-15.34-6.35-17.72-7.5C.62 14.7 0 14.22 0 13.76V9.2c-.02-.45.55-.87 1.73-1.33 2.34-.92 15.5-6.09 18.29-7.08 2.78-1 3.75-1.04 6.11-.17 2.37.87 14.74 5.79 17.08 6.65 1.2.44 1.8.84 1.78 1.3ZM17.7 5.46l4.5.4 1.41 2.35.88-2.1 3.9-.41-3.03-1.13.8-1.93-2.96.98-3.15-1.24 1.01 1.86-3.36 1.22Zm-4.4 5.73c3.07 0 5.56-.97 5.56-2.16 0-1.2-2.49-2.16-5.57-2.16s-5.57.96-5.57 2.16c0 1.2 2.5 2.16 5.57 2.16Zm13.23.08-10.43 1.6 7.28 3.02 3.15-4.62Zm12.63-2.56L33 6.27l-6.82 2.7 6.16 2.44.67-.26 6.16-2.44Z" fill="#fff"/></svg>