<svg width="43" height="43" viewBox="0 0 43 43" fill="none" xmlns="http://www.w3.org/2000/svg">
<path fill-rule="evenodd" clip-rule="evenodd" d="M33.4538 23.6677C32.7136 23.3392 32.7316 23.3441 32.5231 24.1061C32.4224 24.474 32.2357 24.818 32.0949 25.1755C32.0353 25.3273 31.997 25.487 31.9432 25.6412C31.7522 26.189 31.3655 26.6204 31.0317 27.073C30.6245 27.6251 30.1506 28.133 29.6675 28.6226C29.2137 29.0826 28.7146 29.4986 28.226 29.9231C28.1143 30.0201 27.9655 30.0754 27.8313 30.1454C27.3292 30.4068 26.8338 30.683 26.3214 30.9227C25.4959 31.3092 24.6221 31.545 23.7322 31.7433C22.5656 32.0032 21.3899 32 20.2124 31.9335C19.6689 31.9027 19.1268 31.7929 18.591 31.6848C17.7425 31.5136 16.9475 31.1725 16.1706 30.806C15.6445 30.5578 15.1595 30.2226 14.6563 29.9259C13.6465 29.3307 12.8631 28.482 12.1183 27.6022C11.8162 27.2454 11.6059 26.8102 11.3595 26.4072C11.1707 26.0986 10.9809 25.7898 10.8105 25.471C10.714 25.2902 10.6425 25.0931 10.5826 24.8963C10.4267 24.385 10.2834 23.8697 10.1131 23.2797C9.96339 23.3279 9.81241 23.3528 9.68604 23.4221C9.35558 23.6036 8.94743 23.3891 8.94646 23.0051C8.94613 22.91 9.02079 22.7759 9.10175 22.7261C9.46819 22.5009 9.83334 22.2569 10.2316 22.1069C10.4466 22.026 10.7291 22.1075 10.9783 22.1379C11.3868 22.1879 11.7925 22.2599 12.2003 22.3147C12.4512 22.3483 12.6356 22.5217 12.6247 22.7327C12.6121 22.9802 12.4293 23.1433 12.1596 23.1326C11.8979 23.1225 11.6368 23.0855 11.3754 23.0858C11.1197 23.086 11.0937 23.1858 11.1839 23.4296C11.2848 23.7024 11.325 23.997 11.409 24.2769C11.5977 24.9059 11.873 25.4967 12.2013 26.0658C12.6951 26.9218 13.3186 27.6808 14.0431 28.3368C14.5782 28.8212 15.2014 29.2133 15.8081 29.6121C16.6769 30.1829 17.6476 30.5388 18.6412 30.8167C19.1102 30.948 19.603 31.0158 20.0897 31.0566C20.6221 31.1012 21.1604 31.0981 21.6954 31.0849C22.1535 31.0736 22.62 31.0643 23.0661 30.9727C23.7738 30.8275 24.4646 30.6016 25.1683 30.434C25.8379 30.2745 26.4159 29.9245 26.9907 29.5782C27.553 29.2395 28.1472 28.9098 28.6048 28.4534C29.0947 27.965 29.6813 27.5499 30.005 26.8944C30.1832 26.5335 30.4415 26.209 30.6855 25.8846C31.0993 25.3342 31.2884 24.6847 31.5297 24.0572C31.5671 23.9597 31.6339 23.8694 31.6512 23.7696C31.6742 23.6377 31.713 23.4624 31.6496 23.375C31.5909 23.294 31.4073 23.2858 31.2771 23.2795C31.1453 23.2732 31.0091 23.3337 30.8793 23.3206C30.6589 23.2983 30.505 23.1855 30.4982 22.9327C30.4911 22.6679 30.6178 22.4844 30.8508 22.4487C31.3613 22.3703 31.8755 22.3113 32.3813 22.2105C32.7542 22.136 33.0017 22.3701 33.2842 22.5143C33.5016 22.6253 33.6897 22.7927 33.9037 22.9115C34.1632 23.0557 34.1694 23.2388 34.0328 23.4648C33.9202 23.6513 33.6387 23.7498 33.4538 23.6677ZM17.3687 12.2651C18.486 12.2651 19.3917 14.2708 19.3917 16.745C19.3917 19.219 18.486 21.2247 17.3687 21.2247C16.517 21.2247 15.7889 20.0591 15.4904 18.4095C15.4845 18.3905 15.4786 18.3713 15.4725 18.3523C15.4637 18.3243 15.4637 18.2933 15.4648 18.2621C15.3878 17.7882 15.3455 17.2775 15.3455 16.745C15.3455 14.2708 16.2513 12.2651 17.3687 12.2651ZM25.8946 12.2651C27.0121 12.2651 27.9178 14.2708 27.9178 16.745C27.9178 19.219 27.0121 21.2247 25.8946 21.2247C25.5447 21.2247 25.2154 21.0279 24.9283 20.6814C24.7808 20.5301 24.6609 20.3315 24.5722 20.1442C24.5616 20.1219 24.5527 20.0986 24.5423 20.0761C24.3589 19.7108 24.2062 19.272 24.0928 18.7812C24.079 18.7249 24.066 18.6683 24.0555 18.611C23.9377 18.0427 23.8716 17.4111 23.8716 16.745C23.8716 14.2708 24.7773 12.2651 25.8946 12.2651ZM21.5338 3.47632C11.7915 3.47632 3.8938 11.374 3.8938 21.1163C3.8938 30.8586 11.7915 38.7563 21.5338 38.7563C31.2761 38.7563 39.1738 30.8586 39.1738 21.1163C39.1738 11.374 31.2761 3.47632 21.5338 3.47632Z" fill="white"/>
</svg>
