<svg xmlns="http://www.w3.org/2000/svg" viewBox="7.80069 -0.000757502 3.6 3.301">
	<path d="M 8.7375 3.3 c -0.015 0 -0.0255 -0.0075 -0.0345 -0.0135 c -0.1305 -0.075 -0.2505 -0.162 -0.36 -0.264 a 2.073 2.073 90 0 1 -0.477 -0.795 a 1.629 1.629 90 0 1 -0.06 -0.588 c 0.012 -0.1695 0.045 -0.336 0.1125 -0.495 c 0.0345 -0.081 0.075 -0.162 0.117 -0.24 a 1.623 1.623 90 0 1 0.39 -0.471 A 1.767 1.767 90 0 1 9.675 0.0015 c 0.8355 0.036 1.4895 0.609 1.6725 1.332 a 1.71 1.71 90 0 1 -0.189 1.302 a 1.7745 1.7745 90 0 1 -0.6255 0.6315 c -0.018 0.012 -0.036 0.021 -0.054 0.03 c -0.0075 -0.0075 0 -0.009 0 -0.0135 l 0.0105 -0.0105 a 1.419 1.419 90 0 0 0.2115 -0.285 a 1.1385 1.1385 90 0 0 0.111 -0.9105 a 0.99 0.99 90 0 0 -0.2025 -0.3615 a 1.236 1.236 90 0 0 -0.7005 -0.42 a 1.488 1.488 90 0 0 -0.93 0.1125 a 1.26 1.26 90 0 0 -0.5115 0.4905 c -0.0435 0.075 -0.069 0.1575 -0.09 0.24 c -0.0255 0.105 -0.039 0.2115 -0.033 0.321 c 0.009 0.171 0.057 0.333 0.135 0.486 a 1.4325 1.4325 90 0 0 0.255 0.348 c 0.003 0 0.003 0 0.0045 0.006 Z" fill="#fc1234"/>
</svg>
