<svg width="16" height="16" viewBox="0 0 16 16" fill="none" xmlns="http://www.w3.org/2000/svg">
<path d="M14.132 3.42183C14.0152 3.36602 13.9015 3.30483 13.7913 3.23851C13.4709 3.04267 13.1771 2.81191 12.9163 2.55121C12.2637 1.86091 12.02 1.16061 11.9302 0.6703H11.9338C11.8588 0.26332 11.8898 0 11.8945 0H8.92221V10.6255C8.92221 10.7681 8.92221 10.9091 8.91573 11.0484C8.91573 11.0658 8.91392 11.0818 8.91284 11.1004C8.91284 11.1081 8.91284 11.1161 8.91104 11.1241C8.91104 11.1261 8.91104 11.1281 8.91104 11.1301C8.87971 11.5114 8.74752 11.8796 8.52609 12.2026C8.30467 12.5255 8.0008 12.7931 7.64121 12.982C7.26644 13.1791 6.84258 13.2825 6.41141 13.282C5.02657 13.282 3.9042 12.2381 3.9042 10.9488C3.9042 9.65952 5.02657 8.61557 6.41141 8.61557C6.67355 8.61535 6.93408 8.65348 7.18332 8.72856L7.18693 5.9307C6.43028 5.84035 5.66159 5.89594 4.92935 6.09398C4.19711 6.29201 3.51721 6.62819 2.93254 7.08131C2.42024 7.49283 1.98954 7.98383 1.65983 8.53224C1.53436 8.73223 1.06097 9.53586 1.00365 10.8401C0.967592 11.5804 1.20807 12.3474 1.32272 12.6644V12.671C1.39483 12.8577 1.67425 13.4947 2.12962 14.0316C2.4968 14.4624 2.93063 14.8407 3.41711 15.1546V15.1479L3.42432 15.1546C4.86324 16.0585 6.45864 15.9992 6.45864 15.9992C6.73481 15.9889 7.65996 15.9992 8.71058 15.5389C9.87585 15.0286 10.5392 14.2683 10.5392 14.2683C10.9631 13.814 11.3001 13.2963 11.5358 12.7374C11.8047 12.0837 11.8945 11.2998 11.8945 10.9865V5.3494C11.9306 5.3694 12.4108 5.66305 12.4108 5.66305C12.4108 5.66305 13.1027 6.07303 14.1822 6.34002C14.9566 6.53001 16 6.57001 16 6.57001V3.84214C15.6344 3.87881 14.8921 3.77215 14.132 3.42183Z" fill="black"/>
</svg>
