<svg width="12" height="12" viewBox="0 0 12 12" fill="none" xmlns="http://www.w3.org/2000/svg">
<g opacity="0.2">
<path d="M4.5 5.5H7.5V6.5H4.5V5.5Z" fill="#F84F39"/>
</g>
<path d="M6.59999 2.00002C6.59999 1.66865 6.33137 1.40002 5.99999 1.40002C5.66862 1.40002 5.39999 1.66865 5.39999 2.00002V5.40002H1.99999C1.66862 5.40002 1.39999 5.66865 1.39999 6.00002C1.39999 6.3314 1.66862 6.60002 1.99999 6.60002H5.39999V10C5.39999 10.3314 5.66862 10.6 5.99999 10.6C6.33137 10.6 6.59999 10.3314 6.59999 10V6.60002H9.99999C10.3314 6.60002 10.6 6.3314 10.6 6.00002C10.6 5.66865 10.3314 5.40002 9.99999 5.40002H6.59999V2.00002Z" fill="#F84F39"/>
</svg>
