<svg width="20" height="20" viewBox="0 0 20 20" fill="none" xmlns="http://www.w3.org/2000/svg">
<path opacity="0.2" d="M3.41675 11.549L11.8953 1.48071V8.45096H16.5832L8.10465 18.5192V11.549H3.41675Z" fill="#F84F39"/>
<path fill-rule="evenodd" clip-rule="evenodd" d="M12.131 0.834916C12.4023 0.933931 12.5828 1.19195 12.5828 1.48075V7.76349H16.5832C16.8506 7.76349 17.0937 7.91854 17.2065 8.16099C17.3193 8.40344 17.2813 8.68929 17.1091 8.89383L8.63053 18.9621C8.44451 19.183 8.14025 19.2641 7.86895 19.1651C7.59765 19.0661 7.41716 18.808 7.41716 18.5192V12.2365H3.41676C3.14935 12.2365 2.90621 12.0814 2.79341 11.839C2.68062 11.5965 2.71864 11.3107 2.89088 11.1062L11.3694 1.0379C11.5554 0.816996 11.8597 0.735901 12.131 0.834916ZM4.8945 10.8615H8.10466C8.48435 10.8615 8.79216 11.1693 8.79216 11.549V16.6355L15.1054 9.13849H11.8953C11.5156 9.13849 11.2078 8.83069 11.2078 8.45099V3.36448L4.8945 10.8615Z" fill="#F84F39"/>
</svg>
