<svg width="16" height="16" viewBox="0 0 16 16" fill="none" xmlns="http://www.w3.org/2000/svg">
<path opacity="0.2" d="M7 3H1V13H6L8 14V4L7 3Z" fill="#F84F39"/>
<path d="M14.8571 1.99707H10.2857C9.84216 1.99707 9.40469 2.10249 9.00796 2.30499C8.61123 2.50749 8.26614 2.8015 8 3.16374C7.73387 2.8015 7.38877 2.50749 6.99204 2.30499C6.59531 2.10249 6.15784 1.99707 5.71429 1.99707H1.14286C0.839753 1.99707 0.549062 2.11999 0.334735 2.33878C0.120408 2.55757 0 2.85432 0 3.16374V12.4971C0 12.8065 0.120408 13.1032 0.334735 13.322C0.549062 13.5408 0.839753 13.6637 1.14286 13.6637H5.71429C6.16894 13.6637 6.60498 13.8481 6.92647 14.1763C7.24796 14.5045 7.42857 14.9496 7.42857 15.4137C7.42857 15.5684 7.48878 15.7168 7.59594 15.8262C7.7031 15.9356 7.84845 15.9971 8 15.9971C8.15155 15.9971 8.2969 15.9356 8.40406 15.8262C8.51123 15.7168 8.57143 15.5684 8.57143 15.4137C8.57143 14.9496 8.75204 14.5045 9.07353 14.1763C9.39502 13.8481 9.83106 13.6637 10.2857 13.6637H14.8571C15.1602 13.6637 15.4509 13.5408 15.6653 13.322C15.8796 13.1032 16 12.8065 16 12.4971V3.16374C16 2.85432 15.8796 2.55757 15.6653 2.33878C15.4509 2.11999 15.1602 1.99707 14.8571 1.99707ZM5.71429 12.4971H1.14286V3.16374H5.71429C6.16894 3.16374 6.60498 3.34811 6.92647 3.6763C7.24796 4.00449 7.42857 4.44961 7.42857 4.91374V13.0804C6.93447 12.7009 6.33265 12.4961 5.71429 12.4971ZM14.8571 12.4971H10.2857C9.66735 12.4961 9.06553 12.7009 8.57143 13.0804V4.91374C8.57143 4.44961 8.75204 4.00449 9.07353 3.6763C9.39502 3.34811 9.83106 3.16374 10.2857 3.16374H14.8571V12.4971ZM10.2857 4.91374H13.1429C13.2944 4.91374 13.4398 4.9752 13.5469 5.08459C13.6541 5.19399 13.7143 5.34236 13.7143 5.49707C13.7143 5.65178 13.6541 5.80015 13.5469 5.90955C13.4398 6.01895 13.2944 6.0804 13.1429 6.0804H10.2857C10.1342 6.0804 9.98882 6.01895 9.88165 5.90955C9.77449 5.80015 9.71429 5.65178 9.71429 5.49707C9.71429 5.34236 9.77449 5.19399 9.88165 5.08459C9.98882 4.9752 10.1342 4.91374 10.2857 4.91374ZM13.7143 7.8304C13.7143 7.98511 13.6541 8.13349 13.5469 8.24288C13.4398 8.35228 13.2944 8.41374 13.1429 8.41374H10.2857C10.1342 8.41374 9.98882 8.35228 9.88165 8.24288C9.77449 8.13349 9.71429 7.98511 9.71429 7.8304C9.71429 7.67569 9.77449 7.52732 9.88165 7.41792C9.98882 7.30853 10.1342 7.24707 10.2857 7.24707H13.1429C13.2944 7.24707 13.4398 7.30853 13.5469 7.41792C13.6541 7.52732 13.7143 7.67569 13.7143 7.8304ZM13.7143 10.1637C13.7143 10.3184 13.6541 10.4668 13.5469 10.5762C13.4398 10.6856 13.2944 10.7471 13.1429 10.7471H10.2857C10.1342 10.7471 9.98882 10.6856 9.88165 10.5762C9.77449 10.4668 9.71429 10.3184 9.71429 10.1637C9.71429 10.009 9.77449 9.86065 9.88165 9.75126C9.98882 9.64186 10.1342 9.5804 10.2857 9.5804H13.1429C13.2944 9.5804 13.4398 9.64186 13.5469 9.75126C13.6541 9.86065 13.7143 10.009 13.7143 10.1637Z" fill="#F84F39"/>
</svg>
