<svg width="16" height="16" viewBox="0 0 16 16" fill="none" xmlns="http://www.w3.org/2000/svg">
<rect opacity="0.2" x="4.53125" y="7.67212" width="2.26562" height="0.65625" fill="#F84F39"/>
<path d="M2.99566 3.39111H11.719C12.0801 3.39111 12.3728 3.68386 12.3728 4.04497C12.3728 4.40609 12.0801 4.69883 11.719 4.69883H2.99566C2.63454 4.69883 2.3418 4.40609 2.3418 4.04497C2.3418 3.68386 2.63454 3.39111 2.99566 3.39111Z" fill="#F84F39"/>
<path d="M2.99566 6.59882H8.40083C8.76194 6.59882 9.05469 6.89156 9.05469 7.25268C9.05469 7.61379 8.76194 7.90654 8.40083 7.90654H2.99566C2.63454 7.90654 2.3418 7.61379 2.3418 7.25268C2.3418 6.89156 2.63454 6.59882 2.99566 6.59882Z" fill="#F84F39"/>
<path d="M5.36958 9.80652H2.99566C2.63454 9.80652 2.3418 10.0993 2.3418 10.4604C2.3418 10.8215 2.63454 11.1142 2.99566 11.1142H5.36958C5.73069 11.1142 6.02344 10.8215 6.02344 10.4604C6.02344 10.0993 5.73069 9.80652 5.36958 9.80652Z" fill="#F84F39"/>
<path d="M11.2223 6.73682C10.8633 6.73682 10.5723 7.02783 10.5723 7.38682V9.80371H8.15391C7.79492 9.80371 7.50391 10.0947 7.50391 10.4537C7.50391 10.8127 7.79492 11.1037 8.15391 11.1037H10.5723V13.5211C10.5723 13.8801 10.8633 14.1711 11.2223 14.1711C11.5812 14.1711 11.8723 13.8801 11.8723 13.5211V11.1037H14.2882C14.6472 11.1037 14.9382 10.8127 14.9382 10.4537C14.9382 10.0947 14.6472 9.80371 14.2882 9.80371H11.8723V7.38682C11.8723 7.02783 11.5812 6.73682 11.2223 6.73682Z" fill="#F84F39"/>
</svg>
