<svg width="24" height="24" viewBox="0 0 24 24" fill="none" xmlns="http://www.w3.org/2000/svg">
<rect opacity="0.2" x="2.42798" y="2.4281" width="19.1438" height="19.1438" rx="7.65776" fill="#F84F39"/>
<path d="M12.8424 6.91872C13.1877 7.11591 13.3078 7.55569 13.1106 7.901L10.4687 12.5271C10.0845 13.1999 9.17849 13.3488 8.59915 12.8343L6.90467 11.3294C6.60736 11.0653 6.5804 10.6102 6.84445 10.3129C7.10851 10.0156 7.56359 9.98862 7.8609 10.2527L9.35269 11.5776L11.8601 7.18689C12.0573 6.84159 12.4971 6.72152 12.8424 6.91872Z" fill="#F84F39"/>
<path fill-rule="evenodd" clip-rule="evenodd" d="M14.8956 7.59634C14.4769 7.59634 14.1375 7.93575 14.1375 8.35443C14.1375 8.77311 14.4769 9.11251 14.8956 9.11251H16.1669C16.5856 9.11251 16.925 8.77311 16.925 8.35443C16.925 7.93575 16.5856 7.59634 16.1669 7.59634H14.8956Z" fill="#F84F39"/>
<path fill-rule="evenodd" clip-rule="evenodd" d="M12.9434 11.2419C12.5248 11.2419 12.1854 11.5813 12.1854 12C12.1854 12.4187 12.5248 12.7581 12.9434 12.7581H16.1669C16.5856 12.7581 16.925 12.4187 16.925 12C16.925 11.5813 16.5856 11.2419 16.1669 11.2419H12.9434Z" fill="#F84F39"/>
<path fill-rule="evenodd" clip-rule="evenodd" d="M8.2706 14.8875C7.85192 14.8875 7.51251 15.2269 7.51251 15.6456C7.51251 16.0643 7.85192 16.4037 8.2706 16.4037H14.5419C14.9606 16.4037 15.3 16.0643 15.3 15.6456C15.3 15.2269 14.9606 14.8875 14.5419 14.8875H8.2706Z" fill="#F84F39"/>
<path fill-rule="evenodd" clip-rule="evenodd" d="M2.42798 10.0859C2.42798 5.8566 5.85648 2.4281 10.0857 2.4281H13.9141C18.1433 2.4281 21.5718 5.8566 21.5718 10.0859V13.9142C21.5718 18.1434 18.1433 21.5719 13.9141 21.5719H10.0857C5.85647 21.5719 2.42798 18.1434 2.42798 13.9142V10.0859ZM10.0857 3.86393H13.9141C17.3503 3.86393 20.136 6.64959 20.136 10.0859V13.9142C20.136 17.3505 17.3503 20.1361 13.9141 20.1361H10.0857C6.64946 20.1361 3.86381 17.3505 3.86381 13.9142V10.0859C3.86381 6.64958 6.64946 3.86393 10.0857 3.86393Z" fill="#F84F39"/>
</svg>
