<svg width="20" height="20" viewBox="0 0 20 20" fill="none" xmlns="http://www.w3.org/2000/svg">
<rect opacity="0.2" x="10" y="10" width="1" height="1" fill="#F84F39"/>
<path fill-rule="evenodd" clip-rule="evenodd" d="M10 8.77606L5.46641 4.24237L5.45433 4.23227C5.14034 3.96994 4.62684 3.88017 4.25351 4.25351L4.24237 4.26464L4.23228 4.27672C3.96994 4.59071 3.88018 5.10422 4.25351 5.47755L8.77607 10L4.25351 14.5225C3.9155 14.8605 3.9155 15.4085 4.25351 15.7465C4.59152 16.0845 5.13954 16.0845 5.47754 15.7465L10 11.2239L14.5336 15.7576L14.5457 15.7677C14.7335 15.9246 14.9664 16.0066 15.2064 15.9864C15.4473 15.9662 15.6656 15.8455 15.8271 15.6522L15.8373 15.64L15.8464 15.6269C16.0802 15.2894 16.0472 14.8232 15.7465 14.5225L11.2239 10L15.7465 5.47754C16.0845 5.13953 16.0845 4.59151 15.7465 4.25351C15.4085 3.9155 14.8605 3.9155 14.5225 4.25351L10 8.77606Z" fill="#F84F39"/>
</svg>
