<svg xmlns="http://www.w3.org/2000/svg" viewBox="78.0069 -0.00757394 36 33.01">
	<path d="M 87.375 33 c -0.15 0 -0.255 -0.075 -0.345 -0.135 c -1.305 -0.75 -2.505 -1.62 -3.6 -2.64 a 20.73 20.73 90 0 1 -4.77 -7.95 a 16.29 16.29 90 0 1 -0.6 -5.88 c 0.12 -1.695 0.45 -3.36 1.125 -4.95 c 0.345 -0.81 0.75 -1.62 1.17 -2.4 a 16.23 16.23 90 0 1 3.9 -4.71 A 17.67 17.67 90 0 1 96.75 0.015 c 8.355 0.36 14.895 6.09 16.725 13.32 a 17.1 17.1 90 0 1 -1.89 13.02 a 17.745 17.745 90 0 1 -6.255 6.315 c -0.18 0.12 -0.36 0.21 -0.54 0.3 c -0.075 -0.075 0 -0.09 0 -0.135 l 0.105 -0.105 a 14.19 14.19 90 0 0 2.115 -2.85 a 11.385 11.385 90 0 0 1.11 -9.105 a 9.9 9.9 90 0 0 -2.025 -3.615 a 12.36 12.36 90 0 0 -7.005 -4.2 a 14.88 14.88 90 0 0 -9.3 1.125 a 12.6 12.6 90 0 0 -5.115 4.905 c -0.435 0.75 -0.69 1.575 -0.9 2.4 c -0.255 1.05 -0.39 2.115 -0.33 3.21 c 0.09 1.71 0.57 3.33 1.35 4.86 a 14.325 14.325 90 0 0 2.55 3.48 c 0.03 0 0.03 0 0.045 0.06 Z" fill="#bfff0a"/>
</svg>