<svg xmlns="http://www.w3.org/2000/svg" xmlns:xlink="http://www.w3.org/1999/xlink" viewBox="0 0 20 20"><path d="M 10 0.625 C 15.178 0.625 19.375 4.822 19.375 10 C 19.375 15.178 15.178 19.375 10 19.375 C 4.822 19.375 0.625 15.178 0.625 10 C 0.625 4.822 4.822 0.625 10 0.625 Z M 6.637 15.998 C 6.123 14.674 5.775 13.042 5.664 11.25 L 3.238 11.25 C 3.613 13.29 4.889 15.015 6.637 15.998 Z M 6.637 4.002 C 4.889 4.985 3.613 6.71 3.238 8.75 L 5.664 8.75 C 5.775 6.958 6.123 5.326 6.637 4.002 Z M 13.363 4.002 C 13.877 5.326 14.225 6.958 14.336 8.75 L 16.762 8.75 C 16.387 6.71 15.111 4.985 13.363 4.002 Z M 13.363 15.998 C 15.111 15.015 16.387 13.29 16.762 11.25 L 14.336 11.25 C 14.225 13.042 13.877 14.674 13.363 15.998 Z M 10 16.875 C 10.919 16.875 11.684 14.45 11.844 11.25 L 8.156 11.25 C 8.316 14.45 9.081 16.875 10 16.875 Z M 10 3.125 C 9.081 3.125 8.316 5.55 8.156 8.75 L 11.844 8.75 C 11.684 5.55 10.919 3.125 10 3.125 Z" fill="rgb(0, 153, 255)"></path></svg>