<svg width="713" height="470" viewBox="0 0 713 470" fill="none" xmlns="http://www.w3.org/2000/svg">
<mask id="mask0_2811_1513" style="mask-type:luminance" maskUnits="userSpaceOnUse" x="0" y="0" width="713" height="470">
<path d="M713 470L713 0L0 -3.11662e-05L-2.05444e-05 470L713 470Z" fill="white"/>
</mask>
<g mask="url(#mask0_2811_1513)">
<path d="M10.4106 374.02L10.9407 372.61C26.6807 330.73 60.3406 287.48 108.271 247.53C157.601 206.42 221.121 169.72 291.961 141.38C362.791 113.05 438.521 94.0597 510.971 86.4597C581.311 79.0797 647.101 82.4997 701.241 96.3497L702.701 96.7197L702.171 98.1297C686.431 140.01 652.771 183.26 604.841 223.22C555.521 264.33 491.991 301.03 421.151 329.37C350.321 357.7 274.591 376.69 202.151 384.29C131.821 391.67 66.0207 388.25 11.8807 374.4L10.4206 374.03L10.4106 374.02ZM699.111 98.5997C645.551 85.1397 580.641 81.8697 511.251 89.1497C439.051 96.7197 363.571 115.65 292.961 143.89C222.371 172.12 159.101 208.67 109.991 249.6C62.9507 288.8 29.7907 331.15 13.9907 372.15C67.5507 385.61 132.461 388.88 201.851 381.6C274.051 374.03 349.531 355.1 420.141 326.86C490.731 298.63 554.001 262.08 603.111 221.15C650.151 181.95 683.311 139.6 699.111 98.5997Z" fill="#1B1D1E"/>
<path d="M5.10045 346.23L5.73046 344.88C24.1705 305.38 60.4005 265.77 110.5 230.32C162.05 193.85 227.331 162.6 299.251 139.96C371.171 117.32 447.27 104.06 519.34 101.6C589.31 99.22 654.06 106.98 706.58 124.06L708 124.52L707.37 125.87C688.93 165.37 652.7 204.98 602.6 240.43C551.05 276.9 485.78 308.15 413.85 330.79C341.94 353.43 265.83 366.69 193.76 369.15C123.79 371.53 59.0404 363.77 6.52044 346.69L5.10045 346.23ZM704.34 126.11C652.37 109.45 588.48 101.89 519.44 104.24C447.6 106.69 371.741 119.91 300.051 142.48C228.381 165.04 163.36 196.16 112.03 232.48C62.8704 267.26 27.2005 306.01 8.76049 344.64C60.7305 361.3 124.62 368.86 193.66 366.51C265.49 364.06 341.36 350.84 413.05 328.27C484.72 305.71 549.74 274.59 601.07 238.27C650.23 203.49 685.9 164.74 704.34 126.1L704.34 126.11Z" fill="#1B1D1E"/>
<path d="M1.77025 318.95L2.50036 317.66C23.4404 280.65 61.9603 244.74 113.89 213.8C167.33 181.97 233.95 156.13 306.55 139.07C379.14 122.02 455.22 114.32 526.57 116.82C595.84 119.25 659.25 131.15 709.94 151.25L711.32 151.8L710.59 153.09C689.65 190.1 651.13 226.01 599.2 256.95C545.76 288.78 479.14 314.62 406.54 331.68C333.95 348.73 257.87 356.43 186.52 353.92C117.25 351.49 53.8403 339.59 3.15026 319.49L1.77025 318.94L1.77025 318.95ZM707.61 153.11C657.43 133.46 594.85 121.81 526.5 119.41C455.38 116.92 379.53 124.59 307.16 141.59C234.81 158.59 168.44 184.33 115.23 216.03C64.2903 246.38 26.3804 281.48 5.50036 317.64C55.6804 337.29 118.27 348.94 186.61 351.34C257.73 353.83 333.58 346.17 405.95 329.16C478.3 312.16 544.67 286.42 597.88 254.72C648.82 224.37 686.73 189.27 707.61 153.11Z" fill="#1B1D1E"/>
<path d="M0.370476 292.31L1.20043 291.08C24.4404 256.66 64.9604 224.48 118.39 198.04C173.36 170.83 240.95 150.31 313.83 138.71C386.7 127.11 462.37 124.81 532.67 132.06C600.92 139.1 662.72 154.92 711.39 177.82L712.73 178.45L711.9 179.68C688.66 214.1 648.14 246.28 594.71 272.72C539.74 299.93 472.15 320.45 399.27 332.05C326.4 343.65 250.73 345.95 180.43 338.7C112.18 331.66 50.3804 315.83 1.71044 292.94L0.370476 292.31ZM708.97 179.48C660.76 157.05 599.76 141.53 532.42 134.58C462.34 127.35 386.9 129.64 314.24 141.21C241.6 152.77 174.27 173.21 119.53 200.31C67.1305 226.25 27.2804 257.67 4.15044 291.27C52.3604 313.7 113.37 329.22 180.7 336.17C250.78 343.4 326.22 341.11 398.88 329.54C471.52 317.98 538.85 297.54 593.6 270.44C646 244.5 685.85 213.08 708.98 179.48L708.97 179.48Z" fill="#1B1D1E"/>
<path d="M0.820551 266.4L1.74053 265.24C27.0705 233.48 69.3105 205.06 123.911 183.06C180.081 160.43 248.25 145.14 321.03 138.83C393.8 132.53 468.701 135.43 537.621 147.21C604.541 158.65 664.481 178.16 710.971 203.62L712.271 204.33L711.351 205.49C686.021 237.26 643.78 265.67 589.18 287.67C533.01 310.3 464.84 325.59 392.06 331.9C319.29 338.2 244.391 335.3 175.471 323.52C108.551 312.08 48.6105 292.57 2.12054 267.11L0.820551 266.4ZM708.481 205.11C662.411 180.13 603.231 160.97 537.211 149.68C468.491 137.93 393.81 135.04 321.25 141.33C248.71 147.61 180.791 162.85 124.841 185.38C71.3105 206.95 29.7805 234.68 4.62054 265.64C50.6905 290.63 109.87 309.78 175.89 321.07C244.61 332.82 319.29 335.71 391.85 329.42C464.39 323.14 532.31 307.9 588.26 285.37C641.801 263.8 683.321 236.07 708.481 205.11Z" fill="#1B1D1E"/>
<path d="M3.0603 241.34L4.07031 240.26C31.2803 211.21 74.9603 186.55 130.4 168.95C187.44 150.84 255.82 140.64 328.14 139.47C400.45 138.29 474.22 146.17 541.48 162.25C606.78 177.86 664.64 200.81 708.8 228.62L710.05 229.41L709.04 230.49C681.83 259.54 638.15 284.2 582.71 301.8C525.67 319.91 457.29 330.11 384.97 331.28C312.66 332.46 238.89 324.58 171.63 308.5C106.33 292.89 48.4703 269.94 4.3103 242.13L3.0603 241.34ZM706.24 229.9C662.47 202.59 605.34 180.03 540.92 164.63C473.86 148.6 400.29 140.74 328.19 141.92C256.1 143.09 187.97 153.25 131.15 171.29C76.8003 188.55 33.8703 212.59 6.88031 240.87C50.6503 268.18 107.78 290.74 172.2 306.14C239.26 322.17 312.82 330.03 384.93 328.86C457.02 327.69 525.15 317.53 581.97 299.49C636.32 282.23 679.25 258.19 706.24 229.91L706.24 229.9Z" fill="#1B1D1E"/>
<path d="M7.00036 217.22L8.09033 216.22C36.9703 189.93 81.8103 169.01 137.78 155.71C195.37 142.03 263.6 136.79 335.11 140.54C406.61 144.3 478.92 156.92 544.24 177.05C607.66 196.59 663.22 222.74 704.91 252.66L706.11 253.52L705.02 254.52C676.14 280.81 631.3 301.73 575.32 315.03C517.73 328.71 449.5 333.95 377.99 330.19C306.49 326.43 234.18 313.81 168.86 293.68C105.44 274.14 49.8904 247.99 8.19037 218.07L6.99035 217.21L7.00036 217.22ZM702.31 253.75C660.96 224.34 606.1 198.63 543.54 179.35C478.41 159.28 406.29 146.69 334.99 142.94C263.71 139.19 195.7 144.42 138.34 158.04C83.4703 171.07 39.4204 191.44 10.8104 217C52.1604 246.41 107.02 272.13 169.58 291.4C234.71 311.47 306.83 324.06 378.13 327.81C449.41 331.56 517.42 326.33 574.78 312.71C629.65 299.68 673.7 279.31 702.31 253.75Z" fill="#1B1D1E"/>
<path d="M12.5505 194.12L13.7205 193.21C44.0505 169.71 89.7905 152.48 145.981 143.39C203.801 134.04 271.551 133.58 341.921 142.06C412.271 150.54 482.831 167.66 545.951 191.58C607.241 214.8 660.301 243.88 699.411 275.68L700.561 276.61L699.391 277.52C669.061 301.03 623.321 318.25 567.121 327.34C509.301 336.69 441.551 337.15 371.181 328.67C300.831 320.19 230.281 303.07 167.151 279.15C105.861 255.93 52.8005 226.85 13.6905 195.04L12.5405 194.11L12.5505 194.12ZM696.781 276.58C657.971 245.3 605.571 216.69 545.121 193.78C482.171 169.93 411.811 152.85 341.641 144.4C271.491 135.94 203.961 136.4 146.351 145.71C91.2705 154.62 46.3505 171.36 16.3305 194.16C55.1405 225.44 107.541 254.05 167.991 276.96C230.941 300.81 301.301 317.89 371.471 326.34C441.621 334.8 509.151 334.34 566.761 325.03C621.841 316.12 666.761 299.38 696.781 276.58Z" fill="#1B1D1E"/>
<path d="M19.6302 172.13L20.8702 171.32C52.4502 150.61 98.8102 137.03 154.94 132.03C212.69 126.89 279.64 131.03 348.55 144.01C417.45 156.99 485.95 178.35 546.64 205.78C605.57 232.42 655.97 264.18 692.4 297.63L693.49 298.63L692.25 299.44C660.67 320.15 614.31 333.74 558.19 338.73C500.44 343.87 433.49 339.72 364.58 326.75C295.68 313.77 227.18 292.41 166.49 264.98C107.56 238.34 57.1602 206.58 20.7302 173.13L19.6402 172.13L19.6302 172.13ZM689.74 298.32C653.57 265.4 603.8 234.15 545.68 207.88C485.15 180.52 416.83 159.22 348.11 146.27C279.4 133.33 212.67 129.2 155.13 134.32C100.12 139.22 54.6002 152.39 23.3702 172.43C59.5402 205.35 109.31 236.6 167.43 262.87C227.96 290.23 296.28 311.53 365 324.48C433.71 337.42 500.44 341.55 557.98 336.43C612.99 331.53 658.51 318.36 689.74 298.32Z" fill="#1B1D1E"/>
<path d="M28.1404 151.3L29.4305 150.59C62.0505 132.67 108.77 122.66 164.54 121.62C221.93 120.55 287.77 129.1 354.93 146.33C422.08 163.56 488.26 188.89 546.31 219.57C602.67 249.36 650.26 283.53 683.93 318.39L684.96 319.45L683.67 320.16C651.05 338.08 604.33 348.09 548.56 349.13C491.17 350.2 425.33 341.65 358.17 324.42C291.02 307.19 224.84 281.86 166.79 251.18C110.43 221.39 62.8405 187.22 29.1705 152.36L28.1404 151.3ZM681.29 318.89C647.84 284.57 600.84 250.93 545.27 221.56C487.37 190.96 421.37 165.7 354.38 148.51C287.41 131.32 221.78 122.8 164.59 123.87C109.92 124.89 64.0605 134.56 31.8205 151.86C65.2705 186.18 112.27 219.82 167.84 249.19C225.74 279.79 291.74 305.05 358.73 322.24C425.7 339.43 491.33 347.95 548.52 346.88C603.19 345.86 649.05 336.19 681.29 318.89Z" fill="#1B1D1E"/>
<path d="M37.9906 131.7L39.3306 131.09C72.7806 115.95 119.611 109.41 174.771 112.18C231.521 115.03 295.961 127.77 361.101 149.01C426.231 170.25 489.851 199.25 545.061 232.9C598.671 265.57 643.311 301.88 674.161 337.93L675.121 339.05L673.781 339.66C640.331 354.8 593.501 361.34 538.341 358.57C481.591 355.72 417.151 342.98 352.011 321.74C286.871 300.5 223.261 271.5 168.051 237.85C114.441 205.18 69.8006 168.87 38.9506 132.82L37.9906 131.7ZM671.521 338.24C640.851 302.74 596.771 266.99 543.911 234.79C488.841 201.23 425.391 172.3 360.411 151.12C295.451 129.94 231.211 117.24 174.651 114.4C120.591 111.68 74.6306 117.94 41.5906 132.51C72.2606 168.01 116.341 203.76 169.201 235.96C224.271 269.52 287.721 298.45 352.701 319.63C417.661 340.81 481.901 353.51 538.461 356.35C592.521 359.07 638.491 352.81 671.521 338.24Z" fill="#1B1D1E"/>
<path d="M49.0703 113.39L50.4503 112.89C84.5303 100.49 131.23 97.3299 185.51 103.75C241.37 110.36 304.12 127.05 367 152.03C429.87 177.01 490.69 209.41 542.9 245.73C593.59 281 635.18 319.19 663.16 356.19L664.05 357.36L662.67 357.86C628.59 370.26 581.89 373.42 527.61 367C471.75 360.39 409 343.7 346.12 318.72C283.26 293.74 222.43 261.34 170.22 225.02C119.53 189.75 77.9403 151.56 49.9603 114.56L49.0703 113.39ZM660.54 356.33C632.7 319.88 591.63 282.28 541.66 247.52C489.58 211.29 428.91 178.97 366.2 154.05C303.5 129.14 240.93 112.49 185.26 105.91C132.05 99.6199 86.2203 102.57 52.5803 114.44C80.4203 150.89 121.49 188.49 171.46 223.25C223.54 259.48 284.21 291.8 346.92 316.72C409.62 341.63 472.19 358.28 527.86 364.86C581.07 371.15 626.9 368.2 660.54 356.33Z" fill="#1B1D1E"/>
<path d="M61.2803 96.3998L62.6904 95.9998C97.2004 86.2998 143.54 86.3998 196.71 96.2898C251.42 106.47 312.25 126.89 372.62 155.34C432.99 183.79 490.82 219.29 539.88 258C587.51 295.59 625.95 335.4 651.03 373.13L651.84 374.35L650.43 374.75C615.92 384.45 569.58 384.35 516.41 374.46C461.7 364.28 400.87 343.86 340.5 315.41C280.13 286.96 222.3 251.46 173.24 212.75C125.61 175.16 87.1703 135.35 62.0903 97.6198L61.2803 96.3998ZM648.44 373.09C623.46 335.91 585.5 296.72 538.56 259.68C489.63 221.06 431.93 185.65 371.71 157.27C311.5 128.9 250.85 108.54 196.31 98.3898C144.19 88.6898 98.7203 88.4498 64.6703 97.6598C89.6503 134.84 127.61 174.03 174.55 211.07C223.48 249.69 281.18 285.1 341.4 313.47C401.61 341.84 462.26 362.21 516.8 372.35C568.92 382.05 614.39 382.29 648.44 373.08L648.44 373.09Z" fill="#1B1D1E"/>
<path d="M74.5106 80.7699L75.9306 80.4799C110.681 73.4199 156.441 76.6599 208.261 89.8399C261.591 103.4 320.261 127.3 377.921 158.94C435.581 190.58 490.251 228.87 536.031 269.69C580.481 309.32 615.701 350.48 637.871 388.72L638.601 389.98L637.181 390.27C602.431 397.33 556.671 394.09 504.851 380.91C451.521 367.35 392.851 343.45 335.191 311.81C277.531 280.17 222.861 241.88 177.081 201.06C132.631 161.43 97.4106 120.27 75.2406 82.0299L74.5106 80.7699ZM635.341 388.51C613.241 350.82 578.451 310.3 534.651 271.25C488.981 230.54 434.441 192.33 376.921 160.77C319.411 129.21 260.911 105.38 207.741 91.8599C156.931 78.9399 112.041 75.6199 77.7706 82.2399C99.8706 119.93 134.661 160.45 178.461 199.5C224.131 240.21 278.671 278.42 336.191 309.98C393.701 341.54 452.201 365.37 505.371 378.89C556.181 391.81 601.071 395.13 635.341 388.51Z" fill="#1B1D1E"/>
<path d="M88.6605 66.5296L90.0905 66.3496C124.9 61.8696 169.87 68.0996 220.13 84.3696C271.87 101.12 328.16 128.23 382.93 162.78C437.69 197.33 489.05 238.12 531.45 280.75C572.62 322.14 604.56 364.39 623.82 402.93L624.46 404.22L623.03 404.4C588.22 408.88 543.25 402.65 492.99 386.38C441.25 369.63 384.96 342.52 330.19 307.97C275.43 273.42 224.07 232.63 181.67 190C140.5 148.61 108.56 106.36 89.3105 67.8196L88.6705 66.5296L88.6605 66.5296ZM621.33 402.55C602.1 364.55 570.55 322.97 529.99 282.19C487.7 239.67 436.47 198.97 381.83 164.51C327.2 130.05 271.07 103.01 219.49 86.3197C170.2 70.3597 126.08 64.1097 91.7704 68.1997C111 106.2 142.55 147.78 183.11 188.56C225.4 231.08 276.63 271.78 331.27 306.24C385.9 340.7 442.03 367.74 493.61 384.43C542.9 400.39 587.02 406.64 621.33 402.55Z" fill="#1B1D1E"/>
<path d="M103.62 53.7001L105.04 53.6201C139.72 51.6401 183.7 60.7201 232.23 79.8801C282.17 99.6001 335.9 129.67 387.61 166.84C439.31 204.01 487.22 246.99 526.15 291.15C563.95 334.03 592.58 377.11 608.94 415.74L609.49 417.05L608.07 417.13C573.39 419.11 529.41 410.03 480.88 390.87C430.94 371.15 377.21 341.08 325.5 303.91C273.8 266.74 225.89 223.76 186.96 179.6C149.16 136.72 120.53 93.6401 104.17 55.0101L103.62 53.7001ZM606.53 415.21C590.16 377.11 561.87 334.71 524.64 292.48C485.8 248.43 438.01 205.55 386.43 168.47C334.86 131.4 281.28 101.41 231.49 81.7501C183.9 62.9601 140.75 53.9101 106.58 55.5501C122.95 93.6501 151.24 136.05 188.47 178.28C227.31 222.33 275.1 265.21 326.68 302.29C378.26 339.36 431.83 369.35 481.63 389.01C529.22 407.8 572.37 416.85 606.54 415.21L606.53 415.21Z" fill="#1B1D1E"/>
<path d="M119.28 42.29L120.68 42.31C155.07 42.74 197.88 54.51 244.48 76.35C292.44 98.83 343.44 131.59 391.94 171.09C440.44 210.59 484.79 255.46 520.19 300.87C554.57 344.96 579.87 388.62 593.36 427.15L593.82 428.47L592.42 428.45C558.03 428.02 515.22 416.25 468.62 394.41C420.66 371.93 369.67 339.17 321.16 299.67C272.66 260.17 228.31 215.3 192.91 169.89C158.53 125.8 133.23 82.14 119.74 43.61L119.28 42.29ZM591.04 426.47C577.5 388.47 552.5 345.5 518.64 302.08C483.32 256.79 439.08 212.02 390.7 172.62C342.32 133.22 291.47 100.55 243.65 78.13C197.94 56.7 155.94 45.02 122.07 44.3C135.61 82.3 160.61 125.27 194.47 168.69C229.79 213.98 274.03 258.75 322.41 298.15C370.79 337.55 421.64 370.22 469.46 392.64C515.17 414.07 557.17 425.75 591.04 426.47Z" fill="#1B1D1E"/>
<path d="M135.54 32.29L136.92 32.4C170.85 35.14 212.32 49.44 256.83 73.75C302.65 98.77 350.75 133.95 395.93 175.49C441.1 217.03 481.81 263.49 513.64 309.87C544.55 354.9 566.53 398.91 577.2 437.13L577.57 438.46L576.19 438.35C542.26 435.61 500.79 421.31 456.28 397C410.46 371.98 362.36 336.8 317.18 295.26C272.01 253.72 231.3 207.26 199.47 160.89C168.56 115.86 146.58 71.85 135.92 33.63L135.55 32.3L135.54 32.29ZM574.96 436.31C564.21 398.6 542.48 355.29 512.05 310.96C480.3 264.7 439.69 218.35 394.62 176.91C349.56 135.48 301.59 100.39 255.9 75.44C212.23 51.59 171.55 37.43 138.14 34.44C148.89 72.15 170.62 115.46 201.05 159.79C232.8 206.04 273.41 252.4 318.48 293.84C363.55 335.27 411.51 370.36 457.2 395.31C500.87 419.16 541.56 433.32 574.96 436.31Z" fill="#1B1D1E"/>
<path d="M152.301 23.7099L153.641 23.9099C186.961 28.8599 226.931 45.5199 269.211 72.0799C312.741 99.4199 357.821 136.75 399.571 180.04C441.321 223.33 478.321 271.09 506.561 318.16C533.981 363.87 552.651 407.98 560.551 445.72L560.831 447.05L559.491 446.85C526.171 441.9 486.201 425.24 443.921 398.68C400.391 371.34 355.311 334.01 313.561 290.72C271.811 247.43 234.811 199.67 206.571 152.6C179.151 106.89 160.481 62.7799 152.581 25.0399L152.301 23.7099ZM558.411 444.76C550.401 407.51 531.931 364.1 504.931 319.12C476.761 272.17 439.861 224.53 398.201 181.34C356.551 138.16 311.601 100.93 268.201 73.6699C226.701 47.6099 187.501 31.1399 154.701 25.9799C162.711 63.2299 181.181 106.64 208.171 151.62C236.341 198.57 273.241 246.21 314.891 289.4C356.541 332.58 401.491 369.81 444.891 397.07C486.391 423.13 525.601 439.6 558.391 444.76L558.411 444.76Z" fill="#1B1D1E"/>
<path d="M169.431 16.54L170.731 16.82C203.301 23.87 241.621 42.71 281.551 71.29C322.651 100.71 364.601 139.92 402.851 184.67C441.101 229.42 474.341 278.18 498.981 325.68C522.911 371.81 538.301 415.79 543.501 452.89L543.681 454.2L542.381 453.92C509.811 446.87 471.491 428.03 431.561 399.45C390.461 370.03 348.511 330.82 310.261 286.07C272.011 241.32 238.771 192.56 214.131 145.06C190.201 98.93 174.811 54.95 169.611 17.85L169.431 16.54ZM541.471 451.83C536.131 415.22 520.881 371.93 497.331 326.54C472.751 279.16 439.591 230.52 401.431 185.88C363.281 141.24 321.451 102.14 280.461 72.8C241.271 44.75 203.671 26.14 171.631 18.92C176.971 55.53 192.221 98.82 215.771 144.21C240.351 191.59 273.511 240.23 311.671 284.87C349.821 329.51 391.661 368.61 432.641 397.95C471.841 426.01 509.431 444.61 541.471 451.83Z" fill="#1B1D1E"/>
<path d="M186.861 10.7598L188.111 11.1197C219.791 20.1597 256.331 40.9897 293.801 71.3798C332.371 102.66 371.09 143.47 405.78 189.41C440.47 235.34 469.93 284.82 490.99 332.49C511.44 378.79 523.61 422.43 526.18 458.71L526.27 460L525.02 459.64C493.34 450.6 456.8 429.77 419.33 399.38C380.76 368.1 342.04 327.29 307.35 281.35C272.66 235.42 243.2 185.94 222.14 138.27C201.69 91.9698 189.52 48.3298 186.95 12.0498L186.861 10.7598ZM524.26 457.54C521.51 421.72 509.44 378.77 489.32 333.22C468.32 285.67 438.92 236.32 404.32 190.5C369.72 144.68 331.1 103.98 292.65 72.7898C255.87 42.9598 220.011 22.3898 188.861 13.2298C191.611 49.0498 203.681 91.9998 223.801 137.55C244.8 185.1 274.2 234.45 308.8 280.27C343.4 326.09 382.02 366.79 420.47 397.98C457.25 427.81 493.11 448.38 524.26 457.54Z" fill="#1B1D1E"/>
<path d="M204.471 6.33983L205.661 6.75984C236.321 17.6598 270.981 40.3099 305.881 72.2699C341.811 105.18 377.241 147.33 408.331 194.16C439.421 241 465.111 290.91 482.621 338.51C499.621 384.73 508.631 427.83 508.661 463.15L508.661 464.41L507.471 463.99C476.811 453.09 442.151 430.44 407.251 398.48C371.321 365.58 335.891 323.43 304.801 276.59C273.711 229.75 248.021 179.84 230.521 132.24C213.521 86.0099 204.511 42.9098 204.481 7.59984L204.481 6.33983L204.471 6.33983ZM506.861 461.89C506.621 427.02 497.661 384.61 480.941 339.13C463.481 291.66 437.861 241.87 406.841 195.15C375.831 148.43 340.501 106.39 304.671 73.5898C270.401 42.1998 236.391 19.8498 206.251 8.86983C206.491 43.7398 215.441 86.1498 232.171 131.63C249.631 179.1 275.251 228.89 306.271 275.61C337.281 322.33 372.611 364.37 408.441 397.17C442.721 428.56 476.721 450.91 506.861 461.89Z" fill="#1B1D1E"/>
<path d="M221.55 19.9598C221.55 14.6498 221.73 9.43976 222.08 4.47976L222.17 3.25975L223.3 3.73976C252.83 16.3698 285.49 40.6598 317.76 73.9798C350.98 108.28 383.06 151.5 410.53 198.97C461.28 286.65 491.57 380.8 491.57 450.82C491.57 456.13 491.39 461.34 491.04 466.3L490.95 467.52L489.82 467.04C460.29 454.41 427.63 430.12 395.36 396.8C362.14 362.5 330.06 319.28 302.59 271.81C251.85 184.13 221.55 89.9897 221.55 19.9697L221.55 19.9598ZM223.74 5.81975C223.45 10.3698 223.3 15.1098 223.3 19.9498C223.3 89.6698 253.51 183.49 304.11 270.92C331.51 318.27 363.5 361.37 396.62 395.57C428.31 428.3 460.36 452.26 489.38 464.93C489.67 460.38 489.82 455.64 489.82 450.81C489.82 381.08 459.61 287.26 409.01 199.84C381.61 152.49 349.62 109.39 316.5 75.1898C284.81 42.4597 252.76 18.5098 223.74 5.82976L223.74 5.81975Z" fill="#1B1D1E"/>
<path d="M237.471 35.8199L237.471 35.8099C237.471 24.0199 238.221 12.8599 239.691 2.63994L239.861 1.45995L240.921 1.98995C269.211 16.22 299.801 41.9499 329.361 76.4099C359.801 111.88 388.501 155.92 412.361 203.75C452.581 284.38 475.641 368.65 475.641 434.95C475.641 446.74 474.891 457.9 473.421 468.12L473.251 469.3L472.191 468.77C443.901 454.54 413.311 428.81 383.741 394.35C353.301 358.88 324.601 314.84 300.741 267.01C260.521 186.38 237.461 102.11 237.461 35.8199L237.471 35.8199ZM241.211 4.05993C239.861 13.8799 239.181 24.5499 239.181 35.8099C239.181 101.84 262.181 185.83 302.281 266.24C326.081 313.95 354.701 357.86 385.051 393.23C414.101 427.08 444.101 452.46 471.901 466.69C473.251 456.87 473.931 446.2 473.931 434.94C473.931 368.9 450.931 284.91 410.831 204.5C387.031 156.79 358.411 112.88 328.061 77.5099C299.011 43.6599 269.011 18.2799 241.211 4.04995L241.211 4.05993Z" fill="#1B1D1E"/>
<path d="M252 55.2699L252 55.2599C252 35.6499 253.75 17.7499 257.21 2.03991L257.46 0.919913L258.45 1.4999C285.41 17.1999 313.84 44.1899 340.67 79.5599C368.29 115.98 393.59 160.57 413.86 208.51C444.34 280.64 461.13 354.15 461.13 415.49C461.13 435.1 459.38 453 455.92 468.71L455.67 469.83L454.68 469.25C427.72 453.55 399.29 426.56 372.46 391.19C344.84 354.77 319.54 310.18 299.27 262.24C268.79 190.11 252 116.61 252 55.2699ZM258.6 3.5299C255.33 18.8399 253.67 36.2399 253.67 55.2599L253.67 55.2699C253.67 116.39 270.41 189.65 300.81 261.58C321.02 309.4 346.25 353.87 373.79 390.17C400.15 424.93 428.04 451.54 454.52 467.21C457.79 451.9 459.45 434.5 459.45 415.48C459.45 354.36 442.71 281.08 412.31 209.15C392.1 161.33 366.87 116.87 339.33 80.5599C312.97 45.7999 285.08 19.1899 258.6 3.51992L258.6 3.5299Z" fill="#1B1D1E"/>
<path d="M264.88 78.4701C264.88 49.5201 268.13 24.0201 274.55 2.66009L274.87 1.60009L275.79 2.22009C301.34 19.2501 327.55 47.3201 351.6 83.3901C376.36 120.53 398.28 165.43 414.98 213.24C436.73 275.5 448.23 337.41 448.23 392.29C448.23 421.24 444.98 446.74 438.56 468.1L438.24 469.16L437.32 468.54C411.77 451.51 385.56 423.44 361.51 387.37C336.75 350.23 314.83 305.33 298.13 257.52C276.38 195.27 264.88 133.35 264.88 78.4701ZM275.81 4.2001C269.65 25.1801 266.53 50.1601 266.53 78.4701C266.53 132.39 278.3 195.78 299.68 256.98C316.34 304.66 338.19 349.43 362.88 386.46C386.52 421.92 412.24 449.59 437.31 466.55C443.47 445.57 446.59 420.59 446.59 392.28C446.59 338.36 434.82 274.96 413.44 213.77C396.78 166.09 374.93 121.32 350.24 84.2901C326.6 48.8301 300.88 21.1601 275.81 4.2001Z" fill="#1B1D1E"/>
<path d="M275.881 105.38C275.881 66.0597 281.33 31.1497 291.64 4.42968L292.03 3.42968L292.881 4.07968C316.941 22.2997 340.89 51.2597 362.16 87.8297C384.05 125.48 402.6 170.45 415.8 217.89C429.83 268.33 437.25 319.33 437.25 365.39C437.25 404.71 431.8 439.62 421.49 466.34L421.1 467.34L420.25 466.69C396.19 448.47 372.24 419.51 350.97 382.94C329.08 345.29 310.53 300.32 297.33 252.88C283.3 202.44 275.881 151.44 275.881 105.39L275.881 105.38ZM292.761 6.00967C282.771 32.4197 277.491 66.7497 277.491 105.38C277.491 151.29 284.891 202.14 298.881 252.44C312.041 299.75 330.53 344.59 352.36 382.12C373.27 418.07 396.76 446.61 420.36 464.74C430.35 438.33 435.63 404 435.63 365.37C435.63 319.46 428.23 268.6 414.24 218.31C401.081 171.01 382.59 126.16 360.76 88.6297C339.85 52.6797 316.361 24.1397 292.761 6.00967Z" fill="#1B1D1E"/>
<path d="M284.761 135.57L284.761 135.56C284.761 84.0198 292.931 39.6699 308.401 7.28985L308.841 6.35986L309.621 7.02984C332.121 26.3098 353.781 55.9798 372.261 92.8398C391.281 130.79 406.501 175.6 416.261 222.44C424.281 260.96 428.351 298.89 428.351 335.2C428.351 386.74 420.181 431.09 404.711 463.47L404.271 464.4L403.491 463.73C380.991 444.45 359.331 414.78 340.851 377.92C321.831 339.97 306.611 295.16 296.851 248.32C288.831 209.8 284.761 171.87 284.761 135.57ZM309.381 8.90985C294.311 40.9898 286.341 84.7498 286.341 135.56L286.341 135.57C286.341 171.76 290.401 209.58 298.401 247.99C308.131 294.69 323.301 339.38 342.261 377.2C360.431 413.44 381.671 442.68 403.731 461.84C418.811 429.76 426.771 386 426.771 335.19C426.771 298.99 422.711 261.17 414.711 222.75C404.981 176.05 389.811 131.36 370.851 93.5399C352.681 57.2999 331.441 28.0598 309.381 8.89984L309.381 8.90985Z" fill="#1B1D1E"/>
<path d="M291.35 168.15L291.35 168.14C291.35 104.23 303.21 48.4901 324.75 11.2101L325.25 10.3501L325.961 11.0401C346.851 31.2301 366.201 61.4401 381.901 98.3901C398.071 136.43 410 180.87 416.41 226.89C419.96 252.43 421.77 277.91 421.77 302.62C421.77 366.53 409.91 422.27 388.37 459.55L387.87 460.41L387.16 459.72C366.27 439.53 346.92 409.32 331.21 372.37C315.04 334.33 303.11 289.89 296.7 243.87C293.15 218.33 291.34 192.85 291.34 168.15L291.35 168.15ZM325.6 12.8501C304.51 49.9001 292.9 104.99 292.9 168.14L292.9 168.15C292.9 192.78 294.7 218.18 298.24 243.66C304.62 289.55 316.52 333.85 332.64 371.77C348.09 408.11 367.05 437.87 387.52 457.92C408.61 420.87 420.22 365.78 420.22 302.63C420.22 277.99 418.42 252.58 414.88 227.11C408.5 181.22 396.6 136.92 380.48 99.0001C365.03 62.6601 346.07 32.9001 325.6 12.8601L325.6 12.8501Z" fill="#1B1D1E"/>
<path d="M295.531 201.88C295.531 125.46 311.971 57.7498 340.631 16.1098L341.171 15.3198L341.811 16.0198C361.051 36.9898 378.071 67.5598 391.041 104.41C404.391 142.35 413.101 186.2 416.251 231.21C417.131 243.8 417.581 256.47 417.581 268.89C417.581 345.31 401.141 413.02 372.481 454.66L371.941 455.45L371.301 454.75C352.061 433.78 335.041 403.21 322.071 366.36C308.721 328.42 300.011 284.57 296.861 239.56C295.981 226.97 295.531 214.3 295.531 201.89L295.531 201.88ZM341.341 17.7598C313.191 59.2198 297.051 126.24 297.051 201.88C297.051 214.26 297.491 226.9 298.371 239.45C301.511 284.33 310.201 328.03 323.501 365.85C336.251 402.09 352.931 432.21 371.771 453.01C399.931 411.55 416.061 344.52 416.061 268.89C416.061 256.51 415.621 243.87 414.741 231.32C411.601 186.44 402.911 142.74 389.611 104.92C376.861 68.6798 360.181 38.5598 341.341 17.7598Z" fill="#1B1D1E"/>
<path d="M297.311 235.38C297.311 191.57 302.89 148.51 313.45 110.86C323.71 74.29 338.411 43.5299 355.971 21.9199L356.551 21.21L357.131 21.9199C374.691 43.54 389.391 74.29 399.651 110.86C410.211 148.51 415.791 191.57 415.791 235.38C415.791 279.19 410.211 322.25 399.651 359.9C389.391 396.47 374.691 427.23 357.131 448.84L356.551 449.55L355.971 448.84C338.411 427.22 323.71 396.47 313.45 359.9C302.89 322.25 297.311 279.19 297.311 235.38ZM356.551 23.58C339.381 45 324.981 75.3 314.891 111.27C304.361 148.79 298.801 191.71 298.801 235.38C298.801 279.05 304.361 321.97 314.891 359.49C324.981 395.46 339.381 425.76 356.551 447.18C373.721 425.76 388.121 395.46 398.211 359.49C408.741 321.97 414.301 279.05 414.301 235.38C414.301 191.71 408.741 148.79 398.211 111.27C388.121 75.3 373.721 45 356.551 23.58Z" fill="#1B1D1E"/>
</g>
</svg>
