<svg width="97" height="23" viewBox="0 0 97 23" fill="none" xmlns="http://www.w3.org/2000/svg">
<mask id="mask0_571_2246" style="mask-type:alpha" maskUnits="userSpaceOnUse" x="0" y="0" width="97" height="23">
<g clip-path="url(#clip0_571_2246)">
<path d="M6.31669 22.9814V0.0111293H3.19745V22.9814H6.31669Z" fill="#BFEA88"/>
<path d="M75.5664 22.9932H77.0963V0.0179006H75.5664V22.9932Z" fill="#BFEA88"/>
<path d="M47.7304 22.9941H49.2568V0.00827684H47.7304V22.9941Z" fill="#BFEA88"/>
<path d="M81.1331 22.9937H82.6618V0.00778856H81.1331V22.9937Z" fill="#BFEA88"/>
<path d="M66.8164 22.9932H68.3463V0.0179006H66.8164V22.9932Z" fill="#BFEA88"/>
<path d="M96.9666 0.00632372H95.4414V22.9922H96.9666V0.00632372Z" fill="#BFEA88"/>
<path d="M23.8691 22.9937H25.399V0.0183888H23.8691V22.9937Z" fill="#BFEA88"/>
<path d="M9.55078 23H11.0678V0.0169637H9.55078V23Z" fill="#BFEA88"/>
<path d="M32.5471 0.00730028H31.0195V22.9932H32.5471V0.00730028Z" fill="#BFEA88"/>
<path d="M38.1816 23H39.6975V0.0176689H38.1816V23Z" fill="#BFEA88"/>
<path d="M52.498 23H54.0139V0.0169637H52.498V23Z" fill="#BFEA88"/>
<path d="M58.7971 0.00874011H57.2754V22.9805H58.7971V0.00874011Z" fill="#BFEA88"/>
<path d="M15.8444 0.00644061H14.3262V22.9888H15.8444V0.00573321V0.00644061Z" fill="#BFEA88"/>
<path d="M33.416 22.9932H34.9424V0.00800526H33.416V22.9932Z" fill="#BFEA88"/>
<path d="M89.8867 22.9976H91.4002V0.0152275H89.8867V22.9976Z" fill="#BFEA88"/>
<path d="M87.4307 0.00874011H85.9102V22.9805H87.4307V0.00874011Z" fill="#BFEA88"/>
<path d="M78.7461 22.9932H79.4813V0.00588521H78.7461V22.9932Z" fill="#BFEA88"/>
<path d="M0.735176 0.00685961H0V22.9941H0.735176V0.00685961Z" fill="#BFEA88"/>
<path d="M84.3145 22.9941H85.0473V0.00685961H84.3145V22.9941Z" fill="#BFEA88"/>
<path d="M69.9961 22.9932H70.7313V0.00588521H69.9961V22.9932Z" fill="#BFEA88"/>
<path d="M64.4317 22.9951H65.1622V0.00783833H64.4317V22.9951Z" fill="#BFEA88"/>
<path d="M93.7897 0.00756702H93.0546V22.9941H93.7897V0.00685961V0.00756702Z" fill="#BFEA88"/>
<path d="M13.4598 0.00756702H12.7246V22.9941H13.4598V0.00685961V0.00756702Z" fill="#BFEA88"/>
<path d="M56.4106 0.00014057H55.6895V22.9839H56.4106V-0.000564677V0.00014057Z" fill="#BFEA88"/>
<path d="M17.5039 22.9937H18.2391V0.00637349H17.5039V22.9937Z" fill="#BFEA88"/>
<path d="M27.775 0.00707874H27.041V22.9937H27.775V0.00637349V0.00707874Z" fill="#BFEA88"/>
<path d="M41.3652 22.9941H42.0992V0.00685961H41.3652V22.9941Z" fill="#BFEA88"/>
<path d="M21.4823 22.9941H22.2151V0.00685961H21.4823V22.9941Z" fill="#BFEA88"/>
<path d="M44.5488 22.9951H45.2805V0.00783833H44.5488V22.9951Z" fill="#BFEA88"/>
<path d="M73.1836 22.9956H73.9118V0.00832661H73.1836V22.9956Z" fill="#BFEA88"/>
<path d="M29.3674 0.00898209H28.6427V22.9941H29.3674V0.00898209Z" fill="#BFEA88"/>
<path d="M19.0994 22.9932H19.8217V0.013658H19.0994V22.9932Z" fill="#BFEA88"/>
<path d="M1.60156 22.9932H2.32273V0.013658H1.60156V22.9932Z" fill="#BFEA88"/>
<path d="M43.6837 6.57834e-05H42.9648V22.9951H43.6837V6.57834e-05Z" fill="#BFEA88"/>
<path d="M72.3138 0.00800769H71.5938V22.9932H72.3138V0.00730028V0.00800769Z" fill="#BFEA88"/>
<path d="M60.3868 6.57834e-05H59.668V22.9951H60.3868V6.57834e-05Z" fill="#BFEA88"/>
<path d="M61.2539 22.9941H61.9844V0.00685961H61.2539V22.9941Z" fill="#BFEA88"/>
<path d="M89.0173 0.00827684H88.2949V22.9941H89.0173V0.00898209V0.00827684Z" fill="#BFEA88"/>
<path d="M50.1191 22.9951H50.8473V0.00783833H50.1191V22.9951Z" fill="#BFEA88"/>
<path d="M7.16992 22.9956H7.8981V0.00832661H7.16992V22.9956Z" fill="#BFEA88"/>
<path d="M36.5251 0.00898209H35.8027V22.9941H36.5251V0.00898209Z" fill="#BFEA88"/>
</g>
</mask>
<g mask="url(#mask0_571_2246)">
<rect x="-13" y="-9" width="110" height="41" fill="#BFEA88"/>
</g>
<defs>
<clipPath id="clip0_571_2246">
<rect width="97" height="23" fill="white" transform="matrix(1 0 0 -1 0 23)"/>
</clipPath>
</defs>
</svg>
