<svg width="1376" height="4068.8" xmlns="http://www.w3.org/2000/svg" xmlns:xlink="http://www.w3.org/1999/xlink"><defs><symbol id="arrow-down" viewBox="0 0 16.7 9.1">
<polygon class="st0" points="8.4,9.1 0,0.7 0.7,0 8.4,7.6 16,0 16.7,0.7 " />
</symbol><symbol id="arrow-left" viewBox="0 0 21.1 13.2">
<g>
	<polygon points="6.5,12.8 0.5,6.8 0.3,6.5 0.5,6.3 6.5,0.3 7.1,0.8 1.7,6.2 20.8,6.2 20.8,6.9 1.7,6.9 7.1,12.3 	" />
	<path d="M6.5,0l1,0.8L2.3,6h18.7v1.2H2.3l5.2,5.2l-1,0.8L0.3,7L0,6.5L6.5,0z M6.8,0.9L6.5,0.7L0.6,6.6l0.1,0.1l5.8,5.8l0.2-0.2
		L1.1,6.7h19.5V6.5H1.1L6.8,0.9z" />
</g>
</symbol><symbol id="arrow-right" viewBox="0 0 21.1 13.2">
<g>
	<polygon points="14.6,0.3 20.5,6.3 20.8,6.6 20.5,6.8 14.6,12.8 13.9,12.3 19.4,6.9 0.2,6.9 0.2,6.2 19.4,6.2 13.9,0.8 	" />
	<path d="M14.6,13.2l-1-0.8l5.2-5.2H0V6h18.7l-5.2-5.2l1-0.8l6.2,6.2l0.3,0.5L14.6,13.2z M14.3,12.3l0.2,0.2l5.9-5.9l-0.1-0.1
		l-5.8-5.8l-0.2,0.2L20,6.5H0.5v0.2H20L14.3,12.3z" />
</g>
</symbol><symbol id="arrow-small-left" viewBox="0 0 9.1 15.4">
<polygon class="st0" points="7.7,15.4 0,7.7 7.7,0 9.1,1.4 2.8,7.7 9.1,14 " />
</symbol><symbol id="book" viewBox="0 0 16 14">
<path d="M14,2h-1V0h-2v2H5V0H3v2H2H0v2v8v2h2h12h2v-2V4V2H14z M14,12H2V4h1v2h2V4h6v2h2V4h1V12z" />
</symbol><symbol viewBox="0 0 14 14" fill="none" id="close">
<path fill-rule="evenodd" clip-rule="evenodd" d="M8.14214 6.70711L13.435 1.41422L12.0208 0L6.72792 5.29289L1.43503 0L0.0208145 1.41421L5.31371 6.70711L0 12.0208L1.41421 13.435L6.72792 8.12132L12.0416 13.435L13.4558 12.0208L8.14214 6.70711Z" fill="black" />
</symbol><symbol id="favicon" viewBox="0 0 314.5 325.9">
<style type="text/css">
	#favicon .st0{fill-rule:evenodd;clip-rule:evenodd;fill:#FFFFFF;}
</style>
<path class="st0" d="M167.8,84.3v178.2h-21V84.3H0v241.6h63.1V147.7h20.8v178.2h146.8V147.5h21v178.4h62.9V84.3H167.8z M314.5,0H0
	v63.4h314.5V0z" />
</symbol><symbol id="instagram" viewBox="0 0 16 16">
<path d="M4.9,1.3c-2,0-3.5,1.6-3.5,3.5v6.3c0,2,1.6,3.5,3.5,3.5h6.3c2,0,3.5-1.6,3.5-3.5V4.9c0-2-1.6-3.5-3.5-3.5H4.9z M0,4.9
	C0,2.2,2.2,0,4.9,0h6.3C13.8,0,16,2.2,16,4.9v6.3c0,2.7-2.2,4.9-4.9,4.9H4.9C2.2,16,0,13.8,0,11.1V4.9z M12.7,4.5h-1V3.1h1V4.5z
	 M8,5.5C6.6,5.5,5.5,6.6,5.5,8c0,1.4,1.1,2.5,2.5,2.5c1.4,0,2.5-1.1,2.5-2.5C10.5,6.6,9.4,5.5,8,5.5z M4.2,8c0-2.1,1.7-3.8,3.8-3.8
	c2.1,0,3.8,1.7,3.8,3.8c0,2.1-1.7,3.8-3.8,3.8C5.9,11.8,4.2,10.1,4.2,8z" />
</symbol><symbol viewBox="0 0 175 42" id="logo">
    <path d="M37.7981 0C34.3299 0 31.8903 0.779382 30.2738 2.28041C28.716 3.75258 27.8342 6.37938 27.8342 9.72783V32.532C27.8342 35.7938 28.6572 38.2186 30.2738 39.7196C31.9197 41.2495 34.5062 42 37.9745 42C41.4427 42 43.6177 41.2206 45.2343 39.7196C46.8509 38.2186 47.7326 35.7938 47.7326 32.532V17.0598H37.7981V24.9691H39.1208V34.3216H36.4755V8.65979H39.1208V14.1155H47.7326V9.49691C47.7326 6.23505 46.9097 3.81031 45.2931 2.30928C43.6765 0.779381 41.2958 0 37.7981 0ZM11.2865 41.2783H2.64528V8.65979H0V0.77938H13.9318V8.65979H11.2865V41.2783ZM25.189 11.2289H16.5771V41.2783H25.189V11.2289ZM25.189 0.77938H16.5771V8.65979H25.189V0.77938ZM108.163 11.2577V33.3979H105.488V11.2577H86.824V41.2784H94.848V19.1381H97.4933V41.2784H116.157V19.1093H118.832V41.2784H126.826V11.2577H108.163ZM64.3097 0.77938H75.2141C77.977 0.865978 80.4753 1.61649 81.9743 3.11752C83.4439 4.53196 84.1787 6.66804 84.1787 9.41031V12.701C84.1787 15.3278 83.6497 16.4247 82.7091 17.8103C81.7686 19.1959 79.9757 19.8309 78.2121 20.033L77.9182 20.0619V20.9278L78.2121 20.9567C81.9743 21.4763 84.2081 25.3732 84.1787 30.5402V41.2783H75.5669V24.9402H72.9216V41.2783H64.3097V0.77938ZM72.9216 17.0598H75.5669V8.65979H72.9216V17.0598ZM171.473 20.5526V20.4948L174.794 0.77938H166.212L163.713 17.0598H162.685V0.77938H154.073V41.2783H162.685V24.9402H163.713L166.388 41.2783H175L171.473 20.5526ZM126.826 0.77938H86.824V8.65979H126.826V0.77938ZM58.9898 24.9402H61.635V17.0598H58.9898V8.60206H61.635V0.77938H50.3779V41.2783H61.635V33.3979H58.9898V24.9402ZM140.758 0.77938H148.753V33.3979H151.398V41.2783H140.758V0.77938ZM129.472 11.2289H138.084V41.2783H129.472V11.2289ZM138.084 0.77938H129.472V8.65979H138.084V0.77938Z" />
</symbol><symbol id="logo-1" viewBox="0 0 1376 338">
<path class="st0" d="M88.7,332.2H20.8V69.7H0V6.3h109.5v63.4H88.7V332.2z" />
</symbol><symbol id="logo-2" viewBox="0 0 1376 338">

<path class="st0" d="M198.1,90.4h-67.7v241.8h67.7V90.4z M198.1,6.3h-67.7v63.4h67.7V6.3z" />
</symbol><symbol id="logo-3" viewBox="0 0 1376 338">

<path class="st0" d="M297.2,0c-27.3,0-46.5,6.3-59.2,18.4c-12.2,11.8-19.2,33-19.2,59.9v183.5c0,26.2,6.5,45.8,19.2,57.8
	C251,332,271.3,338,298.6,338c27.3,0,44.4-6.3,57.1-18.4c12.7-12.1,19.6-31.6,19.6-57.8V137.3h-78.1v63.7h10.4v75.3h-20.8V69.7h20.8
	v43.9h67.7V76.4c0-26.3-6.5-45.8-19.2-57.8C343.4,6.3,324.7,0,297.2,0z" />
</symbol><symbol id="logo-4" viewBox="0 0 1376 338">

<path class="st0" d="M463.8,200.7h20.8v-63.4h-20.8V69.2h20.8v-63h-88.5v325.9h88.5v-63.4h-20.8V200.7z" />
</symbol><symbol id="logo-5" viewBox="0 0 1376 338">

<path class="st0" d="M505.7,6.3h85.7c21.7,0.7,41.4,6.7,53.2,18.8c11.6,11.4,17.3,28.6,17.3,50.6v26.5c0,21.1-4.2,30-11.6,41.1
	c-7.4,11.2-21.5,16.3-35.4,17.9l-2.3,0.2v7l2.3,0.2c29.6,4.2,47.1,35.5,46.9,77.1v86.4h-67.7V200.7h-20.8v131.5h-67.7V6.3z
	 M573.4,137.3h20.8V69.7h-20.8V137.3z" />
</symbol><symbol id="logo-6" viewBox="0 0 1376 338">

<path class="st0" d="M850.5,90.6v178.2h-21V90.6H682.7v241.6h63.1V154h20.8v178.2h146.8V153.8h21v178.4h62.9V90.6H850.5z M997.2,6.3
	H682.7v63.4h314.5V6.3z" />
</symbol><symbol id="logo-7" viewBox="0 0 1376 338">

<path class="st0" d="M1018,90.4h67.7v241.8H1018V90.4z M1085.7,6.3H1018v63.4h67.7V6.3z" />
</symbol><symbol id="logo-8" viewBox="0 0 1376 338">

<path class="st0" d="M1106.8,6.3h62.9v262.5h20.8v63.4h-83.7V6.3z" />
</symbol><symbol id="logo-9" viewBox="0 0 1376 338">

<path class="st0" d="M1348.3,165.4v-0.5l26.1-158.7h-67.5l-19.6,131h-8.1V6.3h-67.7v325.9h67.7V200.7h8.1l21,131.5h67.7
	L1348.3,165.4z" />
</symbol><symbol id="logo-full" viewBox="0 0 1376 338">
<style type="text/css">
	#logo-full .st0{fill-rule:evenodd;clip-rule:evenodd;fill:#FFFFFF;}
</style>
<path class="st0" d="M297.2,0c-27.3,0-46.5,6.3-59.2,18.4c-12.2,11.8-19.2,33-19.2,59.9v183.5c0,26.2,6.5,45.8,19.2,57.8
	C251,332,271.3,338,298.6,338c27.3,0,44.4-6.3,57.1-18.4c12.7-12.1,19.6-31.6,19.6-57.8V137.3h-78.1v63.7h10.4v75.3h-20.8V69.7h20.8
	v43.9h67.7V76.4c0-26.3-6.5-45.8-19.2-57.8C343.4,6.3,324.7,0,297.2,0z M88.7,332.2H20.8V69.7H0V6.3h109.5v63.4H88.7V332.2z
	 M198.1,90.4h-67.7v241.8h67.7V90.4z M198.1,6.3h-67.7v63.4h67.7V6.3z M850.5,90.6v178.2h-21V90.6H682.7v241.6h63.1V154h20.8v178.2
	h146.8V153.8h21v178.4h62.9V90.6H850.5z M505.7,6.3h85.7c21.7,0.7,41.4,6.7,53.2,18.8c11.6,11.4,17.3,28.6,17.3,50.6v26.5
	c0,21.1-4.2,30-11.6,41.1c-7.4,11.2-21.5,16.3-35.4,17.9l-2.3,0.2v7l2.3,0.2c29.6,4.2,47.1,35.5,46.9,77.1v86.4h-67.7V200.7h-20.8
	v131.5h-67.7V6.3z M573.4,137.3h20.8V69.7h-20.8V137.3z M1348.3,165.4v-0.5l26.1-158.7h-67.5l-19.6,131h-8.1V6.3h-67.7v325.9h67.7
	V200.7h8.1l21,131.5h67.7L1348.3,165.4z M997.2,6.3H682.7v63.4h314.5V6.3z M463.8,200.7h20.8v-63.4h-20.8V69.2h20.8v-63h-88.5v325.9
	h88.5v-63.4h-20.8V200.7z M1106.8,6.3h62.9v262.5h20.8v63.4h-83.7V6.3z M1018,90.4h67.7v241.8H1018V90.4z M1085.7,6.3H1018v63.4
	h67.7V6.3z" />
</symbol><symbol viewBox="0 0 24 26" id="logo-mobile">
<path d="M24 0H0V5.05916H24V0ZM12.8024 20.9408V6.72702H24V26H19.2035V11.7676H17.5988V26H6.40118V11.7862H4.81411V26H0V6.72702H11.1976V20.9408H12.8024Z" />
</symbol></defs></svg>