<?xml version="1.0" standalone="no"?>
<!DOCTYPE svg PUBLIC "-//W3C//DTD SVG 20010904//EN"
 "http://www.w3.org/TR/2001/REC-SVG-20010904/DTD/svg10.dtd">
<svg version="1.0" xmlns="http://www.w3.org/2000/svg"
 width="4333.000000pt" height="1527.000000pt" viewBox="0 0 4333.000000 1527.000000"
 preserveAspectRatio="xMidYMid meet">

<g transform="translate(0.000000,1527.000000) scale(0.100000,-0.100000)"
fill="#000000" stroke="none">
<path d="M6185 15158 c-1043 -26 -2053 -279 -2940 -737 -841 -435 -1523 -1002
-2060 -1717 -362 -480 -671 -1064 -865 -1630 -445 -1300 -425 -2789 55 -4059
385 -1020 1127 -2007 2001 -2665 840 -632 1902 -1023 3114 -1144 297 -30 417
-37 775 -43 508 -8 896 14 1339 78 949 135 1801 447 2531 926 221 146 404 283
411 310 4 16 -27 67 -137 220 -420 586 -673 1029 -1004 1763 -49 107 -92 201
-98 208 -20 25 -56 9 -225 -104 -626 -418 -1081 -618 -1607 -709 -272 -47
-675 -75 -1075 -75 -1049 0 -1856 284 -2511 883 -469 429 -794 1002 -924 1632
-50 240 -66 400 -72 698 -7 364 10 574 72 889 194 972 853 1812 1768 2253 390
188 770 290 1287 347 156 17 766 17 930 0 523 -55 835 -143 1425 -401 241
-106 484 -247 768 -446 129 -91 158 -104 183 -87 6 4 60 117 120 252 315 713
648 1299 1038 1829 82 111 105 149 100 165 -8 27 2 18 -149 131 -506 379
-1106 693 -1713 895 -783 260 -1555 363 -2537 338z"/>
<path d="M36640 15159 c-728 -21 -1405 -159 -2060 -421 -184 -73 -562 -263
-742 -371 -797 -480 -1511 -1196 -1997 -2001 -434 -718 -705 -1535 -805 -2426
-57 -500 -60 -1089 -10 -1570 142 -1367 673 -2512 1609 -3469 944 -965 2113
-1527 3516 -1690 341 -40 466 -46 919 -46 453 0 595 7 945 46 1730 192 3032
918 4049 2258 97 128 116 160 114 184 -3 30 -24 40 -1182 584 -648 304 -1185
553 -1193 553 -8 0 -61 -43 -119 -95 -234 -211 -514 -412 -769 -553 -462 -254
-993 -409 -1555 -453 -186 -15 -671 -6 -840 15 -661 83 -1195 296 -1652 658
-123 97 -367 340 -462 458 -175 219 -345 517 -450 786 -63 164 -93 258 -140
453 -45 181 -53 236 -36 256 11 13 523 15 4581 15 4422 0 4570 1 4587 18 17
17 19 46 25 321 25 1253 -186 2343 -633 3268 -291 601 -626 1071 -1109 1553
-364 364 -703 627 -1124 874 -832 487 -1847 767 -2872 791 -121 3 -249 7 -285
8 -36 2 -175 0 -310 -4z m870 -2443 c632 -88 1141 -303 1620 -685 128 -101
369 -343 468 -468 191 -242 342 -513 443 -796 44 -122 47 -152 20 -167 -14 -7
-986 -10 -3070 -10 l-3051 0 -16 26 c-17 25 -16 28 74 207 212 424 415 731
658 994 296 321 846 642 1340 782 221 63 468 109 694 131 150 14 685 5 820
-14z"/>
<path d="M28745 15004 c-441 -33 -688 -67 -1032 -144 -815 -183 -1487 -500
-2073 -978 -125 -102 -455 -430 -562 -557 -592 -709 -940 -1536 -1048 -2492
-43 -384 -43 -375 -47 -3818 -3 -2875 -2 -3313 11 -3330 14 -20 32 -20 1411
-20 1371 0 1397 0 1411 19 12 17 14 471 14 3216 0 2174 3 3239 11 3331 46 584
244 1070 579 1423 191 201 499 411 779 531 496 211 979 249 1544 118 82 -18
124 -24 134 -17 9 5 41 68 73 139 318 722 746 1387 1282 1992 107 120 111 127
103 152 -12 40 -453 204 -750 279 -266 68 -492 107 -795 138 -146 15 -911 28
-1045 18z"/>
<path d="M42462 14990 c-188 -50 -343 -179 -432 -358 -44 -90 -63 -175 -63
-287 0 -190 58 -330 193 -466 72 -74 99 -93 180 -132 114 -54 170 -67 298 -67
119 0 190 17 302 72 67 33 102 58 165 122 142 143 202 299 193 505 -8 177 -66
309 -193 436 -81 80 -152 125 -257 162 -101 36 -279 42 -386 13z m280 -111
c95 -20 194 -75 267 -148 214 -215 215 -556 2 -770 -293 -295 -776 -166 -895
238 -21 72 -21 221 0 292 56 188 211 340 390 383 73 18 166 20 236 5z"/>
<path d="M42360 14360 l0 -370 70 0 70 0 0 130 0 130 89 0 90 0 68 -130 68
-130 78 0 79 0 -35 63 c-20 34 -54 93 -76 132 -23 38 -41 73 -41 77 0 4 9 9
19 13 11 3 38 24 60 47 97 96 90 274 -13 353 -61 47 -111 55 -328 55 l-198 0
0 -370z m441 211 c25 -25 29 -37 29 -81 0 -44 -4 -56 -29 -81 l-29 -29 -136 0
-136 0 0 110 0 110 136 0 136 0 29 -29z"/>
<path d="M16520 14954 c-229 -15 -380 -29 -538 -50 -2183 -292 -4033 -1830
-4737 -3939 -176 -526 -277 -1089 -294 -1640 -17 -579 34 -1082 165 -1614 348
-1414 1215 -2651 2428 -3463 799 -536 1668 -847 2666 -955 236 -25 874 -25
1110 0 1218 132 2249 566 3180 1341 189 156 553 521 711 711 769 926 1210
1966 1345 3175 21 196 30 776 15 992 -139 1931 -1182 3630 -2841 4629 -745
448 -1597 721 -2495 799 -124 11 -618 21 -715 14z m53 -731 c-18 -2 -48 -2
-65 0 -18 2 -4 4 32 4 36 0 50 -2 33 -4z m450 0 c-18 -2 -48 -2 -65 0 -18 2
-4 4 32 4 36 0 50 -2 33 -4z m-625 -10 c-10 -2 -28 -2 -40 0 -13 2 -5 4 17 4
22 1 32 -1 23 -4z m780 0 c-10 -2 -26 -2 -35 0 -10 3 -2 5 17 5 19 0 27 -2 18
-5z m-905 -10 c-7 -2 -21 -2 -30 0 -10 3 -4 5 12 5 17 0 24 -2 18 -5z m1020 0
c-7 -2 -21 -2 -30 0 -10 3 -4 5 12 5 17 0 24 -2 18 -5z m-1110 -10 c-7 -2 -21
-2 -30 0 -10 3 -4 5 12 5 17 0 24 -2 18 -5z m1200 0 c-7 -2 -21 -2 -30 0 -10
3 -4 5 12 5 17 0 24 -2 18 -5z m-1280 -10 c-7 -2 -19 -2 -25 0 -7 3 -2 5 12 5
14 0 19 -2 13 -5z m1354 1 c-3 -3 -12 -4 -19 -1 -8 3 -5 6 6 6 11 1 17 -2 13
-5z m-1424 -11 c-7 -2 -19 -2 -25 0 -7 3 -2 5 12 5 14 0 19 -2 13 -5z m1494 1
c-3 -3 -12 -4 -19 -1 -8 3 -5 6 6 6 11 1 17 -2 13 -5z m-1560 -10 c-3 -3 -12
-4 -19 -1 -8 3 -5 6 6 6 11 1 17 -2 13 -5z m1620 0 c-3 -3 -12 -4 -19 -1 -8 3
-5 6 6 6 11 1 17 -2 13 -5z m-1680 -10 c-3 -3 -12 -4 -19 -1 -8 3 -5 6 6 6 11
1 17 -2 13 -5z m1740 0 c-3 -3 -12 -4 -19 -1 -8 3 -5 6 6 6 11 1 17 -2 13 -5z
m-1800 -10 c-3 -3 -12 -4 -19 -1 -8 3 -5 6 6 6 11 1 17 -2 13 -5z m1860 0 c-3
-3 -12 -4 -19 -1 -8 3 -5 6 6 6 11 1 17 -2 13 -5z m-1910 -10 c-3 -3 -12 -4
-19 -1 -8 3 -5 6 6 6 11 1 17 -2 13 -5z m1960 0 c-3 -3 -12 -4 -19 -1 -8 3 -5
6 6 6 11 1 17 -2 13 -5z m-2010 -10 c-3 -3 -12 -4 -19 -1 -8 3 -5 6 6 6 11 1
17 -2 13 -5z m2060 0 c-3 -3 -12 -4 -19 -1 -8 3 -5 6 6 6 11 1 17 -2 13 -5z
m-2150 -20 c-3 -3 -12 -4 -19 -1 -8 3 -5 6 6 6 11 1 17 -2 13 -5z m1583 -628
c715 -85 1346 -317 1935 -711 816 -546 1422 -1345 1731 -2280 96 -292 168
-645 200 -977 23 -241 15 -703 -15 -938 -72 -552 -239 -1076 -493 -1544 -599
-1105 -1630 -1899 -2838 -2185 -340 -80 -616 -112 -990 -112 -573 -1 -1067 92
-1590 298 -559 221 -1047 540 -1476 968 -713 710 -1144 1597 -1271 2615 -14
116 -18 217 -18 510 1 386 12 520 66 810 317 1676 1585 3026 3230 3440 195 49
456 94 629 109 69 6 141 13 160 15 86 10 613 -3 740 -18z m-3550 -290 c0 -2
-8 -10 -17 -17 -16 -13 -17 -12 -4 4 13 16 21 21 21 13z m6171 -13 c13 -16 12
-17 -3 -4 -17 13 -22 21 -14 21 2 0 10 -8 17 -17z m40 -30 c13 -16 12 -17 -3
-4 -17 13 -22 21 -14 21 2 0 10 -8 17 -17z m-6301 -27 c0 -2 -8 -10 -17 -17
-16 -13 -17 -12 -4 4 13 16 21 21 21 13z m6351 -13 c13 -16 12 -17 -3 -4 -17
13 -22 21 -14 21 2 0 10 -8 17 -17z m-6411 -37 c0 -2 -8 -10 -17 -17 -16 -13
-17 -12 -4 4 13 16 21 21 21 13z m6471 -13 c13 -16 12 -17 -3 -4 -17 13 -22
21 -14 21 2 0 10 -8 17 -17z m-6531 -36 c0 -2 -10 -12 -22 -23 l-23 -19 19 23
c18 21 26 27 26 19z m6595 -17 c10 -11 16 -20 13 -20 -3 0 -13 9 -23 20 -10
11 -16 20 -13 20 3 0 13 -9 23 -20z m-6675 -53 c0 -2 -12 -14 -27 -28 l-28
-24 24 28 c23 25 31 32 31 24z m6760 -22 c13 -14 21 -25 18 -25 -2 0 -15 11
-28 25 -13 14 -21 25 -18 25 2 0 15 -11 28 -25z m-6870 -78 c0 -1 -51 -52
-112 -112 l-113 -110 110 113 c102 104 115 117 115 109z m7065 -107 c60 -60
107 -110 105 -110 -3 0 -55 50 -115 110 -60 61 -107 110 -105 110 3 0 55 -49
115 -110z m-7325 -163 c0 -2 -15 -16 -32 -33 l-33 -29 29 33 c28 30 36 37 36
29z m7506 -29 l29 -33 -32 29 c-18 17 -33 31 -33 33 0 8 8 1 36 -29z m-7596
-71 c0 -2 -10 -12 -22 -23 l-23 -19 19 23 c18 21 26 27 26 19z m7675 -17 c10
-11 16 -20 13 -20 -3 0 -13 9 -23 20 -10 11 -16 20 -13 20 3 0 13 -9 23 -20z
m-7735 -54 c0 -2 -8 -10 -17 -17 -16 -13 -17 -12 -4 4 13 16 21 21 21 13z
m7791 -13 c13 -16 12 -17 -3 -4 -17 13 -22 21 -14 21 2 0 10 -8 17 -17z
m-7841 -47 c0 -2 -8 -10 -17 -17 -16 -13 -17 -12 -4 4 13 16 21 21 21 13z
m-40 -50 c0 -2 -8 -10 -17 -17 -16 -13 -17 -12 -4 4 13 16 21 21 21 13z m8001
-53 c13 -16 12 -17 -3 -4 -17 13 -22 21 -14 21 2 0 10 -8 17 -17z m519 -827
c0 -12 -5 -7 -19 24 -11 24 -11 24 3 6 9 -11 16 -24 16 -30z m-9114 -63 c-8
-15 -15 -25 -16 -21 0 12 23 58 27 54 3 -2 -2 -17 -11 -33z m9511 -1025 c-3
-8 -6 -5 -6 6 -1 11 2 17 5 13 3 -3 4 -12 1 -19z m30 -130 c-3 -8 -6 -5 -6 6
-1 11 2 17 5 13 3 -3 4 -12 1 -19z m30 -150 c-3 -8 -6 -5 -6 6 -1 11 2 17 5
13 3 -3 4 -12 1 -19z m-10010 -50 c-3 -8 -6 -5 -6 6 -1 11 2 17 5 13 3 -3 4
-12 1 -19z m10020 0 c-3 -8 -6 -5 -6 6 -1 11 2 17 5 13 3 -3 4 -12 1 -19z
m-10030 -60 c-3 -8 -6 -5 -6 6 -1 11 2 17 5 13 3 -3 4 -12 1 -19z m10040 0
c-3 -8 -6 -5 -6 6 -1 11 2 17 5 13 3 -3 4 -12 1 -19z m-10050 -70 c-3 -7 -5
-2 -5 12 0 14 2 19 5 13 2 -7 2 -19 0 -25z m10060 0 c-3 -7 -5 -2 -5 12 0 14
2 19 5 13 2 -7 2 -19 0 -25z m-10070 -70 c-3 -7 -5 -2 -5 12 0 14 2 19 5 13 2
-7 2 -19 0 -25z m10080 0 c-3 -7 -5 -2 -5 12 0 14 2 19 5 13 2 -7 2 -19 0 -25z
m-10090 -80 c-3 -7 -5 -2 -5 12 0 14 2 19 5 13 2 -7 2 -19 0 -25z m10100 0
c-3 -7 -5 -2 -5 12 0 14 2 19 5 13 2 -7 2 -19 0 -25z m-10110 -85 c-3 -10 -5
-4 -5 12 0 17 2 24 5 18 2 -7 2 -21 0 -30z m10120 -10 c-3 -10 -5 -4 -5 12 0
17 2 24 5 18 2 -7 2 -21 0 -30z m-10130 -100 c-3 -10 -5 -4 -5 12 0 17 2 24 5
18 2 -7 2 -21 0 -30z m10140 -10 c-3 -10 -5 -2 -5 17 0 19 2 27 5 18 2 -10 2
-26 0 -35z m-10150 -160 c-2 -16 -4 -3 -4 27 0 30 2 43 4 28 2 -16 2 -40 0
-55z m10160 -10 c-2 -16 -4 -3 -4 27 0 30 2 43 4 28 2 -16 2 -40 0 -55z m0
-510 c-2 -16 -4 -3 -4 27 0 30 2 43 4 28 2 -16 2 -40 0 -55z m-10160 -10 c-2
-16 -4 -3 -4 27 0 30 2 43 4 28 2 -16 2 -40 0 -55z m10150 -140 c-3 -10 -5 -2
-5 17 0 19 2 27 5 18 2 -10 2 -26 0 -35z m-10140 -10 c-3 -10 -5 -2 -5 17 0
19 2 27 5 18 2 -10 2 -26 0 -35z m10 -100 c-3 -10 -5 -4 -5 12 0 17 2 24 5 18
2 -7 2 -21 0 -30z m10120 0 c-3 -10 -5 -4 -5 12 0 17 2 24 5 18 2 -7 2 -21 0
-30z m-10110 -90 c-3 -10 -5 -4 -5 12 0 17 2 24 5 18 2 -7 2 -21 0 -30z
m10100 5 c-3 -7 -5 -2 -5 12 0 14 2 19 5 13 2 -7 2 -19 0 -25z m-10 -80 c-3
-7 -5 -2 -5 12 0 14 2 19 5 13 2 -7 2 -19 0 -25z m-10080 0 c-3 -8 -6 -5 -6 6
-1 11 2 17 5 13 3 -3 4 -12 1 -19z m10 -70 c-3 -8 -6 -5 -6 6 -1 11 2 17 5 13
3 -3 4 -12 1 -19z m10060 0 c-3 -8 -6 -5 -6 6 -1 11 2 17 5 13 3 -3 4 -12 1
-19z m-10050 -60 c-3 -8 -6 -5 -6 6 -1 11 2 17 5 13 3 -3 4 -12 1 -19z m10040
0 c-3 -8 -6 -5 -6 6 -1 11 2 17 5 13 3 -3 4 -12 1 -19z m-10030 -60 c-3 -8 -6
-5 -6 6 -1 11 2 17 5 13 3 -3 4 -12 1 -19z m10020 0 c-3 -8 -6 -5 -6 6 -1 11
2 17 5 13 3 -3 4 -12 1 -19z m-10010 -60 c-3 -8 -6 -5 -6 6 -1 11 2 17 5 13 3
-3 4 -12 1 -19z m10 -50 c-3 -8 -6 -5 -6 6 -1 11 2 17 5 13 3 -3 4 -12 1 -19z
m9980 0 c-3 -8 -6 -5 -6 6 -1 11 2 17 5 13 3 -3 4 -12 1 -19z m-9970 -50 c-3
-8 -6 -5 -6 6 -1 11 2 17 5 13 3 -3 4 -12 1 -19z m9940 -90 c-3 -8 -6 -5 -6 6
-1 11 2 17 5 13 3 -3 4 -12 1 -19z m-8956 -2015 c13 -16 12 -17 -3 -4 -10 7
-18 15 -18 17 0 8 8 3 21 -13z m8009 13 c0 -2 -8 -10 -17 -17 -16 -13 -17 -12
-4 4 13 16 21 21 21 13z m-7969 -63 c13 -16 12 -17 -3 -4 -17 13 -22 21 -14
21 2 0 10 -8 17 -17z m7929 13 c0 -2 -8 -10 -17 -17 -16 -13 -17 -12 -4 4 13
16 21 21 21 13z m-7889 -63 c13 -16 12 -17 -3 -4 -17 13 -22 21 -14 21 2 0 10
-8 17 -17z m7849 13 c0 -2 -8 -10 -17 -17 -16 -13 -17 -12 -4 4 13 16 21 21
21 13z m-7799 -73 c13 -16 12 -17 -3 -4 -10 7 -18 15 -18 17 0 8 8 3 21 -13z
m7749 14 c0 -2 -10 -12 -22 -23 l-23 -19 19 23 c18 21 26 27 26 19z m-7680
-92 c13 -14 21 -25 18 -25 -2 0 -15 11 -28 25 -13 14 -21 25 -18 25 2 0 15
-11 28 -25z m7620 22 c0 -2 -12 -14 -27 -28 l-28 -24 24 28 c23 25 31 32 31
24z m-7515 -137 c27 -27 47 -50 44 -50 -3 0 -27 23 -54 50 -27 28 -47 50 -44
50 3 0 27 -22 54 -50z m7435 47 c0 -1 -26 -27 -57 -57 l-58 -55 55 58 c50 53
60 62 60 54z m-230 -230 c0 -1 -24 -25 -52 -52 l-53 -50 50 53 c46 48 55 57
55 49z m-6930 -94 c0 -8 -9 0 -50 45 l-45 47 48 -45 c26 -24 47 -45 47 -47z
m70 -58 c13 -14 21 -25 18 -25 -2 0 -15 11 -28 25 -13 14 -21 25 -18 25 2 0
15 -11 28 -25z m6720 22 c0 -2 -12 -14 -27 -28 l-28 -24 24 28 c23 25 31 32
31 24z m-6645 -87 c10 -11 16 -20 13 -20 -3 0 -13 9 -23 20 -10 11 -16 20 -13
20 3 0 13 -9 23 -20z m6565 17 c0 -2 -10 -12 -22 -23 l-23 -19 19 23 c18 21
26 27 26 19z m-6449 -114 c13 -16 12 -17 -3 -4 -10 7 -18 15 -18 17 0 8 8 3
21 -13z m6329 13 c0 -2 -8 -10 -17 -17 -16 -13 -17 -12 -4 4 13 16 21 21 21
13z m-6239 -83 c13 -16 12 -17 -3 -4 -10 7 -18 15 -18 17 0 8 8 3 21 -13z
m6149 13 c0 -2 -8 -10 -17 -17 -16 -13 -17 -12 -4 4 13 16 21 21 21 13z
m-2023 -942 c-3 -3 -12 -4 -19 -1 -8 3 -5 6 6 6 11 1 17 -2 13 -5z m-2050 -10
c-3 -3 -12 -4 -19 -1 -8 3 -5 6 6 6 11 1 17 -2 13 -5z m2000 0 c-3 -3 -12 -4
-19 -1 -8 3 -5 6 6 6 11 1 17 -2 13 -5z m-1950 -10 c-3 -3 -12 -4 -19 -1 -8 3
-5 6 6 6 11 1 17 -2 13 -5z m1900 0 c-3 -3 -12 -4 -19 -1 -8 3 -5 6 6 6 11 1
17 -2 13 -5z m-1790 -20 c-3 -3 -12 -4 -19 -1 -8 3 -5 6 6 6 11 1 17 -2 13 -5z
m1680 0 c-3 -3 -12 -4 -19 -1 -8 3 -5 6 6 6 11 1 17 -2 13 -5z m-1620 -10 c-3
-3 -12 -4 -19 -1 -8 3 -5 6 6 6 11 1 17 -2 13 -5z m1560 0 c-3 -3 -12 -4 -19
-1 -8 3 -5 6 6 6 11 1 17 -2 13 -5z m-1484 -11 c-7 -2 -19 -2 -25 0 -7 3 -2 5
12 5 14 0 19 -2 13 -5z m1414 1 c-3 -3 -12 -4 -19 -1 -8 3 -5 6 6 6 11 1 17
-2 13 -5z m-1344 -11 c-7 -2 -19 -2 -25 0 -7 3 -2 5 12 5 14 0 19 -2 13 -5z
m1270 0 c-7 -2 -19 -2 -25 0 -7 3 -2 5 12 5 14 0 19 -2 13 -5z m-1180 -10 c-7
-2 -19 -2 -25 0 -7 3 -2 5 12 5 14 0 19 -2 13 -5z m1090 0 c-7 -2 -19 -2 -25
0 -7 3 -2 5 12 5 14 0 19 -2 13 -5z m-980 -10 c-7 -2 -21 -2 -30 0 -10 3 -4 5
12 5 17 0 24 -2 18 -5z m880 0 c-7 -2 -21 -2 -30 0 -10 3 -4 5 12 5 17 0 24
-2 18 -5z m-745 -10 c-10 -2 -28 -2 -40 0 -13 2 -5 4 17 4 22 1 32 -1 23 -4z
m620 0 c-10 -2 -28 -2 -40 0 -13 2 -5 4 17 4 22 1 32 -1 23 -4z m-266 -10
c-40 -2 -103 -2 -140 0 -37 2 -4 3 73 3 77 0 107 -2 67 -3z"/>
<path d="M38575 2289 c-111 -13 -257 -51 -362 -96 -343 -149 -579 -465 -632
-847 -16 -111 -13 -306 4 -416 78 -479 421 -819 915 -906 127 -22 363 -22 490
0 377 67 672 282 821 600 76 162 109 322 109 526 0 214 -35 372 -119 545 -210
427 -678 654 -1226 594z m323 -444 c167 -33 329 -141 417 -279 164 -257 148
-649 -36 -878 -132 -164 -303 -242 -534 -242 -210 0 -346 53 -482 189 -125
124 -187 266 -200 461 -20 307 117 570 361 689 147 72 309 92 474 60z"/>
<path d="M24090 1150 l0 -1090 240 0 240 0 0 475 0 475 470 0 470 0 0 -475 0
-475 240 0 240 0 0 1090 0 1090 -240 0 -240 0 0 -405 0 -405 -470 0 -470 0 0
405 0 405 -240 0 -240 0 0 -1090z"/>
<path d="M26230 2235 c0 -2 182 -282 405 -622 l405 -618 0 -467 0 -468 240 0
240 0 0 468 0 467 405 618 c223 341 405 621 405 623 0 2 -125 4 -279 4 l-278
0 -243 -405 c-134 -223 -246 -405 -250 -405 -4 0 -110 182 -236 405 l-229 405
-292 0 c-161 0 -293 -2 -293 -5z"/>
<path d="M28510 1149 l0 -1090 493 4 c543 5 570 7 764 72 312 104 531 290 658
557 60 128 85 233 92 398 24 580 -266 969 -821 1100 -178 42 -295 50 -752 50
l-434 0 0 -1091z m1034 622 c241 -67 398 -213 462 -426 24 -80 24 -283 1 -375
-59 -228 -210 -372 -455 -437 -87 -23 -120 -26 -334 -31 l-238 -4 0 652 0 652
243 -4 c211 -4 252 -8 321 -27z"/>
<path d="M30920 1150 l0 -1090 235 0 235 0 2 438 3 437 117 3 118 3 20 -33
c10 -17 115 -216 232 -440 l213 -408 283 0 c155 0 282 2 282 5 0 2 -124 210
-275 460 -164 273 -270 457 -262 459 258 74 380 190 438 414 24 94 26 277 4
371 -51 213 -214 371 -447 430 -142 37 -220 41 -714 41 l-484 0 0 -1090z m935
680 c92 -15 163 -56 200 -114 27 -45 30 -57 30 -136 0 -78 -3 -91 -27 -126
-68 -96 -136 -114 -440 -114 l-228 0 0 250 0 250 203 0 c111 0 229 -4 262 -10z"/>
<path d="M33402 1543 c-166 -384 -378 -875 -471 -1091 l-169 -392 262 0 262 0
89 230 90 230 430 0 431 0 88 -219 c49 -120 91 -224 95 -230 5 -8 82 -11 272
-9 l265 3 -472 1085 -471 1085 -200 3 -199 2 -302 -697z m627 -280 c72 -183
131 -335 131 -338 0 -3 -121 -5 -270 -5 -148 0 -270 3 -270 7 0 20 265 682
271 675 4 -4 66 -157 138 -339z"/>
<path d="M34730 2030 l0 -210 315 0 315 0 0 -880 0 -880 235 0 235 0 0 880 0
880 310 0 310 0 0 210 0 210 -860 0 -860 0 0 -210z"/>
<path d="M36760 1150 l0 -1090 240 0 240 0 0 1090 0 1090 -240 0 -240 0 0
-1090z"/>
<path d="M40200 1150 l0 -1090 235 0 235 0 0 780 c0 429 3 780 8 780 4 -1 221
-350 483 -778 l475 -777 312 -3 312 -2 0 1090 0 1090 -235 0 -235 0 0 -761 c0
-442 -4 -758 -9 -755 -5 3 -217 346 -471 761 l-462 755 -324 0 -324 0 0 -1090z"/>
</g>
</svg>
