<svg xmlns="http://www.w3.org/2000/svg" xmlns:xlink="http://www.w3.org/1999/xlink" version="1.1" id="Layer_1" x="0px" y="0px" width="132.7px" height="84.3px" viewBox="0 0 132.7 84.3" enable-background="new 0 0 132.7 84.3" xml:space="preserve">
<path fill="#000" d="M99.3,33.7c0,0.3,0.2,0.6,0.3,0.8c0.3-0.1,0.6-0.2,0.8-0.3c2-1.7,4.3-2.9,6.8-3.7c3.2-1,6.4-1.2,9.6,0.1  c5.1,2.1,8.6,8.3,7.8,13.8c-0.5,3.5-2.1,6.3-5.4,7.9c-1.4,0.7-2.2,0.2-2.2-1.4c0-0.2,0-0.4,0.1-0.6c0.3-1.6,0.6-3.2,0.9-4.8  c0.5-2.5,1-5,1.3-7.5c0.2-1.3-0.2-2.7-1.6-3.3c-1.4-0.7-2.8-0.6-4.1,0.2c-0.6,0.4-1.1,0.8-1.4,1.1c-1.2-0.6-2.2-1.4-3.3-1.7  c-2.5-0.7-4.8,0-6.9,1.4c-4.4,2.8-6.9,6.9-8,11.9c-0.7,3.1-0.3,6.1,1.8,8.7c2.9,3.5,8.1,4.1,11.4,1.2c0.6-0.5,1.1-1.3,1.7-1.9  c0.2,0.2,0.4,0.5,0.7,0.7c2.9,3.1,6.6,4.1,10.5,2.6c4.9-2,8.1-5.7,10.5-10.3c1.8-3.6,2.3-7.4,2.2-11.4c-0.1-2.6-0.7-5-1.9-7.3  c-2.1-4-5.5-6.6-9.8-8c-5.4-1.8-10.7-1.6-15.7,1.3C101.3,25.5,99.2,29,99.3,33.7z M107.8,47.5c-0.6,1-1.3,1.7-2.5,1.7  c-0.8,0-1.2-0.4-1.3-1.1c-0.3-2.2,1.5-5.5,3.6-6.3c0.5-0.2,1.1-0.2,1.8-0.3C109.2,43.7,108.9,45.7,107.8,47.5z M132.6,49.5  c0-0.1-0.1-0.2-0.2-0.5c-0.4,0.7-0.8,1.2-1.1,1.8c-2.9,4.5-6.5,8.3-11.5,10.5c-5.3,2.3-10.7,2.1-16.2,0.6c-4.5-1.2-8.6-3.3-12.7-5.5  c-0.7-0.4-0.8-0.7-0.6-1.5c1.9-6.4,3.1-13,4-19.6c0.5-3.4,1.2-6.7,1.8-10.1c0-0.2,0.4-0.6,0.6-0.6c3.5-0.4,6.3-2,8.8-4.3  c2.4-2.3,4.3-4.9,5-8.2c0.3-1.7,0.1-3.3-1.1-4.6c-1.7-1.8-3.9-2.5-6.4-2.2c-3.3,0.4-5.9,2.1-8,4.6c-1.1,1.2-1.9,2.7-2.8,4  c-0.8-0.4-1.2-1.2-1.5-2.1c-0.1-0.2,0.1-0.6,0.2-0.8c1.5-1.5,2.2-3.4,2.6-5.5c0.4-2.8-0.8-5.1-3.2-5.5c-3.1-0.6-6.8,0.5-8.5,4.2  c-0.7,1.5-1.1,3.1-1.1,4.8C80.8,9.1,81.2,9,81.5,9c2.1-0.4,4-1.3,5.5-2.9c0.1-0.2,0.5-0.1,0.8-0.2c0,0.3,0,0.6-0.1,0.8  c-0.6,0.6-1.3,1.3-2,1.8c-2.1,1.4-4.4,1.8-6.9,2c-4.3,0.3-8.6-0.3-12.8-1c-7.1-1.3-14.1-3.1-21-5.1c-3.4-1-6.9-1.9-10.4-2.3  c-4.7-0.4-9.4,0-14,1.3C14.6,5.1,9.3,7.9,5.2,12.6c-5.4,6.2-6.7,13.2-3.5,20.8c2,4.8,5.3,8.3,10.4,9.7c5.5,1.5,10.6,0.4,15.2-2.7  c2.9-1.9,5-4.5,6.1-7.9c0.3-0.9,0.2-1.2-0.8-1.2c-1.2-0.1-2.1-0.7-2.4-1.9c-0.4-1.2-0.3-2.5,0.3-3.7c1.5-3.2,4.2-4.6,7.4-5.4  c3.2-0.8,6.4-0.6,9.6-0.4c1.8,0.1,3.7,0.2,5.3,0.4c-1.4,2.6-2.8,5.2-4.2,7.8c-0.3,0.6-0.5,0.8-1.2,0.7c-4.4-0.4-8.3,0.6-11.4,3.9  c-2.8,3-3.3,7.5-1.3,11.1c0.5,0.9,0.8,0.9,1.3,0c0.1-0.2,0.2-0.4,0.3-0.5c1.9-3,4.8-4.2,8.3-4.7c0,0.3,0,0.5-0.1,0.6  c-1,2.6-1.9,5.3-3.1,7.8c-1,2.4-2.3,4.6-4.5,6.2c-1.6,1.2-3.4,1.8-5.4,1.5c-1.3-0.2-2.4-1.2-2.6-2.4c-0.2-1.3,0.5-2.3,1.9-2.9  c0.2-0.1,0.5-0.2,0.9-0.5c-0.7-0.5-1.2-1-1.8-1.4c-1.7-0.9-3.5-0.9-5.2-0.5c-8,2.2-13.9,7.1-17.4,14.6c-3.9,8.3,0.3,16.5,6.7,20.4  c4.1,2.5,8.7,2.4,13.2,1.4c4-0.9,7.6-2.9,10.7-5.6c3.6-3.1,6.5-6.8,7.7-11.4c1.2-4.5,1.9-9,2.8-13.6c0.9-4.7,1.9-9.4,2.8-14.1  c0.2-0.8,0.5-1.1,1.4-1.1c1.6,0.1,3.2,0,4.9,0c0.3,0,0.6,0,0.9,0c0.1,0.5,0.1,0.9,0.2,1.3c0.3,2.1,1,3.9,2.5,5.5  c4.4,4.7,11.6,5.4,16.9,1.8c4.4-3,6.4-8.1,5.3-13.2c-0.1-0.4-0.3-0.8-0.5-1.5c-0.3,0.5-0.5,0.7-0.7,1c-1.5,2-3.3,3.5-5.8,4.1  c-1.3,0.3-2.5,0.4-3.8-0.6c0.5-0.2,0.8-0.3,1.1-0.4c2.9-1,5.4-2.5,7.1-5.1c1.9-3,0.9-6.6-2.4-8c-2.6-1.1-5.3-0.9-7.9-0.4  c-4.3,0.8-7.2,3.6-9.5,7.2c-1,1.6-0.9,1.6-2.7,1.3c-1.4-0.3-2.7-0.6-4.1-0.9c1.2-3.2,2.5-6.2,4.7-8.7c0.2-0.2,0.6-0.5,0.9-0.5  c4.1,0.1,8.2,0.3,12.2-0.3c3.7-0.5,7.2-1.5,10.4-3.4c0.2-0.1,0.5-0.3,0.8-0.4c1.9,3.2,2.7,3.9,5.6,5.7c0.2,0.1,0.3,0.6,0.3,0.9  c-0.4,2-0.9,4-1.3,6.1c-1.2,5.7-2.3,11.4-3.5,17.1c-0.5,2.1-1.3,4.1-1.9,6.1c-2.3-0.7-4.4-1.4-6.5-1.9c-5.3-1.2-10.6-1-15.7,1  c-8.3,3.3-12.2,11-9.7,19.3c1.4,4.7,4.4,7.8,9.2,9.2c5.5,1.5,10.8,0.7,15.8-1.7c3.7-1.7,6.7-4.2,8.3-8.2c-0.1-0.1-0.2-0.2-0.3-0.2  c-1.4-0.6-2.8-1.3-4.2-1.9c-4.4-1.6-8.8-2.6-13.5-1.9c-0.3,0-0.5-0.2-0.8-0.2c0.2-0.2,0.4-0.5,0.7-0.6c0.8-0.2,1.6-0.3,2.3-0.3  c3.2-0.3,6.4-0.2,9.5,1c3.2,1.2,6.3,2.4,9.5,3.5c4,1.5,8.2,2.7,12.5,3.3c4.3,0.6,8.5,0.5,12.7-0.5c5.2-1.3,10.1-3.3,14.2-6.9  C130.7,61.1,133.1,55.9,132.6,49.5z M99.7,14c0.9-1.3,1.9-2.5,3.4-3.1c0.4-0.2,1.2-0.2,1.5,0.1c0.4,0.3,0.6,1.1,0.5,1.6  c-0.3,2-2.4,3.6-4.8,3.8c-0.4,0-0.9,0-1.3,0c-0.1,0-0.2,0-0.6-0.1C98.9,15.4,99.3,14.7,99.7,14z M74.7,28.9c0.4,0,1,0.3,1.2,0.6  c0.2,0.3-0.1,0.9-0.3,1.2c-0.7,1.2-2.7,2-4.5,1.9C71.1,30.4,72.7,28.7,74.7,28.9z"/>
</svg>