<svg width="57" height="24" viewBox="0 0 114 48" fill="none" xmlns="http://www.w3.org/2000/svg">
<path d="M26.0486 31.2582C25.7631 30.9206 25.6891 30.4564 25.8054 29.8762L27.1797 23.4305C27.3277 22.7237 27.3277 22.0802 27.1692 21.5105C27.0106 20.9408 26.7146 20.4872 26.26 20.1496C25.8054 19.812 25.2134 19.6432 24.4628 19.6432C23.5325 19.6432 22.6022 19.8859 21.6719 20.3712C20.7416 20.8564 19.9804 21.5105 19.3778 22.3544L21.3019 13.3452H21.0693C20.8579 13.5984 20.5301 13.8094 20.0967 13.9887C19.6315 14.1681 18.9972 14.2525 18.1832 14.2525H17.9084H15.7517H2.43139L1.4165 19.0419H1.64908C1.92395 17.8393 2.3151 16.9215 2.99169 16.278C3.66828 15.6344 4.39772 15.1914 5.20117 14.9487C5.99405 14.7061 6.78693 14.5795 7.55866 14.5795H8.24582L5.00031 29.8657C4.88402 30.4353 4.60916 30.889 4.18629 31.2371C3.76342 31.5852 3.26655 31.754 2.69568 31.754H2.67454L2.60053 31.9861H10.1593L10.191 31.754C9.62014 31.754 9.19727 31.5852 8.92241 31.2371C8.64754 30.889 8.57354 30.4353 8.68983 29.8657L11.9459 14.5479H12.5591C13.3625 14.5479 14.1237 14.6744 14.8214 14.9171C15.5191 15.1597 16.0794 15.6133 16.4812 16.2569C16.8723 16.8687 16.8935 17.7232 16.6926 18.8309L14.4514 29.3487C14.3563 29.7707 14.2294 30.1716 14.0708 30.5303C13.9017 30.889 13.6585 31.1949 13.3308 31.4164C13.0031 31.6485 12.5591 31.7646 12.0093 31.7646L11.9565 31.9966H19.2298L19.2827 31.7646C18.7329 31.7646 18.3418 31.6485 18.1092 31.4164C17.8766 31.1843 17.7603 30.889 17.7498 30.5303C17.7392 30.1716 17.7815 29.7707 17.8766 29.3487L19.2404 22.9452C19.5258 22.5865 19.8535 22.2173 20.2341 21.8586C20.6147 21.4999 21.0164 21.194 21.4393 20.9408C21.8622 20.6982 22.285 20.5716 22.6973 20.5716C23.1413 20.5716 23.4585 20.7193 23.6382 21.0147C23.8179 21.3101 23.9131 21.6582 23.9236 22.0591C23.9342 22.4599 23.9025 22.8397 23.8285 23.1879L22.4119 29.8657C22.285 30.4459 22.0102 30.9101 21.5767 31.2476C21.1433 31.5852 20.6464 31.754 20.0755 31.754L20.0227 31.9861H27.2749L27.3277 31.754C26.7569 31.7646 26.334 31.5958 26.0486 31.2582Z" fill="#000"/>
<path d="M48.4604 9.72656L38.1953 28.1565C37.6456 28.7578 37.0007 29.243 36.2607 29.6017C35.489 29.971 34.7278 30.1608 33.9666 30.1608C32.7192 30.1608 31.8206 29.6545 31.292 28.6523C30.7634 27.6501 30.6788 26.3103 31.0277 24.6329L31.0489 24.5169H39.0305L39.0833 24.1582C39.2102 23.2615 39.1256 22.4597 38.819 21.774C38.5125 21.0883 38.0262 20.5503 37.3496 20.1705C36.673 19.7907 35.859 19.6008 34.8969 19.6008C33.7446 19.6008 32.6452 19.8646 31.6303 20.3921C30.6048 20.9195 29.7274 21.658 29.0085 22.6074C28.2791 23.5569 27.7822 24.6646 27.5179 25.9305C27.2536 27.1648 27.2642 28.2619 27.5285 29.2114C27.8033 30.1714 28.3002 30.9099 29.0402 31.4479C29.7697 31.9859 30.6894 32.2496 31.7783 32.2496C32.6769 32.2496 33.5543 32.0703 34.4106 31.7327C35.2564 31.3846 36.0387 30.8993 36.7364 30.2874C36.9373 30.1081 37.1276 29.9182 37.3073 29.7283L33.5332 36.4905H35.119L50.0462 9.72656H48.4604ZM32.5923 21.0989C33.216 20.3393 33.8715 19.9595 34.5692 19.9595C35.2987 19.9595 35.785 20.3499 36.0175 21.12C36.2607 21.8901 36.2396 22.9028 35.9753 24.1582H31.1546C31.4929 22.8817 31.9686 21.8584 32.5923 21.0989Z" fill="#000"/>
<path d="M84.7743 32.0071L88.411 14.8748H90.9165L91.0222 14.2207H83.1674L83.0406 14.8748H85.5461L81.8988 32.0071H84.7743Z" fill="#000"/>
<path d="M69.5511 14.2207L65.777 32.0071H68.642L72.4266 14.2207H69.5511Z" fill="#000"/>
<path d="M82.6707 16.32C82.9878 14.7904 81.2435 14.2207 80.0172 14.2207H74.7842L70.9995 32.0071H73.875L77.4905 14.8959H78.0931C79.4463 14.8959 79.9537 15.3917 79.8057 16.1618C79.4463 18.0502 78.6429 21.215 78.59 21.4365C78.2834 22.6286 78.2306 22.9662 76.9831 22.9662L76.9302 32.0282H79.8163L79.8692 23.4831C80.7783 23.1772 81.2223 22.4809 81.4549 21.6159C81.5078 21.4049 82.2795 18.2611 82.6707 16.32Z" fill="#000"/>
<path d="M64.2231 14.2207L62.3625 22.9556H59.2755L61.1361 14.2207H58.1866L54.402 32.0071H57.3515L59.1381 23.5781H62.225L60.4384 32.0071H63.3139L67.088 14.2207H64.2231Z" fill="#000"/>
<path d="M56.8017 14.2207H48.9469L48.8201 14.8748H51.315L47.6783 32.0071H50.5538L54.1905 14.8748H56.6854L56.8017 14.2207Z" fill="#000"/>
<path d="M106.668 1.04443L93.5698 24.5486L94.1196 14.2207H91.2546L90.4618 30.1293L81.0847 46.9556H92.5232L111.373 1.04443H106.668Z" fill="#000"/>
<path d="M101.002 2.75344L101.953 1.04443H77.5856L75.5452 10.6233H80.1016C83.7383 4.34641 87.6075 2.75344 101.002 2.75344Z" fill="#000"/>
</svg>
