<svg xmlns="http://www.w3.org/2000/svg" viewBox="0 0 150 150"><g fill="#aaa"><path d="M66.5 140.5a3.23 3.23 0 0 1 2.9 3.69 3.23 3.23 0 0 1-3.73 2.84 3.18 3.18 0 0 1-2.55-1.9l.6-.25c.16.4.41.75.77 1.03.36.28.78.45 1.25.5a2.6 2.6 0 0 0 3.02-2.3 2.62 2.62 0 0 0-2.34-3c-.47-.06-.92 0-1.34.18-.42.18-.75.44-1 .8l-.52-.38a3.16 3.16 0 0 1 2.93-1.21ZM54.05 138.66c.79-.43 1.63-.51 2.51-.25.89.27 1.54.8 1.97 1.59.43.8.5 1.63.25 2.51a3.17 3.17 0 0 1-1.58 1.96c-.8.44-1.64.52-2.52.26a3.17 3.17 0 0 1-1.97-1.6 3.17 3.17 0 0 1-.25-2.5 3.2 3.2 0 0 1 1.59-1.97Zm3.93 1.63a2.56 2.56 0 0 0-1.6-1.29 2.62 2.62 0 0 0-3.31 1.8 2.6 2.6 0 0 0 .2 2.04c.33.65.86 1.08 1.59 1.3.72.2 1.4.14 2.03-.21a2.59 2.59 0 0 0 1.28-1.6c.21-.72.15-1.4-.2-2.04ZM42.13 139.63l-.57-.28 2.8-5.72.5.24.9 6.22 2.28-4.65.57.28-2.81 5.72-.49-.24-.9-6.23-2.28 4.66ZM32.3 133.61l.34-.5 1.62 1.1 3.25-4.76.53.36-3.26 4.77 1.62 1.1-.34.5-3.76-2.57ZM29.6 123.03l-.62 1.56 2.22 2.05 1.5-.75.49.46-6.12 3.02-.48-.45 2.52-6.34.5.45Zm1.02 3.9-1.88-1.75-1.38 3.38 3.26-1.63ZM22.96 115.51a3.23 3.23 0 0 1-.55 4.66 3.22 3.22 0 0 1-4.65-.6 3.18 3.18 0 0 1-.46-3.14l.6.24c-.17.4-.24.82-.18 1.27.07.46.24.87.53 1.25a2.6 2.6 0 0 0 3.77.48 2.62 2.62 0 0 0 .45-3.78c-.3-.37-.65-.64-1.07-.81a2.26 2.26 0 0 0-1.28-.14l-.1-.64a3.18 3.18 0 0 1 2.94 1.2ZM11.25 109.4l.52-.3.98 1.7 4.99-2.9.32.56-5 2.89.98 1.7-.51.3-2.28-3.94ZM8.17 90.27l-.57.12-.63-3.22.57-.11.63 3.21ZM9.93 64.83a3.23 3.23 0 0 1-3.76 2.8 3.23 3.23 0 0 1-2.75-3.8 3.17 3.17 0 0 1 1.97-2.5l.24.61c-.42.14-.77.38-1.06.74-.28.35-.46.76-.54 1.23A2.6 2.6 0 0 0 6.26 67a2.62 2.62 0 0 0 3.06-2.26c.07-.47.03-.91-.14-1.34a2.26 2.26 0 0 0-.78-1.02l.4-.5a3.17 3.17 0 0 1 1.13 2.97ZM12.1 52.42c.4.8.46 1.64.18 2.52a3.18 3.18 0 0 1-1.64 1.92c-.8.41-1.65.47-2.52.18a3.17 3.17 0 0 1-1.91-1.63 3.17 3.17 0 0 1-.2-2.53c.3-.87.84-1.51 1.65-1.92.8-.4 1.64-.47 2.51-.18a3.2 3.2 0 0 1 1.93 1.64Zm-1.73 3.88a2.55 2.55 0 0 0 1.32-1.55 2.62 2.62 0 0 0-1.72-3.36 2.59 2.59 0 0 0-2.03.13c-.66.32-1.1.84-1.34 1.56-.23.71-.18 1.4.16 2.04a2.6 2.6 0 0 0 1.56 1.32c.7.23 1.4.19 2.05-.14ZM11.44 40.46l.3-.57 5.63 2.97-.25.49-6.25.72 4.6 2.42-.3.56-5.64-2.97.26-.48 6.24-.72-4.6-2.42ZM17.7 30.78l.49.36-1.15 1.58 4.68 3.39-.38.51-4.67-3.38-1.15 1.58-.48-.35 2.66-3.69ZM28.34 28.36l-1.54-.67-2.1 2.17.7 1.51-.46.49-2.86-6.2.46-.48 6.27 2.7-.47.48Zm-3.91.91 1.79-1.84-3.34-1.46 1.55 3.3ZM36.02 21.9a3.22 3.22 0 0 1-4.64-.67 3.23 3.23 0 0 1 .73-4.64 3.17 3.17 0 0 1 3.15-.37l-.26.6c-.39-.2-.81-.27-1.27-.22-.45.05-.87.21-1.25.5a2.6 2.6 0 0 0-.59 3.75 2.61 2.61 0 0 0 3.77.55c.38-.28.66-.63.84-1.05.18-.42.23-.85.16-1.28l.65-.08a3.17 3.17 0 0 1-1.28 2.9ZM42.43 10.34l.29.53-1.72.94 2.75 5.07-.56.3-2.75-5.07-1.72.94-.29-.53 4-2.18ZM61.61 7.77l-.1-.57 3.23-.55.1.57-3.23.55ZM86.98 10.2a3.23 3.23 0 0 1-2.7-3.84 3.23 3.23 0 0 1 3.88-2.64 3.17 3.17 0 0 1 2.43 2.04l-.62.22a2.26 2.26 0 0 0-.7-1.07c-.35-.3-.76-.5-1.22-.58a2.6 2.6 0 0 0-3.14 2.15 2.62 2.62 0 0 0 2.18 3.12c.46.08.91.05 1.34-.1.43-.17.78-.42 1.04-.76l.5.41a3.17 3.17 0 0 1-3 1.05ZM99.3 12.7c-.8.4-1.65.43-2.52.12a3.18 3.18 0 0 1-1.88-1.7 3.2 3.2 0 0 1-.1-2.52c.3-.86.86-1.48 1.67-1.87.82-.39 1.66-.43 2.53-.12.87.31 1.5.88 1.88 1.7.38.81.42 1.65.12 2.52a3.2 3.2 0 0 1-1.7 1.88Zm-3.83-1.83c.3.65.81 1.11 1.52 1.36a2.62 2.62 0 0 0 3.4-1.62 2.6 2.6 0 0 0-.08-2.04 2.54 2.54 0 0 0-1.52-1.38 2.54 2.54 0 0 0-2.04.1c-.66.32-1.1.83-1.36 1.53-.25.7-.22 1.38.08 2.05ZM111.25 12.38l.56.3-3.11 5.57-.48-.27-.56-6.27-2.53 4.53-.56-.31 3.11-5.56.48.27.56 6.26 2.53-4.52ZM120.75 18.9l-.37.48-1.55-1.19-3.5 4.59-.5-.39 3.5-4.58-1.56-1.2.36-.47 3.62 2.76ZM122.88 29.61l.71-1.52-2.1-2.16-1.54.67-.47-.49 6.27-2.69.46.47-2.86 6.2-.47-.48Zm-.8-3.94 1.78 1.84 1.55-3.3-3.34 1.46ZM129.12 37.48a3.23 3.23 0 0 1 .8-4.63 3.23 3.23 0 0 1 4.61.86 3.18 3.18 0 0 1 .28 3.15l-.59-.27c.2-.39.3-.81.25-1.27a2.53 2.53 0 0 0-.46-1.26 2.6 2.6 0 0 0-3.73-.69 2.63 2.63 0 0 0-.65 3.75c.27.4.61.68 1.02.87.42.2.84.26 1.28.2l.06.65a3.17 3.17 0 0 1-2.87-1.36ZM140.49 44.2l-.53.27-.9-1.74-5.13 2.62-.3-.56 5.15-2.63-.89-1.74.54-.28 2.06 4.06ZM142.54 63.47l.58-.08.45 3.24-.57.08-.46-3.24ZM139.43 88.78a3.23 3.23 0 0 1 3.91-2.59c.9.2 1.6.66 2.1 1.41.49.75.64 1.6.44 2.54a3.16 3.16 0 0 1-2.1 2.38l-.2-.62c.42-.12.78-.34 1.09-.68.3-.34.5-.74.6-1.2a2.6 2.6 0 0 0-2.06-3.2 2.62 2.62 0 0 0-3.17 2.1c-.1.46-.08.9.07 1.34.14.43.38.79.72 1.06l-.42.49c-.42-.36-.72-.8-.9-1.35-.17-.54-.2-1.1-.08-1.68ZM136.6 101.06a3.19 3.19 0 0 1-.04-2.53c.33-.86.91-1.47 1.74-1.83a3.2 3.2 0 0 1 2.52-.05c.86.34 1.47.91 1.83 1.74.37.83.38 1.67.05 2.53a3.17 3.17 0 0 1-1.74 1.83c-.83.36-1.67.38-2.52.05a3.2 3.2 0 0 1-1.84-1.74Zm1.94-3.79c-.66.3-1.13.79-1.4 1.49s-.26 1.38.03 2.04c.3.67.8 1.13 1.5 1.4s1.38.27 2.04-.02a2.54 2.54 0 0 0 1.41-1.48c.28-.7.26-1.39-.04-2.05a2.6 2.6 0 0 0-1.49-1.4 2.62 2.62 0 0 0-2.05.02ZM136.63 113.04l-.32.55-5.48-3.27.28-.47 6.27-.39-4.45-2.66.33-.54 5.47 3.26-.28.47-6.27.4 4.45 2.65ZM129.85 122.37l-.47-.38 1.23-1.52-4.48-3.63.4-.5 4.48 3.63 1.23-1.52.47.38-2.86 3.54ZM119.11 124.22l1.5.75 2.22-2.05-.63-1.55.5-.46 2.51 6.35-.48.44-6.11-3.02.5-.46Zm3.96-.7-1.89 1.74 3.26 1.64-1.37-3.38ZM111.1 130.26a3.22 3.22 0 0 1 4.6.91c.5.78.66 1.6.49 2.48a3.23 3.23 0 0 1-1.47 2.12 3.17 3.17 0 0 1-3.17.2l.3-.58c.37.22.8.31 1.25.29.45-.03.88-.17 1.28-.43a2.61 2.61 0 0 0 .78-3.72 2.62 2.62 0 0 0-3.72-.75c-.4.26-.7.6-.9 1-.2.41-.28.83-.24 1.27l-.64.04a3.17 3.17 0 0 1 1.44-2.83ZM104.08 141.46l-.26-.55 1.76-.84-2.48-5.2.58-.28 2.48 5.2 1.76-.84.26.55-4.1 1.96ZM84.8 143l.06.58-3.26.37-.06-.57 3.25-.38Z"/></g></svg>
