<?xml version="1.0" encoding="UTF-8" standalone="no"?><svg xmlns="http://www.w3.org/2000/svg" xmlns:xlink="http://www.w3.org/1999/xlink" fill="#caaacd" height="31" preserveAspectRatio="xMidYMid meet" version="1" viewBox="0.5 0.5 31.0 31.0" width="31" zoomAndPan="magnify"><g id="change1_1"><path d="M16,0.5C7.45001,0.5,0.5,7.45001,0.5,16S7.45001,31.5,16,31.5S31.5,24.54999,31.5,16S24.54999,0.5,16,0.5z M24.71002,17.5 H17.5v7.20996c0,0.82001-0.66998,1.5-1.5,1.5s-1.5-0.67999-1.5-1.5V17.5H7.28998c-0.82001,0-1.5-0.67004-1.5-1.5 c0-0.83002,0.67999-1.5,1.5-1.5H14.5V7.28998c0-0.82001,0.66998-1.5,1.5-1.5s1.5,0.67999,1.5,1.5V14.5h7.21002 c0.82001,0,1.5,0.66998,1.5,1.5C26.21002,16.82996,25.53003,17.5,24.71002,17.5z" fill="inherit"/></g></svg>