<?xml version="1.0" encoding="UTF-8" standalone="no"?><svg xmlns="http://www.w3.org/2000/svg" xmlns:xlink="http://www.w3.org/1999/xlink" fill="#000000" height="447.4" preserveAspectRatio="xMidYMid meet" version="1" viewBox="0.0 0.0 486.6 447.4" width="486.6" zoomAndPan="magnify"><g id="change1_1"><path d="M424.3018,155.8052c-1.4541,0.4287-2.1455,0.6323-3.2734,0.9648 C421.791,156.5273,422.8555,156.209,424.3018,155.8052z M354.1953,125.3315l1.291-1.7505l-1.9922,2.4648l-1.0381,1.5859 L354.1953,125.3315z M461.0195,253.3433l12.7129,1.1523l-5.9707-0.6299L461.0195,253.3433z M297.0713,305.8247l-0.501-1.7773 l-0.2695-0.6152L297.0713,305.8247z M98.438,225.7144c-0.8008,0.0156-1.9111,0.0571-3.4102,0.1406 C96.5425,225.7925,97.2627,225.7627,98.438,225.7144z M358.4672,119.6137c-0.0262,0.029-0.0839,0.0993-0.1791,0.2188 C358.3518,119.7546,358.4061,119.6884,358.4672,119.6137z M315.1481,186.752c0.0023,0.0021,0.0113,0.0023,0.012,0.0049 C315.2862,186.7189,315.2697,186.7207,315.1481,186.752z M88.7514,195.849c0.0968,0.0217,0.1831,0.0408,0.2842,0.0636 C88.8803,195.8757,88.7866,195.8547,88.7514,195.849z M185.1021,221.1411c-0.0085,0.0004-0.0228-0.001-0.0319-0.0008 C185.1251,221.1523,185.1492,221.1561,185.1021,221.1411z M486.2402,229.0366c-0.0137,0.5229-0.0283,0.6777-0.0439,0.6792 c0.0195,8.5747,0.0391,17.313,0.0586,25.8511c-4.8008-0.5059-9.542-1.0068-14.168-1.4941 c-4.0771-0.4688-8.0527-0.9248-11.876-1.3633c-0.8867,0.0449-5.2686-0.3262-10.4619-0.835l-1.0566,0.2617 c-8.2891-0.8477-17.7617-1.7686-25.5137-2.6445c-13.7656-1.2837-26.4062-2.7729-38.2969-4.1499 c-2.0771-0.0796-2.6816,0.0015,0.2656,0.3643c-11.0879-1.2456-23.877-2.582-36.877-3.9214 c-0.3037-0.0225-0.6133-0.0449-0.9141-0.0669c-0.2744-0.0454-0.2334-0.0386-0.4375-0.0723 c-5.7646-0.5928-11.4961-1.1816-17.207-1.7686c-0.4307-0.0303-0.8525-0.0605-1.2666-0.0898 c-0.2061-0.0146-0.4102-0.0293-0.6123-0.0439l-0.1777-0.0093l-0.1016-0.0015c-0.248-0.0039-0.4814-0.0073-0.6963-0.0107 c-0.4004-0.0063-0.6846-0.0142-0.9111-0.0366c-0.6309-0.0322-1.1387-0.0684-1.6113-0.1143c0.8691,0.5,1.3789,0.8438,1.9443,1.2446 c0.3105,0.2246,0.5986,0.4321,0.8779,0.6343c0.9121,0.5771,1.7979,1.1372,2.7031,1.7104 c9.4316,5.5513,17.7178,10.4868,23.4023,14.0356c4.2637,2.4219,8.1348,4.6201,12.1621,6.9082 c-0.5107-0.3164-0.6279-0.4209-1.2832-0.8154l-4.5869-2.5459c-4.2188-2.5254-9.7393-5.8193-4.4531-2.9727l1.6279,1.1523 c6.6299,3.6396,24.7246,14.1699,20.6182,11.4463c8.5797,5.1539,5.3244,3.3935-0.5783,0.0665 c4.8031,2.7217,8.9769,5.1274,13.0187,7.4687c8.2383,4.6758,16.4629,9.3428,25.1143,14.2529 c2.1582,1.2354,4.3428,2.4863,6.5615,3.7568c1.1084,0.6367,2.2246,1.2783,3.3506,1.9248c1.127,0.6436,2.248,1.3223,3.4346,1.9023 c4.6885,2.4297,9.542,4.9434,14.6172,7.5723l-0.4639-0.1348c5.5605,2.9404,13.7549,7.2793,20.7998,11.0869 c-0.3281-0.3281-4.0254-2.4053-6.6279-3.8545c2.9834,1.6191,5.9082,3.1719,8.75,4.6562c3.8291,1.9746,7.5332,3.8857,11.0908,5.7197 c-2.9893,2.0781-5.873,4.084-8.6406,6.0078c-1.917,1.3574-3.752,2.6562-5.4971,3.8906c-3.4941,2.4609-6.623,4.666-9.3115,6.5596 l8.0449-5.3203c-2.3955,1.6045-4.5762,3.0645-6.6582,4.459c-2.0928,1.4258-4.0879,2.7842-6.1025,4.1562l4.3936-3.4316 c-2.6777,1.8623-5.1699,3.5957-6.9893,4.8604c-1.4609-0.9395-2.9102-1.8691-3.165-2.0098 c-0.4785-0.2861-0.7451-0.4268-0.7461-0.3818c-4.082-2.9141,1.2461,0.2227-3.1143-2.9678 c-4.8291-3.0674-9.8047-6.2285-15.1025-9.5938c-0.4089-0.113-3.3141-1.7833,1.5577,1.5112 c-2.3549-1.5504-5.0086-3.269-7.9816-5.1694l1.8691,1.374c-19.2168-12.0762-8.4482-6.1699-28.1514-19.0566 c2.3457,1.8545-4.8252-2.5547-8.0381-4.7256c7.9531,5.2012,4.041,2.1143-3.126-2.8203c-3.0127-1.9141-5.2822-3.3838-7.2041-4.6445 c-0.8262-0.5186-1.6377-1.0273-2.5186-1.5801l0.748,0.4053c-1.5869-1.0723-2.8779-1.9434-4.0312-2.7227 c-1.2158-0.6699-2.3232-1.2793-3.5059-1.9307c-1.2061-0.6572-2.4932-1.3477-4.0537-2.1621l5.6846,2.9082 c-14.9463-7.9785-33.6982-17.5645-52.4395-27.2207c-0.5732-0.1279,0.3643,0.5459-3.46-1.373 c-0.8975-0.4932-1.7412-0.957-2.5391-1.3955c-0.2451-0.1406-0.4766-0.2744-0.6953-0.4004 c-0.4531-0.2539-0.8691-0.4727-1.2119-0.6436c0.3154,0.5527,0.6201,1.0479,0.8838,1.457l0.1924,0.2949l0.0908,0.1377 c0.0439,0.0703,0.0137,0.0068,0.1719,0.2861c0.4688,0.8223,0.9453,1.6582,1.4434,2.5303c1.9824,3.4912,4.2578,7.5879,7.5811,13.8828 c-2.4043-3.791-2.9209-4.7178,0.1777,1.3105c2.75,4.7695,5.9521,10.4609,9.3086,16.4961c0.7178,1.291,1.4355,2.582,2.1406,3.8506 c6.6211,11.9717,13.3574,24.1523,16.96,30.666l-4.5186-7.6592c7.874,13.8252,10.376,18.9873,13.5537,25.2344 c0.7637,1.3838,1.4844,2.6904,2.2822,4.1367l-1.6895-2.9727c2.3135,4.5205,5.1436,9.8701,10.6484,19.5283l-7.3193-14.2627 c5.3564,10.0557,10.1094,18.4482,9.1045,15.9268c1.4209,2.7168,2.2061,4.2783,2.6963,5.3008 c0.2383,0.5146,0.4121,0.8896,0.5576,1.2061c0.0693,0.1592,0.1318,0.3037,0.1924,0.4443c0.0742,0.165,0.084,0.2119,0.2217,0.4932 c0.0684,0.2051,0.1426,0.4238,0.2324,0.6914c0.084,0.2324,0.1826,0.5078,0.3076,0.8535c0.2578,0.6895,0.6387,1.6553,1.2422,3.126 c0.8379,2,1.6221,3.873,2.5508,6.0918c0.2588,0.6123,0.4248,1.0068,0.7188,1.7012l-0.0869-0.1719 c1.6113,3.8936,3.0566,7.4824,3.2451,8.4785l5.5459,11.9219c1.1367,2.6357,2.1543,4.9961,3.0801,7.1436 c1.2441,2.958,2.3643,5.6211,3.3955,8.0742c-1.4277-0.0166-2.8008-0.0332-4.1309-0.0488c-1.1055-0.0205-2.1748-0.0391-3.2178-0.0576 c-1.5586-0.0469-3.0381-0.0898-4.4941-0.1328c0.6436,0.0625,1.7285,0.1445,3.4336,0.2549 c-7.5635-0.0098-14.8457-0.0186-22.0078-0.0273c1.3047,0.0283,1.9385,0.042,4.0518,0.0879c-1.8994,0.002-3.751,0.0029-5.4521,0.0049 c-1.6885-2.4375-3.1826-4.5938-4.2949-6.2002c-0.9736-1.4307-1.5947-2.3857-1.6846-2.6348 c-0.4062-0.5918-0.8066-1.1738-1.2119-1.7627c-0.9688-1.3672-2.1689-3.1094-3.6553-5.3145 c-2.5869-3.7646-5.1445-7.4863-7.6699-11.1611l-4.2451-6.0479l0.7168,0.9404l3.1523,4.5605 c-0.9492-1.3779-1.8799-2.7285-2.8203-4.0928c-0.0918-0.1299-0.2451-0.3447-0.332-0.4678l-0.0879-0.1436 c-3.4863-5.041-6.9326-10.0244-10.3555-14.9756c-3.4971-4.9912-6.9707-9.9512-10.4404-14.9053 c-0.8672-2.8389-1.7324-5.668-2.5977-8.501c-1.4492-6.417-5.792-21.2383-9.7207-34.6934c-1.3193-4.3799-2.584-8.5752-3.7432-12.4229 c-0.2354-0.7471-0.4648-1.4766-0.6895-2.1875c-0.165-0.4951-0.3271-0.9785-0.4834-1.4463c-0.3047-0.8906-0.5723-1.6221-0.79-2.1445 c-0.2588-0.9141-0.5234-1.8477-0.8066-2.8496c-0.7744-2.7168-1.5801-5.5459-2.3467-8.2373 c0.2861,2.7285,0.5684,5.4277,0.8076,7.7119c0.3242,2.9941,0.6016,5.5498,0.8584,7.9258c0.0557,0.4424,0.1055,0.833,0.1621,1.2871 c-0.0732-0.9307-0.0723-1.1992-0.0898-1.6299c0.1465,1.1719,0.2783,2.2266,0.3975,3.1836c0.1328,1.1719,0.252,2.2227,0.3604,3.1758 c0.2061,1.9082,0.3496,3.4287,0.458,4.7412c0.5996,5.2109,1.1748,10.21,1.5557,13.5205c-0.3848-2.9238-0.8311-6.3203-1.2969-9.8623 c0.0938,1.6426,0.1777,3.2451,0.3271,5.2646c0.6777,5.2607,1.2891,10.0029,1.6797,13.0332l-0.0479,2.2119 c0.0186,0.1523,0.0293,0.2412,0.0479,0.3965c1.834,11.9717-1.1592-12.5723-0.1299-5.0762c1.3398,3.1787,3.0771,28.4355,5.4355,44.25 l-0.377-3.8584c0.8086,5.7529,1.5215,12.7471,2.2959,20.6328c0.3887,3.9434,0.7988,8.1084,1.2275,12.4551 c0.2227,2.1719,0.4512,4.3896,0.6836,6.6475c0.2764,2.5205,0.5576,5.0859,0.8428,7.6914c-0.9932,0.627-2.0215,1.2773-3.0557,1.9316 l0.1592,0.0742c-2.3525,1.3662-5.3438,3.1592-8.3779,4.9834c-2.8994,1.8457-5.6934,3.5576-8.2061,4.9746 c-4.5898,2.8232-9.3154,5.7305-14.2627,8.7725c-0.0391-1.1162-0.082-2.3477-0.1255-3.585 c-0.0439-0.6709-0.0742-0.7061-0.1299-1.8799c0.0156-0.4111,0.0244-0.4561,0.041-0.6641c-0.2305-6.6826-0.458-13.2891-0.6636-19.248 c-0.1289,5.9668,0.1655,8.6992-0.3745,5.0791c-0.2866-7.958,0.5278,0.0273,0.1719-12.1504 c-0.1548-2.7207-0.2949-5.1777-0.4419-7.7598c-0.4072-5.8828-0.8906-13.0664-1.2515-14.2842l0.6616,16.1553 c-0.8838-8.2432-0.8662-20.9258-1.3198-29.4238l-0.1865,1.0967c-0.5122-13.0352-0.6025-19.416-0.7368-26.3281 c-0.1387-2.8145-0.27-5.4961-0.394-8.0225c-0.0474-1.2637-0.0933-2.4893-0.1372-3.6729c-0.0283-1.1523-0.0557-2.2637-0.082-3.332 c-0.022-0.1357-0.0415-0.2578-0.0605-0.3789l0.0796,0.376l0.1909,3.3066c-0.0171-1.041-0.0352-2.1445-0.0547-3.3223 c-0.0933-0.5352-0.1958-1.125-0.2988-1.7158c-0.5063-2.6982-0.9067-4.8301-1.5645-8.332l0.0635,0.2432 c-1.9766-10.1621-4.1982-20.5127-5.1382-26.3164l-0.5933-1.7695c-0.7144-4.1006-1.9927-11.4414-3.5752-20.5322 c-0.1909,0.5762-0.6118,2.0156-1.0645,3.5801c-0.165,0.5967-0.291,1.0498-0.4824,1.7393l0.0522-0.251 c-0.5103,1.8115-0.9868,3.5039-1.4883,5.2842c-0.5845,2.2168-1.1709,4.4434-1.7832,6.7656 c0.8569-2.9004,1.8623-6.3047,2.9287-9.9141c0.5791-1.8848,1.1909-3.876,1.7881-5.8193c0.2529,1.5928,0.5,3.1465,0.7329,4.6123 c0.0483,0.3174,0.0962,0.6299,0.1431,0.9375c0.0957,0.5625,0.1895,1.1152,0.2812,1.6572c0.2202,1.2812,0.4316,2.5107,0.6318,3.6758 c-0.3057-1.5977-0.6997-3.6582-1.1392-5.9551c-0.2153-1.1689-0.4531-2.459-0.6914-3.7549 c-0.5757,2.0166-1.1548,4.0459-1.6372,5.7354c-1.0073,3.585-1.8374,6.4434-2.2939,7.8223l1.6631-6.0146l1.2549-4.4854 c-0.127,0.3604-0.2568,0.7285-0.3901,1.1055l-0.1055,0.3115l-0.1841,0.6064c-0.123,0.4082-0.2476,0.8213-0.3735,1.2383 c-0.4956,1.6719-1.0117,3.4121-1.5469,5.2188c-1.0376,3.623-2.1509,7.5088-3.3315,11.6309 c-2.0962,8.0186-4.1987,16.0605-6.1777,23.6299c-0.0342,0.2422-0.0029,0.2686-0.0732,0.6289l0.0498-0.1611l-0.0728,0.2617 c-0.6372,3.2314-2.5918,10.7949-4.9131,19.6133l0.1514-0.3213c-0.752,2.9951-1.209,4.5771-1.5371,5.5898 c-3.5742,13.5303-7.5176,28.4072-8.7979,34.8486c-1.5024,5.4531-3.001,10.8926-4.5044,16.3486 c-1.6143,6.0361-3.2334,12.0908-4.8677,18.2021c-12.9067-4.0068-26.0518-8.0869-39.7803-12.3486 c4.2734-10.6572,8.7007-21.6992,13.3442-33.2803c-3.9121,11.8418,2.6294-6,3.9707-7.9053 c1.1646-2.9844,2.4644-6.2539,4.1021-10.2422c-1.7031,3.6426-4.1943,9.0449-0.2188-1.2676 c-4.1074,11.1201,6.3394-14.4561,2.3335-3.582l0.229-0.5225l8.6636-22.7686c2.1934-6.1494-3.4419,7.9912-3.3135,7.126 c7.3979-18.5283,2.769-7.9062,7.4775-20.2295c-0.7036,2.6221,3.0361-6.2686,7.1812-16.8818l-5.6025,15.0205 c5.1958-12.2578,7.3237-17.9736,9.334-23.4473l0.3691-1.0078l0.0596-0.2393c0.0308-0.1338,0.0615-0.2695,0.0938-0.4092 c0.0439-0.1963,0.0903-0.4043,0.1421-0.6387c0.1143-0.4248,0.2109-0.6953,0.896-2.1816l-0.1226,0.0781 c-0.0054,0.0703-0.0376,0.1787-0.0967,0.3252c-0.3481,0.7031-0.6489,1.2871-0.9019,1.7539 c0.0962-0.2041,0.2095-0.4453,0.3413-0.7246c-0.1138,0.1201-0.3652,0.4502-0.6865,0.877c-0.1787,0.2363-0.3633,0.4814-0.5508,0.7295 c-1.583,2.2207-3.1885,4.4727-4.7827,6.71c-6.5083,9.1104-12.8857,17.9336-17.0552,23.3574 c-0.7632,1.0859-1.4429,2.0527-2.1055,2.9961c-1.0249,1.6621-1.5405,2.6816,1.4248-1.4336 c-9.8877,14.1221-21.1045,29.6914-31.7329,44.5c-2.6538,3.7051-5.2734,7.3604-7.8311,10.9307 c-1.2773,1.7861-2.5396,3.5508-3.7832,5.29c-1.3101,1.6914-2.6006,3.3574-3.8682,4.9932 c-5.061,6.5508-9.7158,12.6504-13.7148,18.0361l1.7944-1.9648c-1.4009,1.7842-2.7139,3.4004-4.0366,5.0322 c-0.6592,0.8184-1.3213,1.6396-2.0024,2.4844c-1.0176,1.3008-2.0635,2.6367-3.1616,4.041 c-1.3726-1.0469-2.8604-2.1826-4.4512-3.3965c0.375,0.2979,0.4282,0.3398,0.8887,0.7051c-0.4653-0.3594-1.0991-0.8486-1.6865-1.3018 c-0.3926-0.293-0.7148-0.5342-1.1265-0.8418l-0.4819-0.0713c-1.2031-0.9609-4.0151-3.208-7.3525-5.875 c-1.6782-1.3213-3.4888-2.7461-5.2949-4.168c-2.1792-1.6797-4.3535-3.3555-6.3584-4.9014l-1.1724-0.8398l0.3047-0.377 l-0.3438,0.3809l3.5898,2.875l2.1255,1.751c-2.1465-1.6318-4.2358-3.2197-6.0425-4.5928c3.2407-3.7441,6.2871-7.2637,9.1855-10.6123 c2.4653-2.8047,4.8042-5.4668,7.0571-8.0293c4.5483-5.0879,8.7471-9.7842,12.9131-14.4434 c0.1709-0.2471,0.1035-0.2236,0.5483-0.7803c0.0249,0.084,0.8276-0.7842,2.0908-2.1992c1.2573-1.4209,2.9883-3.377,4.8525-5.4834 l-3.8618,3.9102c3.1592-3.6436,6.2588-7.2129,9.9731-11.626l-6.21,7.3799c4.1592-4.6562,9.6333-10.7861,15.9556-17.8652 c0.9858-1.3027,2.5142-3.2051,4.3623-5.457c1.8325-2.2031,3.9624-4.7646,6.1792-7.4297c3.584-5.8799,7.4434-12.2109,10.248-16.8125 l-0.3296,0.3516c5.376-8.6436,10.3711-16.5859,15.1616-24.1465c2.4014-3.7764,4.7446-7.4609,7.0542-11.0938 c0.5317-0.7666,1.0562-1.5225,1.5781-2.2744l-2.105,1.3008c-3.0103,2.042-6.0366,4.0947-9.106,6.1768 c-6.5708,4.4863-13.3271,9.0986-20.5044,13.999c-7.377,5.4971-19.144,13.8223-32.48,23.1719 c-13.3169,9.3213-28.166,19.7139-41.812,29.2646c-5.7139,4.9326-11.1348,9.6123-16.1138,13.9102 c4.1348-3.6758-1.0181,0.1895-5.957,4.3066c-1.1636,1.0225-2.5093,2.168-3.9224,3.3545c-1.9282,1.6143-3.9385,3.2969-5.8828,4.9238 c-1.0322-2.0869-2.0342-4.1143-2.9482-5.9629c-0.6387-1.2773-1.2158-2.4326-1.6909-3.3828 c-0.9697-1.8896-1.5796-2.9365-1.5547-2.4619l1.376,2.6953c-1.3501-2.1523-3.3662-5.8789-5.6899-10.3457 c-1.1494-2.2393-2.3906-4.6572-3.6714-7.1514c-1.5752-3.1143-3.1992-6.3252-4.8081-9.5059 c3.2832-1.9746,6.5254-3.9238,9.5845-5.7627l2.3125-0.4668c10.3027-6.6611,23.0059-14.3916,35.8965-22.1104 c12.8887-7.6758,25.9106-15.4316,36.9614-22.0127c2.3569-1.6865,4.6187-3.3037,6.7617-4.8369 c2.1499-1.5596,4.1816-3.0332,6.0713-4.4043c3.7661-2.7588,6.937-5.1465,9.3149-7.0439 c7.0317-4.8789,15.8096-10.9688,22.8027-15.8203l-0.6318-0.0703c3.0381-2.1953,5.814-4.2002,8.3843-6.0566 c0.4507-0.3389,0.8652-0.6509,1.2539-0.9434c-0.5337,0.0869-1.0537,0.1719-1.583,0.2578c-2.9023,0.4351-5.854,0.877-8.979,1.3447 c-6.915,1.0171-14.5972,2.147-24.1494,3.5518l5.9829-0.5869c-16.4072,2.4785-20.9409,1.8887-36.0938,4.126l-4.4419,1.3047 c-28.6636,4.2686-57.5708,9.1475-85.9902,12.8105c0.481,0.0215,1.3496,0.0762,6.0293-0.5957 c-3.8843,0.5947-9.52,1.457-15.7842,2.415c-0.0161-4.9541-0.0332-10.2793-0.0498-15.4111c0.0073-4.291,0.0146-8.4194,0.0205-11.9131 c0.0479-6.3497,0.1729-10.583,0.4427-9.8935c-0.0229-0.1835-0.0435-0.4347-0.0613-0.7608 c-0.0078-0.2012-0.0166-0.4243-0.0264-0.6699c-0.0068-0.3594-0.0142-0.7515-0.0225-1.1748 c-0.0098-0.8555-0.021-1.8379-0.0332-2.9414c1.5679-0.0654,3.4277-0.1436,5.5176-0.231c1.3955-0.0483,2.9448-0.1021,4.6069-0.1597 c3.3242-0.0908,7.0996-0.1943,10.9966-0.3008c7.7954-0.1714,16.0791-0.3535,22.2212-0.4888l-2.4717-0.3262 c13.2002,0.0454,13.6309,0.1758,32.061-0.3579c3.2466-0.1602,3.7397-0.3408,1.4648-0.2959 c10.0928-0.4307,9.7788,0.0254,25.5562-0.7583l-6.5767-0.0234c14.9751-0.5864,13.7993-0.4004,22.0312-0.3931 c9.4072-0.1807,28.3892-1.1558,30.5957-1.6157c1.1411,0.0864,4.3003,0.1157,8.3252,0.0576 c0.3335-0.0195,0.5015-0.0298,0.8613-0.0513c-0.0908,0.0171,0.4116,0.0161,0.731,0.02c1.0195-0.021,2.0825-0.043,3.1875-0.0659 c0.9438-0.0273,1.9287-0.0669,2.8618-0.1216c0.1357-0.0762-0.3672-0.1157-0.9502-0.1396c-0.5127-0.0107-1.2339-0.0259-1.7148-0.0361 c2.397-0.1455,4.3457-0.2324,6.3306-0.2969c-1.8604-0.4971-3.458-0.9512-5.1157-1.4272c-0.8633-0.2485-1.6982-0.4893-2.5137-0.7241 c-1.4609-0.4043-2.8867-0.7983-4.2935-1.1875c-6.2266-1.7056-12.1221-3.2773-18.8516-4.8721 c-0.355,0.0493-1.4702-0.1704-2.8525-0.4902c9.6284,2.5146,18.3193,4.7847,24.4199,6.3779c1.6177,0.416,2.8926,0.7441,3.7139,0.9556 c0.4799,0.121,0.7751,0.1937,0.8866,0.218c-0.3307,0.009-0.9716-0.0822-1.5804-0.1725c-0.6338-0.0947-1.2432-0.1914-1.6416-0.228 c-0.2007-0.0186-0.3506-0.0229-0.4409-0.0088c-0.042,0.0273-0.2456,0.0146-0.1084,0.0957c0.0332,0.0986,0.3159,0.2803,0.3198,0.4185 l-0.1387-0.0962l-0.1162-0.0635l-0.0718-0.0356l-0.0415-0.019l-0.3354-0.0967c-1.7974-0.5171-3.7026-1.0659-5.688-1.6372 c-3.9722-1.1333-8.2622-2.3574-12.6357-3.6055c-8.7539-2.4727-17.8599-4.9761-25.4741-6.8784l-2-0.3867l1.5439,0.4487 l-9.5879-2.5776c-4.8174-1.1978-7.939-1.9678-12.5591-3.1729c-1.8647-0.1587-17.8779-4.5103-25.6562-6.5332 c0.7392-0.2377-9.1961-2.7789-0.1065-0.7423c-0.2458-0.0398,2.3806,0.6672,6.898,1.8673l3.2817,0.9058l-0.4941-0.167 c5.0742,1.3379,11.7026,3.0854,19.2456,5.0742c-6.0737-1.8135-12.4302-3.666-21.041-5.6831 c-3.9097-1.3052-8.229-2.7256-10.6655-3.499c-10.7583-2.2134-31.2798-7.2651-34.2075-7.6572 c-5.9165-1.5952-12.3545-3.3311-18.9224-5.1021c-5.4697-2.7505-11.0352-5.5498-16.4263-8.2607 C10.6641,170.4038,5.0947,167.5757,0,164.9883c0.5391-1.2705,1.0693-2.521,1.5898-3.7485c0.3521-0.812,0.6978-1.6089,1.0366-2.3896 c0.6841-1.5591,1.3403-3.0527,1.9634-4.4722c1.2573-2.8345,2.4048-5.3604,3.4131-7.4941c1.1167-2.605,1.793-4.3286,2.2617-5.6226 c0.5957-1.6953,0.9858-2.8052,1.3887-3.9526c0.6016,0.0771,1.2144,0.1558,1.9028,0.2441l-1.9692-0.3647l-4.2197,9.8433 c1.1953-2.8384,2.6196-6.2212,4.1772-9.9204c7.3252,1.3218,15.665,2.8267,22.5166,4.0625 c6.5107,1.2041,11.5977,2.2046,12.8662,2.6504c17.3213,2.7646-9.6006-2.188,14.0903,2.0293l-3.1382-0.7178 c4.1699,0.6689,8.2021,1.3154,12.0854,1.938c2.4536,0.8091,4.8623,1.6035,7.2344,2.3853c2.3296,0.7827,4.6226,1.5537,6.8867,2.3145 c4.5166,1.5537,8.9165,3.0674,13.2563,4.5605c8.6577,3.0508,17.0762,6.0171,25.7085,9.0591 c17.2622,6.0898,35.4121,12.3862,58.2974,19.519l-5.9785-1.8003c8.7305,2.877,17.5645,5.7886,26.4741,8.7246 c-17.9766-12.0435-36.1924-24.2476-54.2695-36.3584c-20.4116-13.6606-40.708-27.1538-60.5752-40.021 c-6.105-3.9878-9.8086-6.4902-12.7544-8.5444c-3.2817-2.3252-5.7603-4.0811-9.2104-6.5259 c0.8872-0.7676,2.1304-1.8438,3.5278-3.0527l2.3911-2.7822L84.291,83.1499c3.4922-3.0732,6.7671-6.0386,9.9404-8.9634 c3.3521-3.1294,6.6245-6.1841,9.9189-9.2593c2.9385,2.4272,5.8931,4.8682,8.9272,7.375c2.8164,2.3428,5.7065,4.7471,8.729,7.2617 c6.019,5.0601,12.502,10.6382,19.8301,17.229l-3.2827-2.417c8.6094,7.3169,27.0698,23.481,25.8643,21.9824 c0.8247,0.7812,2.5908,2.6431,6.0664,5.417l0.4048,0.0366l20.8257,18.417c16.4312,13.8823-1.9697-2.9312,21.9126,17.5137 c6.4717,5.6448,16.8286,14.9878,20.4937,18.4498c-1.1934-5.0066-4.0944-18.4857-5.7476-26.8389 c-5.8164-30.8955-0.415-6.562-4.2578-27.7271l-5.5825-27.2344l0.1699-0.3691c-0.6719-4.396-1.4053-6.855-1.6719-7.9595 c0.6982,1.7925-4.1104-22.269-6.1616-33.3799l0.459,4.0508c-1.9111-8.9424-3.4302-16.8198-4.7451-24.0903 c-0.6387-3.6387-1.25-7.1211-1.8442-10.5073c-0.6055-3.561-1.1938-7.021-1.7754-10.4429c4.6909-1.605,9.3042-3.1836,14.021-4.7979 c4.5444-1.5869,9.1743-3.2524,14.0513-5.0947L235.4565,0l2.4419,13.6396l0.0918,3.6675c1.7852,10.1055,2.4019,11.8296,4.7363,28.498 c2.769,20.3442,5.8271,41.1807,8.9907,62.1978c3.1177,20.499,6.2642,41.1855,9.3901,61.7349 c5.9448-6.5811,11.8711-13.1411,17.7607-19.6611c6.2715-6.874,12.5049-13.7056,18.6816-20.4751l-4.3281,4.5 c4.1211-4.3682,8.0078-8.5449,11.7061-12.5649c1.8438-2.0156,3.6465-3.9863,5.4131-5.917c1.7412-1.9258,3.4463-3.8115,5.1211-5.6631 c1.9326-3.7856,3.8066-7.4585,5.6396-11.0508c1.8203-3.6216,3.5986-7.1621,5.3535-10.6543 c3.4854-6.9966,6.873-13.7993,10.2939-20.668c6.8555-13.7314,13.9316-27.6841,22.6377-43.7563l-1.3291,2.9321 c10.9854-21.4097-1.3701,3.0171,6.915-12.4438c0.1094-0.3237,0.2695-0.7334,0.623-1.5054c0.3809-0.8242,0.9004-1.9038,1.5576-3.2412 c1.9668,1.3911,4.5742,3.2354,7.5381,5.3311c2.6729,1.9258,5.666,4.083,8.7246,6.2861c6.1064,4.4189,12.4619,9.0361,17.0635,12.3032 l-8.9561-6.3335c2.0244,1.6362,2.6689,2.5166,8.3369,6.5391c1.9297,1.2661,4.1689,2.7832,6.6592,4.5029 c1.2422,0.8643,2.5498,1.7749,3.916,2.7261c1.6484,1.1689,3.3662,2.3882,5.1455,3.6509c-2.665,3.5889-5.5303,7.4473-8.502,11.4492 c-2.7549,3.6792-5.6084,7.4907-8.4746,11.3193c-5.7363,7.6548-11.5234,15.3765-16.6699,22.2441 c-1.5488,1.5874-9.2842,11.3594-16.0498,19.6777c-0.9844,1.3232-1.8945,2.5762-2.6416,3.6934l1.0898-1.3691 c-4.833,6.2656-7.0664,9.1035-8.1934,10.4736c-0.873,1.3145-1.7656,2.6582-2.6455,3.9829 c-5.5342,6.8979-9.3945,12.2769-13.0566,17.4507c4.71-6.2178,8.8496-11.6816,12.0186-15.8647l-0.2852,0.4365l2.0244-2.7368 c2.8327-3.7539,4.4644-5.9311,4.2719-5.7178c5.9081-7.2215-0.3494,0.9123,0.3795,0.6431 c-4.875,6.3896-14.7959,19.6919-16.165,20.9668c-2.8936,3.7983-4.876,6.3296-7.9287,10.2441l-5.957,7.9419l0.9385-1.3057 l-1.3359,1.5381c-0.3291,0.4331-0.7295,0.96-1.0674,1.4043c-3.6602,4.9858-4.2988,5.7881-4.0225,5.293 c-3.1924,4.23-6.542,8.7554-9.8125,13.2178c-1.6221,2.2231-3.2295,4.4263-4.792,6.5669c-0.5645,0.8354-1.002,1.5078-1.3184,2.0181 c0.582-0.2065,1.1387-0.4038,1.6641-0.5908c0.209-0.0781,0.4111-0.1538,0.6074-0.2275c0.7236-0.2202,1.4229-0.4336,2.0967-0.6387 c-0.7617,0.2505-1.416,0.4653-1.9727,0.6484l-0.1191,0.0449l-0.0508,0.0254l-0.0996,0.0503l-0.1865,0.0947 c-0.2354,0.1211-0.4092,0.2192-0.4902,0.2871c-0.1689,0.1377,0.0527,0.1489,0.5566,0.0762c0.1299-0.0205,0.2715-0.043,0.418-0.0659 c0.3271-0.0752,0.668-0.1533,1.0117-0.2324c0.6992-0.1602,1.4102-0.3228,2.0479-0.4688c1.2405-0.2767,2.2014-0.4677,2.279-0.3931 c-0.2955,0.076-1.2831,0.3456-2.8679,0.7822c-1.5303,0.4224-3.8555,1.0635-6.7363,1.8589 c2.9961-3.9365,6.7861-8.9136,10.8975-14.3145c-0.8906,1.1045-1.6328,1.9653-1.9424,2.1455 c-1.5586,1.9536-3.0332,3.8389-4.4619,5.6943c-1.207,1.5884-2.3877,3.1416-3.5693,4.6963l-0.0791,0.1538 c-0.083,0.0923-0.0742,0.0698-0.1396,0.1396c-0.4844,0.6533-0.9707,1.3086-1.5039,2.0273c2.6094-0.769,5.3086-1.5645,8.2168-2.4219 c3.7012-1.0591,7.6689-2.1948,12.0527-3.4502c0.7051-0.2217,0.7021-0.2207,1.7002-0.5347c0.2754-0.0601,0.6475-0.1421,0.9453-0.207 c3.0166-0.8223,6.1807-1.6846,9.6582-2.6323c-1.0029,0.3086-2.2402,0.7114-2.9443,0.98c4.9141-1.3433,10.7178-3.0977,16.291-4.7544 c0.5254-0.1841,1.1729-0.4028,1.4541-0.5166c0.1396-0.0146,0.8105-0.1831,1.0674-0.2314c3.1064-0.9155,6.0723-1.7705,8.6738-2.4629 c0.1963,0.1172,2.8027-0.5337,6.29-1.4604c-1.6777,0.2915-3.7627,0.7886-6.29,1.4604l1.2383-0.6558 c2.8428-0.813,3.9707-0.6963,5.1006-0.8179c4.1094-1.0928,9.791-2.6704,16.208-4.4609c2.4541-0.8013,3.9795-1.3135,6.4355-2.0522 c2.457-0.7339,5.8301-1.7417,11.9678-3.5747l-6.2207,2.1406c3.5283-1.0078,5.7998-1.6934,7.916-2.3389 c1.1279-0.3545,2.8877-0.9067,5.0186-1.5762c3.2812-1.0752,6.2168-2.0474,11.5039-3.5981 c-0.5918,0.1885-0.8994,0.3037-1.0879,0.3853c6.8262-2.0967,14.5684-4.4741,21.627-6.6416 c3.1201-1.0728,6.1973-2.1304,11.4102-3.9219l-2.1348,1.0547c0.5645-0.1748,1.25-0.3877,1.7812-0.5522l-0.4795,0.0474 c0.2285-0.0288,0.96-0.2334,1.3145-0.3062c4.6445-1.4678,10.1719-3.2148,15.626-4.939c2.7295-0.853,5.4404-1.7002,8.0127-2.5044 c3.2959-1.0063,6.415-1.959,9.2031-2.811c-0.001,2.2837-0.002,4.3896-0.002,6.2681c-0.0146,1.25-0.0283,2.3481-0.0391,3.2607 c-0.027,1.2612-0.0684,2.1571-0.1259,2.6205c0.1745-0.4352,0.2885,1.1974,0.3593,4.1378c0.042,1.7021,0.0684,3.8408,0.085,6.2666 c0.0068,2.8447,0.0137,6.0259,0.0215,9.3696c-10.6328,3.1846-23.21,6.9507-29.8291,8.9331 c4.5156-1.3975,5.2773-1.8198,5.7031-2.0454c-27.248,8.8672-55.458,16.8442-83.1865,25.2676l-2.3193,0.3677 c-0.8164,0.3208-1.4375,0.5645-2.1904,0.8604c-2.6367,0.7339-7.5469,2.1948-12.6357,3.7124 c-1.3369,0.4941-2.6289,0.9717-3.9307,1.4531l-0.9785,0.3633l-0.4922,0.1821l-0.2021,0.0942 c-0.2109,0.1055-0.4258,0.2129-0.6445,0.3223c-0.7725,0.3979-1.0908,0.6309-1.5977,0.8418c0.3906,0.0234,0.7236,0.0508,1.041,0.0889 c-0.5488,0.0161-1.2324,0.0176-2.0488,0.0039l0.0762-0.0991c-0.1719,0.0552-0.3418,0.1094-0.4053,0.1294 c3.7822,0.4043,7.0127,0.749,9.9238,1.0601c5.4521,0.6074,10.3066,1.1484,15.001,1.6709c9.3838,1.0786,18.125,2.0825,29.7148,3.4141 l-0.5166,0.3701c8.4717,0.8213,19.1055,1.8521,27.624,2.6782c4.8242,0.7964,12.0557,1.6968,20.7393,2.6782 c9.0654,0.9756,19.6377,2.1138,30.7295,3.3081c0.002,0.4927,0.0039,1.0044,0.0059,1.5166l0.0928-0.4844 C486.2559,227.1538,486.2461,228.3398,486.2402,229.0366z M343.9951,139.4902c0.5264-0.5503,1.6494-1.8931,4.835-6.1821 l1.1182-1.8228l-0.3604,0.5581L343.9951,139.4902z M112.4111,202.5698l-8.9956-2.4116l-0.6274-0.2173l2.0044,0.7451 C109.9448,202.0977,111.6577,202.4619,112.4111,202.5698z M234.4496,178.0008l0.5865,0.5036l-0.2473-1.3027 c-0.1779-0.1519-0.3641-0.3104-0.5511-0.4694c0.0468,0.2534,0.0927,0.5002,0.1377,0.7415l0.3911,0.41l-0.3762-0.3298 c0.0012,0.0064,0.0024,0.0134,0.0037,0.0198C234.4249,177.7755,234.4407,177.9052,234.4496,178.0008z M234.1844,176.4413 c0.2087,0.1985,0.3837,0.3674,0.5351,0.5154l-0.4632-1.5705l0.25,0.3271l-0.8229-4.3352l-1.2206-6.0452 C232.3044,165.6734,233.3399,171.8389,234.1844,176.4413z M225.1421,169.4268l8.0249,7.0547 c0.154,0.2713,0.4164,0.6364,0.6805,1.0023l0.5142,0.4415c-0.0372-0.1237-0.0852-0.3005-0.1422-0.5211l-1.0525-0.9227 l-0.2041-0.4883l1.2237,1.2827c-0.0544-0.2141-0.1151-0.4587-0.1838-0.7432C230.426,173.4973,225.5193,169.4595,225.1421,169.4268z M310.4316,273.5698c0.8369,1.3574,1.8535,3.0742,2.9385,4.9297l-4.0957-7.6318 C309.0469,270.6558,309.7285,272.1489,310.4316,273.5698z M451.4023,251.7378c-0.2705-0.0283-0.5029-0.0527-0.7725-0.0801 l-0.0615,0.0156L451.4023,251.7378z M425.0841,332.5264c0.9813,0.6636,2.2707,1.5239,3.9677,2.644 C427.8374,334.3497,426.5157,333.4689,425.0841,332.5264z M96.6416,197.8462l-3.0879-0.7109l2.0957,0.5811l2.7876,0.7388 L96.6416,197.8462z M343.7158,178.6772c7.9746-2.3726,6.3242-1.9517-0.5449-0.1899 C343.7871,178.4106,332.9492,181.6021,343.7158,178.6772z M373.9531,244.6592l-3.7568-0.4355l-10.5273-1.1479L373.9531,244.6592z M301.1006,319.354l-1.1895-2.3604C302.501,326.2847,302.6631,324.9556,301.1006,319.354z M268.5049,332.3345 c-0.6714-3.8184-2.2808-11.2119-3.75-18.6797C265.6333,319.4556,267.5771,328.7583,268.5049,332.3345z M70.2856,323.4233 l5.8745-3.3496l5.1304-3.1182L70.2856,323.4233z" fill="#caaacd" opacity="0.77"/></g></svg>