<?xml version="1.0" encoding="UTF-8" standalone="no"?><svg xmlns="http://www.w3.org/2000/svg" xmlns:xlink="http://www.w3.org/1999/xlink" fill="#000000" height="449.4" preserveAspectRatio="xMidYMid meet" version="1" viewBox="-1.8 -0.9 340.1 449.4" width="340.1" zoomAndPan="magnify"><g id="change1_1"><path d="M107.5,447.9c1.6,0.6,3.4,0.5,4.9-0.4c18-10.4,134.1-79.4,179-163.3c33.1-62,43.4-105.7,46.5-127.3 c0.4-3.1-1.7-6-4.8-6.4c-1.7-0.2-3.5,0.3-4.7,1.5l-80.2,77.6c-2.3,2.2-5.8,2.1-8-0.1c-1.5-1.6-2-3.8-1.2-5.9 c6.6-17.6,14.1-44.1,19.4-82.2c8.8-64.3-5-117.1-11.6-137.7c-1-3-4.1-4.6-7.1-3.6c-1,0.3-1.9,0.9-2.5,1.7 c-19.1,22.1-75.2,90.3-85.9,139.6c-6.6,30.1-11.8,50.3-15.4,62.9c-0.9,3-4,4.7-7,3.9c-1.9-0.6-3.4-2.1-3.9-4 c-3.2-11.8-7.9-31.1-14.8-62.8C101,100,91,76,84.3,63.2c-1.4-2.8-4.9-3.8-7.6-2.4c-1.6,0.8-2.6,2.3-3,4c-4.3,24.2-13,77-18.7,140.3 c-3.4,37,0,56.2,5,66c3.3,6.4,13.1,1.6,10.1-5L12.7,134.9c-1.2-2.9-4.6-4.2-7.4-2.9c-2,0.9-3.3,2.7-3.4,4.9 c-1.8,29.7-3.7,82.1,1.7,119.8C11.3,311.2,49.1,424.1,107.5,447.9z" fill="#caaacd"/></g></svg>