<?xml version="1.0" encoding="UTF-8"?><svg xmlns="http://www.w3.org/2000/svg" xmlns:xlink="http://www.w3.org/1999/xlink" height="429.0" preserveAspectRatio="xMidYMid meet" version="1.0" viewBox="-0.7 -0.8 421.5 429.0" width="421.5" zoomAndPan="magnify"><g id="change1_1"><path d="M236.3,383.7L236.3,383.7L236.3,383.7L236.3,383.7L236.3,383.7L236.3,383.7z M420.8,68.2l-0.1,0.2 c-0.3,0.7-0.6,1.2-0.7,1.4c-0.7,1.4-1.5,2.8-2.1,3.9c-0.7,1.3-1.4,2.6-2.1,3.9c-0.7,1.3-1.4,2.6-2.1,3.9c-0.1,0.3-1.9,3.8-2,3.9 c0-0.1,2-3.7,2.1-3.9c-0.1,0.2-1.6,3.2-2,3.9c-0.5,1-1.4,2.7-2,3.9c-0.5,0.9-1.4,2.7-2,3.9c-0.4,0.8-1.6,3-2.1,3.9 c-0.6,1.1-1.5,2.8-2,3.9c-0.8,1.5-1.3,2.4-2.1,3.9l-2,3.9c-0.3,0.5-1.7,3.2-2,3.9c-0.1,0.3-2.1,3.9-2.1,3.9c0-0.1,1.7-3.3,2-3.9 c0.6-1.2,1.4-2.7,2-3.9c0.6-1.2,1.3-2.6,2-3.9l2-3.9l-4.2,7.8c-0.7,1.3-1.3,2.6-2,3.9c-0.4,0.8-1.7,3.2-2.1,3.9 c-0.1,0.2-0.2,0.4-0.3,0.6l0,0l0,0c-0.8,1-1.7,2.2-2.3,2.9l-2.7,3.4l-2.7,3.4c-0.6,0.7-2,2.5-2.7,3.4c-0.7,0.8-2.1,2.6-2.8,3.4 c-0.8,1-2,2.5-2.7,3.4c-1.1,1.3-1.7,2.1-2.8,3.4c-0.7,0.9-2,2.5-2.7,3.4c-0.5,0.6-2.4,2.9-2.8,3.4c-0.4,0.4-2.4,2.9-2.8,3.4 c-0.6,0.8-2.2,2.9-2.7,3.4c-0.3,0.4-2.3,2.9-2.7,3.4c-0.4,0.5-2.5,3-2.8,3.4c-0.9,1.2-1.9,2.4-2.7,3.4L354,168 c-0.4,0.4-2.3,2.9-2.7,3.4c-0.5,0.6-2.4,2.9-2.8,3.4c-0.8,1-1.8,2.2-2.8,3.4c-0.6,0.8-2.1,2.6-2.8,3.4c-0.5,0.7-2.3,2.9-2.7,3.4 c-0.2,0.3-2.5,3.2-2.7,3.4c-0.9,1.1-2.1,2.5-2.8,3.4c-0.3,0.4-2.8,3.4-2.8,3.4c0,0,2.6-3.2,2.7-3.4c-1,1.2-1.9,2.3-2.8,3.4 c-0.5,0.7-2.3,2.9-2.7,3.4c-0.5,0.7-2,2.6-2.7,3.4c-0.8,1-2,2.4-2.8,3.4c-0.8,1-2,2.5-2.7,3.4c-0.4,0.5-2.5,3-2.8,3.4 c-0.3,0.4-2.7,3.4-2.7,3.4c0,0,2.6-3.2,2.8-3.4c-0.8,1-1.9,2.4-2.7,3.4c-0.5,0.6-2.4,2.9-2.8,3.4c-0.6,0.8-2,2.4-2.8,3.4 c-0.9,1.1-1.9,2.3-2.8,3.4c-0.5,0.7-2.3,2.9-2.7,3.4c-0.6,0.8-1.9,2.4-2.7,3.4c-0.6,0.8-2.1,2.6-2.8,3.4c-0.5,0.6-2.3,3-2.7,3.4 c-1,1.2-2,2.5-2.8,3.4c-0.9,1.1-1.8,2.2-2.8,3.3l7-4.2l3.7-2.3c2.5-1.5,5-3,7.5-4.5c0.8-0.5,2.6-1.6,3.7-2.3c0.3-0.2,3.5-2,3.8-2.2 c1.2-0.7,2.5-1.4,3.8-2.2c1-0.6,2.6-1.5,3.8-2.2c1-0.6,2.7-1.6,3.7-2.3c1.2-0.7,2.6-1.5,3.8-2.2c0.8-0.5,3.2-1.9,3.7-2.3 c1.2-0.8,2.5-1.5,3.7-2.3c1.1-0.6,2.4-1.5,3.7-2.3c0.5-0.3,3.2-1.9,3.8-2.2c0.7-0.4,3.2-1.9,3.7-2.3c1.3-0.8,2.4-1.5,3.7-2.3 c1.3-0.7,2.6-1.5,3.8-2.2c0.9-0.5,3.3-1.9,3.8-2.2c-0.3,0.2-3.7,2.2-3.7,2.3c0.1-0.1,3.5-2,3.8-2.2c-0.3,0.2-3.7,2.2-3.7,2.3 c0.1,0,3.3-1.9,3.8-2.2c1.2-0.7,2.6-1.5,3.8-2.2l2.8-1.7l0.4-0.2l0.2,0.4l2.5,4.8c-0.6-1.3-1.3-2.7-1.9-4c-0.1-0.1-0.2-0.5-0.5-0.9 l-0.3-0.5l-0.5,0.3c-1.2,0.7-2.9,1.7-3,1.7c0.1-0.1,1.9-1.1,2.9-1.8l0.6-0.3l0.3,0.6c0.2,0.4,0.4,0.7,0.4,0.8c0.6,1.1,1.5,2.8,2,3.9 c0.4,0.9,1.6,3.3,1.9,4c0.2,0.5,1.9,3.9,1.9,4c0,0-1.9-3.7-2-3.9c0.6,1.2,1.3,2.7,2,4c0.5,1,1.6,3,2,3.9c0.7,1.4,1.4,2.7,2,3.9 c0.3,0.6,1.6,3,2,3.9c0.1,0.2,1.9,4,1.9,4c0,0-1.9-3.6-2-3.9c0.2,0.4,1.7,3.4,1.9,4c0.4,0.7,1.7,3.3,2,3.9c0.2,0.3,1.9,3.7,2,3.9 c0.1,0.2,0.2,0.3,0.2,0.5l0.2,0.5l-0.4,0.3c-1.1,0.8-2.3,1.6-3.2,2.2c-0.4,0.3-3.6,2.5-3.6,2.5c0,0,3.3-2.4,3.5-2.6 c-1.2,0.8-2.4,1.7-3.6,2.5c-0.7,0.5-3,2.2-3.5,2.6c-1,0.7-2.3,1.7-3.5,2.6c-0.6,0.4-3,2-3.6,2.5c-0.2,0.2-3.5,2.5-3.5,2.6l3.6-2.5 c-1,0.7-2.5,1.8-3.5,2.6c-1,0.7-2.7,1.9-3.7,2.5c-1.2,0.8-2.3,1.7-3.5,2.6c-1.2,0.8-2.4,1.7-3.6,2.5c-1,0.7-2.6,1.9-3.5,2.6 c-0.9,0.6-2.8,1.9-3.7,2.5c-0.9,0.7-2.9,2.1-3.5,2.6l-3.5,2.6c-0.8,0.6-2.5,1.8-3.5,2.6c-0.7,0.5-2.8,2-3.7,2.5 c-1,0.7-2.6,1.9-3.5,2.6c-1.4,1-2.3,1.6-3.6,2.5c-0.1,0-3.3,2.4-3.5,2.6c-0.4,0.3-3.6,2.5-3.6,2.5c0.1-0.1,3.3-2.4,3.5-2.6 c0.2-0.2,3.4-2.5,3.5-2.6c-0.1,0.1-3.2,2.2-3.7,2.5c-0.7,0.5-2.9,2-3.6,2.5c-1.2,0.9-2.4,1.7-3.5,2.6c-0.8,0.5-3,2.1-3.7,2.5 c-1.1,0.8-2.7,1.9-3.5,2.6c-0.9,0.7-2.4,1.7-3.5,2.6c-0.9,0.7-2.6,1.8-3.5,2.6c-0.6,0.4-2.2,1.5-3.1,2.1c1.2-0.5,3.4-1.3,3.4-1.3 c0,0-2.8,1.2-3.8,1.5c0,0,0,0,0,0c0.9-0.3,3.3-1.2,3.9-1.5c1.1-0.4,2.9-1.2,4-1.7c0.9-0.3,3.4-1.3,4.1-1.6c1.3-0.5,3.1-1.3,4-1.6 l4-1.6c0.3-0.1,3.8-1.6,4.1-1.7c0.6-0.3,3.3-1.3,4-1.6c0.3-0.1,4.1-1.6,4.1-1.6c-0.2,0.1-3.8,1.6-4,1.6c-0.1,0-3.4,1.4-4,1.6 c-0.5,0.2-4,1.6-4,1.7c0.2-0.1,3.5-1.3,4.1-1.6c0.9-0.3,2.9-1.1,4.1-1.6c1.4-0.5,2.8-1.1,4.1-1.6c1.3-0.5,2.7-1.1,4-1.7 c1-0.4,3.5-1.4,4-1.7c-0.3,0.1-4.1,1.6-4.1,1.6c0.1,0,3.7-1.5,4-1.6c-0.3,0.1-4.1,1.6-4.1,1.6c0.1,0,3.5-1.4,4-1.6 c1.3-0.5,2.7-1.1,4-1.6l8.3-3.2c-0.2,0.1-4,1.6-4,1.6c0.5-0.2,3.5-1.3,4.1-1.6c0.6-0.2,3.6-1.5,4-1.6c0.5-0.2,4.1-1.6,4.1-1.6 l-4,1.6c0.9-0.3,3.1-1.2,4.1-1.6c1.2-0.5,2.8-1.1,4-1.6c0.5-0.2,2-0.8,3-1.2l0.1,0l0.1,0c0.6,0,1,0,1.2,0c1.5,0,2.9,0,4.4,0 c0.8,0,3.8,0,4.4,0c0.5,0,4.3,0,4.4,0c0,0-4.2,0-4.4,0c-0.4,0-4.3,0-4.4,0c-0.6,0-4.4,0-4.4,0c0.1,0,4.1,0,4.4,0l8.7-0.1 c3,0,5.9,0.1,8.9,0.1c1.3,0,3.4,0,4.4,0c0.2,0,0.6,0,1.2,0l0.4,0l0.1,0.4c0.2,1.3,0.4,3.2,0.4,3.2c0-0.1-0.3-1.9-0.5-3.2l-0.1-0.4 l-0.4,0c-0.7,0-1.2,0-1.1,0c0.1,0,0.5,0,1.1,0l0.4,0l0,0.3c0.1,1.1,0.4,2.7,0.5,3.3c0,0.1,0.7,4.1,0.7,4.3c0-0.3-0.6-4.3-0.6-4.4 c0,0.1,0.6,3.7,0.7,4.3c0.2,1,0.6,3.8,0.7,4.3c0-0.3-0.6-4.3-0.6-4.4c0,0.1,0.6,3.7,0.7,4.3c0.2,1,0.5,3,0.7,4.3 c0,0.3,0.6,4,0.6,4.4c0.1,0.5,0.6,4.3,0.6,4.4L399,295c0.1,0.8,0.5,3.4,0.6,4.4c0.1,0.8,0.6,3.7,0.7,4.3c0.2,1.2,0.4,2.7,0.7,4.1 l0.1,0.4l-0.4,0.2l-0.2,0.1c-1.1,0.5-2.8,1.4-3.9,1.9c-1.1,0.5-3,1.4-4,1.9c-0.9,0.4-3.1,1.5-3.9,1.9c-1.1,0.5-3.2,1.5-4,1.9 c-0.6,0.3-4,1.8-4,1.9c0.1,0,3.4-1.7,3.9-1.9c0.3-0.2,3.7-1.8,3.9-1.9c-1.1,0.5-2.9,1.4-4,1.9c-1.3,0.6-2.6,1.3-3.9,1.9 c-1.3,0.6-2.7,1.3-4,1.9c-0.9,0.5-3.1,1.5-3.9,1.9c-1.4,0.7-2.7,1.4-3.9,1.9l-3.9,1.9c-0.7,0.4-2.9,1.5-3.9,1.9 c-0.5,0.2-3.6,1.7-4,1.9c-0.5,0.2-3.5,1.6-4,1.9c-0.6,0.3-2.4,1.2-3.3,1.7l0,0l0,0c-0.3,0.1-0.5,0.2-0.6,0.2c-1.4,0.4-3.1,1-4.2,1.3 c-0.6,0.2-3.5,1.1-4.2,1.3c-0.7,0.2-3.6,1.2-4.1,1.4c-1.2,0.4-2.7,0.9-4.1,1.4c-0.9,0.3-3.1,1.1-4.1,1.4c-1.4,0.4-2.8,0.9-4.2,1.3 c-1.4,0.5-2.8,0.9-4.1,1.4c-0.8,0.2-3.6,1.1-4.2,1.3c-1.5,0.5-2.9,0.9-4.2,1.3c0.1,0,3.8-1.3,4.1-1.4c0.9-0.3,3.5-1.1,4.2-1.3 c1.3-0.4,3.1-1.1,4.1-1.4l4.1-1.4c-1.3,0.4-2.9,0.9-4.2,1.3c-1.3,0.4-2.9,0.9-4.2,1.3c-1,0.3-3.2,1.1-4.1,1.4 c-1.5,0.5-2.9,1-4.1,1.4c-1.3,0.4-2.6,0.9-4.1,1.4c-1.5,0.5-2.9,1-4.1,1.4c-0.5,0.2-3.5,1.2-4.1,1.4c-1.5,0.5-2.7,0.9-4.2,1.3 c-0.3,0.1-4.1,1.4-4.1,1.4c-1.5,0.5-2.8,0.9-4.2,1.3c-1.2,0.4-3,1-4,1.3c0,0-0.1,0.1-0.1,0.1c-0.5,0.3-3.7,2.3-3.8,2.3 c0,0,3.6-2.3,3.6-2.4c-1.1,0.7-2.6,1.6-3.8,2.3c-0.9,0.6-2.8,1.9-3.7,2.4c-1.3,0.8-2.6,1.7-3.6,2.4c-0.7,0.5-2.7,1.8-3.6,2.4 c-0.1,0.1-3.7,2.3-3.8,2.4c0,0,3.4-2.3,3.7-2.4c-0.3,0.2-3.2,2-3.8,2.3c-0.9,0.6-2.8,1.9-3.7,2.4c-1.3,0.8-2.6,1.7-3.6,2.4 c-0.4,0.2-3.2,2.1-3.6,2.4c-0.9,0.6-3.1,1.9-3.8,2.4c-1.2,0.7-2.4,1.5-3.8,2.4c-0.8,0.5-2.9,1.8-3.8,2.3c-0.8,0.5-3,2-3.6,2.4 c-0.3,0.2-0.5,0.3-0.8,0.5c-0.6,1-1.2,2.1-1.7,2.8l-2.3,3.8l3.8-6.8l0.7-0.5l-0.7,0.4l0,0l0,0l0,0l0,0l0,0l0,0l-4,6.8l-2.1,3.8 c-0.5,0.9-1.5,2.6-2.1,3.8c-0.4,0.7-1.8,3-2.2,3.8c-0.7,1.3-1.4,2.6-2.1,3.8c-0.6,1-1.6,2.8-2.2,3.8c-0.7,1.3-1.4,2.5-2.1,3.8 c-0.7,1.3-1.4,2.5-2.1,3.8c-0.7,1.3-1.5,2.6-2.2,3.8l-4.5,7.6c0.7-1.2,1.5-2.6,2.1-3.8c0.3-0.5,2.1-3.8,2.1-3.8c0,0-0.2,0.4-0.5,0.9 l-3.8,6.6h-19.1l-0.6-2.7c0,0,0,0,0,0c-0.1-0.5-0.9-4.2-1-4.3c0,0.1,0.8,4.1,0.9,4.4c-0.2-0.9-0.7-3-1-4.3l-1-4.3 c-0.3-1.4-0.6-2.8-1-4.3l-0.6-3.1l-4.1-3.8c1.1,1,2.2,1.9,3.3,2.9c0.1,0.1,0.5,0.4,0.9,0.8c0.3,1.3,0.7,2.9,0.7,3 c0-0.1-0.4-1.8-0.6-3c-0.5-0.4-0.8-0.8-1-0.9c0,0-0.1-0.1-0.1-0.1l-6.3-5.7l-0.2-0.1c-0.4-0.3-3.2-2.9-3.3-2.9 c0.1,0.1,3.1,2.8,3.3,3c-0.5-0.5-2.4-2.1-3.3-2.9c-0.9-0.8-2.1-1.9-3.3-2.9c-0.2-0.1-3-2.8-3.3-3c-0.8-0.7-2.2-2.1-3.3-3 c-0.6-0.5-2.6-2.3-3.3-2.9c-0.8-0.7-2.5-2.4-3.3-3c-0.9-0.8-2.6-2.3-3.3-2.9c-1.1-1-2.2-1.9-3.3-2.9l-6.5-5.8 c-0.2-0.2-3.2-2.9-3.3-3c0.1,0.1,3.1,2.7,3.3,2.9c-0.1-0.1-3-2.8-3.2-3c0.4,0.3,2.5,2.2,3.3,2.9c1.1,1,2.1,1.9,3.3,2.9 c0.2,0.2,2.9,2.7,3.3,3c0.8,0.7,2.5,2.2,3.3,2.9c1.2,1,2.3,2,3.3,2.9c0.1,0.1,0.2,0.2,0.3,0.3L147.7,374c-0.2-0.1-0.3-0.3-0.4-0.4 c-1.2-1-2.2-2-3.3-2.9c-0.4-0.4-2.8-2.5-3.3-2.9c-1.1-1-2.2-2-3.2-3c-1.1-1-2.2-1.9-3.3-2.9c-0.1-0.1-0.2-0.2-0.4-0.4 c-1-0.4-3.5-1.2-3.6-1.2c-1.4-0.4-2.8-0.9-4.2-1.3c-1-0.3-3.6-1.2-4.2-1.3c0.3,0.1,4.1,1.4,4.2,1.4c-0.1,0-3.8-1.2-4.2-1.3 c0.3,0.1,4.1,1.4,4.2,1.4c-0.1,0-3.6-1.1-4.2-1.3c-1.3-0.4-2.8-0.9-4.2-1.3c-2.8-1-5.6-1.9-8.4-2.9c0.3,0.1,4.1,1.3,4.2,1.3 c-0.1,0-3.6-1.2-4.2-1.4c-0.5-0.2-3.4-1.2-4.2-1.4c-1.2-0.4-2.9-0.9-4.2-1.3c-0.8-0.3-3.5-1.2-4.2-1.4c-0.3-0.1-4-1.4-4.2-1.4 c-0.5-0.2-4.1-1.3-4.2-1.3c0.1,0,3.6,1.2,4.2,1.4c0.5,0.2,3.6,1.2,4.2,1.4c-1.4-0.5-2.7-0.9-4.2-1.3c-0.8-0.3-3.5-1.2-4.2-1.4 c-1.2-0.4-2.8-0.9-4.2-1.4c-1.5-0.5-2.6-0.9-4.2-1.4c-0.9-0.3-2.2-0.7-3.3-1l0,0l0,0c-0.3-0.2-0.5-0.4-0.7-0.6c-1-0.9-2.3-2.1-3.3-3 c-0.7-0.6-2.7-2.4-3.3-2.9c-1-0.8-2.1-1.9-3.3-2.9c-0.7-0.6-2.5-2.2-3.3-2.9c-0.5-0.4-2.9-2.7-3.3-3c-1.2-1-2.3-2-3.3-2.9l-3.3-2.9 l-6.5-5.8c-0.2-0.2-3.2-2.9-3.3-3c0.1,0.1,3.1,2.7,3.3,2.9c-0.3-0.2-3.1-2.9-3.3-3c0.1,0.1,3.2,2.8,3.3,2.9c-0.1-0.1-2.8-2.6-3.3-3 c-0.7-0.6-2.5-2.3-3.3-3l-3.3-2.9c-1-0.8-2.6-2.3-3.3-2.9c-0.4-0.4-3.2-2.8-3.3-2.9c-0.6-0.6-2.3-2.2-3.3-3c-0.6-0.6-2.4-2.2-3.3-3 c-1.1-1-2.2-2-3.3-3c-0.6-0.6-2.8-2.4-3.3-2.9c-0.9-0.8-1.7-1.5-2.6-2.3l-0.1-0.1v-0.1c0-0.3,0-0.6,0-1c0-1.5,0-2.9,0-4.4 c0-0.6,0-3.7,0-4.4c0-0.8,0.1-3.8,0.1-4.4c0-0.5,0.1-4.4,0.1-4.4l0,4.4c0-1,0.1-3.4,0.1-4.4c0-0.8,0-3.7,0-4.4c0-1.2,0-2.9,0-4.4 c0-1.2,0-3.1,0-4.4c0-0.4,0-1.5,0.1-2.5l0-0.4l0.3,0.1c0.9,0.2,1.6,0.4,1.8,0.4c1.5,0.3,3,0.6,4.3,0.9c1.4,0.3,2.8,0.6,4.3,0.9 l8.5,1.8l8.6,2c0.6,0.1,1.3,0.3,2.1,0.5l0.1,0l0,0c0.7,0.5,1.5,1,1.9,1.3c-0.1-0.1-0.9-0.6-1.9-1.2l0,0l0,0c-1-0.2-2-0.4-2-0.4 c0,0,1,0.2,2,0.5l0,0l0,0c0.8,0.5,1.7,1.1,1.9,1.3c1.2,0.8,2.5,1.7,3.7,2.4c0.2,0.2,3.6,2.3,3.7,2.3c-0.1,0-3.2-2.1-3.7-2.4 c-0.3-0.2-3.4-2.2-3.7-2.4c1.1,0.7,2.5,1.6,3.7,2.3c0.7,0.5,3.1,2.1,3.7,2.4c0.4,0.3,3.2,2.1,3.7,2.4c0.9,0.6,3,1.9,3.7,2.3 c0.4,0.3,3.2,2,3.7,2.3c0.9,0.6,3,2,3.7,2.4c0.4,0.3,3.2,2.1,3.7,2.4c0.7,0.4,3.2,2,3.7,2.3c1.2,0.8,2.7,1.8,3.7,2.4 c0.5,0.3,3.1,2,3.7,2.4c0.7,0.4,3.2,2,3.7,2.3l3.7,2.3c0.6,0.4,2.9,1.8,3.7,2.3c1.1,0.7,2.6,1.7,3.7,2.4c0.5,0.3,1.1,0.7,1.8,1.1 c-0.5-0.6-0.9-1.1-1.5-1.9c-0.7-0.9-2-2.4-2.8-3.4c-0.5-0.7-2.3-3-2.7-3.5c-0.4-0.5-2.3-2.9-2.7-3.5c-0.5-0.7-2.4-2.9-2.8-3.4 l-2.8-3.4c-0.6-0.8-2-2.4-2.8-3.4c-0.2-0.3-2.5-3.2-2.7-3.5c-0.4-0.5-2.2-2.8-2.7-3.5c-0.4-0.5-2.4-3-2.8-3.4 c-0.9-1.1-1.8-2.2-2.8-3.4c-0.4-0.4-2.3-2.8-2.8-3.4c-0.5-0.7-2.3-3-2.7-3.5c-0.7-0.9-2.4-3-2.7-3.5c0.2,0.2,2.7,3.3,2.8,3.4 c0,0-2.4-3.1-2.7-3.5c-0.7-0.9-2-2.5-2.7-3.5c-0.8-0.9-2-2.5-2.8-3.4c-0.5-0.7-2.3-2.9-2.7-3.5c-0.9-1-2.1-2.6-2.8-3.4 c-0.5-0.6-2.2-2.6-2.8-3.4c-0.7-0.8-1.5-1.9-2.2-2.8l0,0l0,0c-0.1-0.3-0.2-0.5-0.3-0.7c-0.6-1.3-1.2-2.7-1.8-4 c-0.6-1.4-1.1-2.7-1.7-4.1c-0.6-1.3-1.2-2.7-1.8-4c-0.6-1.4-1.1-2.7-1.7-4.1c-0.5-1.1-1.3-2.9-1.8-4c-0.5-1.1-1.3-3-1.7-4.1 c-0.4-0.9-1.5-3.3-1.8-4c-0.2-0.5-1.5-3.4-1.8-4c-0.3-0.7-1.5-3.5-1.7-4.1c-0.6-1.4-1.3-2.9-1.8-4c-0.3-0.7-1.3-3-1.8-4 c-0.5-1.1-1.2-2.9-1.7-4.1c-0.5-1.1-1.3-2.9-1.8-4c-0.6-1.5-1.1-2.6-1.7-4.1c-0.6-1.3-1.2-2.7-1.8-4c-0.4-1-1.3-3.2-1.7-4.1 c-0.5-1.1-1.4-3.1-1.8-4l-1.8-4l-1.8-4l-3.4-8.2l1.8,4c0.2,0.5,1.5,3.4,1.8,4c0.3,0.7,1.5,3.5,1.7,4.1c0.6,1.3,1.3,2.9,1.8,4 c0.5,1.1,1.2,2.6,1.8,4c0.3,0.6,1.4,3.3,1.7,4.1c0.4,1,1.4,3.1,1.8,4c0.6,1.4,1.3,2.8,1.8,4l1.8,4c-0.6-1.4-1.2-2.7-1.7-4.1 c-0.6-1.4-1.2-2.7-1.8-4c-0.6-1.4-1.1-2.7-1.7-4.1c-0.6-1.3-1.2-2.6-1.8-4c-0.6-1.3-1.2-2.6-1.8-4c-0.3-0.8-1.4-3.5-1.7-4.1 c-0.1-0.3-1.7-4-1.7-4.1c-0.2-0.5-1.8-3.9-1.8-4c0,0.1,1.5,3.5,1.7,4.1c0.1,0.3,1.7,4,1.7,4.1c-0.4-0.8-1.4-3.1-1.8-4 c-0.3-0.8-1.4-3.4-1.7-4.1c-0.2-0.4-1.5-3.6-1.7-4.1c-0.5-1.1-1.4-3.2-1.8-4c-0.2-0.5-1.7-3.9-1.8-4c0.1,0.2,1.7,4,1.7,4.1 c0-0.1-1.7-3.9-1.8-4l-3.4-8.2c-0.6-1.4-1.1-2.7-1.7-4.1l-1.4-3.1L0,118.9l0.1-0.2l3.4-4.1l2.8-3.4c0.4-0.5,2.2-2.7,2.8-3.4 c0.2-0.2,2.9-3.3,2.9-3.4c-0.1,0.1-2.6,3.2-2.8,3.4c0.2-0.3,2.8-3.2,2.9-3.3c-0.1,0.1-2.7,3.3-2.8,3.4c0.1-0.1,2.5-2.9,2.9-3.4 c0.6-0.7,2.2-2.6,2.9-3.3c0.8-1,1.6-2,2.4-2.9l0.1-0.2l0.2,0.1l0.5,0.3c1,0.8,2.6,2,3.5,2.7c1,0.8,2.6,2,3.5,2.6l-3.5-2.7 c0,0,3.3,2.5,3.5,2.6c0.4,0.3,3.3,2.5,3.5,2.7c1.3,0.9,2.4,1.8,3.5,2.6c1.2,0.9,2.3,1.7,3.5,2.6c1.2,0.9,2.3,1.7,3.5,2.6l5.6,4.2 l0.1,0.1l0.1,0.1l0.9,1.5c0.2,0.3,2.1,3.8,2.1,3.9c0-0.1-1.9-3.3-2.2-3.8c-0.1-0.3-0.5-0.9-0.9-1.6l0-0.1l-0.1,0 c-0.9-0.7-2-1.5-2-1.5c-0.1-0.1,1,0.8,2,1.6l0.1,0l0,0.1c0.5,0.9,0.9,1.6,0.9,1.7c0,0-0.5-0.8-1-1.6l0-0.1l-0.1,0 c-1-0.7-2.1-1.6-2-1.5c0.2,0.1,1.1,0.8,1.9,1.5l0,0l0,0c0.4,0.8,0.8,1.5,0.9,1.7c0.7,1.3,1.5,2.5,2.2,3.8c0.3,0.4,2.1,3.7,2.2,3.8 c-0.1-0.1-2-3.6-2.1-3.9c0.4,0.6,1.6,2.8,2.2,3.8c0.6,1,1.5,2.5,2.2,3.8c0.1,0.2,2,3.6,2.1,3.9c0.3,0.5,1.8,3.2,2.1,3.9 c0.4,0.7,1.9,3.3,2.2,3.8c0.7,1.3,1.5,2.5,2.2,3.8c0.7,1.3,1.4,2.6,2.1,3.9c0.3,0.5,1.8,3.3,2.1,3.9c-0.1-0.2-2.2-3.8-2.2-3.8 c0,0.1,1.8,3.3,2.1,3.9c0.7,1.3,1.4,2.6,2.1,3.9l4.4,7.6c0.5,0.9,1.5,2.6,2.2,3.8c0.4,0.8,1.7,3,2.1,3.9c0.6,1.1,1.6,2.8,2.2,3.8 c0.4,0.6,1.9,3.4,2.1,3.9c0.7,1.2,1.6,2.8,2.2,3.8l2.2,3.8c0.6,1.1,1.4,2.5,2.2,3.8c0.5,0.9,1.6,2.8,2.2,3.8 c0.4,0.8,0.8,1.5,1.2,2.3c0.4,0.4,0.8,0.7,1.3,1.1c0.1,0.1,3.1,2.6,3.3,2.8c0.4,0.3,3.3,2.9,3.3,2.9c0,0-2.9-2.4-3.3-2.8 c-0.7-0.6-3-2.5-3.3-2.8c0.2,0.2,3.3,2.9,3.3,2.9c-0.1-0.1-3.3-2.7-3.4-2.8c0.1,0.1,3.1,2.7,3.3,2.9c2.2,1.9,4.5,3.7,6.7,5.6 c0.9,0.8,2.7,2.3,3.3,2.8c0.4,0.4,3.3,2.7,3.3,2.8c0,0-3.2-2.8-3.3-2.9c0.6,0.5,2.7,2.2,3.3,2.8c0.9,0.8,2.5,2.2,3.3,2.9 c1.3,1.1,2,1.7,3.3,2.8c0.9,0.7,2.4,2.1,3.3,2.9c0.6,0.5,2.8,2.4,3.3,2.8c1.2,1,2.2,1.8,3.3,2.8l1.3,1.2l-0.9-2 c0.1,0.1,0.5,1.1,0.9,2l0.1,0.1c-0.5-1.1-0.9-2.2-1-2.2c0,0.1,0.6,1.2,1.1,2.3l0.1,0.1c-0.4-1-0.9-2.2-1.1-2.5 c-0.5-1.1-1.3-2.9-1.8-4.1l-3.7-7.9l-1.8-4c-0.4-0.8-1.3-2.9-1.8-4c-0.2-0.4-1.6-3.7-1.8-4.1c-0.2-0.6-1.5-3.3-1.8-4.1 c-0.3-0.7-1.6-3.4-1.8-4c-0.2-0.4-1.6-3.4-1.8-4c-0.4-0.9-1.5-3.4-1.8-4.1c-0.2-0.6-1.5-3.3-1.8-4.1c-0.3-0.7-1.6-3.4-1.8-4 c-0.2-0.5-1.6-3.4-1.8-4c-0.5-1.2-1.3-2.9-1.8-4.1c-0.5-1.2-1.2-2.8-1.8-4.1c-0.6-1.3-1.2-2.6-1.8-4c-0.6-1.3-1.2-2.6-1.8-4 c-0.6-1.3-1.2-2.7-1.8-4.1c-0.6-1.3-1.2-2.7-1.8-4c-0.1-0.3-1.8-4-1.8-4.1c0,0.1,1.6,3.4,1.8,4c0.4,0.9,1.6,3.6,1.8,4 c-0.1-0.3-1.7-4-1.8-4.1c-0.6-1.3-1.2-2.6-1.8-4c-0.2-0.5-1.8-3.9-1.8-4c0.1,0.1,1.7,3.8,1.8,4.1c-0.2-0.4-1.4-3.1-1.8-4 c-0.2-0.5-1.8-3.9-1.8-4c0,0.1,1.7,3.8,1.8,4.1c-0.1-0.3-1.6-3.4-1.8-4c-0.6-1.3-1.2-2.7-1.8-4.1c-0.6-1.3-1.2-2.7-1.8-4.1 c-0.2-0.3-1.8-3.9-1.8-4c-0.2-0.6-1.7-4-1.8-4.1c0,0.1,1.6,3.4,1.8,4c0.5,1,1.6,3.4,1.8,4c0.2,0.5,1.8,3.9,1.8,4 c0-0.1-1.7-3.8-1.8-4.1c0.1,0.3,1.6,3.4,1.8,4c-0.1-0.3-1.7-4-1.8-4.1c-0.6-1.3-1.2-2.6-1.8-4c-0.2-0.5-1.8-3.9-1.8-4 c0,0.1,1.7,3.8,1.8,4.1c-0.4-0.8-1.3-2.8-1.8-4l-1.8-4c-0.4-0.8-1.3-2.8-1.8-4c-0.1-0.1-1.8-4-1.8-4.1c0,0,1.8,3.8,1.8,4 c-0.2-0.5-1.5-3.4-1.8-4.1c-0.6-1.3-1.2-2.6-1.8-4c-0.6-1.3-1.2-2.7-1.8-4.1c-0.6-1.3-1.2-2.7-1.8-4c-0.6-1.4-1.2-2.7-1.8-4.1 c-0.5-1.1-1.3-2.9-1.8-4c-0.3-0.7-1.5-3.5-1.8-4.1c-0.6-1.3-1.4-2.9-1.8-4c-0.6-1.3-1.2-2.7-1.8-4c-0.6-1.3-1.2-2.7-1.8-4 c-0.6-1.3-1.2-2.7-1.8-4c-0.3-0.7-1.4-3.1-1.8-4c0-0.1-0.2-0.4-0.5-1.1L53,66.3l0-0.1c0-0.9,0-3.2,0-3.2c0,0,0,1.9,0,3.2l0,0.1 l0,0.1c0.3,0.7,0.5,1.1,0.5,1c-0.1-0.2-0.2-0.5-0.5-1l0-0.1l0-0.1c0-1.1,0-2.6,0-3.3c0-1.2,0-3,0-4.4c0-1.1,0-3.2,0-4.4 c0-0.8,0-3.7,0-4.4c0-1.5,0-2.8,0-4.4c0-1.6,0-3,0-4.4c0-1.5,0-2.9,0-4.4c0-0.3,0-4.2,0-4.4c0-0.4,0-2.5,0-3.6l0-0.6l0.6,0 c0.5,0,0.8,0,0.8,0c0,0-0.3,0-0.8,0L53,28l0,0.5c0,1.1,0,3.1,0,3.6c0,0.9,0,4,0,4.4c0-0.3,0-4.4,0-4.4c0,0.1,0,4.2,0,4.4 c0-0.1,0-4.1,0-4.4l0-3.4l0-0.4l0.4,0l0.9,0c0.6,0,3.6-0.1,4.4-0.1c0.8,0,3.8,0,4.4,0c0.4,0,4.1,0,4.4,0c1.3,0,3.4-0.1,4.4-0.1 l4.4-0.1c1.2,0,2.8-0.1,4.4-0.1c0.5,0,3.7,0,4.4,0c0.8,0,3.7-0.1,4.4-0.1c1,0,3.1-0.1,4.4-0.1c0.4,0,0.9,0,1.4,0l0.2,0l0.1,0.1 c0.8,0.7,1.7,1.5,2.3,2c1.1,0.9,2.2,1.9,3.3,2.8c1.1,1,2.2,2,3.3,2.9c0.8,0.7,2.6,2.2,3.3,2.8c1,0.8,2.6,2.3,3.3,2.9 c0.6,0.5,2.6,2.3,3.3,2.9c1.1,1,2.2,2,3.3,2.9c0.6,0.5,2.8,2.4,3.3,2.8c0.5,0.4,2.7,2.3,3.3,2.8c0.6,0.5,2.9,2.5,3.3,2.9 c0.4,0.3,2.8,2.5,3.3,2.9c0.5,0.4,2.1,1.7,2.9,2.4l0.1,0.1l0,0.1c0.1,0.3,0.2,0.5,0.2,0.6c0.6,1.4,1.2,3,1.7,4.1 c0.2,0.4,1.5,3.6,1.7,4.1c0.4,0.9,1.4,3.3,1.7,4l1.7,4c0.5,1.1,1.4,3.3,1.7,4c0.2,0.5,1.7,3.9,1.7,4c0,0,1.5,3.6,1.7,4.1 c0.4,1.1,1.2,3,1.7,4.1c0.6,1.3,1.1,2.7,1.7,4c0.6,1.3,1.1,2.7,1.7,4c0.3,0.7,1.4,3.6,1.7,4.1c0.6,1.4,1.2,2.9,1.7,4 c0.6,1.3,1.1,2.7,1.7,4l1.7,4c0.2,0.6,1.4,3.3,1.7,4c0.3,0.7,1.4,3.5,1.7,4.1c0.4,1,1.4,3.6,1.7,4.1c-0.1-0.3-1.7-3.9-1.7-4 c0,0,1.4,3.6,1.7,4.1c0.4,1.1,1.1,2.8,1.7,4.1c0.5,1.1,1.2,2.9,1.7,4c0.4,1,1.3,3.3,1.7,4.1c0.5,1.2,1.3,3.1,1.7,4l1.7,4 c0.5,1.2,1.1,2.6,1.7,4c0.4,0.8,1.3,3.1,1.7,4c0.5,1.1,1.2,3,1.7,4.1c0.7,1.5,1.1,2.5,1.7,4c0.6,1.4,1.1,2.8,1.7,4.1l1.9,4 c0.5,1,1.6,3.5,1.9,4c-0.1-0.3-1.9-3.8-1.9-3.9c0,0.1,1.7,3.6,1.9,4c0.3,0.6,1.5,3.2,1.9,4l1.9,3.9c0.2,0.5,1.9,3.8,1.9,3.9 c0-0.1-1.8-3.9-1.9-4c0.3,0.5,1.6,3.2,1.9,3.9c0.6,1.3,1.3,2.7,1.9,4c0.7,1.3,1.3,2.6,1.9,3.9c0.4,0.9,1.5,3.2,1.9,4 c0.6,1.2,1.5,3,1.9,3.9c0.2,0.4,1.7,3.5,1.9,3.9c0.5,1.1,1.5,3.2,1.9,4c0.6,1.3,1.3,2.7,1.9,4c0.3,0.6,1.5,3.2,1.9,4 c0.3,0.6,1.7,3.4,1.9,3.9c0.2,0.5,1.9,3.8,1.9,3.9c0-0.1-1.7-3.6-1.9-4c0.5,1,1.4,2.8,1.9,3.9c0.1,0.3,0.4,0.9,0.7,1.5 c0-0.8,0.1-1.6,0.1-2.5c0.1-1.6,0.2-3,0.2-4.4c0.1-1.5,0.2-2.9,0.2-4.4c0.1-1.5,0.2-3,0.2-4.4c0-0.3,0.1-4.3,0.1-4.4 c0,0.1-0.2,3.8-0.2,4.4c0,0.9-0.2,4.2-0.2,4.4c0,0.3-0.2,4.3-0.2,4.4c0-0.1,0.1-3.8,0.1-4.4c0-1.4,0.1-3,0.1-4.4l0.5-8.9 c0-0.8,0.2-3.3,0.2-4.4c0.1-1.4,0.2-3,0.2-4.4c0.1-1.5,0.1-2.9,0.1-4.4c0-1.4,0.1-2.9,0.1-4.4c0.1-1.3,0.2-3.2,0.2-4.4 c0.1-1.5,0.1-2.9,0.1-4.4c0.1-1.2,0.2-3.3,0.2-4.4c0-1.1,0.1-3.3,0.1-4.4c0.1-1.1,0.2-3.6,0.2-4.4c0-0.5,0.2-3.8,0.2-4.4 c0-0.8,0.1-3.8,0.1-4.4c0.1-1.5,0.2-3.2,0.2-4.4c0-0.5,0.2-3.9,0.2-4.4c0-0.4,0.1-4.3,0.1-4.4c0,0.1-0.2,4.1-0.2,4.4 c0-0.6,0.1-3.3,0.1-4.4c0-1.1,0.1-3,0.1-4.4c0-0.7,0.2-3.6,0.2-4.4c0-1.5,0.1-2.9,0.1-4.4c0-0.3,0.2-4.3,0.2-4.4 c0,0.1-0.1,4.1-0.1,4.4c0-0.2,0.2-3.7,0.2-4.4c0.1-0.9,0.2-3.4,0.2-4.4c0-0.8,0.1-3.7,0.1-4.4c0-0.5,0.1-3.8,0.1-4.4 c0.1-1,0.2-3.6,0.2-4.4c0-0.4,0.2-4,0.2-4.4c0-1.1,0.1-3.5,0.1-4.4c0-1.5,0.1-2.9,0.1-4.4c0-1.2,0.1-2.8,0.1-4.4 c0-0.5,0.2-3.7,0.2-4.4c0-0.8,0.1-3.7,0.1-4.4c0.1-1.5,0.1-2.9,0.1-4.4c0.1-1.5,0.2-3,0.2-4.4c0-0.5,0.2-4.4,0.2-4.4 c0,0.1-0.1,4.2-0.1,4.4c0-0.8,0.2-3.4,0.2-4.4c0-1.2,0.1-3.1,0.1-4.4c0.1-1.4,0.2-3,0.2-4.4c0.1-1.6,0.2-2.8,0.2-4.4 c0-1.4,0.1-3,0.1-4.4c0.1-1.4,0.2-3,0.2-4.4c0-1.5,0.1-2.9,0.1-4.4c0.1-0.9,0.2-3.6,0.2-4.4c0-0.6,0-1.2,0.1-1.9l0-0.1l0.1-0.1 c0.5-0.8,1.1-1.6,1.4-2.1c0.8-1.2,1.7-2.4,2.5-3.6c0.8-1.2,1.6-2.4,2.5-3.6c0.4-0.6,2-2.8,2.5-3.6c0.8-1.1,1.8-2.5,2.6-3.6 c-0.2,0.2-2.5,3.6-2.5,3.6c0,0,2.2-3.1,2.6-3.6c0.6-0.8,1.8-2.5,2.6-3.6c0.5-0.8,1.9-2.7,2.5-3.6c0.5-0.6,2.2-3.1,2.6-3.6 c0.3-0.5,2.4-3.5,2.5-3.6c0,0-2.4,3.4-2.6,3.6c-0.6,0.8-2,2.8-2.5,3.6c-1,1.4-1.7,2.3-2.6,3.6c-0.6,0.8-2,2.7-2.6,3.6 c0.7-1,1.8-2.6,2.5-3.6c0.9-1.3,1.7-2.3,2.6-3.6c0.8-1.1,1.7-2.4,2.5-3.6c0.9-1.2,1.7-2.4,2.6-3.6c0.8-1.2,1.7-2.4,2.5-3.6 c0.8-1.2,1.7-2.4,2.6-3.6l0.2-0.3l0.3,0l0,0c1.5,0.1,2.9,0.1,4.4,0.2c1.5,0.1,3,0.2,4.4,0.3c1.5,0.1,3,0.2,4.4,0.3 c0.8,0,3.7,0.2,4.4,0.2c0.4,0,4,0.2,4.4,0.2c1.3,0.1,3.4,0.2,4.4,0.3c1.3,0.1,2.9,0.2,4.4,0.3c0.3,0,0.6,0,1,0.1l0.4,0l0,0.4 c0.1,1.1,0.3,2.6,0.4,3.4c0.1,0.4,0.5,4.2,0.5,4.3c0.1,0.6,0.5,4.4,0.5,4.4c0-0.1-0.5-4.1-0.5-4.3c0,0.4,0.4,3.8,0.5,4.4l1.1,8.7 l0.5,4.3c0.2,1.3,0.4,2.8,0.5,4.3c0.1,0.9,0.4,3.3,0.5,4.3c0.1,1.2,0.3,3.2,0.5,4.4c0.2,1.7,0.3,2.7,0.5,4.3 c0.2,1.5,0.3,2.9,0.5,4.4c0.1,0.5,0.5,4.3,0.5,4.4c0-0.2-0.5-4.2-0.5-4.3c0,0.1,0.4,4.3,0.5,4.4c0-0.1-0.5-4.2-0.5-4.3 c0,0.1,0.4,4.2,0.5,4.4l0.1,0.5l0,0.1l0,0.1l-1.6,8c-0.2,1.1-0.6,2.8-0.9,4.3c-0.1,0.6-0.8,3.5-1,4.3c-0.3,1.4-0.6,2.9-0.9,4.3 c-0.3,1.4-0.6,2.9-0.9,4.3c-0.2,0.7-0.8,3.8-1,4.3c-0.3,1.5-0.6,3.1-0.9,4.3l-0.9,4.3c-0.1,0.7-0.7,3.3-0.9,4.3 c-0.1,0.6-0.9,3.8-1,4.3c-0.1,0.5-0.8,3.8-1,4.3c-0.1,0.4-0.9,4.3-0.9,4.3c-0.2,0.9-0.7,3.3-1,4.3c-0.2,1.2-0.6,3.1-0.9,4.3 c-0.3,1.5-0.6,2.8-1,4.3c-0.3,1.3-0.6,2.9-0.9,4.3c-0.3,1.4-0.6,2.9-1,4.3c-0.3,1.4-0.6,2.9-1,4.3c-0.2,0.8-0.7,3.6-0.9,4.3 c-0.1,0.5-0.7,3.7-0.9,4.3c-0.2,1-0.8,3.6-1,4.3c-0.1,0.3-0.9,4.1-1,4.3c-0.1,0.5-0.8,4.2-0.9,4.3c0-0.1,0.9-4.1,1-4.3 c-0.1,0.3-0.7,3.5-0.9,4.3c-0.2,1.1-0.6,3-0.9,4.3c-0.1,0.7-0.3,1.7-0.5,2.8c0,0.5,0,1-0.1,1.4c0,0.3-0.3,4.1-0.3,4.4 c-0.1,1.1-0.2,3-0.3,4.4c0,0.8-0.1,3.4-0.2,4.4c-0.1,1.4-0.2,3-0.3,4.4c0-0.8,0.2-3.7,0.2-4.4c0.1-1.5,0.1-2.8,0.2-4.4 c-0.2,2.9-0.4,5.9-0.6,8.9c-0.1,1.4-0.1,2.9-0.2,4.4c-0.1,0.9-0.2,3.6-0.3,4.4c0,0.8-0.1,1.7-0.1,2.5c0.3,0.6,0.5,1.1,0.7,1.5 c0.5,1,1.2,2.7,1.8,4c0.5,1.1,1.3,2.8,1.8,4c0.1,0.2,0.2,0.4,0.2,0.5c0.5-0.6,0.9-1.1,1.3-1.5c1-1.3,1.7-2.1,2.7-3.4 c0.4-0.5,2.5-3,2.9-3.4c0.9-1.1,1.9-2.3,2.9-3.4c0.3-0.4,2.4-2.9,2.9-3.4c0.6-0.7,2.3-2.9,2.7-3.4l2.7-3.4c0.1-0.1,0.2-0.2,0.3-0.4 c0.5-0.8,1.3-2.4,1.8-3.3c0.5-0.9,1.7-2.9,2.2-3.8c0.4-0.8,1.7-3.1,2.1-3.8c0.7-1.2,1.7-2.9,2.2-3.8c0.4-0.7,1.7-3,2.2-3.8 c0.6-1.1,1.5-2.7,2.1-3.8c0.6-1.1,1.6-2.8,2.2-3.8c0.3-0.5,1.9-3.5,2.1-3.8c0.3-0.5,2.2-3.8,2.2-3.8c0,0.1-2,3.6-2.1,3.8 c0-0.1,2-3.5,2.2-3.8c0.3-0.6,1.8-3.3,2.1-3.8c0.3-0.6,1.7-3.1,2.1-3.8c0.2-0.4,2.1-3.6,2.2-3.8c0.3-0.5,2.1-3.8,2.1-3.8 c0,0-2.1,3.6-2.2,3.8c0.7-1.3,1.4-2.5,2.1-3.8c0.4-0.7,1.9-3.3,2.2-3.8c0.6-1,1.9-3.3,2.2-3.8c-0.2,0.3-2.1,3.8-2.1,3.8 c0,0,2.1-3.6,2.2-3.8c0.4-0.8,1.8-3.2,2.1-3.8c0.2-0.5,2.1-3.8,2.1-3.8l-2.2,3.8c0.4-0.7,1.6-3,2.1-3.8c0.6-1.1,1.6-2.8,2.2-3.8 c0.7-1.3,1.4-2.5,2.1-3.8c0.7-1.3,1.5-2.6,2.2-3.8c0.6-1.1,1.5-2.8,2.1-3.8c0.4-0.7,1.9-3.3,2.2-3.8c0.7-1.2,1.6-2.9,2.1-3.8 c0.7-1.3,1.4-2.6,2.1-3.8c0.3-0.6,1.6-3,2.1-3.8c0.7-1.1,1.5-2.7,2.2-3.8c0.3-0.6,1.9-3.5,2.1-3.8c0.3-0.5,2.2-3.8,2.2-3.8l-2.1,3.8 c0.5-0.9,1.6-2.9,2.2-3.8c0.6-1.1,1.5-2.8,2.1-3.8c0.8-1.5,1.4-2.4,2.2-3.8c0.6-1,1.5-2.8,2.1-3.8c0.4-0.7,1.9-3.3,2.2-3.8 c0.3-0.5,1.9-3.3,2.2-3.8c0.5-0.9,1.7-3.2,2.1-3.8l2.1-3.8c0.3-0.5,1.7-3.2,2.1-3.8c0.7-1.3,1.5-2.6,2.2-3.8 c0.5-0.8,1.1-2.1,1.7-3.1l0.1-0.3l0.3-0.1c0.3-0.1,0.6-0.1,0.9-0.2c1.4-0.2,3.2-0.5,4.4-0.7c1.6-0.3,3-0.5,4.4-0.7 c0.6-0.1,3.7-0.6,4.4-0.7c0.8-0.1,3.7-0.7,4.3-0.8c1.4-0.3,2.9-0.5,4.3-0.8c0.5-0.1,3.6-0.7,4.3-0.8c0.9-0.1,3.7-0.6,4.4-0.7 c0.4-0.1,4-0.7,4.4-0.7c1.3-0.2,3.3-0.6,4.3-0.8l2.7-0.5l0.5-0.1l0.2,0.5l0.6,1.5c0.2,0.6,1.3,3.3,1.6,4.1c0.2,0.7,1.3,3.6,1.5,4.2 c0.2,0.5,1.3,3.6,1.5,4.2c0.5,1.4,1,2.7,1.6,4.1c0.5,1.4,1,2.8,1.5,4.2c0.4,1,1.2,3.2,1.6,4.1c0.4,1.2,1.2,3.3,1.5,4.2 c0.2,0.5,1.3,3.6,1.5,4.2c0.1,0.4,0.6,1.6,1,2.6L420.8,68.2z M101.9,350.8l-1.9-0.6c0.4,0.1,0.7,0.2,1,0.3 C101,350.6,101.4,350.7,101.9,350.8z M173.1,397l-6.6-6c0.1,0.1,0.2,0.2,0.3,0.3c0.3,0.2,3.1,2.9,3.2,3c0.4,0.3,3.2,2.9,3.3,2.9 C173.3,397.2,173.2,397.1,173.1,397z M290.2,246.8C290.2,246.8,290.2,246.7,290.2,246.8C290.2,246.7,290.2,246.8,290.2,246.8 L290.2,246.8z M187.2,410C187.2,410,187.2,410,187.2,410C187.2,410,187.3,410,187.2,410L187.2,410z M144.7,85.8 c-0.6-1.4-1.1-2.6-1.7-4C143.1,82,144.7,85.8,144.7,85.8c0,0.1,1.5,3.8,1.7,4.1C146.2,89.5,144.9,86.3,144.7,85.8z M69.6,162.5 c0,0-1.8-3.4-2.1-3.9c-0.1-0.2-2-3.4-2.2-3.8c0.3,0.5,1.9,3.5,2.1,3.9C67.7,159.2,69.6,162.5,69.6,162.5z M6.5,134.5 c0.2,0.4,1.7,3.8,1.8,4c-0.1-0.3-1.7-4-1.7-4.1c-0.2-0.4-1.7-3.8-1.8-4C4.8,130.4,6.4,134.2,6.5,134.5z M30.3,301.1 c1.1,1,2.2,1.9,3.3,2.9c-0.1-0.1-3.2-3-3.3-3c-0.2-0.2-3.2-2.8-3.3-2.9C27.1,298.1,30.1,300.9,30.3,301.1z M225.9,401.9 c0.1-0.1,2.2-3.7,2.3-3.8c-0.1,0.1-2.1,3.7-2.1,3.8c0.1-0.1,2.1-3.5,2.2-3.8c1.4-2.5,2.9-5.1,4.3-7.7c-1.5,2.6-3,5.1-4.5,7.7 C227.9,398.4,226,401.8,225.9,401.9z M259.6,192.2c0,0.3-0.1,1.5-0.1,2.6c0,0,0,0,0-0.1l0,0.1c0,0,0,0,0,0c0,0,0,0,0,0l0,0.2 c0,0,0-0.1,0-0.1c0.3,0.7,0.5,1.2,0.5,1.2c0,0-0.2-0.5-0.5-1.3C259.6,193.7,259.7,192.3,259.6,192.2c0.1-0.8,0.3-3.9,0.3-4.4 c0.1-1.5,0.1-2.9,0.2-4.4c0,0.6-0.3,4.1-0.3,4.4C259.7,189.3,259.6,190.9,259.6,192.2z M259.4,195c0-0.1,0-0.1,0-0.2 c0,0,0-0.1-0.1-0.1L259.4,195z M272.6,109.9c0.3-1.5,0.6-2.8,0.9-4.3c0,0.2-1,4.3-1,4.3l-0.9,4.3 C271.6,114.2,272.5,110.2,272.6,109.9z" fill="#e8cace" opacity=".74"/></g></svg>