<svg width="41" height="41" viewBox="0 0 41 41" fill="none" xmlns="http://www.w3.org/2000/svg">
<path d="M14.3845 8.23651C14.3845 4.85169 17.1502 2.10486 20.5937 2.10486C24.0372 2.10486 26.8025 4.84972 26.8025 8.23651C26.8025 11.682 23.9805 14.3682 20.5937 14.3682C17.1502 14.3682 14.3845 11.6233 14.3845 8.23651Z" fill="white"/>
<path d="M21.0467 32.3329C21.0467 34.7275 19.1847 36.9461 15.5723 37.9974V38.4646C21.8937 36.8292 26.8045 30.6393 26.8045 24.8001C26.8045 20.8292 24.0391 18.0844 20.5957 18.0844C17.1522 18.0844 14.3865 20.8292 14.3865 24.8001C18.8454 26.7853 21.0467 29.6467 21.0467 32.3329Z" fill="white"/>
</svg>
