<svg width="78" height="56" fill="none" xmlns="http://www.w3.org/2000/svg" class="css-5hz1ob"><path d="M55.947 15.125V7.313a6.821 6.821 0 00-2.013-4.836A6.893 6.893 0 0049.073.474h-20.23a6.892 6.892 0 00-4.85 2.01 6.821 6.821 0 00-2.007 4.829v7.823a6.822 6.822 0 01-2.023 4.82 6.893 6.893 0 01-4.852 1.994h-7.85c-1.822 0-3.571.72-4.86 2.003A6.821 6.821 0 00.387 28.79v20.126c0 1.814.725 3.554 2.014 4.836a6.893 6.893 0 004.86 2.004h63.436c1.824 0 3.572-.721 4.861-2.004a6.822 6.822 0 002.014-4.836V28.79a6.821 6.821 0 00-2.014-4.836 6.893 6.893 0 00-4.86-2.003h-7.876a6.893 6.893 0 01-4.856-1.998 6.822 6.822 0 01-2.019-4.827z" fill="#AC7FF4"></path><path d="M29.01 27.593a.562.562 0 01-.205-.042.454.454 0 01-.143-.091.37.37 0 01-.09-.13.322.322 0 01.028-.295l2.034-3.402a.426.426 0 01.167-.152.534.534 0 01.476-.01.428.428 0 01.173.147l2.264 3.403a.33.33 0 01.03.288.41.41 0 01-.218.226.545.545 0 01-.344.035.463.463 0 01-.277-.175l-1.836-2.762-1.642 2.747a.432.432 0 01-.173.155.542.542 0 01-.244.058zM43.707 27.593a.794.794 0 01-.246-.042.574.574 0 01-.172-.091.382.382 0 01-.108-.13.277.277 0 01.03-.295l2.446-3.402a.49.49 0 01.2-.152.747.747 0 01.284-.06c.098 0 .195.018.28.053a.508.508 0 01.203.144l2.714 3.403a.309.309 0 01.068.142.27.27 0 01-.016.15.359.359 0 01-.099.133.545.545 0 01-.165.096.774.774 0 01-.42.035.567.567 0 01-.335-.182l-2.205-2.763-1.976 2.748a.489.489 0 01-.2.153.747.747 0 01-.283.06zM38.98 33.85c-1.727 0-3.13-1.872-3.13-4.177 0-2.306 1.406-4.167 3.13-4.167s3.13 1.877 3.13 4.178c0 2.302-1.403 4.167-3.13 4.167zm0-7.325c-1.25 0-2.27 1.413-2.27 3.148s1.02 3.147 2.27 3.147 2.27-1.412 2.27-3.147c0-1.735-1.033-3.148-2.27-3.148z" fill="#000"></path></svg>