<svg xmlns="http://www.w3.org/2000/svg" width="208" height="249" fill="none" xmlns:v="https://vecta.io/nano"><style><![CDATA[.B{fill-opacity:.5}.C{fill:#34494a}.D{fill:#6c9497}]]></style><g fill-rule="evenodd"><path d="M21.905 47.541l-8.367 4.112 2.975 4.859s-33.097 48.97-2.603 118.875l3.625-10.935s7.903 36.634 34.119 61.494c0 0-.558-16.635 2.975-30.28 0 0 8.927 32.709 27.705 45.607 0 0 1.487-10.841 4.277-16.636 0 0 9.769 20 17.529 23.364 7.758-3.364 17.528-23.364 17.528-23.364 2.789 5.795 4.277 16.636 4.277 16.636 18.778-12.898 27.705-45.607 27.705-45.607 3.532 13.645 2.974 30.28 2.974 30.28 26.217-24.859 34.119-61.494 34.119-61.494l3.626 10.935c30.493-69.905-2.603-118.875-2.603-118.875l2.975-4.859-8.367-4.112c-6.666-10.367-16.169-20.147-26.031-28.036-1.508-1.206-2.156-2.046-3.719-3.178C147.823 9.961 138.104 4.917 128.363 1c-14.875 4.486-24.222 15.327-24.222 15.327S94.793 5.486 79.919 1c-9.777 3.931-19.443 8.939-28.262 15.327-1.377.997-2.384 2.121-3.719 3.178-10.068 7.969-19.233 18.866-26.032 28.036z" stroke="#1d1f22" class="C"/><g class="D B"><path d="M54.395 168.834c1.233 2.296 5.882 11.144 7.008 16.157 0 0-.558-8.691.279-10.841 0 0 7.624 23.738 13.759 30.934-.238-3.038-.508-5.533.246-9.559a26.11 26.11 0 0 0 4.834 5.981s-6.508-26.167-9.483-33.831c0 0-.558 18.505 1.302 26.541 0 0-11.714-24.111-10.785-45.419 0 0-2.417 12.523-2.045 19.626l-6.136-14.579-3.347-3.738a659.17 659.17 0 0 0 4.367 18.728m99.207 0c-1.233 2.296-5.882 11.144-7.008 16.157 0 0 .558-8.691-.279-10.841 0 0-7.624 23.738-13.759 30.934.625-4.552.802-6.258-.247-9.559 0 0-2.788 2.43-4.833 5.981 0 0 6.507-26.167 9.483-33.831 0 0 .558 18.505-1.302 26.541 0 0 11.714-24.111 10.785-45.419 0 0 2.417 12.523 2.045 19.626l6.136-14.579 3.347-3.738s-1.769 8.263-4.367 18.728m-57.57 36.614c-1.884-1.106-10.627-9.988-10.627-9.988 5.324 9.107 12.179 15.161 12.179 15.161.465-2.897.465-10.28.465-10.28 4.277 2.523 9.298 14.579 9.298 14.579-1.767-7.009 3.439-15.981 3.439-15.981-1.208 5.513 1.209 14.298 1.209 14.298 2.231-8.504 10.134-16.635 10.134-16.635-.651 2.617-.744 7.289-.744 7.289 6.137-6.448 12.737-28.317 12.737-28.317-2.138 6.916-8.274 13.738-8.274 13.738 1.394-2.43 3.811-11.963 3.811-11.963-2.907 8.333-9.001 15.665-11.518 18.464 3.112-3.05 8.758-5.506 8.758-5.506-.364 2.697-3.161 6.916-3.161 6.916 0-1.495.744-3.551.744-3.551-5.676 2.635-11.249 11.682-11.249 11.682-1.69-.967-1.673-8.692-1.673-8.692-3.997 2.523-6.042 10.748-6.042 10.748-2.046-5.047-9.669-10.56-9.669-10.56.929 3.55.186 8.597.186 8.597"/><path d="M85.256 195.202c-.643-1.787-.52-4.706-.52-4.706.858 1.724 4.587 4.484 6.481 5.811-6.415-5.041-12.645-20.826-12.645-20.826l.79 4.299 1.116 4.206c1.094 4.05 2.827 7.839 4.778 11.217M38.855 166.57s1.951 15.98.464 24.205c0 0-5.819-5.43-7.43-9.365 3.929 9.793 8.498 19.393 12.654 23.648l-1.301-32.522-4.09-16.822 9.669 18.505s-4.462-23.925-12.272-34.392c0 0-2.818-5.135-2.626-9.718-.161 2.857-1.004 21.341 3.565 31.217-1.82-3.787-9.864-21.236-9.864-33.835 0 0-4.277 13.645-5.95 22.242l-.093 1.963 4.911-8.115s8.367 21.12 10.227 31.774c0 0 1.674-5.701 2.138-8.784m130.284-.001s-1.953 15.98-.465 24.205c0 0 5.819-5.43 7.43-9.365-3.929 9.793-8.498 19.393-12.653 23.648l1.301-32.522 4.09-16.822-9.668 18.505s4.462-23.925 12.272-34.392c0 0 2.818-5.135 2.625-9.718.161 2.857 1.006 21.341-3.564 31.217 1.819-3.787 9.864-21.236 9.864-33.835 0 0 4.277 13.645 5.949 22.242l.093 1.963-4.911-8.115s-8.367 21.12-10.226 31.774c0 0-1.674-5.701-2.138-8.784m20.415-51.122s.092-7.85-.651-10.093c0 0 1.58 4.486 2.231 7.757 0 0 3.552-11.825 2.975-21.588 0 0 3.004 8.698 3.478 12.768-1.674-15.875-5.129-26.24-5.129-26.24l-.744-1.496-1.581-2.897c2.603 8.224 1.209 33.55 1.209 33.55-.22-8.878-6.694-22.055-6.694-22.055 2.418 13.831 1.116 31.214 1.116 31.214 3.719 8.971 8.924 37.755 8.924 37.755 1.369-5.717 2.306-11.341 2.905-16.782 0 0-2.044 5.777-3.113 7.917 0 0 1.023-16.915-4.927-29.812m-28.333-47.301c2.418 7.103 1.116 19.439 1.116 19.439 9.483 25.419 3.905 51.4 3.905 51.4 9.854-17.383 4.277-49.158 4.277-49.158 5.206 4.299 7.809 13.645 7.809 13.645.27-8.205-.433-15.458-1.739-21.817.766 4.235-.423 11.645-.423 11.645-2.177-3.831-8.088-9.813-8.088-9.813 1.116 7.009.185 15.795.185 15.795-.278-4.766-2.51-11.775-2.51-11.775 1.576-5.633-2.417-22.616-2.417-22.616l-5.206.374c-9.298-28.597-46.648-31.043-46.648-31.043 26.032 2.242 40.163 22.99 40.163 22.99-2.696-2.803-7.345-5.513-7.345-5.513 6.136 6.916 11.528 17.383 11.528 17.383 2.232-.561 5.393-.935 5.393-.935zM18.44 115.449s-.093-7.85.651-10.093c0 0-1.58 4.486-2.232 7.757 0 0-3.553-11.825-2.975-21.588 0 0-3.004 8.698-3.478 12.768 1.674-15.875 5.129-26.24 5.129-26.24l.744-1.496 1.58-2.897c-2.603 8.224-1.209 33.55-1.209 33.55.22-8.878 6.693-22.055 6.693-22.055-2.417 13.831-1.116 31.214-1.116 31.214-3.719 8.971-8.925 37.755-8.925 37.755-1.369-5.717-2.306-11.341-2.905-16.782 0 0 2.044 5.777 3.113 7.917 0 0-1.023-16.915 4.927-29.812m28.337-47.301c-2.417 7.103-1.116 19.439-1.116 19.439-9.483 25.419-3.905 51.4-3.905 51.4-9.854-17.383-4.277-49.158-4.277-49.158-5.206 4.299-7.809 13.645-7.809 13.645-.271-8.205.433-15.458 1.738-21.817-.764 4.235.423 11.645.423 11.645 2.177-3.831 8.089-9.813 8.089-9.813-1.116 7.009-.186 15.795-.186 15.795.279-4.766 2.51-11.775 2.51-11.775-1.576-5.633 2.417-22.616 2.417-22.616l5.206.374c9.297-28.597 46.647-31.043 46.647-31.043-26.032 2.242-40.162 22.99-40.162 22.99 2.696-2.803 7.345-5.513 7.345-5.513-6.136 6.916-11.528 17.383-11.528 17.383-2.231-.561-5.392-.935-5.392-.935m7.604-39.049c3.719-2.71 19.152-9.999 19.152-9.999C64.046 23.959 43.687 40.5 43.687 40.5l-12.112 4.985 13.946-3.364c19.895-19.252 39.047-26.167 39.047-26.167 8.925 4.673 16.548 13.831 16.548 13.831C94.051 10.907 79.92 6.795 79.92 6.795c2.02 2.462 3.744 5.949 3.744 5.949-14.782 2.337-29.285 16.354-29.285 16.354"/><path d="M153.903 29.098c-3.719-2.71-19.152-9.999-19.152-9.999 9.483 4.86 29.843 21.401 29.843 21.401l12.111 4.985-13.945-3.364c-19.896-19.252-39.047-26.167-39.047-26.167-8.925 4.673-16.549 13.831-16.549 13.831 7.066-18.878 21.197-22.989 21.197-22.989-2.02 2.462-3.744 5.949-3.744 5.949 14.782 2.337 29.285 16.354 29.285 16.354"/></g><path d="M31.574 45.485s16.201-20.965 28.473-27.04c0 0-7.995 3.738-10.598 4.393 0 0 19.289-12.741 30.47-16.043-7.809 1.122-28.262 9.533-28.262 9.533-1.377.997-2.384 2.121-3.719 3.178-6.88 8.598-16.363 25.98-16.363 25.98zm145.131 0s-16.201-20.965-28.473-27.04c0 0 7.995 3.738 10.598 4.393 0 0-19.288-12.741-30.469-16.043 7.81 1.122 28.263 9.533 28.263 9.533 1.376.997 2.383 2.121 3.719 3.178 6.88 8.598 16.362 25.98 16.362 25.98zm-54.443 57.027c6.334-10.417 21.329.142 27.659-16.308-2.318 14.429-16.522 10.165-27.659 16.308zm-5.299-2.337c-1.837-9.232 4.746-20.123 12.272-24.952 0 0-3.44 5.794-4.09 9.533 10.706-10.28 19.525-3.833 25.101-7.57 0 0-.047 10.607-12.597 14.439 0 0 5.795-4.107 7.337-9.647 0 0-11.196-.68-18.633 6.891 0 0 3.611 3.724 7.764 3.878-9.923 2.419-11.247-3.635-17.154 7.429zM58.608 86.204c6.329 16.45 21.325 5.891 27.659 16.308-11.135-6.143-25.34-1.879-27.659-16.308zm-6.253-10.719s2.231 24.018 15.99 31.774c0 0-11.435-2.055-15.34-5.981 0 0 7.066 13.552 12.644 16.448 0 0 2.789-3.832 6.229-4.486l12.179.468s-9.669 4.486-10.784 6.916c0 0-10.134 19.252.465 30.654 0 0 2.232 3.177 14.689-.187l15.713-4.299s2.788-1.495 1.952-4.112c0 0-11.621-5.14-15.712-14.859 0 0-1.023 7.57-.186 10.466 0 0-7.717-12.43-.094-31.308 0 0 .186 11.402 2.975 14.392 0 0 10.971 9.159 18.036 8.972 0 0 12.644-5.608 12.644-16.635v-10.467s8.182 9.906 4.09 28.224l-1.487-5.608-9.296 15.14s-1.116 2.99 2.789 2.99c0 0 19.337 4.673 20.081-14.391 0 0 .65-11.215-8.926-14.019 0 0 8.46-2.991 11.714 2.523 0 0 11.621-8.224 13.016-16.822-3.905 3.926-15.34 5.981-15.34 5.981 13.759-7.756 15.989-31.774 15.989-31.774-6.972-1.963-15.154-3.551-15.154-3.551l8.646-2.149c-3.719-11.121-15.619-21.027-15.619-21.027 3.069 5.047 3.812 13.177 3.812 13.177-11.156-16.261-28.262-17.569-28.262-17.569l-5.367 8.878-5.508-8.878S81.826 45.674 70.67 61.935c0 0 .744-8.131 3.812-13.177 0 0-11.899 9.906-15.618 21.027l8.646 2.149s-8.181 1.588-15.154 3.551h-.001zm26.938-.262c7.527 4.829 14.109 15.72 12.272 24.953-5.906-11.065-7.231-5.01-17.153-7.429 4.152-.155 7.763-3.878 7.763-3.878-7.438-7.57-18.633-6.891-18.633-6.891 1.541 5.54 7.337 9.647 7.337 9.647-12.55-3.832-12.597-14.439-12.597-14.439 5.576 3.737 14.395-2.711 25.101 7.57-.651-3.738-4.09-9.533-4.09-9.533h-.001zm37.118 116.053l-23.707.186-.371 5.608c-.371-.215-.743-.471-1.114-.762-1.895-1.328-5.623-4.088-6.481-5.812 0 0-.123 2.919.52 4.707l.15.257s8.742 8.882 10.627 9.988c0 0 .744-5.046-.186-8.597 0 0 7.623 5.514 9.669 10.56 0 0 2.045-8.224 6.042-10.748 0 0-.016 7.725 1.673 8.692 0 0 5.573-9.046 11.249-11.682 0 0-.744 2.056-.744 3.551 0 0 2.797-4.219 3.161-6.916 0 0-5.646 2.456-8.758 5.507-.701.779-1.125 1.208-1.125 1.208l-.603-5.747h-.001z" class="C"/><g class="D B"><path d="M58.609 86.204c4.961 12.893 15.246 9.195 22.511 12.008 2.885-5.935 10.447 1.963 10.447 1.963-5.906-11.065-7.231-5.01-17.153-7.429 4.152-.155 7.763-3.878 7.763-3.878-7.438-7.57-18.633-6.89-18.633-6.89 1.541 5.54 7.337 9.647 7.337 9.647-12.55-3.832-12.597-14.439-12.597-14.439 1.664 1.115 3.615 1.323 5.821 1.34-7.064-2.818-1.522-5.559-1.522-5.559-2.922.643-6.726 1.534-10.226 2.519 0 0 2.231 24.018 15.99 31.775-6.17-9.41 5.128-8.751 5.128-8.751-7.186-1.532-13.399-3.184-14.865-12.305m4.935-17.945s2.068-6.275 5.392-10.28c0 0-1.394 4.299.186 9.345 0 0 6.257-13.587 29.81-22.961 0 0-17.107 1.308-28.263 17.569 0 0 .744-8.131 3.812-13.177 0 0-11.9 9.906-15.618 21.027l8.646 2.149-3.965-3.674.001.001zm8.203 45.007c-10.385 2.035-18.742-11.989-18.742-11.989s7.066 13.551 12.644 16.448c0 0 2.719-3.735 6.098-4.459zm12.31.441s-9.669 4.486-10.785 6.916c0 0-10.134 19.252.465 30.654 0 0 2.232 3.177 14.689-.187l15.713-4.299s2.788-1.495 1.951-4.112c0 0-11.621-5.14-15.711-14.859 1.36 10.962 10.912 16.512 10.912 16.512-32.725 13.458-27.519-9.719-27.519-9.719 1.487 5.42 6.693 9.719 6.693 9.719-8.422-10.725 3.719-27.102 3.719-27.102-.93 9.906 6.008 21.056 6.008 21.056s-7.717-12.43-.094-31.308c-3.565 5.824-15.609 6.361-15.608 6.361l9.566.368h-.001zm42.304-15.032c7.289-3.681 18.354 1.054 23.558-12.472-1.086 6.761-4.782 9.418-9.549 10.965 8.404 1.621.024 10.091.024 10.091 5.71-3.219 9.435-9.238 11.838-15.178l2.314-6.987c1.45-5.433 1.838-9.609 1.838-9.609-6.973-1.963-15.154-3.551-15.154-3.551 7.777 3.862 4.394 6.559 4.394 6.559 1.719-.091 3.266-.398 4.621-1.306 0 0-.047 10.607-12.597 14.439 0 0 5.795-4.107 7.337-9.647 0 0-11.196-.68-18.633 6.89 0 0 3.611 3.724 7.763 3.878-9.922 2.419-11.246-3.635-17.153 7.429 7.123-6.68 9.398-1.499 9.398-1.499m-2.607 4.563s8.182 9.906 4.09 28.224l-1.487-5.608-9.296 15.139s-1.116 2.991 2.788 2.991c0 0 19.338 4.673 20.081-14.392 0 0 .651-11.214-8.925-14.018 0 0 8.46-2.991 11.714 2.523 0 0 11.621-8.224 13.015-16.822-1.519 6.385-12.891 14.829-12.891 14.829-2.881-4.299-11.528-4.486-11.528-4.486-2.88-5.4-7.562-8.38-7.562-8.38m4.09 28.224s3.408-7.165 3.284-11.526c0 0 9.391 8.878 2.138 17.663 0 0 3.626-2.056 3.998-4.205 0 0 0 10.84-16.177 8.036l4.556-11.588 2.2 1.62h.001z"/><path d="M139.962 58.632c3.147 3.485 5.392 10.094 5.392 10.094l-4.123 3.208 8.646-2.149c-3.719-11.121-15.619-21.027-15.619-21.027 3.068 5.047 3.812 13.177 3.812 13.177-11.156-16.261-28.262-17.569-28.262-17.569 25.721 10.965 29.224 22.867 29.224 22.867 2.417-2.991.929-8.598.929-8.598"/></g><path d="M129.236 75.223s-3.439 5.794-4.09 9.533c10.706-10.28 19.525-3.833 25.101-7.57 0 0-.047 10.607-12.597 14.439 0 0 5.796-4.107 7.337-9.647 0 0-11.195-.68-18.632 6.89 0 0 3.61 3.724 7.763 3.878-9.923 2.419-11.247-3.635-17.154 7.429-1.837-9.232 4.746-20.123 12.272-24.953zm20.684 10.981c-2.317 14.429-16.522 10.165-27.658 16.308 6.333-10.417 21.328.142 27.658-16.308zM79.294 75.223s3.44 5.794 4.09 9.533c-10.706-10.28-19.525-3.833-25.101-7.57 0 0 .047 10.607 12.597 14.439 0 0-5.795-4.107-7.337-9.647 0 0 11.195-.68 18.633 6.89 0 0-3.611 3.724-7.763 3.878 9.922 2.419 11.247-3.635 17.153 7.429 1.837-9.232-4.746-20.123-12.272-24.953M58.609 86.204c2.318 14.429 16.523 10.165 27.659 16.308-6.334-10.417-21.329.142-27.659-16.308z" fill="#1d1f22"/><path d="M93.676 154.217l-4.788.841-1.162.093s1.301 6.261 3.439 9.906c0 0 1.023-8.084 2.51-10.841m1.302 4.908s-1.673 7.102.186 11.588l5.857-.28c-4.063-3.388-4.346-6.872-6.043-11.308zm20.894 8.06l-13.248-.234-2.836-.046s1.069 2.851 2.556 3.551l11.9-.841s1.301-.607 1.627-2.43m3.838-8.995c-.373 5.046-4.276 11.775-4.276 11.775l1.672-.187 3.905-.28c.465-4.111-1.301-11.308-1.301-11.308zm2.603-9.345s1.673 8.131 1.394 12.149c0 0 5.392-6.728 5.206-13.084l-5.206.935h-1.394zM63.544 81.977c1.541 5.54 7.337 9.647 7.337 9.647-8.646-2.639-11.358-8.494-12.208-11.882 0 0 .625 16.08 22.566 14.96 0 0 4.98-.749 7.788 1.368-4.011-5.237-6.28-1.292-14.612-3.324 4.152-.155 7.763-3.878 7.763-3.878-7.438-7.57-18.633-6.89-18.633-6.89m81.441-.001c-1.541 5.54-7.337 9.647-7.337 9.647 8.646-2.639 11.358-8.494 12.208-11.882 0 0-.625 16.08-22.565 14.96 0 0-4.981-.749-7.788 1.368 4.011-5.237 6.28-1.292 14.613-3.324-4.153-.155-7.763-3.878-7.763-3.878 7.437-7.57 18.632-6.89 18.632-6.89z" class="C"/><path d="M123.755 103.241c0 .882-5.691 16.184-11.148 17.716-9.018 2.532-21.684-5.779-22.507-13.978 0 0 .186 11.402 2.975 14.392 0 0 10.97 9.158 18.036 8.972 0 0 12.644-5.608 12.644-16.635v-10.467z" class="B D"/><g class="C"><path d="M111.08 128.346c-7.81-.374-16.735-8.131-16.735-8.131-2.231-1.402-4.246-13.236-4.246-13.236s.186 11.402 2.975 14.392c0 0 10.97 9.159 18.036 8.972 0 0 12.644-5.608 12.644-16.635v-.97c0 9.497-12.674 15.607-12.674 15.607m-30.077 24.183c-16.41-4.694-7.729-31.904-7.729-31.904s-10.134 19.252.465 30.653c0 0 1.273 1.814 7.265 1.251m58.916-24.171c-.351 15.526-16.053 16.119-16.053 16.119 5.708.214 15.538-1.394 16.064-14.88 0 0 .028-.469-.012-1.239m-49.528 16.249l-2.882-4.631c-2.156-3.465-4.106-7.955-5.308-12.326 0 0-2.269 6.722.66 10.928 0 0-1.084-.686-2.13-2.032.241 5.266 2.81 9.63 9.661 8.061m34.699-5.391l2.207-3.548c1.652-2.654 3.146-6.095 4.066-9.443 0 0 1.738 5.15-.505 8.372 0 0 .829-.525 1.632-1.557-.185 4.034-2.153 7.377-7.401 6.176m-41.705-54.46c-.651-3.739-4.09-9.533-4.09-9.533 6.832 4.384 12.885 13.761 12.572 22.36.37-5.787-.453-19.751-15.792-26.109 0 0 3.068 4.673 4.09 8.598 0 0-5.134-3.747-16.06-1.547 5.186.039 11.769-.984 19.281 6.229m41.783.002c.651-3.739 4.091-9.533 4.091-9.533-6.832 4.384-12.886 13.761-12.571 22.36-.37-5.787.453-19.751 15.792-26.109 0 0-3.068 4.673-4.09 8.598 0 0 5.134-3.747 16.06-1.547-5.186.039-11.768-.984-19.281 6.229m-80.441-21.84C62.936 36.688 87.044 29.98 87.044 29.98l9.468 4.241-5.392-6.168-2.51-3.084s-25.288 6.728-43.88 37.943"/><path d="M44.728 62.913s1.488-9.719 7.438-18.317c0 0-15.355 10.992-20.727 36.897.726-3.201 5.866-10.018 5.866-10.018-1.023 5.608-.372 8.785-.372 8.785 1.313-7.929 6.415-22.43 6.415-22.43-.651 2.242 1.381 5.083 1.381 5.083m-34.328 74.43s.1-10.394 3.01-18.3c0 0-2.045 1.029-2.417 2.43 0 0 .29-22.244 2.892-29.947 0 0-3.004 8.698-3.478 12.768-.993 9.416-1.359 20.77-.007 33.05m15.139 11.838l-3.961 2.514.465 1.588s4.28 14.257 9.845 28.127c1.107 2.699 4.18 6.091 6.009 7.963-2.703-3.266-7.988-20.752-7.988-20.752 2.51 3.364 5.299 9.906 5.299 9.906-2.194-10.332-9.669-29.345-9.669-29.345m137.726-86.27s-1.487-9.719-7.438-18.317c0 0 15.355 10.992 20.727 36.897-.726-3.201-5.865-10.018-5.865-10.018 1.023 5.608.373 8.785.373 8.785-1.314-7.929-6.415-22.43-6.415-22.43.65 2.242-1.381 5.083-1.381 5.083m34.328 74.43s-.1-10.394-3.01-18.3c0 0 2.045 1.029 2.418 2.43 0 0-.291-22.244-2.893-29.947 0 0 3.004 8.698 3.478 12.768.993 9.416 1.359 20.77.007 33.05m-15.14 11.838l3.962 2.514-.465 1.588s-4.28 14.257-9.845 28.127c-1.107 2.699-4.181 6.091-6.009 7.963 2.702-3.266 7.988-20.752 7.988-20.752-2.511 3.364-5.299 9.906-5.299 9.906 2.193-10.332 9.668-29.345 9.668-29.345"/></g><path d="M36.271 55.023L23.02 52.027l10.598 7.757 2.653-4.761zm134.698-1.233l3.408 5.994 10.598-7.757-14.006 1.764v-.001zM91.234 154.646c-1.027 5.902-.068 10.411-.068 10.411s1.023-8.084 2.51-10.841l-2.442.43zm3.743 4.478s.798 7.28 2.665 11.469l3.378-.162c-4.063-3.388-4.346-6.872-6.042-11.308m24.73-.934c-.373 5.046-4.276 11.775-4.276 11.775l1.672-.187 1.953-.14s1.502-7.088.784-10.875l-.133-.573zm2.603-9.345s1.673 8.131 1.394 12.149c2.696-8.504 1.424-12.405 1.424-12.405l-1.424.256h-1.394zm-7.006 19.779l-14.702-.043c.445.754 1.048 1.548 1.741 1.875l11.899-.841s.579-.27 1.061-.99" class="D B"/><path d="M115.43 169.964s3.905-6.729 4.276-11.775c0 0 1.767 7.196 1.302 11.308l-3.905.28-1.673.187zm-20.267.747c-1.859-4.486-.186-11.588-.186-11.588 1.697 4.435 1.98 7.919 6.043 11.308l-5.857.28zm4.625-3.808l2.836.046 13.248.234c-.325 1.822-1.627 2.43-1.627 2.43l-11.899.841c-1.488-.701-2.558-3.551-2.558-3.551zm85.978-50.533s1.302-17.383-1.116-31.214c0 0 6.475 13.177 6.693 22.055 0 0 1.395-25.326-1.208-33.55l1.581 2.897.743 1.496s11.9 35.7 2.231 76.073c0 0-5.206-28.785-8.924-37.756zm-93.434 80.7l.371-5.608 23.707-.186.604 5.747s8.925-9.019 12.644-19.673c0 0-2.417 9.533-3.811 11.963 0 0 6.136-6.823 8.274-13.738 0 0-6.601 21.869-12.737 28.317 0 0 .093-4.672.744-7.289 0 0-7.902 8.131-10.134 16.636 0 0-2.418-8.786-1.209-14.299 0 0-5.206 8.972-3.439 15.981 0 0-5.021-12.056-9.298-14.579 0 0 0 7.383-.465 10.28 0 0-13.016-11.495-17.107-26.635l-1.116-4.206-.79-4.299s6.973 17.664 13.759 21.589l.002-.001zM23.347 85.156c-2.417 13.831-1.116 31.214-1.116 31.214-3.719 8.971-8.925 37.755-8.925 37.755-9.669-40.372 2.231-76.073 2.231-76.073l.744-1.496 1.58-2.897c-2.603 8.224-1.209 33.55-1.209 33.55.22-8.878 6.693-22.055 6.693-22.055l.002.001zM40.313 49.27l-1.348 1.776c-2.138 2.523-5.346 8.738-5.346 8.738L23.02 52.027l16.363-2.43.929-.327zm128.719 1.776l-1.349-1.776.93.327 16.362 2.43-10.598 7.757s-3.206-6.215-5.345-8.738zm-9.855 123.174s4.463-23.925 12.272-34.391c0 0 2.818-5.136 2.626-9.719.161 2.858 1.005 21.341-3.565 31.217 1.82-3.787 9.864-21.236 9.864-33.834 0 0 4.277 13.644 5.95 22.241l.093 1.963-.465 1.588s-12.459 41.494-22.499 51.774l1.302-32.522 4.09-16.822-9.668 18.505zM27.622 127.492c0 12.598 8.044 30.047 9.864 33.834-4.569-9.876-3.726-28.359-3.565-31.217-.192 4.583 2.626 9.719 2.626 9.719 7.809 10.466 12.272 34.391 12.272 34.391l-9.669-18.505 4.09 16.822 1.302 32.522c-10.04-10.28-22.498-51.774-22.498-51.774l-.465-1.588.093-1.963c1.673-8.597 5.951-22.241 5.951-22.241zm6.3 2.617l.023-.375-.023.375zm93.553 71.398s6.508-26.167 9.483-33.831c0 0 .558 18.505-1.301 26.541 0 0 11.714-24.111 10.784-45.419 0 0 2.418 12.523 2.046 19.626l6.136-14.579 3.347-3.738s-10.598 49.531-18.036 59.624c0 0 2.789-12.523 2.789-18.317 0 0-6.88 16.261-14.504 22.43 0 0 1.302-10.281 4.09-18.317 0 0-2.788 2.429-4.834 5.98zm46.6-71.398l-.023-.375c.01.125.018.249.023.375zM55.233 117.303c1.116 2.43 5.392 7.102 5.392 7.102-4.463 10.467-5.578 23.738-5.578 23.738-8.181-11.963-7.531-33.083-7.531-33.083 1.774 6.94 3.545 13.62 6.043 20.373-.465-6.355 1.675-18.13 1.675-18.13zm15.805 50.372c2.975 7.664 9.483 33.831 9.483 33.831-2.045-3.551-4.834-5.981-4.834-5.981 2.789 8.036 4.09 18.317 4.09 18.317-7.624-6.169-14.502-22.43-14.502-22.43 0 5.794 2.789 18.317 2.789 18.317-7.437-10.094-18.036-59.624-18.036-59.624l3.347 3.738 6.136 14.579c-.372-7.103 2.045-19.626 2.045-19.626-.929 21.308 10.785 45.419 10.785 45.419-1.86-8.036-1.302-26.541-1.302-26.541l-.001.001zm16.687-12.523l1.162-.094 4.788-.841c-1.487 2.758-2.51 10.841-2.51 10.841-2.138-3.645-3.439-9.906-3.439-9.906zm35.979 5.84c.279-4.018-1.395-12.149-1.395-12.149h1.395l5.206-.935c.185 6.356-5.206 13.084-5.206 13.084zM101.114 29.784s-7.623-9.158-16.548-13.831c0 0-19.152 6.916-39.047 26.167l-13.946 3.364s9.483-17.383 16.363-25.98c0 0-16.176 12.71-26.032 28.036l-8.367 4.112 2.975 4.859s-33.097 48.97-2.603 118.875l3.625-10.935s7.903 36.634 34.119 61.494c0 0-.558-16.635 2.975-30.28 0 0 8.927 32.709 27.705 45.607 0 0 1.487-10.841 4.277-16.636 0 0 9.769 20 17.529 23.364 7.758-3.364 17.528-23.364 17.528-23.364 2.789 5.795 4.277 16.636 4.277 16.636 18.778-12.898 27.705-45.607 27.705-45.607 3.532 13.645 2.974 30.28 2.974 30.28 26.217-24.859 34.119-61.494 34.119-61.494l3.626 10.935c30.493-69.905-2.603-118.875-2.603-118.875l2.975-4.859-8.367-4.112c-9.855-15.327-26.031-28.036-26.031-28.036 6.88 8.598 16.362 25.98 16.362 25.98l-13.946-3.364c-19.895-19.252-39.047-26.167-39.047-26.167-8.925 4.672-16.548 13.831-16.548 13.831 7.065-18.878 21.197-22.989 21.197-22.989 7.809 1.122 28.262 9.533 28.262 9.533C145.096 7.729 128.362 1 128.362 1c-14.875 4.486-24.222 15.327-24.222 15.327S94.792 5.486 79.918 1c0 0-16.734 6.729-28.262 15.327 0 0 20.453-8.411 28.262-9.533 0 0 14.131 4.113 21.197 22.989zm-4.603 4.438c-26.032 2.242-40.162 22.989-40.162 22.989 2.696-2.803 7.345-5.513 7.345-5.513-6.136 6.916-11.528 17.383-11.528 17.383-2.231-.561-5.392-.935-5.392-.935-2.417 7.103-1.116 19.439-1.116 19.439-9.483 25.419-3.905 51.4-3.905 51.4-9.854-17.383-4.277-49.158-4.277-49.158-5.206 4.299-7.809 13.645-7.809 13.645-1.377-41.784 22.498-58.877 22.498-58.877-5.95 8.598-7.438 18.317-7.438 18.317 18.594-31.214 43.881-37.943 43.881-37.943l2.51 3.084 5.392 6.169zm59.318 34.859s-5.393-10.467-11.528-17.383c0 0 4.648 2.71 7.345 5.513 0 0-14.132-20.747-40.163-22.989l5.391-6.168 2.511-3.084s25.288 6.728 43.881 37.943c0 0-1.488-9.719-7.438-18.317 0 0 23.875 17.093 22.498 58.877 0 0-2.603-9.345-7.809-13.645 0 0 5.577 31.775-4.277 49.158 0 0 5.578-25.981-3.905-51.4 0 0 1.302-12.336-1.115-19.439 0 0-3.161.374-5.393.935l.002-.001zm-2.882 79.062s-1.116-13.271-5.578-23.738c0 0 4.277-4.672 5.392-7.102 0 0 2.138 11.775 1.673 18.13 2.498-6.753 4.268-13.433 6.043-20.373 0 0 .652 21.12-7.53 33.083zM70.67 61.934c11.156-16.261 28.263-17.569 28.263-17.569l5.508 8.879 5.366-8.879s17.107 1.308 28.262 17.569c0 0-.743-8.131-3.811-13.177 0 0 11.9 9.906 15.618 21.027l-8.646 2.149s8.182 1.588 15.155 3.551c0 0-2.231 24.018-15.99 31.774 0 0 11.435-2.056 15.34-5.981-1.394 8.598-13.015 16.822-13.015 16.822-3.254-5.513-11.714-2.523-11.714-2.523 9.576 2.803 8.925 14.018 8.925 14.018-.744 19.065-20.081 14.392-20.081 14.392-3.905 0-2.789-2.991-2.789-2.991l9.297-15.139 1.487 5.608c4.09-18.317-4.091-28.224-4.091-28.224v10.467c0 11.027-12.644 16.635-12.644 16.635-7.065.187-18.035-8.972-18.035-8.972-2.789-2.991-2.975-14.392-2.975-14.392-7.623 18.878.094 31.308.094 31.308-.836-2.897.186-10.466.186-10.466 4.09 9.719 15.711 14.859 15.711 14.859.836 2.617-1.951 4.112-1.951 4.112l-15.714 4.299c-12.457 3.364-14.689.187-14.689.187-10.599-11.402-.465-30.654-.465-30.654 1.116-2.43 10.785-6.916 10.785-6.916l-12.179-.468c-3.439.654-6.229 4.486-6.229 4.486-5.577-2.898-12.644-16.448-12.644-16.448 3.905 3.925 15.34 5.981 15.34 5.981-13.759-7.757-15.99-31.774-15.99-31.774 6.973-1.962 15.154-3.551 15.154-3.551l-8.646-2.149c3.719-11.121 15.618-21.027 15.618-21.027-3.068 5.047-3.811 13.177-3.811 13.177z" fill="#141b1c"/><path d="M63.544 81.977c1.541 5.54 7.337 9.647 7.337 9.647s1.619 1.122 3.533 1.122c4.152-.155 7.763-3.878 7.763-3.878-7.438-7.57-18.634-6.89-18.634-6.89zm81.442 0c-1.542 5.54-7.337 9.647-7.337 9.647s-1.149.876-3.532 1.122c-4.153-.155-7.763-3.878-7.763-3.878 7.436-7.57 18.632-6.89 18.632-6.89z" fill="#ab1036"/></g></svg>