<svg width="208" height="249" viewBox="0 0 208 249" fill="none" xmlns="http://www.w3.org/2000/svg">
<path fill-rule="evenodd" clip-rule="evenodd" d="M21.9054 47.5407L13.5382 51.6524L16.5136 56.5116C16.5136 56.5116 -16.5837 105.482 13.9105 175.387C13.9105 175.387 15.3049 171.275 17.5357 164.452C17.5357 164.452 25.4387 201.086 51.6551 225.946C51.6551 225.946 51.0971 209.311 54.6304 195.666C54.6304 195.666 63.5575 228.375 82.3349 241.273C82.3349 241.273 83.8221 230.432 86.6118 224.637C86.6118 224.637 96.3812 244.637 104.141 248.001C111.899 244.637 121.669 224.637 121.669 224.637C124.458 230.432 125.946 241.273 125.946 241.273C144.724 228.375 153.651 195.666 153.651 195.666C157.183 209.311 156.625 225.946 156.625 225.946C182.842 201.087 190.744 164.452 190.744 164.452C192.975 171.274 194.37 175.387 194.37 175.387C224.863 105.482 191.767 56.5116 191.767 56.5116L194.742 51.6524L186.375 47.5407C179.709 37.1741 170.206 27.3939 160.344 19.5045C158.836 18.2983 158.188 17.4585 156.625 16.3269C147.823 9.96102 138.104 4.91719 128.363 1C113.488 5.48591 104.141 16.3269 104.141 16.3269C104.141 16.3269 94.7933 5.48591 79.9185 1C70.1414 4.93094 60.4756 9.93941 51.656 16.3269C50.2793 17.3239 49.2718 18.4476 47.9371 19.5045C37.8687 27.4735 28.7043 38.3705 21.9054 47.5407Z" stroke="#151212"/>
<path fill-rule="evenodd" clip-rule="evenodd" d="M54.3951 168.834C55.6282 171.13 60.2774 179.978 61.4031 184.991C61.4031 184.991 60.8451 176.3 61.6825 174.15C61.6825 174.15 69.3061 197.888 75.4415 205.084C75.2031 202.046 74.9334 199.551 75.6877 195.525C75.6877 195.525 78.4765 197.955 80.5216 201.506C80.5216 201.506 74.0139 175.339 71.0385 167.675C71.0385 167.675 70.4806 186.18 72.3401 194.216C72.3401 194.216 60.6263 170.105 61.5555 148.797C61.5555 148.797 59.1381 161.32 59.5104 168.423L53.374 153.844L50.0273 150.106C50.0273 150.106 51.7959 158.369 54.3941 168.834" fill="#151212" fill-opacity="0.5"/>
<path fill-rule="evenodd" clip-rule="evenodd" d="M153.601 168.834C152.368 171.13 147.719 179.978 146.593 184.991C146.593 184.991 147.151 176.3 146.314 174.15C146.314 174.15 138.69 197.888 132.555 205.084C133.18 200.532 133.357 198.826 132.308 195.525C132.308 195.525 129.52 197.955 127.475 201.506C127.475 201.506 133.982 175.339 136.958 167.675C136.958 167.675 137.516 186.18 135.656 194.216C135.656 194.216 147.37 170.105 146.441 148.797C146.441 148.797 148.858 161.32 148.486 168.423L154.622 153.844L157.969 150.106C157.969 150.106 156.2 158.369 153.602 168.834" fill="#151212" fill-opacity="0.5"/>
<path fill-rule="evenodd" clip-rule="evenodd" d="M96.0316 205.448C94.1476 204.342 85.4043 195.46 85.4043 195.46C90.7287 204.567 97.5832 210.621 97.5832 210.621C98.0483 207.724 98.0483 200.341 98.0483 200.341C102.325 202.864 107.346 214.92 107.346 214.92C105.579 207.911 110.785 198.939 110.785 198.939C109.577 204.452 111.994 213.238 111.994 213.238C114.225 204.733 122.128 196.602 122.128 196.602C121.477 199.219 121.384 203.891 121.384 203.891C127.521 197.443 134.121 175.574 134.121 175.574C131.983 182.49 125.847 189.312 125.847 189.312C127.241 186.882 129.658 177.349 129.658 177.349C126.751 185.682 120.657 193.014 118.14 195.813C121.252 192.763 126.898 190.307 126.898 190.307C126.534 193.004 123.737 197.223 123.737 197.223C123.737 195.728 124.481 193.672 124.481 193.672C118.805 196.308 113.232 205.354 113.232 205.354C111.542 204.387 111.559 196.662 111.559 196.662C107.562 199.186 105.517 207.41 105.517 207.41C103.471 202.363 95.8478 196.85 95.8478 196.85C96.7771 200.401 96.0335 205.447 96.0335 205.447" fill="#151212" fill-opacity="0.5"/>
<path fill-rule="evenodd" clip-rule="evenodd" d="M85.2558 195.203C84.6129 193.415 84.736 190.496 84.736 190.496C85.5939 192.22 89.3226 194.981 91.2173 196.308C84.8024 191.266 78.5723 175.481 78.5723 175.481L79.3618 179.78L80.4777 183.986C81.5721 188.036 83.3045 191.825 85.2558 195.204" fill="#151212" fill-opacity="0.5"/>
<path fill-rule="evenodd" clip-rule="evenodd" d="M38.8547 166.57C38.8547 166.57 40.8061 182.55 39.3189 190.775C39.3189 190.775 33.5001 185.345 31.8888 181.41C35.8178 191.203 40.3869 200.803 44.5426 205.058L43.2411 172.536L39.1508 155.714L48.8195 174.219C48.8195 174.219 44.357 150.294 36.5477 139.827C36.5477 139.827 33.7297 134.692 33.9222 130.109C33.761 132.966 32.9177 151.45 37.4868 161.326C35.6673 157.539 27.6226 140.09 27.6226 127.491C27.6226 127.491 23.3457 141.136 21.6729 149.733L21.5801 151.696L26.4911 143.581C26.4911 143.581 34.8583 164.701 36.7178 175.355C36.7178 175.355 38.3916 169.654 38.8557 166.571" fill="#151212" fill-opacity="0.5"/>
<path fill-rule="evenodd" clip-rule="evenodd" d="M169.141 166.57C169.141 166.57 167.189 182.55 168.677 190.775C168.677 190.775 174.496 185.345 176.107 181.41C172.178 191.203 167.609 200.803 163.453 205.058L164.755 172.536L168.845 155.714L159.176 174.219C159.176 174.219 163.639 150.294 171.448 139.827C171.448 139.827 174.266 134.692 174.074 130.109C174.235 132.966 175.079 151.45 170.509 161.326C172.328 157.539 180.373 140.09 180.373 127.491C180.373 127.491 184.65 141.136 186.323 149.733L186.416 151.696L181.505 143.581C181.505 143.581 173.137 164.701 171.278 175.355C171.278 175.355 169.604 169.654 169.14 166.571" fill="#151212" fill-opacity="0.5"/>
<path fill-rule="evenodd" clip-rule="evenodd" d="M189.555 115.449C189.555 115.449 189.647 107.599 188.904 105.356C188.904 105.356 190.484 109.842 191.135 113.112C191.135 113.112 194.687 101.288 194.11 91.5247C194.11 91.5247 197.114 100.223 197.588 104.293C195.914 88.4178 192.459 78.0532 192.459 78.0532L191.715 76.5572L190.134 73.6606C192.737 81.8849 191.343 107.211 191.343 107.211C191.123 98.3326 184.649 85.1558 184.649 85.1558C187.067 98.9868 185.765 116.37 185.765 116.37C189.484 125.341 194.689 154.125 194.689 154.125C196.058 148.407 196.995 142.784 197.594 137.342C197.594 137.342 195.55 143.12 194.481 145.26C194.481 145.26 195.504 128.345 189.554 115.448" fill="#151212" fill-opacity="0.5"/>
<path fill-rule="evenodd" clip-rule="evenodd" d="M161.221 68.1463C163.639 75.2489 162.337 87.5849 162.337 87.5849C171.82 113.004 166.242 138.985 166.242 138.985C176.096 121.602 170.519 89.8273 170.519 89.8273C175.725 94.1266 178.328 103.472 178.328 103.472C178.598 95.267 177.895 88.0141 176.589 81.6551C177.355 85.8905 176.166 93.3006 176.166 93.3006C173.989 89.4698 168.078 83.4879 168.078 83.4879C169.194 90.4972 168.263 99.2824 168.263 99.2824C167.985 94.5166 165.753 87.5073 165.753 87.5073C167.329 81.8741 163.336 64.8911 163.336 64.8911L158.13 65.2653C148.832 36.6683 111.482 34.2225 111.482 34.2225C137.514 36.4649 151.645 57.2119 151.645 57.2119C148.949 54.4086 144.3 51.6986 144.3 51.6986C150.436 58.6146 155.828 69.0814 155.828 69.0814C158.06 68.5205 161.221 68.1463 161.221 68.1463Z" fill="#151212" fill-opacity="0.5"/>
<path fill-rule="evenodd" clip-rule="evenodd" d="M18.4402 115.449C18.4402 115.449 18.3474 107.599 19.091 105.356C19.091 105.356 17.511 109.842 16.8592 113.112C16.8592 113.112 13.3064 101.288 13.8839 91.5247C13.8839 91.5247 10.8802 100.223 10.4063 104.293C12.0801 88.4178 15.5352 78.0532 15.5352 78.0532L16.2788 76.5572L17.8588 73.6606C15.2557 81.8849 16.6501 107.211 16.6501 107.211C16.87 98.3326 23.3434 85.1558 23.3434 85.1558C20.926 98.9868 22.2276 116.37 22.2276 116.37C18.5086 125.341 13.3025 154.125 13.3025 154.125C11.9335 148.407 10.9964 142.784 10.3975 137.342C10.3975 137.342 12.4416 143.12 13.5106 145.26C13.5106 145.26 12.4875 128.345 18.4373 115.448" fill="#151212" fill-opacity="0.5"/>
<path fill-rule="evenodd" clip-rule="evenodd" d="M46.7744 68.1463C44.357 75.2489 45.6585 87.5849 45.6585 87.5849C36.1755 113.004 41.7539 138.985 41.7539 138.985C31.8996 121.602 37.477 89.8273 37.477 89.8273C32.2709 94.1266 29.6678 103.472 29.6678 103.472C29.3971 95.267 30.1007 88.0141 31.4061 81.6551C30.642 85.8905 31.8292 93.3006 31.8292 93.3006C34.0062 89.4698 39.9179 83.4879 39.9179 83.4879C38.802 90.4972 39.7322 99.2824 39.7322 99.2824C40.0107 94.5166 42.2425 87.5073 42.2425 87.5073C40.6664 81.8741 44.6599 64.8911 44.6599 64.8911L49.866 65.2653C59.1634 36.6683 96.5132 34.2225 96.5132 34.2225C70.4815 36.4649 56.3512 57.2119 56.3512 57.2119C59.0471 54.4086 63.6963 51.6986 63.6963 51.6986C57.5599 58.6146 52.1681 69.0814 52.1681 69.0814C49.9374 68.5205 46.7763 68.1463 46.7763 68.1463" fill="#151212" fill-opacity="0.5"/>
<path fill-rule="evenodd" clip-rule="evenodd" d="M54.3775 29.0981C58.0964 26.3881 73.5292 19.0988 73.5292 19.0988C64.0462 23.959 43.6867 40.5 43.6867 40.5L31.5752 45.4849L45.5208 42.1207C65.4161 22.8687 84.5678 15.9537 84.5678 15.9537C93.4929 20.6262 101.116 29.7847 101.116 29.7847C94.0509 10.9069 79.9196 6.79523 79.9196 6.79523C81.9393 9.25673 83.664 12.7447 83.664 12.7447C68.882 15.0814 54.3785 29.0991 54.3785 29.0991" fill="#151212" fill-opacity="0.5"/>
<path fill-rule="evenodd" clip-rule="evenodd" d="M153.903 29.0981C150.184 26.3881 134.751 19.0988 134.751 19.0988C144.234 23.959 164.594 40.5 164.594 40.5L176.705 45.4849L162.76 42.1207C142.864 22.8687 123.713 15.9537 123.713 15.9537C114.788 20.6262 107.164 29.7847 107.164 29.7847C114.23 10.9069 128.361 6.79523 128.361 6.79523C126.341 9.25673 124.617 12.7447 124.617 12.7447C139.399 15.0814 153.902 29.0991 153.902 29.0991" fill="#151212" fill-opacity="0.5"/>
<path fill-rule="evenodd" clip-rule="evenodd" d="M58.6091 86.2038C63.57 99.0968 73.8552 95.3986 81.1202 98.2118C84.0056 92.2771 91.5667 100.175 91.5667 100.175C85.6609 89.1103 84.3359 95.1649 74.4142 92.7456C78.566 92.5904 82.1774 88.8677 82.1774 88.8677C74.7395 81.2975 63.5446 81.9772 63.5446 81.9772C65.0855 87.5171 70.8818 91.6239 70.8818 91.6239C58.3316 87.7921 58.2847 77.1849 58.2847 77.1849C59.9487 78.2997 61.9001 78.508 64.1054 78.5247C57.0418 75.7066 62.5831 72.9651 62.5831 72.9651C59.6615 73.6085 55.8575 74.4994 52.3574 75.4846C52.3574 75.4846 54.5882 99.5025 68.3472 107.259C62.1776 97.8493 73.4751 98.5084 73.4751 98.5084C66.2893 96.9761 60.0758 95.324 58.6101 86.2038" fill="#151212" fill-opacity="0.5"/>
<path fill-rule="evenodd" clip-rule="evenodd" d="M63.5447 68.2602C63.5447 68.2602 65.6123 61.9856 68.9365 57.98C68.9365 57.98 67.5421 62.2793 69.1222 67.3251C69.1222 67.3251 75.3797 53.7377 98.9324 44.3641C98.9324 44.3641 81.8258 45.6725 70.6699 61.9335C70.6699 61.9335 71.4135 53.8025 74.4817 48.7567C74.4817 48.7567 62.5822 58.6627 58.8633 69.7836L67.5089 71.9328L63.5437 68.2592L63.5447 68.2602Z" fill="#151212" fill-opacity="0.5"/>
<path fill-rule="evenodd" clip-rule="evenodd" d="M71.7487 113.267C61.3637 115.302 53.0063 101.278 53.0063 101.278C53.0063 101.278 60.072 114.829 65.6504 117.726C65.6504 117.726 68.3697 113.991 71.7487 113.267Z" fill="#151212" fill-opacity="0.5"/>
<path fill-rule="evenodd" clip-rule="evenodd" d="M84.0576 113.708C84.0576 113.708 74.3889 118.194 73.273 120.624C73.273 120.624 63.1392 139.876 73.7381 151.278C73.7381 151.278 75.9699 154.455 88.4273 151.091L104.141 146.792C104.141 146.792 106.928 145.297 106.092 142.68C106.092 142.68 94.4708 137.54 90.3806 127.821C91.7407 138.783 101.292 144.333 101.292 144.333C68.5672 157.791 73.7733 134.614 73.7733 134.614C75.2605 140.034 80.4666 144.333 80.4666 144.333C72.0448 133.608 84.1856 117.231 84.1856 117.231C83.2554 127.137 90.1939 138.287 90.1939 138.287C90.1939 138.287 82.4766 125.857 90.1001 106.979C86.5346 112.803 74.4915 113.34 74.4925 113.34L84.0586 113.708H84.0576Z" fill="#151212" fill-opacity="0.5"/>
<path fill-rule="evenodd" clip-rule="evenodd" d="M126.362 98.6764C133.652 94.995 144.717 99.7304 149.921 86.2039C148.834 92.9647 145.139 95.6216 140.371 97.1687C148.776 98.7894 140.396 107.26 140.396 107.26C146.105 104.041 149.83 98.0223 152.234 92.0816L154.548 85.0949C155.998 79.6621 156.386 75.4856 156.386 75.4856C149.413 73.5231 141.231 71.9348 141.231 71.9348C149.008 75.797 145.625 78.4933 145.625 78.4933C147.344 78.4019 148.891 78.0955 150.246 77.1869C150.246 77.1869 150.199 87.7941 137.649 91.6259C137.649 91.6259 143.445 87.5191 144.986 81.9793C144.986 81.9793 133.791 81.2995 126.354 88.8697C126.354 88.8697 129.964 92.5934 134.117 92.7476C124.194 95.1669 122.87 89.1123 116.963 100.177C124.087 93.4971 126.361 98.6784 126.361 98.6784" fill="#151212" fill-opacity="0.5"/>
<path fill-rule="evenodd" clip-rule="evenodd" d="M123.754 103.241C123.754 103.241 131.936 113.147 127.844 131.465L126.357 125.857L117.061 140.996C117.061 140.996 115.945 143.987 119.849 143.987C119.849 143.987 139.187 148.66 139.93 129.596C139.93 129.596 140.581 118.381 131.005 115.577C131.005 115.577 139.465 112.586 142.719 118.1C142.719 118.1 154.34 109.876 155.734 101.278C154.215 107.663 142.843 116.107 142.843 116.107C139.962 111.808 131.315 111.621 131.315 111.621C128.435 106.221 123.753 103.241 123.753 103.241M127.843 131.465C127.843 131.465 131.251 124.3 131.127 119.939C131.127 119.939 140.518 128.817 133.265 137.602C133.265 137.602 136.891 135.546 137.263 133.397C137.263 133.397 137.263 144.237 121.086 141.434L125.642 129.845L127.842 131.465H127.843Z" fill="#151212" fill-opacity="0.5"/>
<path fill-rule="evenodd" clip-rule="evenodd" d="M139.962 58.6322C143.109 62.1172 145.354 68.7258 145.354 68.7258L141.231 71.9338L149.877 69.7846C146.158 58.6637 134.258 48.7577 134.258 48.7577C137.326 53.8045 138.07 61.9345 138.07 61.9345C126.914 45.6735 109.808 44.3651 109.808 44.3651C135.529 55.3299 139.032 67.2318 139.032 67.2318C141.449 64.2408 139.961 58.6342 139.961 58.6342" fill="#151212" fill-opacity="0.5"/>
<path fill-rule="evenodd" clip-rule="evenodd" d="M129.236 75.2233C129.236 75.2233 125.797 81.0176 125.146 84.756C135.852 74.4758 144.671 80.9233 150.247 77.1859C150.247 77.1859 150.2 87.7931 137.65 91.6248C137.65 91.6248 143.446 87.5181 144.987 81.9782C144.987 81.9782 133.792 81.2985 126.355 88.8687C126.355 88.8687 129.965 92.5924 134.118 92.7466C124.195 95.1658 122.871 89.1113 116.964 100.176C115.127 90.9442 121.71 80.053 129.236 75.2233Z" fill="#151212"/>
<path fill-rule="evenodd" clip-rule="evenodd" d="M149.921 86.2039C147.603 100.633 133.399 96.3691 122.262 102.512C128.596 92.0954 143.591 102.654 149.921 86.2039Z" fill="#151212"/>
<path fill-rule="evenodd" clip-rule="evenodd" d="M79.2944 75.2233C79.2944 75.2233 82.7339 81.0176 83.3847 84.756C72.6783 74.4758 63.8597 80.9233 58.2832 77.1859C58.2832 77.1859 58.3301 87.7931 70.8804 91.6248C70.8804 91.6248 65.085 87.5181 63.5431 81.9782C63.5431 81.9782 74.7381 81.2985 82.176 88.8687C82.176 88.8687 78.5655 92.5924 74.4127 92.7466C84.3344 95.1658 85.6594 89.1113 91.5652 100.176C93.4022 90.9442 86.8193 80.053 79.2934 75.2233" fill="#151212"/>
<path fill-rule="evenodd" clip-rule="evenodd" d="M58.6094 86.2039C60.9271 100.633 75.1326 96.3691 86.268 102.512C79.9342 92.0954 64.9392 102.654 58.6094 86.2039Z" fill="#151212"/>
<path fill-rule="evenodd" clip-rule="evenodd" d="M123.754 103.241C123.754 104.123 118.064 119.425 112.606 120.958C103.588 123.489 90.9228 115.178 90.0991 106.979C90.0991 106.979 90.2848 118.381 93.0745 121.371C93.0745 121.371 104.045 130.53 111.11 130.343C111.11 130.343 123.754 124.735 123.754 113.708V103.241Z" fill="#151212" fill-opacity="0.5"/>
<path fill-rule="evenodd" clip-rule="evenodd" d="M36.2714 55.0225L23.0205 52.0266L33.6184 59.7834C33.6184 59.7834 34.8359 57.424 36.2714 55.0225Z" fill="#151212" fill-opacity="0.5"/>
<path fill-rule="evenodd" clip-rule="evenodd" d="M170.968 53.7897C172.703 56.541 174.376 59.7834 174.376 59.7834L184.974 52.0266L170.968 53.7907V53.7897Z" fill="#151212" fill-opacity="0.5"/>
<path fill-rule="evenodd" clip-rule="evenodd" d="M91.2337 154.646C90.2067 160.548 91.1653 165.057 91.1653 165.057C91.1653 165.057 92.1883 156.974 93.6755 154.216L91.2337 154.646Z" fill="#151212" fill-opacity="0.5"/>
<path fill-rule="evenodd" clip-rule="evenodd" d="M94.9766 159.124C94.9766 159.124 95.7749 166.404 97.6412 170.593L101.019 170.431C96.9562 167.043 96.6729 163.559 94.9766 159.123" fill="#151212" fill-opacity="0.5"/>
<path fill-rule="evenodd" clip-rule="evenodd" d="M119.707 158.189C119.335 163.235 115.431 169.964 115.431 169.964L117.104 169.777L119.056 169.637C119.056 169.637 120.558 162.549 119.841 158.762C119.759 158.397 119.707 158.189 119.707 158.189Z" fill="#151212" fill-opacity="0.5"/>
<path fill-rule="evenodd" clip-rule="evenodd" d="M122.311 148.844C122.311 148.844 123.984 156.975 123.705 160.993C126.401 152.489 125.129 148.588 125.129 148.588L123.705 148.844H122.311Z" fill="#151212" fill-opacity="0.5"/>
<path fill-rule="evenodd" clip-rule="evenodd" d="M115.305 168.623L100.603 168.58C101.048 169.334 101.651 170.128 102.344 170.455L114.243 169.614C114.243 169.614 114.822 169.344 115.304 168.624" fill="#151212" fill-opacity="0.5"/>
<path fill-rule="evenodd" clip-rule="evenodd" d="M115.43 169.964C115.43 169.964 119.335 163.235 119.706 158.189C119.706 158.189 121.473 165.385 121.008 169.497L117.103 169.777L115.43 169.964ZM95.1627 170.711C93.3032 166.225 94.977 159.123 94.977 159.123C96.6743 163.558 96.9567 167.042 101.02 170.431L95.1627 170.711ZM99.7874 166.903L102.623 166.949L115.871 167.183C115.546 169.005 114.244 169.613 114.244 169.613L102.345 170.454C100.857 169.753 99.7874 166.903 99.7874 166.903ZM185.765 116.37C185.765 116.37 187.067 98.9868 184.649 85.1558C184.649 85.1558 191.124 98.3326 191.342 107.211C191.342 107.211 192.737 81.8849 190.134 73.6606L191.715 76.5572L192.458 78.0532C192.458 78.0532 204.358 113.753 194.689 154.126C194.689 154.126 189.483 125.341 185.765 116.37ZM92.331 197.07L92.7023 191.462L116.409 191.276L117.013 197.023C117.013 197.023 125.938 188.004 129.657 177.35C129.657 177.35 127.24 186.883 125.846 189.313C125.846 189.313 131.982 182.49 134.12 175.575C134.12 175.575 127.519 197.444 121.383 203.892C121.383 203.892 121.476 199.22 122.127 196.603C122.127 196.603 114.225 204.734 111.993 213.239C111.993 213.239 109.575 204.453 110.784 198.94C110.784 198.94 105.578 207.912 107.345 214.921C107.345 214.921 102.324 202.865 98.0472 200.342C98.0472 200.342 98.0472 207.725 97.5821 210.622C97.5821 210.622 84.5657 199.127 80.4755 183.987L79.3596 179.781L78.5701 175.482C78.5701 175.482 85.5429 193.146 92.329 197.071L92.331 197.07ZM23.3467 85.1558C20.9292 98.9868 22.2308 116.37 22.2308 116.37C18.5118 125.341 13.3057 154.125 13.3057 154.125C3.63699 113.753 15.5365 78.0522 15.5365 78.0522L16.2801 76.5562L17.8601 73.6596C15.257 81.8839 16.6514 107.21 16.6514 107.21C16.8712 98.3316 23.3447 85.1548 23.3447 85.1548L23.3467 85.1558ZM40.3125 49.2695L38.9641 51.0454C36.8261 53.5688 33.6182 59.7834 33.6182 59.7834L23.0203 52.0266L39.3833 49.5966L40.3125 49.2695ZM169.031 51.0454L167.682 49.2695L168.612 49.5966L184.974 52.0266L174.376 59.7834C174.376 59.7834 171.17 53.5688 169.031 51.0454ZM159.176 174.219C159.176 174.219 163.639 150.294 171.448 139.828C171.448 139.828 174.266 134.692 174.074 130.109C174.235 132.967 175.079 151.45 170.509 161.326C172.329 157.539 180.373 140.09 180.373 127.492C180.373 127.492 184.65 141.136 186.323 149.733L186.416 151.696L185.951 153.284C185.951 153.284 173.492 194.778 163.452 205.058L164.754 172.536L168.844 155.714L159.176 174.219ZM27.6216 127.492C27.6216 140.09 35.6653 157.539 37.4857 161.326C32.9167 151.45 33.7599 132.967 33.9211 130.109C33.7287 134.692 36.5467 139.828 36.5467 139.828C44.3559 150.294 48.8185 174.219 48.8185 174.219L39.1498 155.714L43.24 172.536L44.5416 205.058C34.5016 194.778 22.0432 153.284 22.0432 153.284L21.5781 151.696L21.6709 149.733C23.3437 141.136 27.6216 127.492 27.6216 127.492ZM33.9211 130.109C33.927 129.983 33.9339 129.859 33.9436 129.734C33.9436 129.734 33.9348 129.864 33.9211 130.109ZM127.474 201.507C127.474 201.507 133.982 175.34 136.957 167.676C136.957 167.676 137.515 186.181 135.656 194.217C135.656 194.217 147.37 170.106 146.44 148.798C146.44 148.798 148.858 161.321 148.486 168.424L154.622 153.845L157.969 150.107C157.969 150.107 147.371 199.638 139.933 209.731C139.933 209.731 142.722 197.208 142.722 191.414C142.722 191.414 135.842 207.675 128.218 213.844C128.218 213.844 129.52 203.563 132.308 195.527C132.308 195.527 129.52 197.956 127.474 201.507ZM174.074 130.109C174.06 129.865 174.051 129.734 174.051 129.734C174.061 129.859 174.069 129.983 174.074 130.109ZM55.2333 117.303C56.3492 119.733 60.6251 124.405 60.6251 124.405C56.1626 134.872 55.0467 148.143 55.0467 148.143C46.8652 136.18 47.5159 115.06 47.5159 115.06C49.2904 122 51.061 128.68 53.5585 135.433C53.0934 129.078 55.2333 117.303 55.2333 117.303ZM71.0384 167.675C74.0137 175.339 80.5214 201.506 80.5214 201.506C78.4763 197.955 75.6875 195.525 75.6875 195.525C78.4763 203.561 79.7778 213.842 79.7778 213.842C72.1542 207.673 65.2753 191.412 65.2753 191.412C65.2753 197.206 68.064 209.729 68.064 209.729C60.6271 199.635 50.0281 150.105 50.0281 150.105L53.3748 153.843L59.5112 168.422C59.1389 161.319 61.5563 148.796 61.5563 148.796C60.6271 170.104 72.3409 194.215 72.3409 194.215C70.4814 186.179 71.0393 167.674 71.0393 167.674L71.0384 167.675ZM87.7258 155.152L88.8876 155.058L93.6755 154.217C92.1883 156.975 91.1653 165.058 91.1653 165.058C89.0273 161.413 87.7258 155.152 87.7258 155.152ZM123.705 160.992C123.984 156.974 122.31 148.843 122.31 148.843H123.705L128.911 147.908C129.096 154.264 123.705 160.992 123.705 160.992ZM101.114 29.7837C101.114 29.7837 93.4908 20.6252 84.5657 15.9527C84.5657 15.9527 65.414 22.8687 45.5187 42.1197L31.5731 45.4839C31.5731 45.4839 41.0561 28.1011 47.9361 19.5035C47.9361 19.5035 31.7597 32.2138 21.9044 47.5397L13.5373 51.6514L16.5126 56.5106C16.5126 56.5106 -16.5847 105.481 13.9095 175.386C13.9095 175.386 15.3039 171.274 17.5347 164.451C17.5347 164.451 25.4377 201.085 51.6541 225.945C51.6541 225.945 51.0961 209.31 54.6294 195.665C54.6294 195.665 63.5565 228.374 82.334 241.272C82.334 241.272 83.8212 230.431 86.6109 224.636C86.6109 224.636 96.3802 244.636 104.14 248C111.898 244.636 121.668 224.636 121.668 224.636C124.457 230.431 125.945 241.272 125.945 241.272C144.723 228.374 153.65 195.665 153.65 195.665C157.182 209.31 156.624 225.945 156.624 225.945C182.841 201.086 190.743 164.451 190.743 164.451C192.974 171.273 194.369 175.386 194.369 175.386C224.862 105.481 191.766 56.5106 191.766 56.5106L194.741 51.6514L186.374 47.5397C176.519 32.2128 160.343 19.5035 160.343 19.5035C167.223 28.1011 176.705 45.4839 176.705 45.4839L162.759 42.1197C142.864 22.8677 123.712 15.9527 123.712 15.9527C114.787 20.6252 107.164 29.7837 107.164 29.7837C114.229 10.9059 128.361 6.79426 128.361 6.79426C136.17 7.91598 156.623 16.3269 156.623 16.3269C145.096 7.72936 128.362 1 128.362 1C113.487 5.48591 104.14 16.3269 104.14 16.3269C104.14 16.3269 94.7924 5.48591 79.9175 1C79.9175 1 63.1832 7.72936 51.6551 16.3269C51.6551 16.3269 72.1083 7.91598 79.9175 6.79426C79.9175 6.79426 94.0488 10.9069 101.114 29.7837ZM96.5111 34.2215C70.4794 36.4639 56.3492 57.2109 56.3492 57.2109C59.0451 54.4076 63.6943 51.6976 63.6943 51.6976C57.5579 58.6136 52.1661 69.0804 52.1661 69.0804C49.9353 68.5195 46.7743 68.1453 46.7743 68.1453C44.3569 75.2479 45.6584 87.5839 45.6584 87.5839C36.1754 113.003 41.7538 138.984 41.7538 138.984C31.8995 121.601 37.4769 89.8264 37.4769 89.8264C32.2708 94.1256 29.6677 103.471 29.6677 103.471C28.2909 61.687 52.1661 44.594 52.1661 44.594C46.2164 53.1916 44.7282 62.9109 44.7282 62.9109C63.322 31.6971 88.6091 24.9678 88.6091 24.9678L91.1193 28.052L96.5111 34.2215ZM155.829 69.0804C155.829 69.0804 150.436 58.6136 144.301 51.6976C144.301 51.6976 148.949 54.4076 151.646 57.2109C151.646 57.2109 137.514 36.4639 111.483 34.2215L116.874 28.053L119.385 24.9687C119.385 24.9687 144.673 31.6971 163.266 62.9119C163.266 62.9119 161.778 53.1926 155.828 44.595C155.828 44.595 179.703 61.688 178.326 103.472C178.326 103.472 175.723 94.1266 170.517 89.8273C170.517 89.8273 176.094 121.602 166.24 138.985C166.24 138.985 171.818 113.004 162.335 87.5849C162.335 87.5849 163.637 75.2489 161.22 68.1462C161.22 68.1462 158.059 68.5205 155.827 69.0813L155.829 69.0804ZM152.947 148.142C152.947 148.142 151.831 134.871 147.369 124.404C147.369 124.404 151.646 119.732 152.761 117.302C152.761 117.302 154.899 129.077 154.434 135.432C156.932 128.679 158.702 121.999 160.477 115.059C160.477 115.059 161.129 136.179 152.947 148.142ZM70.67 61.9335C81.8259 45.6725 98.9325 44.3641 98.9325 44.3641L104.441 53.2426L109.807 44.3641C109.807 44.3641 126.914 45.6725 138.069 61.9335C138.069 61.9335 137.326 53.8025 134.258 48.7567C134.258 48.7567 146.158 58.6627 149.876 69.7837L141.23 71.9328C141.23 71.9328 149.412 73.5211 156.385 75.4836C156.385 75.4836 154.154 99.5015 140.395 107.258C140.395 107.258 151.83 105.202 155.735 101.277C154.341 109.875 142.72 118.099 142.72 118.099C139.466 112.586 131.006 115.576 131.006 115.576C140.582 118.379 139.931 129.594 139.931 129.594C139.187 148.659 119.85 143.986 119.85 143.986C115.945 143.986 117.061 140.995 117.061 140.995L126.358 125.856L127.845 131.464C131.935 113.147 123.754 103.24 123.754 103.24V113.707C123.754 124.734 111.11 130.342 111.11 130.342C104.045 130.529 93.0746 121.37 93.0746 121.37C90.2858 118.379 90.0992 106.978 90.0992 106.978C82.4757 125.856 90.193 138.286 90.193 138.286C89.3566 135.389 90.3787 127.82 90.3787 127.82C94.4689 137.539 106.09 142.679 106.09 142.679C106.926 145.296 104.139 146.791 104.139 146.791L88.4254 151.09C75.968 154.454 73.7362 151.277 73.7362 151.277C63.1373 139.875 73.2711 120.623 73.2711 120.623C74.387 118.193 84.0557 113.707 84.0557 113.707L71.8767 113.239C68.4372 113.893 65.6475 117.725 65.6475 117.725C60.0701 114.827 53.0035 101.277 53.0035 101.277C56.9081 105.202 68.3434 107.258 68.3434 107.258C54.5845 99.5015 52.3537 75.4836 52.3537 75.4836C59.3265 73.5211 67.508 71.9328 67.508 71.9328L58.8624 69.7837C62.5813 58.6627 74.4808 48.7567 74.4808 48.7567C71.4126 53.8035 70.67 61.9335 70.67 61.9335Z" fill="#151212"/>
<path fill-rule="evenodd" clip-rule="evenodd" d="M63.5439 81.9773C65.0849 87.5172 70.8812 91.6239 70.8812 91.6239C70.8812 91.6239 72.5 92.7457 74.4145 92.7457C78.5663 92.5905 82.1778 88.8678 82.1778 88.8678C74.7399 81.2976 63.5439 81.9773 63.5439 81.9773Z" fill="#AB1036"/>
<path fill-rule="evenodd" clip-rule="evenodd" d="M144.986 81.9773C143.444 87.5172 137.649 91.6239 137.649 91.6239C137.649 91.6239 136.5 92.5 134.117 92.7457C129.964 92.5905 126.354 88.8678 126.354 88.8678C133.79 81.2976 144.986 81.9773 144.986 81.9773Z" fill="#AB1036"/>
</svg>
