<svg width="100" height="36" fill="none" xmlns="http://www.w3.org/2000/svg"><rect width="100" height="36" rx="18" fill="#E0FD60"/><path d="M32.28 11.38v13.78h-1.81V14.4l-4.51 7.5h-.24l-4.51-7.48v10.75h-1.83V11.38h2.07l4.39 7.28 4.37-7.28h2.07ZM45.7 23.33a6.85 6.85 0 0 1-5.06 2.09c-2 0-3.68-.7-5.06-2.1a6.92 6.92 0 0 1-2.07-5.05c0-2 .7-3.68 2.07-5.06a6.85 6.85 0 0 1 5.06-2.09c2 0 3.68.7 5.06 2.09a6.85 6.85 0 0 1 2.09 5.06 6.9 6.9 0 0 1-2.09 5.06Zm-8.86-1.24a5.16 5.16 0 0 0 3.8 1.53 5.23 5.23 0 0 0 5.32-5.36c0-1.51-.52-2.79-1.54-3.81a5.06 5.06 0 0 0-3.78-1.56 5.22 5.22 0 0 0-5.32 5.38c0 1.5.5 2.78 1.52 3.82ZM56.88 18a3.6 3.6 0 0 1 2.07 3.25 3.93 3.93 0 0 1-4 3.9H49V11.38h5.52a3.8 3.8 0 0 1 3.86 3.76c0 1.22-.5 2.18-1.5 2.87Zm-2.36-4.92h-3.68v4.21h3.68c.58 0 1.06-.2 1.46-.6.39-.41.59-.91.59-1.5 0-.58-.2-1.07-.61-1.48a1.9 1.9 0 0 0-1.44-.63Zm.43 10.36a2.2 2.2 0 0 0 2.19-2.24c0-.62-.22-1.15-.65-1.58a2.06 2.06 0 0 0-1.54-.65h-4.11v4.47h4.11Zm5.19-12.07h1.83v13.78h-1.83V11.38Zm5.63 12.05h5.95v1.73h-7.78V11.38h1.83v12.05Zm8.63 0h6.4v1.73h-8.23V11.38h8.13v1.73h-6.3v4.23h5.81v1.72h-5.8v4.37Z" fill="#0D0D0D"/></svg>