<svg width="18" height="18" viewBox="0 0 18 18" fill="none" xmlns="http://www.w3.org/2000/svg">
<g clip-path="url(#clip0_367_4439)">
<path d="M0.99943 4.87424C1.66837 3.62073 2.60793 2.5318 3.74994 1.68648C4.88937 0.82332 6.21865 0.245093 7.62693 0H9.5008L11.127 0.124916L12.0015 0.374774L12.2513 0.624632C13.9117 1.28621 15.3445 2.41523 16.376 3.87483C17.456 5.36306 18.0263 7.16031 18.0022 8.99893C18.0089 10.5575 17.5984 12.0895 16.8133 13.4359C16.033 14.8007 14.9144 15.9416 13.5652 16.7486C12.1895 17.5814 10.6092 18.0147 9.00114 18L6.37767 17.4981C6.84163 16.7539 7.21886 15.959 7.50199 15.1289L8.00171 13.003C8.17356 13.3423 8.46181 13.6083 8.81373 13.7525C9.22907 13.9279 9.67691 14.013 10.1276 14.0024C10.9488 14.0059 11.7528 13.7669 12.4387 13.3153C13.1785 12.8213 13.7638 12.1284 14.1273 11.3165C14.5442 10.4377 14.7577 9.4762 14.752 8.50353C14.766 7.55406 14.5057 6.62072 14.0024 5.81549C13.5061 5.03049 12.8173 4.38545 12.0015 3.94162C11.1583 3.48164 10.2114 3.24509 9.25097 3.25451C8.12233 3.22574 7.0048 3.48363 6.0029 4.00406C5.13472 4.45462 4.41745 5.14946 3.93951 6.00287C3.47908 6.84588 3.24248 7.79288 3.25238 8.75339C3.2636 9.46977 3.43432 10.1746 3.7521 10.8168C4.01287 11.4517 4.50365 11.9647 5.1263 12.2534C5.29215 12.3374 5.37614 12.2965 5.37614 12.1285L5.62597 11.1291V10.8793C5.36785 10.6144 5.17536 10.2928 5.06383 9.94018C4.93751 9.55734 4.8742 9.15652 4.87642 8.75339C4.87405 8.09552 5.04652 7.44885 5.37614 6.87952C5.72203 6.28263 6.21803 5.7866 6.81492 5.44071C7.47802 5.05569 8.23456 4.86116 9.00114 4.87855C9.48903 4.85945 9.97539 4.94424 10.428 5.12731C10.8807 5.31037 11.2893 5.58751 11.6267 5.9404C12.293 6.64831 12.6261 7.56515 12.6261 8.69092C12.6261 9.81668 12.3762 10.7543 11.8765 11.5039C11.6708 11.8498 11.378 12.1356 11.0272 12.3329C10.6765 12.5302 10.2801 12.632 9.87773 12.6282C9.68032 12.6332 9.48401 12.5975 9.30098 12.5234C9.11794 12.4493 8.9521 12.3383 8.81373 12.1974C8.66604 12.0419 8.56001 11.8515 8.50542 11.6441C8.45083 11.4366 8.44945 11.2188 8.50142 11.0107L8.8762 10.0091C9.06554 9.35653 9.19105 8.68714 9.25097 8.01031C9.25708 7.70038 9.17007 7.39573 9.00114 7.13582C8.83314 6.88597 8.54235 6.76104 8.12665 6.76104C7.90348 6.77013 7.68556 6.83136 7.49032 6.93983C7.29507 7.0483 7.12795 7.201 7.00233 7.38568C6.65278 7.85285 6.47615 8.42682 6.50261 9.00969C6.49676 9.30601 6.53896 9.60134 6.62755 9.88418L6.75244 10.2589L5.75091 14.7563C5.58291 15.424 5.58291 16.2963 5.75091 17.3797L3.00255 15.6307L1.37636 13.6298L0.127097 10.3796V9.37155C0.0820023 9.32078 0.0477117 9.26139 0.0262386 9.19697C0.00476559 9.13255 -0.00340746 9.06445 0.00220726 8.99678C-0.0141102 7.56097 0.328668 6.14384 0.99943 4.87424Z" fill="black"/>
</g>
<defs>
<clipPath id="clip0_367_4439">
<rect width="18" height="18" fill="white"/>
</clipPath>
</defs>
</svg>
