<svg fill="none" xmlns="http://www.w3.org/2000/svg" viewBox="0 0 75 22"><path d="m11.21 2.43 1.8 5.55.17.52h6.39l-4.73 3.43-.44.32.17.52 1.8 5.55-4.72-3.43-.44-.32-.44.32-4.72 3.43 1.8-5.55.17-.52-.44-.32L2.86 8.5h6.38l.17-.52 1.8-5.55Z" stroke="#000" stroke-width="1.5"/><path d="m24.23 2.43 1.8 5.55.18.52h6.38l-4.72 3.43-.44.32.16.52 1.8 5.55-4.71-3.43-.45-.32-.44.32-4.72 3.43 1.8-5.55.17-.52-.44-.32-4.72-3.43h6.38l.17-.52 1.8-5.55Z" stroke="#000" stroke-width="1.5"/><path d="m37.41 2.43 1.8 5.55.18.52h6.38l-4.72 3.43-.44.32.16.52 1.8 5.55-4.72-3.43-.44-.32-.44.32-4.72 3.43 1.8-5.55.17-.52-.44-.32-4.72-3.43h6.38l.17-.52 1.8-5.55Z" stroke="#000" stroke-width="1.5"/><path d="m50.6 2.43 1.8 5.55.17.52h6.39l-4.73 3.43-.44.32.17.52 1.8 5.55-4.72-3.43-.44-.32-.44.32-4.72 3.43 1.8-5.55.17-.52-.44-.32-4.72-3.43h6.38l.17-.52 1.8-5.55Z" stroke="#000" stroke-width="1.5"/><path d="m63.79 2.43 1.8 5.55.17.52h6.38l-4.72 3.43-.44.32.17.52 1.8 5.55-4.72-3.43-.44-.32-.44.32-4.72 3.43 1.8-5.55.17-.52-.44-.32-4.73-3.43h6.39l.17-.52 1.8-5.55Z" stroke="#000" stroke-width="1.5"/></svg>