<svg width="60" height="60" viewBox="0 0 60 60" fill="none" xmlns="http://www.w3.org/2000/svg">
<path d="M23.334 50C34.3797 50 43.334 41.0457 43.334 30C43.334 18.9543 34.3797 10 23.334 10C12.2883 10 3.33398 18.9543 3.33398 30C3.33398 41.0457 12.2883 50 23.334 50Z" fill="white" stroke="black" stroke-linejoin="round"/>
<path d="M36.7168 50C47.7625 50 56.7168 41.0457 56.7168 30C56.7168 18.9543 47.7625 10 36.7168 10C25.6711 10 16.7168 18.9543 16.7168 30C16.7168 41.0457 25.6711 50 36.7168 50Z" stroke="black" stroke-linejoin="round"/>
<path d="M30.0176 50C41.0633 50 50.0176 41.0457 50.0176 30C50.0176 18.9543 41.0633 10 30.0176 10C18.9719 10 10.0176 18.9543 10.0176 30C10.0176 41.0457 18.9719 50 30.0176 50Z" stroke="black" stroke-linejoin="round"/>
</svg>
