<svg width="60" height="60" viewBox="0 0 60 60" fill="none" xmlns="http://www.w3.org/2000/svg">
<path d="M20.834 50C31.8797 50 40.834 41.0457 40.834 30C40.834 18.9543 31.8797 10 20.834 10C9.78829 10 0.833984 18.9543 0.833984 30C0.833984 41.0457 9.78829 50 20.834 50Z" stroke="black" stroke-linejoin="round"/>
<path d="M26.9492 50C37.9949 50 46.9492 41.0457 46.9492 30C46.9492 18.9543 37.9949 10 26.9492 10C15.9035 10 6.94922 18.9543 6.94922 30C6.94922 41.0457 15.9035 50 26.9492 50Z" stroke="black" stroke-linejoin="round"/>
<path d="M33.0508 50C44.0965 50 53.0508 41.0457 53.0508 30C53.0508 18.9543 44.0965 10 33.0508 10C22.0051 10 13.0508 18.9543 13.0508 30C13.0508 41.0457 22.0051 50 33.0508 50Z" stroke="black" stroke-linejoin="round"/>
<path d="M39.166 50C50.2117 50 59.166 41.0457 59.166 30C59.166 18.9543 50.2117 10 39.166 10C28.1203 10 19.166 18.9543 19.166 30C19.166 41.0457 28.1203 50 39.166 50Z" stroke="black" stroke-linejoin="round"/>
</svg>
