<?xml version="1.0" encoding="utf-8"?><svg xmlns="http://www.w3.org/2000/svg" xmlns:xlink="http://www.w3.org/1999/xlink"><symbol viewBox="0 0 25 33.33" id="arrow-down-o" xmlns="http://www.w3.org/2000/svg"><path d="M12.5 30.2V0m11 17-11 13.2L1.55 17" fill="none" stroke="currentColor" stroke-miterlimit="10"/></symbol><symbol viewBox="0 0 16 16" id="arrow-down-right-o" xmlns="http://www.w3.org/2000/svg"><path d="M1.94 14.28h12.22m0 1V2.05m0 12.23L.84.94" fill="none" stroke="currentColor" stroke-width="2"/></symbol><symbol viewBox="0 0 33.33 25" id="arrow-left-o" xmlns="http://www.w3.org/2000/svg"><path d="M33.33 12.5H3.17m13.16 11-13.16-11L16.33 1.55" fill="none" stroke="currentColor" stroke-miterlimit="10" stroke-width="4"/></symbol><symbol viewBox="0 0 33.33 25" id="arrow-right-o" xmlns="http://www.w3.org/2000/svg"><path d="M30.16 12.5H0M17 1.55l13.16 11L17 23.45" fill="none" stroke="currentColor" stroke-miterlimit="10" stroke-width="4"/></symbol><symbol viewBox="0 0 25 33.33" id="arrow-up-o" xmlns="http://www.w3.org/2000/svg"><path d="M12.5 33.33V3.17M1.55 16.33l11-13.16 11 13.16" fill="none" stroke="currentColor" stroke-miterlimit="10" stroke-width="4"/></symbol><symbol viewBox="0 0 16 16" id="arrow-up-right-o" xmlns="http://www.w3.org/2000/svg"><path fill="none" stroke="currentColor" stroke-width="2" d="M14.67 13.67V1.45m1 0H2.44m12.23 0L1.33 14.78"/></symbol><symbol viewBox="0 0 32 19.28" id="chevron-down-o" xmlns="http://www.w3.org/2000/svg"><path fill="none" stroke="currentColor" stroke-miterlimit="10" stroke-width="4" d="m1.5 1.4 14.63 15 14.37-15"/></symbol><symbol viewBox="0 0 19.28 32" id="chevron-left-o" xmlns="http://www.w3.org/2000/svg"><path fill="none" stroke="currentColor" stroke-miterlimit="10" stroke-width="4" d="m17.88 1.5-15 14.37 15 14.63"/></symbol><symbol viewBox="0 0 19.28 32" id="chevron-right-o" xmlns="http://www.w3.org/2000/svg"><path fill="none" stroke="currentColor" stroke-miterlimit="10" stroke-width="4" d="m1.4 30.5 15-14.63L1.4 1.5"/></symbol><symbol viewBox="0 0 32 19.28" id="chevron-up-o" xmlns="http://www.w3.org/2000/svg"><path fill="none" stroke="currentColor" stroke-miterlimit="10" stroke-width="4" d="m30.5 17.88-14.37-15-14.63 15"/></symbol><symbol viewBox="0 0 94 20" id="logo" xmlns="http://www.w3.org/2000/svg"><path d="M7.32 16.46a4 4 0 0 1-3.85-4.14 4 4 0 0 1 3.85-4.14 3.78 3.78 0 0 1 3.28 2l2.54-1.68A6.75 6.75 0 0 0 7.33 5 7.14 7.14 0 0 0 .5 12.33a7.13 7.13 0 0 0 6.83 7.34 6.74 6.74 0 0 0 5.74-3.35l-2.5-1.73a3.87 3.87 0 0 1-3.25 1.87zm16.8-2.79a2.81 2.81 0 0 1-2.83 2.79H21a2.81 2.81 0 0 1-2.83-2.79v-8.4h-3.38v8.52a5.93 5.93 0 0 0 6 5.87h.73a5.93 5.93 0 0 0 6-5.87V5.28h-3.39v8.39zm39.12-8.39h-3.05v14h3.05v-6.37c0-3.32 2-4.62 4.49-4.62v-3a8 8 0 0 0-4.49 1.3zM79.6 18.79a6.44 6.44 0 0 1-3.13.82 7.14 7.14 0 0 1-6.83-7.29V.33h3v5h5.24v3h-5.19v4a4 4 0 0 0 3.78 4.09 3.47 3.47 0 0 0 1.47-.32zm7-13.87a7.12 7.12 0 0 0-6.86 7.35 6.88 6.88 0 1 0 13.72 0 7.12 7.12 0 0 0-6.82-7.35zm0 11.49a4 4 0 0 1-3.87-4.14 3.87 3.87 0 1 1 7.73 0 4 4 0 0 1-3.82 4.14zM36.48 4.92a6.5 6.5 0 0 0-3.81 1.24V.33h-3.05v12a7.12 7.12 0 0 0 6.86 7.35 7.12 7.12 0 0 0 6.87-7.35 7.13 7.13 0 0 0-6.87-7.41zm0 11.49a4 4 0 0 1-3.87-4.14 3.87 3.87 0 1 1 7.73 0 4 4 0 0 1-3.86 4.14zm21.91-2.9a8.32 8.32 0 0 0 .09-1.24 8.66 8.66 0 0 0-.09-1.27 7 7 0 0 0-6.76-6.1 7.12 7.12 0 0 0-6.86 7.35 7.12 7.12 0 0 0 6.86 7.35 6.77 6.77 0 0 0 5.73-3.31l-2.49-1.76a3.8 3.8 0 0 1-3.23 1.86 3.92 3.92 0 0 1-3.69-2.9zm-6.76-5.39A3.92 3.92 0 0 1 55.32 11H48a3.89 3.89 0 0 1 3.63-2.88z" fill="currentColor"/></symbol><symbol viewBox="0 0 65 65" id="star" xmlns="http://www.w3.org/2000/svg"><path d="m34.2 25.05-1.7-13.26-1.7 13.26-7.28-11.2 4.22 12.68-11.43-6.94 9.3 9.6-13.3-1.3 12.55 4.61-12.55 4.6 13.3-1.28-9.3 9.6 11.43-6.95-4.22 12.69 7.28-11.21 1.7 13.26 1.7-13.26 7.28 11.2-4.22-12.68 11.43 6.94-9.3-9.6 13.3 1.3-12.55-4.61 12.55-4.6-13.3 1.28 9.3-9.6-11.43 6.95 4.23-12.69-7.29 11.21ZM46.6 3.22l-6.62 19.9L57.9 12.24 43.31 27.3l20.88-2.03-19.7 7.23 19.7 7.23L43.3 37.7l14.6 15.06-17.93-10.88 6.62 19.9L35.17 44.2 32.5 65l-2.67-20.8L18.4 61.77l6.62-19.9L7.1 52.76 21.7 37.7.82 39.73l19.7-7.23L.8 25.27l20.9 2.03L7.1 12.24l17.92 10.88-6.62-19.9L29.83 20.8 32.5 0l2.67 20.8L46.6 3.23Z" fill="currentColor"/></symbol><symbol viewBox="0 0 49 49" id="star2" xmlns="http://www.w3.org/2000/svg"><path fill-rule="evenodd" clip-rule="evenodd" d="m25.47 20.57-.97-6.66-.97 6.66-3.95-5.45 2.24 6.35-6.04-2.99 4.94 4.59-6.74.15 6.5 1.77-5.88 3.27 6.57-1.46-3.7 5.63 5.15-4.35-.65 6.7 2.53-6.23 2.54 6.23-.66-6.7 5.14 4.35-3.69-5.63 6.57 1.46-5.88-3.27 6.5-1.77-6.74-.15 4.94-4.59-6.04 3 2.24-6.36-3.95 5.45ZM35.89 2.81 30.7 17.49l13.95-6.9-11.4 10.6 15.56.36-15.03 4.08 13.62 7.56-15.2-3.37 8.54 13.02-11.9-10.05 1.51 15.5-5.86-14.43-5.86 14.43 1.51-15.5-11.9 10.05 8.55-13.02-15.2 3.37 13.6-7.56-15-4.08 15.57-.37-11.41-10.6 13.95 6.91-5.18-14.68 9.15 12.6L24.5 0l2.24 15.41 9.15-12.6Z" fill="currentColor"/></symbol><symbol viewBox="0 0 32 32" id="times-o" xmlns="http://www.w3.org/2000/svg"><path fill="none" stroke="currentColor" stroke-miterlimit="10" stroke-width="4" d="m1.5 1.5 29 29M1.5 30.5l29-29"/></symbol>
<symbol
  id="overcircles"
  xmlns="http://www.w3.org/2000/svg"
  xmlns:xlink="http://www.w3.org/1999/xlink"
  viewBox="0 0 115 109"
  preserveAspectRatio="xMidYMid meet"
  style="will-change: auto; content-visibility: visible"
  class="rotter"
>
  <defs>
    <clipPath id="__lottie_element_17"><rect width="115" height="109" x="0" y="0"></rect></clipPath>
  </defs>
  <g clip-path="url(#__lottie_element_17)">
    <g transform="matrix(1,0,0,1,58,55.5)" opacity="1" style="display: block">
      <g
        opacity="1"
        transform="matrix(0.7407928705215454,-0.6717334985733032,0.6717334985733032,0.7407928705215454,14.802000045776367,-13.645000457763672)"
      >
        <path
          stroke-linecap="butt"
          stroke-linejoin="miter"
          fill-opacity="0"
          stroke-miterlimit="4"
          stroke="rgb(0,0,0)"
          stroke-opacity="0.6900000000000001"
          stroke-width="3"
          d=" M-39.49300003051758,0 C-39.49300003051758,-21.81100082397461 -21.81100082397461,-39.49300003051758 0,-39.49300003051758 C21.81100082397461,-39.49300003051758 39.49300003051758,-21.81100082397461 39.49300003051758,0 C39.49300003051758,21.81100082397461 21.81100082397461,39.49300003051758 0,39.49300003051758 C-7.888999938964844,39.49300003051758 -15.23799991607666,37.17900085449219 -21.4060001373291,33.19300079345703"
        ></path>
      </g>
    </g>
    <g transform="matrix(1,0,0,1,60.25,55)" opacity="1" style="display: block">
      <g
        opacity="1"
        transform="matrix(1.1941800117492676,0,0,1.1800199747085571,-16.87299919128418,12.029000282287598)"
      >
        <path
          stroke-linecap="butt"
          stroke-linejoin="miter"
          fill-opacity="0"
          stroke-miterlimit="4"
          stroke="rgb(0,0,0)"
          stroke-opacity="0.6900000000000001"
          stroke-width="3"
          d=" M0,-33.819000244140625 C18.66470718383789,-33.819000244140625 33.819000244140625,-18.66470718383789 33.819000244140625,0 C33.819000244140625,18.66470718383789 18.66470718383789,33.819000244140625 0,33.819000244140625 C-18.66470718383789,33.819000244140625 -33.819000244140625,18.66470718383789 -33.819000244140625,0 C-33.819000244140625,-18.628999710083008 -18.722000122070312,-33.76100158691406 -0.10599999874830246,-33.819000244140625"
        ></path>
      </g>
    </g>
    <g
      transform="matrix(0.14349883794784546,0,0,0.14349883794784546,50.48525619506836,71.83685302734375)"
      opacity="1"
      style="display: block"
    >
      <g
        opacity="1"
        transform="matrix(1.1941800117492676,0,0,1.1800199747085571,-16.87299919128418,12.029000282287598)"
      >
        <path
          fill="rgb(0,0,0)"
          fill-opacity="1"
          d=" M0,-33.819000244140625 C18.66470718383789,-33.819000244140625 33.819000244140625,-18.66470718383789 33.819000244140625,0 C33.819000244140625,18.66470718383789 18.66470718383789,33.819000244140625 0,33.819000244140625 C-18.66470718383789,33.819000244140625 -33.819000244140625,18.66470718383789 -33.819000244140625,0 C-33.819000244140625,-18.66470718383789 -18.66470718383789,-33.819000244140625 0,-33.819000244140625z"
        ></path>
      </g>
    </g>
  </g>
</symbol>

<symbol id="html" width="56" height="56" fill="none" xmlns="http://www.w3.org/2000/svg"><path fill-rule="evenodd" clip-rule="evenodd" d="m3.26 0 4.46 49.99 20 5.65 20.1-5.65L52.27 0H3.26Zm24.45 22.6h-8.04l-.54-6.3H42.6l.1-1.3.33-3.15.11-1.63H12.4l.1 1.63 1.53 16.95H35.32l-.76 7.93-6.85 1.85-6.85-1.85-.43-4.89h-6.09l.76 9.67L27.71 45h.1v-.03l12.5-3.45.12-1.08 1.4-16.2.23-1.63H27.72Z" fill="#fff"/></symbol>

<symbol id="js" width="56" height="56" fill="none" xmlns="http://www.w3.org/2000/svg"><path fill-rule="evenodd" clip-rule="evenodd" d="M0 0h56v56H0V0Zm42.8 46.95c-2.59 0-4.05-1.36-5.18-3.2l-4.28 2.48c1.55 3.06 4.7 5.39 9.59 5.39 5 0 8.72-2.6 8.72-7.34 0-4.4-2.52-6.35-7-8.26l-1.31-.57c-2.26-.98-3.24-1.61-3.24-3.2 0-1.27.98-2.25 2.52-2.25 1.51 0 2.49.64 3.39 2.26l4.1-2.63c-1.74-3.05-4.14-4.22-7.49-4.22-4.7 0-7.7 3-7.7 6.95 0 4.29 2.52 6.31 6.32 7.93l1.31.57c2.4 1.05 3.83 1.69 3.83 3.49 0 1.5-1.4 2.6-3.57 2.6Zm-20.39-.04c-1.8 0-2.56-1.24-3.38-2.7l-4.29 2.59c1.25 2.63 3.69 4.8 7.9 4.8 4.66 0 7.86-2.47 7.86-7.92V25.7h-5.27v17.9c0 2.63-1.09 3.3-2.82 3.3Z" fill="#fff"/></symbol>
<symbol id="kotlin" width="115" height="25" fill="none" xmlns="http://www.w3.org/2000/svg"><path d="M108.86 7a5.97 5.97 0 0 0-5.37 3.14l-.02-2.72H100V25h3.61v-9.83c0-.95.17-1.8.52-2.53.34-.74.83-1.3 1.46-1.71.63-.41 1.36-.61 2.21-.61.76 0 1.41.16 1.95.5.55.32.95.8 1.23 1.41.27.63.4 1.36.4 2.21V25H115V13.91a7.87 7.87 0 0 0-.74-3.6 5.87 5.87 0 0 0-2.15-2.43c-.93-.59-2-.88-3.25-.88ZM92 0v3.88h4V0h-4Zm0 7.4V25h3.96V7.4H92ZM84 0v25h4V0h-4ZM73.22 3v2.99c0 .47-.11.82-.34 1.05-.23.23-.58.36-1.07.36H70v3.16h3.16v9.47c0 .98.2 1.86.6 2.6.39.76.96 1.34 1.7 1.75.73.4 1.6.62 2.61.62h2.83v-3.3h-2.13c-.55 0-1-.18-1.35-.56a2.2 2.2 0 0 1-.5-1.53v-9.04H81V7.4h-4.09V3h-3.69ZM60.07 7c-1.75 0-3.3.39-4.69 1.16a8.32 8.32 0 0 0-3.23 3.2A9.29 9.29 0 0 0 51 16c0 1.74.38 3.28 1.15 4.65a8.1 8.1 0 0 0 3.2 3.2 9.44 9.44 0 0 0 4.7 1.15c1.72 0 3.26-.39 4.63-1.16a8.19 8.19 0 0 0 3.18-3.2A9.41 9.41 0 0 0 69 16c0-1.74-.38-3.28-1.14-4.65a8.1 8.1 0 0 0-3.18-3.2A9.16 9.16 0 0 0 60.07 7Zm-.03 3.32c.98 0 1.85.24 2.63.72a4.9 4.9 0 0 1 1.77 2c.42.86.62 1.84.62 2.97.02 1.12-.19 2.1-.62 2.96a4.75 4.75 0 0 1-4.4 2.72c-1 0-1.9-.23-2.68-.72a5 5 0 0 1-1.81-2A6.5 6.5 0 0 1 54.9 16c0-1.12.22-2.11.65-2.97a4.84 4.84 0 0 1 4.5-2.72Z" fill="#fff"/><path d="M47.07 1 36.8 12.06V1.04H33V25h3.8V13.39L47.1 25H52L41 12.6 51.8 1h-4.73ZM24 25H0V1h24L11.75 12.82 24 25Z" fill="#fff"/></symbol>

<symbol id="mobile" width="100" height="36" fill="none" xmlns="http://www.w3.org/2000/svg"><rect width="100" height="36" rx="18" fill="#E0FD60"/><path d="M32.28 11.38v13.78h-1.81V14.4l-4.51 7.5h-.24l-4.51-7.48v10.75h-1.83V11.38h2.07l4.39 7.28 4.37-7.28h2.07ZM45.7 23.33a6.85 6.85 0 0 1-5.06 2.09c-2 0-3.68-.7-5.06-2.1a6.92 6.92 0 0 1-2.07-5.05c0-2 .7-3.68 2.07-5.06a6.85 6.85 0 0 1 5.06-2.09c2 0 3.68.7 5.06 2.09a6.85 6.85 0 0 1 2.09 5.06 6.9 6.9 0 0 1-2.09 5.06Zm-8.86-1.24a5.16 5.16 0 0 0 3.8 1.53 5.23 5.23 0 0 0 5.32-5.36c0-1.51-.52-2.79-1.54-3.81a5.06 5.06 0 0 0-3.78-1.56 5.22 5.22 0 0 0-5.32 5.38c0 1.5.5 2.78 1.52 3.82ZM56.88 18a3.6 3.6 0 0 1 2.07 3.25 3.93 3.93 0 0 1-4 3.9H49V11.38h5.52a3.8 3.8 0 0 1 3.86 3.76c0 1.22-.5 2.18-1.5 2.87Zm-2.36-4.92h-3.68v4.21h3.68c.58 0 1.06-.2 1.46-.6.39-.41.59-.91.59-1.5 0-.58-.2-1.07-.61-1.48a1.9 1.9 0 0 0-1.44-.63Zm.43 10.36a2.2 2.2 0 0 0 2.19-2.24c0-.62-.22-1.15-.65-1.58a2.06 2.06 0 0 0-1.54-.65h-4.11v4.47h4.11Zm5.19-12.07h1.83v13.78h-1.83V11.38Zm5.63 12.05h5.95v1.73h-7.78V11.38h1.83v12.05Zm8.63 0h6.4v1.73h-8.23V11.38h8.13v1.73h-6.3v4.23h5.81v1.72h-5.8v4.37Z" fill="#0D0D0D"/></symbol>

<symbol id="nodejs" width="97" height="59" fill="none" xmlns="http://www.w3.org/2000/svg"><path d="M47.65 59c-.33 0-.64-.09-.92-.24l-2.9-1.72c-.43-.24-.21-.33-.08-.37.59-.2.7-.24 1.3-.59.07-.04.16-.02.22.02l2.22 1.33c.1.05.2.05.26 0l8.7-5.03c.08-.04.13-.13.13-.24V42.12c0-.1-.05-.2-.14-.24l-8.69-5c-.08-.05-.2-.05-.26 0l-8.69 5c-.08.05-.13.15-.13.24v10.04c0 .09.05.2.13.24l2.38 1.37c1.28.66 2.09-.1 2.09-.87V43c0-.14.1-.27.26-.27h1.11c.13 0 .26.11.26.26v9.91c0 1.72-.93 2.72-2.57 2.72-.5 0-.9 0-2-.54l-2.29-1.3a1.84 1.84 0 0 1-.91-1.6V42.14c0-.65.35-1.26.91-1.59l8.7-5.03c.54-.3 1.28-.3 1.82 0l8.7 5.03c.56.33.9.94.9 1.6v10.03c0 .66-.34 1.27-.9 1.6l-8.7 5.02c-.28.13-.6.2-.91.2Zm2.67-6.9c-3.8 0-4.59-1.75-4.59-3.23 0-.13.1-.26.26-.26h1.13c.13 0 .24.09.24.22.18 1.15.68 1.72 2.99 1.72 1.83 0 2.61-.41 2.61-1.4 0-.56-.22-.97-3.07-1.26-2.37-.24-3.86-.76-3.86-2.65 0-1.77 1.49-2.81 3.97-2.81 2.79 0 4.16.95 4.33 3.05 0 .06-.02.13-.06.2-.05.03-.11.08-.18.08h-1.13a.25.25 0 0 1-.24-.2c-.26-1.2-.94-1.59-2.72-1.59-2 0-2.25.7-2.25 1.22 0 .63.29.83 2.99 1.18 2.68.35 3.94.85 3.94 2.72-.02 1.92-1.59 3-4.36 3ZM20.69 19.73c0-.39-.22-.76-.57-.96l-9.23-5.31a1.34 1.34 0 0 0-.5-.15h-.09c-.17 0-.35.06-.5.15L.57 18.77c-.35.2-.57.57-.57.96l.02 14.29c0 .2.11.4.28.48.18.1.4.1.55 0l5.49-3.14c.35-.2.56-.56.56-.96v-6.68c0-.4.22-.77.57-.96L9.8 21.4c.17-.11.37-.15.57-.15.2 0 .39.04.54.15l2.33 1.35c.35.2.57.57.57.96v6.68c0 .4.22.77.56.96l5.5 3.14c.17.1.38.1.56 0a.54.54 0 0 0 .28-.48l-.02-14.29ZM65.08.07a.6.6 0 0 0-.55 0 .57.57 0 0 0-.28.47V14.7c0 .13-.07.26-.2.35a.42.42 0 0 1-.39 0l-2.3-1.33a1.12 1.12 0 0 0-1.12 0l-9.23 5.34c-.35.2-.57.56-.57.95v10.65c0 .4.22.77.57.96l9.23 5.34a1.12 1.12 0 0 0 1.11 0l9.24-5.34c.34-.2.56-.56.56-.96V4.12c0-.42-.22-.79-.56-.98L65.08.07Zm-.85 27.09c0 .1-.05.2-.13.24l-3.16 1.83a.32.32 0 0 1-.29 0L57.5 27.4c-.1-.05-.13-.15-.13-.24V23.5c0-.11.04-.2.13-.24l3.15-1.83a.32.32 0 0 1 .29 0l3.16 1.83c.08.04.13.15.13.24v3.66ZM95.8 23.4c.34-.2.54-.56.54-.96v-2.59c0-.39-.22-.76-.54-.96l-9.17-5.31a1.12 1.12 0 0 0-1.11 0l-9.24 5.34c-.35.2-.56.56-.56.95v10.65c0 .4.21.77.56.96l9.17 5.23c.35.2.76.2 1.09 0l5.55-3.1a.54.54 0 0 0 .29-.47c0-.2-.11-.4-.29-.48l-9.27-5.34a.57.57 0 0 1-.29-.48v-3.33c0-.2.11-.39.29-.48l2.9-1.65a.53.53 0 0 1 .56 0l2.9 1.65c.17.11.28.29.28.48v2.61c0 .2.1.4.28.48.17.11.4.11.57 0l5.49-3.2Z" fill="#fff"/><path d="M85.95 22.91a.2.2 0 0 1 .21 0l1.77 1.02c.06.05.1.11.1.2v2.05c0 .08-.04.15-.1.2l-1.77 1.02a.2.2 0 0 1-.21 0l-1.77-1.03a.23.23 0 0 1-.1-.2v-2.04c0-.09.04-.15.1-.2l1.77-1.02ZM36.14 13.64a1.12 1.12 0 0 0-1.11 0l-9.17 5.29c-.35.2-.55.56-.55.96v10.6c0 .4.22.76.55.96l9.17 5.3a1.12 1.12 0 0 0 1.1 0l9.18-5.3c.34-.2.54-.57.54-.96V19.9c0-.4-.22-.77-.54-.96l-9.17-5.3Z" fill="#fff"/></symbol>

<symbol id="react" width="59" height="53" fill="none" xmlns="http://www.w3.org/2000/svg"><path d="M58.43 26.02c0-3.87-4.85-7.54-12.28-9.81 1.71-7.58.95-13.6-2.4-15.53A5.22 5.22 0 0 0 41.06 0v2.66c.55 0 1 .1 1.36.3 1.62.94 2.32 4.47 1.78 9.02-.13 1.12-.35 2.3-.61 3.5a57.7 57.7 0 0 0-7.56-1.3 58.1 58.1 0 0 0-4.96-5.95c3.88-3.6 7.53-5.58 10-5.58V0c-3.27 0-7.56 2.33-11.9 6.38C24.86 2.36 20.58.05 17.3.05V2.7c2.47 0 6.12 1.97 10 5.55a56.25 56.25 0 0 0-4.91 5.95c-2.7.28-5.24.72-7.58 1.3-.27-1.19-.47-2.34-.62-3.45-.56-4.55.13-8.08 1.74-9.03.36-.2.82-.3 1.37-.3V.06c-1 0-1.9.21-2.69.67-3.35 1.93-4.1 7.94-2.37 15.49C4.83 18.51 0 22.16 0 26.02c0 3.87 4.85 7.54 12.28 9.81-1.72 7.58-.95 13.6 2.4 15.53.78.46 1.68.67 2.68.67 3.28 0 7.57-2.33 11.9-6.38 4.34 4.02 8.62 6.33 11.9 6.33 1 0 1.9-.21 2.69-.66 3.35-1.93 4.1-7.95 2.37-15.5 7.38-2.27 12.2-5.94 12.2-9.8Zm-15.51-7.94a53.69 53.69 0 0 1-1.6 4.7 56.4 56.4 0 0 0-3.28-5.64c1.69.25 3.32.56 4.88.94Zm-5.45 12.68a63.41 63.41 0 0 1-2.87 4.55 61.93 61.93 0 0 1-10.75.01 65.67 65.67 0 0 1-5.36-9.26 62.11 62.11 0 0 1 5.34-9.3 61.97 61.97 0 0 1 10.74-.02 65.67 65.67 0 0 1 5.36 9.27c-.75 1.6-1.57 3.2-2.46 4.75Zm3.84-1.55c.65 1.6 1.2 3.2 1.65 4.74-1.56.38-3.2.7-4.91.96a65.78 65.78 0 0 0 3.26-5.7Zm-12.07 12.7a49.1 49.1 0 0 1-3.31-3.8 73.78 73.78 0 0 0 6.58 0 46.48 46.48 0 0 1-3.27 3.81Zm-8.86-7a53.7 53.7 0 0 1-4.89-.95c.44-1.53 1-3.12 1.61-4.7a56.37 56.37 0 0 0 3.28 5.65Zm8.8-24.79a49.08 49.08 0 0 1 3.3 3.81 73.62 73.62 0 0 0-6.58 0 46.49 46.49 0 0 1 3.28-3.8Zm-8.82 7.02a65.84 65.84 0 0 0-3.26 5.68c-.64-1.6-1.19-3.2-1.64-4.74 1.56-.37 3.2-.7 4.9-.94ZM9.6 32.04c-4.22-1.8-6.95-4.15-6.95-6.02 0-1.87 2.73-4.24 6.95-6.02 1.02-.45 2.14-.84 3.3-1.2a57.2 57.2 0 0 0 2.67 7.24 56.4 56.4 0 0 0-2.64 7.22 36.2 36.2 0 0 1-3.33-1.21Zm6.4 17.02c-1.62-.92-2.32-4.46-1.77-9.01.13-1.12.34-2.3.6-3.5 2.34.57 4.89 1.01 7.57 1.3 1.6 2.2 3.27 4.2 4.95 5.95-3.88 3.61-7.52 5.59-10 5.59a2.84 2.84 0 0 1-1.35-.33ZM44.24 40c.56 4.55-.13 8.09-1.74 9.03-.35.21-.82.3-1.37.3-2.46 0-6.12-1.96-10-5.54a56.24 56.24 0 0 0 4.92-5.95c2.69-.28 5.24-.72 7.57-1.3.28 1.2.5 2.35.62 3.46Zm4.59-7.94c-1.03.44-2.15.83-3.3 1.2A57.2 57.2 0 0 0 42.85 26c1.1-2.48 1.98-4.9 2.64-7.22 1.18.37 2.3.77 3.35 1.22 4.21 1.8 6.94 4.15 6.94 6.02-.01 1.87-2.74 4.24-6.95 6.03Z" fill="#fff"/><path d="M29.2 31.46a5.44 5.44 0 1 0 0-10.88 5.44 5.44 0 0 0 0 10.88Z" fill="#fff"/></symbol>


<symbol id="swift" width="123" height="38" fill="none" xmlns="http://www.w3.org/2000/svg"><path fill-rule="evenodd" clip-rule="evenodd" d="M37.98 9.38a52.88 52.88 0 0 1 .02 2.45v15.64c0 .39 0 .77-.02 1.15-.02.83-.07 1.67-.22 2.5a7.97 7.97 0 0 1-6.64 6.64c-.83.15-1.67.2-2.5.22l-1.15.02H10.53l-1.15-.02c-.83-.02-1.67-.07-2.5-.22a7.97 7.97 0 0 1-6.64-6.64c-.15-.83-.2-1.67-.22-2.5A54.75 54.75 0 0 1 0 26.27V11.74a189.4 189.4 0 0 1 .02-2.36c.02-.83.07-1.67.22-2.5A7.97 7.97 0 0 1 6.88.24a14.49 14.49 0 0 1 2.5-.22L10.53 0H26.1a241.43 241.43 0 0 1 2.51.02c.83.02 1.67.07 2.5.22a7.97 7.97 0 0 1 6.64 6.64c.15.83.2 1.67.22 2.5Zm-7.4 13.9v.01c3.3 4.07 2.4 8.43 1.98 7.6-1.72-3.35-4.94-2.5-6.56-1.65a10.68 10.68 0 0 1-.44.25l-.03.01c-3.38 1.8-7.93 1.94-12.5-.03A20.13 20.13 0 0 1 4 21.7c1.04.77 2.16 1.45 3.36 2 4.83 2.27 9.68 2.11 13.12 0-4.89-3.76-8.97-8.67-12.1-12.64-.6-.72-1.15-1.46-1.6-2.23 3.74 3.44 9.66 7.75 11.78 8.95a85.15 85.15 0 0 1-8.3-10.46 83.06 83.06 0 0 0 13.66 11.22c.24.13.43.24.57.34.14-.35.26-.7.36-1.07 1.13-4.15-.14-8.9-3.03-12.82 6.59 3.96 10.48 11.49 8.88 17.85l-.1.37-.02.07Z" fill="#fff"/><path d="M52.44 24.62c.3 2.64 2.81 4.36 6.3 4.36 3.32 0 5.71-1.72 5.71-4.11 0-2.06-1.44-3.32-4.78-4.15l-3.23-.82c-4.65-1.15-6.74-3.25-6.74-6.7 0-4.25 3.72-7.2 9.01-7.2 5.13 0 8.78 2.96 8.9 7.24h-3.4c-.26-2.62-2.4-4.22-5.59-4.22-3.16 0-5.36 1.62-5.36 3.99 0 1.85 1.36 2.95 4.72 3.8l2.69.7c5.2 1.27 7.33 3.3 7.33 6.94 0 4.64-3.69 7.55-9.55 7.55-5.45 0-9.17-2.9-9.45-7.38h3.44ZM89.95 31h-3.42l-4-13.75h-.06L78.48 31h-3.42L70 13h3.32l3.52 14.45h.07L80.9 13h3.22l4.01 14.45h.07L91.72 13H95l-5.05 18ZM97 7.98A2 2 0 0 1 99 6a2 2 0 0 1 2 1.98 2 2 0 0 1-2 2 2 2 0 0 1-2-2Zm.35 4.88h3.3V31h-3.3V12.86ZM123 16.27v-2.7h-3.51V9.2h-3.31v4.38h-6.35v-1.6c.02-1.64.64-2.32 2.14-2.32.48 0 .97.05 1.37.12V7.14a11.5 11.5 0 0 0-1.76-.14c-3.54 0-5.04 1.5-5.04 4.9v1.67H104v2.7h2.54V31.9h3.3V16.27h6.34V27.1c0 3.54 1.34 4.91 4.82 4.91.75 0 1.6-.05 1.98-.14v-2.73c-.22.03-.89.08-1.25.08-1.55 0-2.24-.73-2.24-2.38V16.27H123Z" fill="#fff"/></symbol>

<symbol id="web" width="77" height="37" fill="none" xmlns="http://www.w3.org/2000/svg"><rect width="77" height="37" rx="18.5" fill="#E0FD60"/><path d="m22.66 25.26-4.02-13.97h1.96l3.2 11.5 3.39-11.5h1.87l3.4 11.5 3.19-11.5h1.96l-4.02 13.97h-2.15L28.13 14.1 24.8 25.26h-2.15Zm17.8-1.76h6.49v1.76H38.6V11.29h8.25v1.75h-6.39v4.3h5.89v1.73h-5.89v4.43Zm15.71-5.49a3.65 3.65 0 0 1 2.1 3.3 3.98 3.98 0 0 1-4.05 3.95h-6.03V11.29h5.59a3.85 3.85 0 0 1 3.91 3.8c0 1.25-.5 2.22-1.52 2.92Zm-2.39-4.99h-3.73v4.27h3.73c.59 0 1.08-.2 1.48-.61.4-.42.6-.92.6-1.52 0-.59-.21-1.09-.62-1.5-.4-.42-.89-.64-1.46-.64Zm.44 10.5a2.23 2.23 0 0 0 2.22-2.28c0-.62-.23-1.15-.66-1.59a2.09 2.09 0 0 0-1.56-.66h-4.17v4.53h4.17Z" fill="#0D0D0D"/></symbol>

<symbol id="java" width="110" height="59" fill="none" xmlns="http://www.w3.org/2000/svg"><path fill-rule="evenodd" clip-rule="evenodd" d="M70.83 43.12c-.01.4-.94.94-1.25 1.14-1.4.9-3.41 1.5-4.72.16-1.27-1.3-.92-3.72.45-4.58a5.78 5.78 0 0 1 2.52-.7c.75-.07 2.29-.2 2.99-.12l.01 4.1Zm-9.47-12.5.55 2.2c.92-.23 1.48-.56 2.87-.84a10.7 10.7 0 0 1 3.42-.19c1.17.16 1.82.6 2.23 1.5.2.44.3.96.37 1.51l-.02 1.79c-.07.04-3.5.26-3.98.32-3.42.45-6.85 2.35-6.32 6.72.33 2.73 1.77 3.97 4.47 4.3 1.47.18 2.45 0 3.67-.52.52-.22 1-.48 1.44-.76.58-.37 1.1-.9 1.2-.97l.37 1.87h2.77c.05-.57.01-7.57.01-8.35V35c0-1.35-.1-2.42-.72-3.42-1.88-3.05-5.96-2.9-9.33-2.08-.75.19-2.54.7-3 1.1M105.83 43.35c-.24.14-.5.39-.77.59a6.19 6.19 0 0 1-2.78 1.24c-3.05.38-3.77-2.83-2.8-4.5 1.06-1.76 4.38-1.66 6.36-1.67l-.01 4.34ZM96.36 30.6c.02.35.44 1.95.57 2.2.52-.1 1.65-.59 2.89-.84 1.8-.36 4.75-.66 5.62 1.31.35.81.6 3.05.36 3.3-.16.12-1.66.13-2 .16-1.99.12-3.63.28-5.35 1.2a5.28 5.28 0 0 0-2.97 5.72c.34 2.74 1.78 3.94 4.48 4.29a7.24 7.24 0 0 0 5.11-1.29c.7-.44.98-.82 1.22-.98l.35 1.88h2.78V35c0-1.41-.1-2.4-.73-3.45-1.82-3.04-6.02-2.84-9.31-2.05-.78.18-2.54.68-3.02 1.1ZM83.12 48h4.58c.15-.04.47-.76.56-.93.18-.35.31-.67.47-1.01.31-.66.6-1.4.87-2.1 1.1-2.9 2-6.07 2.76-9.1a62 62 0 0 0 1.07-4.85H90c-.75-.01-.44-.1-.64 1.39-.21 1.55-.54 3.1-.92 4.56-.28 1.06-2.22 7.84-2.61 8.28l-.98-3.63c-.37-1.21-.7-2.37-1.09-3.56l-1.69-5.27c-.2-.59-.37-1.22-.6-1.77h-4.04c.01.34 2.65 8.44 2.83 9 .49 1.55.96 2.96 1.43 4.48.47 1.49 1.01 3.03 1.43 4.5M54.4 29.27V45.4c0 3-.97 6.41-3.97 7.4.17.36 1.46 1.69 1.8 2.2a7.78 7.78 0 0 0 5.11-4.4c1.27-2.6 1.07-5.35 1.07-8.46 0-6.36.03-12.73 0-19.1-.47-.08-3.22-.02-4-.02v6.25M21.99 32l-1.25-1.81c-.4-.6-.8-1.26-1.18-1.92a17.86 17.86 0 0 1-1.92-4.3c-.7-2.8 1.03-4.55 2.55-6.4.23-.27.5-.53.75-.8 1.6-1.69 3.79-3.7 5.49-5.37a9.25 9.25 0 0 0 2.97-6.33c.11-1.44-.16-4.52-1.17-5.07.3 2.16.37 3.62-.5 5.79-1.01 2.51-2.65 4.02-4.55 5.5a95.44 95.44 0 0 0-5.44 4.68c-.87.83-2.33 2.3-2.94 3.75-.9 2.13-.01 3.53.95 5.02.46.71.93 1.32 1.42 1.96.57.74 1.08 1.25 1.53 1.83.48.62 1.08 1.19 1.6 1.77.33.37 1.36 1.47 1.69 1.7M40.6 50.52c.6.98 0 1.4-.84 1.79-3.71 1.73-16.29 2.05-20.21 2.11-4 .06-8.04-.1-11.9-.77-.63-.11-3.38-.55-3.51-1.28-.09-.45.4-.8.65-.95.9-.55 2.52-.93 3.64-1.14.33-.05 1.1-.14 1.35-.23-1.87-.28-7.8.72-9.1 2.55-.82 1.16.55 1.7 1.46 2 3.42 1.1 10.54 1.33 14.3 1.38 5.6.08 19.11.02 24.06-3.36.3-.2.86-.6.92-1 .07-.5-.52-.97-.83-1.1" fill="#fff"/><path fill-rule="evenodd" clip-rule="evenodd" d="M24.41 34c.6-.2 2.36-1.62 2.84-2.1.62-.63 1.69-1.8 1.78-3.17.08-1.23-.79-2.84-1.32-3.63-1.67-2.49-3.01-3.91-.74-6.67A17 17 0 0 1 29.5 16a48.1 48.1 0 0 1 4.38-3.04l1.54-.97c-.82.1-2.97.95-3.82 1.26a25.65 25.65 0 0 0-3.46 1.63c-3.42 1.94-6.79 4.98-5.4 9.18.92 2.84 3.64 4.54 3.44 6.67-.12 1.3-1.4 2.6-1.78 3.26M31.43 48.98a16.57 16.57 0 0 1-2.8-1.52c-.54-.35-.33-.32-1.03-.13-2.85.75-7.48.76-10.48.66-.77-.03-2.94-.1-3.38-.87-.28-.49.1-.84.25-1.12-1.96.42-3.96 2.16-1.23 3.6 3.07 1.63 9.53 1.65 12.9 1.01.95-.18 5.3-1.24 5.77-1.63ZM31.43 42.06a4.92 4.92 0 0 1-1.98-1.25c-.43-.4-.28-.3-1.19-.13-3.26.6-12.97 1.67-15.75.38-.36-.16-.78-.41-.8-.89-.03-.56.4-.86.57-1.17-2.23.3-4.38 2.72-1.38 3.87 3.37 1.3 10.65 1.34 14.24.83 1.19-.17 5.38-1.08 6.29-1.64Z" fill="#fff"/><path fill-rule="evenodd" clip-rule="evenodd" d="M34.43 34.13c-.43.02-1 .15-1.44.22-.5.07-.97.15-1.47.21-3 .43-6.34.77-9.35.94-2.34.14-11.2.44-12.52-.8-.1-.56.53-.9.92-1.12 1.52-.82 3.14-1.1 4.63-1.56-2.06-.2-7.26 1.3-9.14 2.47-2.03 1.27 1.35 1.78 2.62 1.96 7.42 1.03 14.35.48 21.68-.57 1.2-.17 1.45-.1 2.27-.62.56-.36 1.3-.73 1.8-1.13M8.43 57.07c2.08.95 6.61 1.53 8.96 1.74 3.31.3 6.94.22 10.25-.03 4.28-.33 9.35-.87 13.12-2.95.9-.5 2.51-1.69 2.67-2.83-.27.13-.5.4-.76.59-6.64 4.98-21.82 4.5-29.66 3.9l-4.58-.42M35.7 32.97c1.62-.53 3.47-.17 4.5.79 1.1 1.04 1.12 3.02.32 4.55-1.08 2.05-3.33 3.87-5.19 5.1-.32.21-.63.37-.9.59 1.2-.13 4.05-1.49 5.13-2.2 1.38-.9 2.93-2.2 3.57-3.91.9-2.42-.42-4.26-1.83-5.14-.8-.5-1.79-.8-2.92-.74-.88.03-2.29.4-2.68.96" fill="#fff"/></symbol>

<symbol  id="vue" height="40" width="40" xmlns="http://www.w3.org/2000/svg" viewBox="0 0 261.76 226.69"><path d="M161.096.001l-30.225 52.351L100.647.001H-.005l130.877 226.688L261.749.001z" fill="#41b883"/><path d="M161.096.001l-30.225 52.351L100.647.001H52.346l78.526 136.01L209.398.001z" fill="#34495e"/></symbol>
</svg>

