<svg width="55" height="60" fill="none" xmlns="http://www.w3.org/2000/svg" class="css-5hz1ob"><path d="M27.62 59.93c14.978 0 27.12-13.31 27.12-29.727C54.74 13.785 42.597.476 27.62.476 12.643.476.501 13.785.501 30.203c0 16.417 12.142 29.726 27.12 29.726z" fill="#18B6F6"></path><path d="M17.166 28.635a1.046 1.046 0 01-.455-.1 1.01 1.01 0 01-.315-.22.91.91 0 01-.197-.316.85.85 0 01.057-.71l2.986-5.442a.973.973 0 01.368-.367 1.103 1.103 0 011.051-.02c.161.083.294.205.385.353l3.317 5.441a.86.86 0 01.09.708.952.952 0 01-.486.559c-.236.12-.515.15-.775.082a1.01 1.01 0 01-.612-.443l-2.368-3.933-2.125 3.878a.96.96 0 01-.376.387 1.086 1.086 0 01-.545.143zM32.878 36.983h-9.472a.98.98 0 01-.708-.306 1.066 1.066 0 01-.293-.737c0-.277.106-.542.293-.738a.98.98 0 01.708-.305h9.472c.265 0 .52.11.708.305.187.196.293.46.293.738 0 .276-.106.541-.293.737a.98.98 0 01-.708.306zM40.173 28.635H32.8a.852.852 0 01-.38-.056.926.926 0 01-.327-.22 1.05 1.05 0 01-.221-.348 1.143 1.143 0 010-.833 1.05 1.05 0 01.22-.347.927.927 0 01.328-.22.852.852 0 01.38-.056h7.374a.852.852 0 01.38.056.925.925 0 01.327.22c.095.098.17.216.222.347a1.143 1.143 0 010 .833c-.052.132-.127.25-.222.348a.925.925 0 01-.327.22.852.852 0 01-.38.056z" fill="#000"></path></svg>