<svg width="20" height="14" viewBox="0 0 20 14" fill="none" xmlns="http://www.w3.org/2000/svg">
<g clip-path="url(#clip0_367_4441)">
<path d="M20 5.18214V8.82267C19.9588 9.85984 19.8194 10.8907 19.5836 11.9011C19.4741 12.3024 19.2581 12.6661 18.959 12.9529C18.6382 13.2787 18.2267 13.4984 17.7791 13.5826C17.1298 13.7708 15.6484 13.9107 13.3349 14.0024H6.66749C4.35087 13.9107 2.86946 13.7708 2.2233 13.5826C1.77531 13.4995 1.36347 13.2797 1.04346 12.9529C0.742723 12.6673 0.526468 12.3032 0.418811 11.9011C0.178347 10.8915 0.0380534 9.86026 0 8.82267V5.18214C0.0381001 4.14376 0.178392 3.11175 0.418811 2.10132C0.527104 1.70016 0.743295 1.33697 1.04346 1.05187C1.36475 0.726832 1.77602 0.507339 2.2233 0.422196C2.86148 0.234017 4.34289 0.0932851 6.66749 0H13.3349C15.6468 0.0948935 17.1282 0.235625 17.7791 0.422196C18.226 0.508478 18.6369 0.727804 18.959 1.05187C19.2575 1.33829 19.4734 1.70099 19.5836 2.10132C19.8193 3.11256 19.9588 4.14418 20 5.18214ZM13.1961 7.00121L8.0555 3.92039V10.0724L13.1961 7.00121Z" fill="black"/>
</g>
<defs>
<clipPath id="clip0_367_4441">
<rect width="20" height="14" fill="white"/>
</clipPath>
</defs>
</svg>
