<svg width="56" height="56" fill="none" xmlns="http://www.w3.org/2000/svg"><path fill-rule="evenodd" clip-rule="evenodd" d="M0 0h56v56H0V0Zm42.8 46.95c-2.59 0-4.05-1.36-5.18-3.2l-4.28 2.48c1.55 3.06 4.7 5.39 9.59 5.39 5 0 8.72-2.6 8.72-7.34 0-4.4-2.52-6.35-7-8.26l-1.31-.57c-2.26-.98-3.24-1.61-3.24-3.2 0-1.27.98-2.25 2.52-2.25 1.51 0 2.49.64 3.39 2.26l4.1-2.63c-1.74-3.05-4.14-4.22-7.49-4.22-4.7 0-7.7 3-7.7 6.95 0 4.29 2.52 6.31 6.32 7.93l1.31.57c2.4 1.05 3.83 1.69 3.83 3.49 0 1.5-1.4 2.6-3.57 2.6Zm-20.39-.04c-1.8 0-2.56-1.24-3.38-2.7l-4.29 2.59c1.25 2.63 3.69 4.8 7.9 4.8 4.66 0 7.86-2.47 7.86-7.92V25.7h-5.27v17.9c0 2.63-1.09 3.3-2.82 3.3Z" fill="#fff"/></svg>