<svg width="115" height="25" fill="none" xmlns="http://www.w3.org/2000/svg"><path d="M108.86 7a5.97 5.97 0 0 0-5.37 3.14l-.02-2.72H100V25h3.61v-9.83c0-.95.17-1.8.52-2.53.34-.74.83-1.3 1.46-1.71.63-.41 1.36-.61 2.21-.61.76 0 1.41.16 1.95.5.55.32.95.8 1.23 1.41.27.63.4 1.36.4 2.21V25H115V13.91a7.87 7.87 0 0 0-.74-3.6 5.87 5.87 0 0 0-2.15-2.43c-.93-.59-2-.88-3.25-.88ZM92 0v3.88h4V0h-4Zm0 7.4V25h3.96V7.4H92ZM84 0v25h4V0h-4ZM73.22 3v2.99c0 .47-.11.82-.34 1.05-.23.23-.58.36-1.07.36H70v3.16h3.16v9.47c0 .98.2 1.86.6 2.6.39.76.96 1.34 1.7 1.75.73.4 1.6.62 2.61.62h2.83v-3.3h-2.13c-.55 0-1-.18-1.35-.56a2.2 2.2 0 0 1-.5-1.53v-9.04H81V7.4h-4.09V3h-3.69ZM60.07 7c-1.75 0-3.3.39-4.69 1.16a8.32 8.32 0 0 0-3.23 3.2A9.29 9.29 0 0 0 51 16c0 1.74.38 3.28 1.15 4.65a8.1 8.1 0 0 0 3.2 3.2 9.44 9.44 0 0 0 4.7 1.15c1.72 0 3.26-.39 4.63-1.16a8.19 8.19 0 0 0 3.18-3.2A9.41 9.41 0 0 0 69 16c0-1.74-.38-3.28-1.14-4.65a8.1 8.1 0 0 0-3.18-3.2A9.16 9.16 0 0 0 60.07 7Zm-.03 3.32c.98 0 1.85.24 2.63.72a4.9 4.9 0 0 1 1.77 2c.42.86.62 1.84.62 2.97.02 1.12-.19 2.1-.62 2.96a4.75 4.75 0 0 1-4.4 2.72c-1 0-1.9-.23-2.68-.72a5 5 0 0 1-1.81-2A6.5 6.5 0 0 1 54.9 16c0-1.12.22-2.11.65-2.97a4.84 4.84 0 0 1 4.5-2.72Z" fill="#fff"/><path d="M47.07 1 36.8 12.06V1.04H33V25h3.8V13.39L47.1 25H52L41 12.6 51.8 1h-4.73ZM24 25H0V1h24L11.75 12.82 24 25Z" fill="#fff"/></svg>