<svg width="97" height="59" fill="none" xmlns="http://www.w3.org/2000/svg"><path d="M47.65 59c-.33 0-.64-.09-.92-.24l-2.9-1.72c-.43-.24-.21-.33-.08-.37.59-.2.7-.24 1.3-.59.07-.04.16-.02.22.02l2.22 1.33c.1.05.2.05.26 0l8.7-5.03c.08-.04.13-.13.13-.24V42.12c0-.1-.05-.2-.14-.24l-8.69-5c-.08-.05-.2-.05-.26 0l-8.69 5c-.08.05-.13.15-.13.24v10.04c0 .09.05.2.13.24l2.38 1.37c1.28.66 2.09-.1 2.09-.87V43c0-.14.1-.27.26-.27h1.11c.13 0 .26.11.26.26v9.91c0 1.72-.93 2.72-2.57 2.72-.5 0-.9 0-2-.54l-2.29-1.3a1.84 1.84 0 0 1-.91-1.6V42.14c0-.65.35-1.26.91-1.59l8.7-5.03c.54-.3 1.28-.3 1.82 0l8.7 5.03c.56.33.9.94.9 1.6v10.03c0 .66-.34 1.27-.9 1.6l-8.7 5.02c-.28.13-.6.2-.91.2Zm2.67-6.9c-3.8 0-4.59-1.75-4.59-3.23 0-.13.1-.26.26-.26h1.13c.13 0 .24.09.24.22.18 1.15.68 1.72 2.99 1.72 1.83 0 2.61-.41 2.61-1.4 0-.56-.22-.97-3.07-1.26-2.37-.24-3.86-.76-3.86-2.65 0-1.77 1.49-2.81 3.97-2.81 2.79 0 4.16.95 4.33 3.05 0 .06-.02.13-.06.2-.05.03-.11.08-.18.08h-1.13a.25.25 0 0 1-.24-.2c-.26-1.2-.94-1.59-2.72-1.59-2 0-2.25.7-2.25 1.22 0 .63.29.83 2.99 1.18 2.68.35 3.94.85 3.94 2.72-.02 1.92-1.59 3-4.36 3ZM20.69 19.73c0-.39-.22-.76-.57-.96l-9.23-5.31a1.34 1.34 0 0 0-.5-.15h-.09c-.17 0-.35.06-.5.15L.57 18.77c-.35.2-.57.57-.57.96l.02 14.29c0 .2.11.4.28.48.18.1.4.1.55 0l5.49-3.14c.35-.2.56-.56.56-.96v-6.68c0-.4.22-.77.57-.96L9.8 21.4c.17-.11.37-.15.57-.15.2 0 .39.04.54.15l2.33 1.35c.35.2.57.57.57.96v6.68c0 .4.22.77.56.96l5.5 3.14c.17.1.38.1.56 0a.54.54 0 0 0 .28-.48l-.02-14.29ZM65.08.07a.6.6 0 0 0-.55 0 .57.57 0 0 0-.28.47V14.7c0 .13-.07.26-.2.35a.42.42 0 0 1-.39 0l-2.3-1.33a1.12 1.12 0 0 0-1.12 0l-9.23 5.34c-.35.2-.57.56-.57.95v10.65c0 .4.22.77.57.96l9.23 5.34a1.12 1.12 0 0 0 1.11 0l9.24-5.34c.34-.2.56-.56.56-.96V4.12c0-.42-.22-.79-.56-.98L65.08.07Zm-.85 27.09c0 .1-.05.2-.13.24l-3.16 1.83a.32.32 0 0 1-.29 0L57.5 27.4c-.1-.05-.13-.15-.13-.24V23.5c0-.11.04-.2.13-.24l3.15-1.83a.32.32 0 0 1 .29 0l3.16 1.83c.08.04.13.15.13.24v3.66ZM95.8 23.4c.34-.2.54-.56.54-.96v-2.59c0-.39-.22-.76-.54-.96l-9.17-5.31a1.12 1.12 0 0 0-1.11 0l-9.24 5.34c-.35.2-.56.56-.56.95v10.65c0 .4.21.77.56.96l9.17 5.23c.35.2.76.2 1.09 0l5.55-3.1a.54.54 0 0 0 .29-.47c0-.2-.11-.4-.29-.48l-9.27-5.34a.57.57 0 0 1-.29-.48v-3.33c0-.2.11-.39.29-.48l2.9-1.65a.53.53 0 0 1 .56 0l2.9 1.65c.17.11.28.29.28.48v2.61c0 .2.1.4.28.48.17.11.4.11.57 0l5.49-3.2Z" fill="#fff"/><path d="M85.95 22.91a.2.2 0 0 1 .21 0l1.77 1.02c.06.05.1.11.1.2v2.05c0 .08-.04.15-.1.2l-1.77 1.02a.2.2 0 0 1-.21 0l-1.77-1.03a.23.23 0 0 1-.1-.2v-2.04c0-.09.04-.15.1-.2l1.77-1.02ZM36.14 13.64a1.12 1.12 0 0 0-1.11 0l-9.17 5.29c-.35.2-.55.56-.55.96v10.6c0 .4.22.76.55.96l9.17 5.3a1.12 1.12 0 0 0 1.1 0l9.18-5.3c.34-.2.54-.57.54-.96V19.9c0-.4-.22-.77-.54-.96l-9.17-5.3Z" fill="#fff"/></svg>