<svg width="59" height="53" fill="none" xmlns="http://www.w3.org/2000/svg"><path d="M58.43 26.02c0-3.87-4.85-7.54-12.28-9.81 1.71-7.58.95-13.6-2.4-15.53A5.22 5.22 0 0 0 41.06 0v2.66c.55 0 1 .1 1.36.3 1.62.94 2.32 4.47 1.78 9.02-.13 1.12-.35 2.3-.61 3.5a57.7 57.7 0 0 0-7.56-1.3 58.1 58.1 0 0 0-4.96-5.95c3.88-3.6 7.53-5.58 10-5.58V0c-3.27 0-7.56 2.33-11.9 6.38C24.86 2.36 20.58.05 17.3.05V2.7c2.47 0 6.12 1.97 10 5.55a56.25 56.25 0 0 0-4.91 5.95c-2.7.28-5.24.72-7.58 1.3-.27-1.19-.47-2.34-.62-3.45-.56-4.55.13-8.08 1.74-9.03.36-.2.82-.3 1.37-.3V.06c-1 0-1.9.21-2.69.67-3.35 1.93-4.1 7.94-2.37 15.49C4.83 18.51 0 22.16 0 26.02c0 3.87 4.85 7.54 12.28 9.81-1.72 7.58-.95 13.6 2.4 15.53.78.46 1.68.67 2.68.67 3.28 0 7.57-2.33 11.9-6.38 4.34 4.02 8.62 6.33 11.9 6.33 1 0 1.9-.21 2.69-.66 3.35-1.93 4.1-7.95 2.37-15.5 7.38-2.27 12.2-5.94 12.2-9.8Zm-15.51-7.94a53.69 53.69 0 0 1-1.6 4.7 56.4 56.4 0 0 0-3.28-5.64c1.69.25 3.32.56 4.88.94Zm-5.45 12.68a63.41 63.41 0 0 1-2.87 4.55 61.93 61.93 0 0 1-10.75.01 65.67 65.67 0 0 1-5.36-9.26 62.11 62.11 0 0 1 5.34-9.3 61.97 61.97 0 0 1 10.74-.02 65.67 65.67 0 0 1 5.36 9.27c-.75 1.6-1.57 3.2-2.46 4.75Zm3.84-1.55c.65 1.6 1.2 3.2 1.65 4.74-1.56.38-3.2.7-4.91.96a65.78 65.78 0 0 0 3.26-5.7Zm-12.07 12.7a49.1 49.1 0 0 1-3.31-3.8 73.78 73.78 0 0 0 6.58 0 46.48 46.48 0 0 1-3.27 3.81Zm-8.86-7a53.7 53.7 0 0 1-4.89-.95c.44-1.53 1-3.12 1.61-4.7a56.37 56.37 0 0 0 3.28 5.65Zm8.8-24.79a49.08 49.08 0 0 1 3.3 3.81 73.62 73.62 0 0 0-6.58 0 46.49 46.49 0 0 1 3.28-3.8Zm-8.82 7.02a65.84 65.84 0 0 0-3.26 5.68c-.64-1.6-1.19-3.2-1.64-4.74 1.56-.37 3.2-.7 4.9-.94ZM9.6 32.04c-4.22-1.8-6.95-4.15-6.95-6.02 0-1.87 2.73-4.24 6.95-6.02 1.02-.45 2.14-.84 3.3-1.2a57.2 57.2 0 0 0 2.67 7.24 56.4 56.4 0 0 0-2.64 7.22 36.2 36.2 0 0 1-3.33-1.21Zm6.4 17.02c-1.62-.92-2.32-4.46-1.77-9.01.13-1.12.34-2.3.6-3.5 2.34.57 4.89 1.01 7.57 1.3 1.6 2.2 3.27 4.2 4.95 5.95-3.88 3.61-7.52 5.59-10 5.59a2.84 2.84 0 0 1-1.35-.33ZM44.24 40c.56 4.55-.13 8.09-1.74 9.03-.35.21-.82.3-1.37.3-2.46 0-6.12-1.96-10-5.54a56.24 56.24 0 0 0 4.92-5.95c2.69-.28 5.24-.72 7.57-1.3.28 1.2.5 2.35.62 3.46Zm4.59-7.94c-1.03.44-2.15.83-3.3 1.2A57.2 57.2 0 0 0 42.85 26c1.1-2.48 1.98-4.9 2.64-7.22 1.18.37 2.3.77 3.35 1.22 4.21 1.8 6.94 4.15 6.94 6.02-.01 1.87-2.74 4.24-6.95 6.03Z" fill="#fff"/><path d="M29.2 31.46a5.44 5.44 0 1 0 0-10.88 5.44 5.44 0 0 0 0 10.88Z" fill="#fff"/></svg>