<svg width="123" height="38" fill="none" xmlns="http://www.w3.org/2000/svg"><path fill-rule="evenodd" clip-rule="evenodd" d="M37.98 9.38a52.88 52.88 0 0 1 .02 2.45v15.64c0 .39 0 .77-.02 1.15-.02.83-.07 1.67-.22 2.5a7.97 7.97 0 0 1-6.64 6.64c-.83.15-1.67.2-2.5.22l-1.15.02H10.53l-1.15-.02c-.83-.02-1.67-.07-2.5-.22a7.97 7.97 0 0 1-6.64-6.64c-.15-.83-.2-1.67-.22-2.5A54.75 54.75 0 0 1 0 26.27V11.74a189.4 189.4 0 0 1 .02-2.36c.02-.83.07-1.67.22-2.5A7.97 7.97 0 0 1 6.88.24a14.49 14.49 0 0 1 2.5-.22L10.53 0H26.1a241.43 241.43 0 0 1 2.51.02c.83.02 1.67.07 2.5.22a7.97 7.97 0 0 1 6.64 6.64c.15.83.2 1.67.22 2.5Zm-7.4 13.9v.01c3.3 4.07 2.4 8.43 1.98 7.6-1.72-3.35-4.94-2.5-6.56-1.65a10.68 10.68 0 0 1-.44.25l-.03.01c-3.38 1.8-7.93 1.94-12.5-.03A20.13 20.13 0 0 1 4 21.7c1.04.77 2.16 1.45 3.36 2 4.83 2.27 9.68 2.11 13.12 0-4.89-3.76-8.97-8.67-12.1-12.64-.6-.72-1.15-1.46-1.6-2.23 3.74 3.44 9.66 7.75 11.78 8.95a85.15 85.15 0 0 1-8.3-10.46 83.06 83.06 0 0 0 13.66 11.22c.24.13.43.24.57.34.14-.35.26-.7.36-1.07 1.13-4.15-.14-8.9-3.03-12.82 6.59 3.96 10.48 11.49 8.88 17.85l-.1.37-.02.07Z" fill="#fff"/><path d="M52.44 24.62c.3 2.64 2.81 4.36 6.3 4.36 3.32 0 5.71-1.72 5.71-4.11 0-2.06-1.44-3.32-4.78-4.15l-3.23-.82c-4.65-1.15-6.74-3.25-6.74-6.7 0-4.25 3.72-7.2 9.01-7.2 5.13 0 8.78 2.96 8.9 7.24h-3.4c-.26-2.62-2.4-4.22-5.59-4.22-3.16 0-5.36 1.62-5.36 3.99 0 1.85 1.36 2.95 4.72 3.8l2.69.7c5.2 1.27 7.33 3.3 7.33 6.94 0 4.64-3.69 7.55-9.55 7.55-5.45 0-9.17-2.9-9.45-7.38h3.44ZM89.95 31h-3.42l-4-13.75h-.06L78.48 31h-3.42L70 13h3.32l3.52 14.45h.07L80.9 13h3.22l4.01 14.45h.07L91.72 13H95l-5.05 18ZM97 7.98A2 2 0 0 1 99 6a2 2 0 0 1 2 1.98 2 2 0 0 1-2 2 2 2 0 0 1-2-2Zm.35 4.88h3.3V31h-3.3V12.86ZM123 16.27v-2.7h-3.51V9.2h-3.31v4.38h-6.35v-1.6c.02-1.64.64-2.32 2.14-2.32.48 0 .97.05 1.37.12V7.14a11.5 11.5 0 0 0-1.76-.14c-3.54 0-5.04 1.5-5.04 4.9v1.67H104v2.7h2.54V31.9h3.3V16.27h6.34V27.1c0 3.54 1.34 4.91 4.82 4.91.75 0 1.6-.05 1.98-.14v-2.73c-.22.03-.89.08-1.25.08-1.55 0-2.24-.73-2.24-2.38V16.27H123Z" fill="#fff"/></svg>