<svg width="77" height="37" fill="none" xmlns="http://www.w3.org/2000/svg"><rect width="77" height="37" rx="18.5" fill="#E0FD60"/><path d="m22.66 25.26-4.02-13.97h1.96l3.2 11.5 3.39-11.5h1.87l3.4 11.5 3.19-11.5h1.96l-4.02 13.97h-2.15L28.13 14.1 24.8 25.26h-2.15Zm17.8-1.76h6.49v1.76H38.6V11.29h8.25v1.75h-6.39v4.3h5.89v1.73h-5.89v4.43Zm15.71-5.49a3.65 3.65 0 0 1 2.1 3.3 3.98 3.98 0 0 1-4.05 3.95h-6.03V11.29h5.59a3.85 3.85 0 0 1 3.91 3.8c0 1.25-.5 2.22-1.52 2.92Zm-2.39-4.99h-3.73v4.27h3.73c.59 0 1.08-.2 1.48-.61.4-.42.6-.92.6-1.52 0-.59-.21-1.09-.62-1.5-.4-.42-.89-.64-1.46-.64Zm.44 10.5a2.23 2.23 0 0 0 2.22-2.28c0-.62-.23-1.15-.66-1.59a2.09 2.09 0 0 0-1.56-.66h-4.17v4.53h4.17Z" fill="#0D0D0D"/></svg>