<svg width="110" height="59" fill="none" xmlns="http://www.w3.org/2000/svg"><path fill-rule="evenodd" clip-rule="evenodd" d="M70.83 43.12c-.01.4-.94.94-1.25 1.14-1.4.9-3.41 1.5-4.72.16-1.27-1.3-.92-3.72.45-4.58a5.78 5.78 0 0 1 2.52-.7c.75-.07 2.29-.2 2.99-.12l.01 4.1Zm-9.47-12.5.55 2.2c.92-.23 1.48-.56 2.87-.84a10.7 10.7 0 0 1 3.42-.19c1.17.16 1.82.6 2.23 1.5.2.44.3.96.37 1.51l-.02 1.79c-.07.04-3.5.26-3.98.32-3.42.45-6.85 2.35-6.32 6.72.33 2.73 1.77 3.97 4.47 4.3 1.47.18 2.45 0 3.67-.52.52-.22 1-.48 1.44-.76.58-.37 1.1-.9 1.2-.97l.37 1.87h2.77c.05-.57.01-7.57.01-8.35V35c0-1.35-.1-2.42-.72-3.42-1.88-3.05-5.96-2.9-9.33-2.08-.75.19-2.54.7-3 1.1M105.83 43.35c-.24.14-.5.39-.77.59a6.19 6.19 0 0 1-2.78 1.24c-3.05.38-3.77-2.83-2.8-4.5 1.06-1.76 4.38-1.66 6.36-1.67l-.01 4.34ZM96.36 30.6c.02.35.44 1.95.57 2.2.52-.1 1.65-.59 2.89-.84 1.8-.36 4.75-.66 5.62 1.31.35.81.6 3.05.36 3.3-.16.12-1.66.13-2 .16-1.99.12-3.63.28-5.35 1.2a5.28 5.28 0 0 0-2.97 5.72c.34 2.74 1.78 3.94 4.48 4.29a7.24 7.24 0 0 0 5.11-1.29c.7-.44.98-.82 1.22-.98l.35 1.88h2.78V35c0-1.41-.1-2.4-.73-3.45-1.82-3.04-6.02-2.84-9.31-2.05-.78.18-2.54.68-3.02 1.1ZM83.12 48h4.58c.15-.04.47-.76.56-.93.18-.35.31-.67.47-1.01.31-.66.6-1.4.87-2.1 1.1-2.9 2-6.07 2.76-9.1a62 62 0 0 0 1.07-4.85H90c-.75-.01-.44-.1-.64 1.39-.21 1.55-.54 3.1-.92 4.56-.28 1.06-2.22 7.84-2.61 8.28l-.98-3.63c-.37-1.21-.7-2.37-1.09-3.56l-1.69-5.27c-.2-.59-.37-1.22-.6-1.77h-4.04c.01.34 2.65 8.44 2.83 9 .49 1.55.96 2.96 1.43 4.48.47 1.49 1.01 3.03 1.43 4.5M54.4 29.27V45.4c0 3-.97 6.41-3.97 7.4.17.36 1.46 1.69 1.8 2.2a7.78 7.78 0 0 0 5.11-4.4c1.27-2.6 1.07-5.35 1.07-8.46 0-6.36.03-12.73 0-19.1-.47-.08-3.22-.02-4-.02v6.25M21.99 32l-1.25-1.81c-.4-.6-.8-1.26-1.18-1.92a17.86 17.86 0 0 1-1.92-4.3c-.7-2.8 1.03-4.55 2.55-6.4.23-.27.5-.53.75-.8 1.6-1.69 3.79-3.7 5.49-5.37a9.25 9.25 0 0 0 2.97-6.33c.11-1.44-.16-4.52-1.17-5.07.3 2.16.37 3.62-.5 5.79-1.01 2.51-2.65 4.02-4.55 5.5a95.44 95.44 0 0 0-5.44 4.68c-.87.83-2.33 2.3-2.94 3.75-.9 2.13-.01 3.53.95 5.02.46.71.93 1.32 1.42 1.96.57.74 1.08 1.25 1.53 1.83.48.62 1.08 1.19 1.6 1.77.33.37 1.36 1.47 1.69 1.7M40.6 50.52c.6.98 0 1.4-.84 1.79-3.71 1.73-16.29 2.05-20.21 2.11-4 .06-8.04-.1-11.9-.77-.63-.11-3.38-.55-3.51-1.28-.09-.45.4-.8.65-.95.9-.55 2.52-.93 3.64-1.14.33-.05 1.1-.14 1.35-.23-1.87-.28-7.8.72-9.1 2.55-.82 1.16.55 1.7 1.46 2 3.42 1.1 10.54 1.33 14.3 1.38 5.6.08 19.11.02 24.06-3.36.3-.2.86-.6.92-1 .07-.5-.52-.97-.83-1.1" fill="#fff"/><path fill-rule="evenodd" clip-rule="evenodd" d="M24.41 34c.6-.2 2.36-1.62 2.84-2.1.62-.63 1.69-1.8 1.78-3.17.08-1.23-.79-2.84-1.32-3.63-1.67-2.49-3.01-3.91-.74-6.67A17 17 0 0 1 29.5 16a48.1 48.1 0 0 1 4.38-3.04l1.54-.97c-.82.1-2.97.95-3.82 1.26a25.65 25.65 0 0 0-3.46 1.63c-3.42 1.94-6.79 4.98-5.4 9.18.92 2.84 3.64 4.54 3.44 6.67-.12 1.3-1.4 2.6-1.78 3.26M31.43 48.98a16.57 16.57 0 0 1-2.8-1.52c-.54-.35-.33-.32-1.03-.13-2.85.75-7.48.76-10.48.66-.77-.03-2.94-.1-3.38-.87-.28-.49.1-.84.25-1.12-1.96.42-3.96 2.16-1.23 3.6 3.07 1.63 9.53 1.65 12.9 1.01.95-.18 5.3-1.24 5.77-1.63ZM31.43 42.06a4.92 4.92 0 0 1-1.98-1.25c-.43-.4-.28-.3-1.19-.13-3.26.6-12.97 1.67-15.75.38-.36-.16-.78-.41-.8-.89-.03-.56.4-.86.57-1.17-2.23.3-4.38 2.72-1.38 3.87 3.37 1.3 10.65 1.34 14.24.83 1.19-.17 5.38-1.08 6.29-1.64Z" fill="#fff"/><path fill-rule="evenodd" clip-rule="evenodd" d="M34.43 34.13c-.43.02-1 .15-1.44.22-.5.07-.97.15-1.47.21-3 .43-6.34.77-9.35.94-2.34.14-11.2.44-12.52-.8-.1-.56.53-.9.92-1.12 1.52-.82 3.14-1.1 4.63-1.56-2.06-.2-7.26 1.3-9.14 2.47-2.03 1.27 1.35 1.78 2.62 1.96 7.42 1.03 14.35.48 21.68-.57 1.2-.17 1.45-.1 2.27-.62.56-.36 1.3-.73 1.8-1.13M8.43 57.07c2.08.95 6.61 1.53 8.96 1.74 3.31.3 6.94.22 10.25-.03 4.28-.33 9.35-.87 13.12-2.95.9-.5 2.51-1.69 2.67-2.83-.27.13-.5.4-.76.59-6.64 4.98-21.82 4.5-29.66 3.9l-4.58-.42M35.7 32.97c1.62-.53 3.47-.17 4.5.79 1.1 1.04 1.12 3.02.32 4.55-1.08 2.05-3.33 3.87-5.19 5.1-.32.21-.63.37-.9.59 1.2-.13 4.05-1.49 5.13-2.2 1.38-.9 2.93-2.2 3.57-3.91.9-2.42-.42-4.26-1.83-5.14-.8-.5-1.79-.8-2.92-.74-.88.03-2.29.4-2.68.96" fill="#fff"/></svg>